M48
METRIC,TZ
T1C0.600
T2C0.899
T3C1.100
T4C3.300
%
G90
G05
T1
X153.5Y-82.75
X154.2Y-80.95
X154.2Y-84.55
X156.Y-80.25
X156.Y-85.25
X157.8Y-80.95
X157.8Y-84.55
X158.5Y-82.75
X217.75Y-82.75
X218.45Y-80.95
X218.45Y-84.55
X220.25Y-80.25
X220.25Y-85.25
X222.05Y-80.95
X222.05Y-84.55
X222.75Y-82.75
T2
X167.462Y-84.851
X171.862Y-84.851
T3
X179.094Y-85.276
X188.094Y-85.276
X189.762Y-85.276
X190.62Y-120.972
X194.762Y-85.276
X199.62Y-120.972
T4
X156.Y-82.75
X220.25Y-82.75
T0
M30
