M48
METRIC,TZ
T1C0.400
T2C0.635
T3C0.700
T4C0.800
T5C1.016
T6C1.600
T7C2.489
%
G90
G05
T1
X154.178Y-102.489
X154.559Y-98.806
X158.496Y-103.378
X159.25Y-79.75
X159.766Y-89.281
X159.893Y-100.203
X160.528Y-99.187
X162.814Y-102.362
X164.084Y-100.203
X164.592Y-92.202
X164.592Y-94.742
X165.862Y-99.187
X166.878Y-93.218
X167.894Y-97.536
X168.91Y-89.408
X169.164Y-95.25
X169.164Y-97.536
X169.164Y-102.362
X170.053Y-93.345
X170.18Y-109.728
X170.282Y-99.314
X171.958Y-115.57
X172.212Y-101.854
X172.212Y-109.728
X175.26Y-107.95
X175.387Y-101.854
X176.784Y-96.647
X179.5Y-112.5
X179.5Y-114.
X181.991Y-120.396
X182.88Y-122.682
X183.5Y-114.
X183.515Y-109.22
X186.626Y-109.22
X186.944Y-92.71
X188.023Y-108.775
X188.214Y-93.98
X188.468Y-110.871
X188.976Y-127.
X189.23Y-91.948
X189.23Y-95.25
X189.484Y-113.538
X192.151Y-110.109
X193.675Y-106.236
X193.802Y-102.616
X193.802Y-104.14
X193.802Y-109.22
X194.119Y-108.267
X194.183Y-117.475
X194.564Y-99.822
X194.564Y-101.854
X194.564Y-103.378
X195.072Y-93.726
X195.834Y-108.839
X196.532Y-114.363
X197.358Y-109.474
X198.12Y-120.65
X198.247Y-93.345
X198.247Y-116.459
X198.247Y-117.475
X198.882Y-113.538
X199.136Y-82.804
X200.025Y-118.872
X200.152Y-96.52
X200.279Y-116.459
X200.406Y-101.854
X200.406Y-103.378
X201.168Y-102.616
X201.168Y-104.14
X201.676Y-118.618
X201.676Y-120.65
X201.803Y-94.742
X202.311Y-93.599
X203.962Y-83.439
X205.486Y-125.73
T2
X160.528Y-91.186
X160.528Y-92.456
X160.528Y-93.726
X160.528Y-94.996
X160.528Y-96.266
X161.798Y-91.186
X161.798Y-92.456
X161.798Y-93.726
X161.798Y-94.996
X161.798Y-96.266
T3
X180.594Y-87.376
X182.594Y-87.376
X184.594Y-87.376
X186.594Y-87.376
X191.262Y-87.376
X192.12Y-118.872
X193.262Y-87.376
X194.12Y-118.872
X196.12Y-118.872
X198.12Y-118.872
T4
X170.942Y-117.658
X170.942Y-124.658
T5
X156.718Y-116.586
X156.718Y-119.126
X156.718Y-121.666
X156.718Y-124.206
X160.274Y-116.586
X160.274Y-119.126
X160.274Y-121.666
X160.274Y-124.206
X162.814Y-116.586
X162.814Y-119.126
X162.814Y-121.666
X162.814Y-124.206
T6
X222.56Y-115.85
X222.56Y-115.85
T7
X210.559Y-88.65
X210.559Y-88.65
X210.56Y-116.35
X210.56Y-116.35
X214.56Y-89.15
X214.56Y-89.15
X218.56Y-88.637
X218.56Y-88.637
X218.56Y-116.363
X218.56Y-116.363
X226.56Y-116.35
X226.56Y-116.35
X226.561Y-88.65
X226.561Y-88.65
T0
M30
