G04 #@! TF.FileFunction,Legend,Top*
%FSLAX46Y46*%
G04 Gerber Fmt 4.6, Leading zero omitted, Abs format (unit mm)*
G04 Created by KiCad (PCBNEW 4.0.1-stable) date 29/01/2016 20:58:12*
%MOMM*%
G01*
G04 APERTURE LIST*
%ADD10C,0.100000*%
%ADD11C,0.150000*%
%ADD12C,0.200000*%
%ADD13C,0.250000*%
%ADD14C,0.300000*%
%ADD15C,0.152400*%
G04 APERTURE END LIST*
D10*
D11*
X199942857Y-109491667D02*
X200419048Y-109491667D01*
X199847619Y-109777381D02*
X200180952Y-108777381D01*
X200514286Y-109777381D01*
X200847619Y-109777381D02*
X200847619Y-108777381D01*
X201085714Y-108777381D01*
X201228572Y-108825000D01*
X201323810Y-108920238D01*
X201371429Y-109015476D01*
X201419048Y-109205952D01*
X201419048Y-109348810D01*
X201371429Y-109539286D01*
X201323810Y-109634524D01*
X201228572Y-109729762D01*
X201085714Y-109777381D01*
X200847619Y-109777381D01*
X201847619Y-109777381D02*
X201847619Y-108777381D01*
X202276190Y-109729762D02*
X202419047Y-109777381D01*
X202657143Y-109777381D01*
X202752381Y-109729762D01*
X202800000Y-109682143D01*
X202847619Y-109586905D01*
X202847619Y-109491667D01*
X202800000Y-109396429D01*
X202752381Y-109348810D01*
X202657143Y-109301190D01*
X202466666Y-109253571D01*
X202371428Y-109205952D01*
X202323809Y-109158333D01*
X202276190Y-109063095D01*
X202276190Y-108967857D01*
X202323809Y-108872619D01*
X202371428Y-108825000D01*
X202466666Y-108777381D01*
X202704762Y-108777381D01*
X202847619Y-108825000D01*
X203800000Y-109777381D02*
X203228571Y-109777381D01*
X203514285Y-109777381D02*
X203514285Y-108777381D01*
X203419047Y-108920238D01*
X203323809Y-109015476D01*
X203228571Y-109063095D01*
X204657143Y-108777381D02*
X204466666Y-108777381D01*
X204371428Y-108825000D01*
X204323809Y-108872619D01*
X204228571Y-109015476D01*
X204180952Y-109205952D01*
X204180952Y-109586905D01*
X204228571Y-109682143D01*
X204276190Y-109729762D01*
X204371428Y-109777381D01*
X204561905Y-109777381D01*
X204657143Y-109729762D01*
X204704762Y-109682143D01*
X204752381Y-109586905D01*
X204752381Y-109348810D01*
X204704762Y-109253571D01*
X204657143Y-109205952D01*
X204561905Y-109158333D01*
X204371428Y-109158333D01*
X204276190Y-109205952D01*
X204228571Y-109253571D01*
X204180952Y-109348810D01*
X205609524Y-109110714D02*
X205609524Y-109777381D01*
X205371428Y-108729762D02*
X205133333Y-109444048D01*
X205752381Y-109444048D01*
X206323809Y-108777381D02*
X206419048Y-108777381D01*
X206514286Y-108825000D01*
X206561905Y-108872619D01*
X206609524Y-108967857D01*
X206657143Y-109158333D01*
X206657143Y-109396429D01*
X206609524Y-109586905D01*
X206561905Y-109682143D01*
X206514286Y-109729762D01*
X206419048Y-109777381D01*
X206323809Y-109777381D01*
X206228571Y-109729762D01*
X206180952Y-109682143D01*
X206133333Y-109586905D01*
X206085714Y-109396429D01*
X206085714Y-109158333D01*
X206133333Y-108967857D01*
X206180952Y-108872619D01*
X206228571Y-108825000D01*
X206323809Y-108777381D01*
X207561905Y-108777381D02*
X207085714Y-108777381D01*
X207038095Y-109253571D01*
X207085714Y-109205952D01*
X207180952Y-109158333D01*
X207419048Y-109158333D01*
X207514286Y-109205952D01*
X207561905Y-109253571D01*
X207609524Y-109348810D01*
X207609524Y-109586905D01*
X207561905Y-109682143D01*
X207514286Y-109729762D01*
X207419048Y-109777381D01*
X207180952Y-109777381D01*
X207085714Y-109729762D01*
X207038095Y-109682143D01*
X203800000Y-110327381D02*
X203990477Y-110327381D01*
X204085715Y-110375000D01*
X204180953Y-110470238D01*
X204228572Y-110660714D01*
X204228572Y-110994048D01*
X204180953Y-111184524D01*
X204085715Y-111279762D01*
X203990477Y-111327381D01*
X203800000Y-111327381D01*
X203704762Y-111279762D01*
X203609524Y-111184524D01*
X203561905Y-110994048D01*
X203561905Y-110660714D01*
X203609524Y-110470238D01*
X203704762Y-110375000D01*
X203800000Y-110327381D01*
X204657143Y-111327381D02*
X204657143Y-110660714D01*
X204657143Y-110851190D02*
X204704762Y-110755952D01*
X204752381Y-110708333D01*
X204847619Y-110660714D01*
X204942858Y-110660714D01*
X205276191Y-111327381D02*
X205276191Y-110660714D01*
X205276191Y-110327381D02*
X205228572Y-110375000D01*
X205276191Y-110422619D01*
X205323810Y-110375000D01*
X205276191Y-110327381D01*
X205276191Y-110422619D01*
X206180953Y-110660714D02*
X206180953Y-111470238D01*
X206133334Y-111565476D01*
X206085715Y-111613095D01*
X205990476Y-111660714D01*
X205847619Y-111660714D01*
X205752381Y-111613095D01*
X206180953Y-111279762D02*
X206085715Y-111327381D01*
X205895238Y-111327381D01*
X205800000Y-111279762D01*
X205752381Y-111232143D01*
X205704762Y-111136905D01*
X205704762Y-110851190D01*
X205752381Y-110755952D01*
X205800000Y-110708333D01*
X205895238Y-110660714D01*
X206085715Y-110660714D01*
X206180953Y-110708333D01*
X206657143Y-111327381D02*
X206657143Y-110660714D01*
X206657143Y-110327381D02*
X206609524Y-110375000D01*
X206657143Y-110422619D01*
X206704762Y-110375000D01*
X206657143Y-110327381D01*
X206657143Y-110422619D01*
X207133333Y-110660714D02*
X207133333Y-111327381D01*
X207133333Y-110755952D02*
X207180952Y-110708333D01*
X207276190Y-110660714D01*
X207419048Y-110660714D01*
X207514286Y-110708333D01*
X207561905Y-110803571D01*
X207561905Y-111327381D01*
D12*
X208300000Y-113700000D02*
X207200000Y-111700000D01*
X203100000Y-118700000D02*
X202900000Y-119000000D01*
X203100000Y-118700000D02*
X202800000Y-118500000D01*
X203594427Y-117900000D02*
G75*
G03X203100000Y-118700000I-894427J0D01*
G01*
X202700000Y-116650000D02*
X202700000Y-116300000D01*
X203200000Y-115250000D02*
X203500000Y-115400000D01*
X203000000Y-115500000D02*
X203200000Y-115250000D01*
X202700000Y-115800000D02*
X202700000Y-113650000D01*
X202200000Y-115250000D02*
G75*
G03X203200000Y-115250000I500000J-250000D01*
G01*
X202700000Y-113650000D02*
X203450000Y-114400000D01*
X202700000Y-113650000D02*
X201950000Y-114400000D01*
X205350000Y-118400000D02*
X205100000Y-118700000D01*
X205000000Y-118200000D02*
X205350000Y-118400000D01*
X204800000Y-117900000D02*
X206950000Y-117900000D01*
X205350000Y-117400000D02*
G75*
G03X205350000Y-118400000I-250000J-500000D01*
G01*
D13*
X202700000Y-112376190D02*
X202700000Y-112852381D01*
X202366667Y-111852381D02*
X202700000Y-112376190D01*
X203033334Y-111852381D01*
X207592857Y-117352381D02*
X208259524Y-118352381D01*
X208259524Y-117352381D02*
X207592857Y-118352381D01*
X200990476Y-118852381D02*
X201657143Y-118852381D01*
X200990476Y-119852381D01*
X201657143Y-119852381D01*
D12*
X206950000Y-117900000D02*
X206200000Y-118650000D01*
X206950000Y-117900000D02*
X206200000Y-117150000D01*
X203950000Y-117900000D02*
X204300000Y-117900000D01*
X202950000Y-117900000D02*
G75*
G03X202950000Y-117900000I-250000J0D01*
G01*
D14*
X225928571Y-126071428D02*
X224428571Y-126071428D01*
X225928571Y-125357142D02*
X224428571Y-125357142D01*
X225500000Y-124857142D01*
X224428571Y-124357142D01*
X225928571Y-124357142D01*
X224428571Y-123642856D02*
X225642857Y-123642856D01*
X225785714Y-123571428D01*
X225857143Y-123499999D01*
X225928571Y-123357142D01*
X225928571Y-123071428D01*
X225857143Y-122928570D01*
X225785714Y-122857142D01*
X225642857Y-122785713D01*
X224428571Y-122785713D01*
X225142857Y-120928570D02*
X225142857Y-120428570D01*
X225928571Y-120214284D02*
X225928571Y-120928570D01*
X224428571Y-120928570D01*
X224428571Y-120214284D01*
X225928571Y-119571427D02*
X224928571Y-119571427D01*
X225214286Y-119571427D02*
X225071429Y-119499999D01*
X225000000Y-119428570D01*
X224928571Y-119285713D01*
X224928571Y-119142856D01*
X225928571Y-118642856D02*
X224928571Y-118642856D01*
X225214286Y-118642856D02*
X225071429Y-118571428D01*
X225000000Y-118499999D01*
X224928571Y-118357142D01*
X224928571Y-118214285D01*
X221928571Y-126000000D02*
X220428571Y-126000000D01*
X221928571Y-125285714D02*
X220428571Y-125285714D01*
X221500000Y-124785714D01*
X220428571Y-124285714D01*
X221928571Y-124285714D01*
X220428571Y-123571428D02*
X221642857Y-123571428D01*
X221785714Y-123500000D01*
X221857143Y-123428571D01*
X221928571Y-123285714D01*
X221928571Y-123000000D01*
X221857143Y-122857142D01*
X221785714Y-122785714D01*
X221642857Y-122714285D01*
X220428571Y-122714285D01*
X220428571Y-120571428D02*
X220428571Y-120285714D01*
X220500000Y-120142856D01*
X220642857Y-119999999D01*
X220928571Y-119928571D01*
X221428571Y-119928571D01*
X221714286Y-119999999D01*
X221857143Y-120142856D01*
X221928571Y-120285714D01*
X221928571Y-120571428D01*
X221857143Y-120714285D01*
X221714286Y-120857142D01*
X221428571Y-120928571D01*
X220928571Y-120928571D01*
X220642857Y-120857142D01*
X220500000Y-120714285D01*
X220428571Y-120571428D01*
X221928571Y-119285713D02*
X220428571Y-119285713D01*
X221928571Y-118428570D02*
X221071429Y-119071427D01*
X220428571Y-118428570D02*
X221285714Y-119285713D01*
X217857143Y-126214285D02*
X217928571Y-125999999D01*
X217928571Y-125642856D01*
X217857143Y-125499999D01*
X217785714Y-125428570D01*
X217642857Y-125357142D01*
X217500000Y-125357142D01*
X217357143Y-125428570D01*
X217285714Y-125499999D01*
X217214286Y-125642856D01*
X217142857Y-125928570D01*
X217071429Y-126071428D01*
X217000000Y-126142856D01*
X216857143Y-126214285D01*
X216714286Y-126214285D01*
X216571429Y-126142856D01*
X216500000Y-126071428D01*
X216428571Y-125928570D01*
X216428571Y-125571428D01*
X216500000Y-125357142D01*
X217857143Y-124142857D02*
X217928571Y-124285714D01*
X217928571Y-124571428D01*
X217857143Y-124714285D01*
X217714286Y-124785714D01*
X217142857Y-124785714D01*
X217000000Y-124714285D01*
X216928571Y-124571428D01*
X216928571Y-124285714D01*
X217000000Y-124142857D01*
X217142857Y-124071428D01*
X217285714Y-124071428D01*
X217428571Y-124785714D01*
X216928571Y-123428571D02*
X217928571Y-123428571D01*
X217071429Y-123428571D02*
X217000000Y-123357143D01*
X216928571Y-123214285D01*
X216928571Y-123000000D01*
X217000000Y-122857143D01*
X217142857Y-122785714D01*
X217928571Y-122785714D01*
X217857143Y-122142857D02*
X217928571Y-122000000D01*
X217928571Y-121714285D01*
X217857143Y-121571428D01*
X217714286Y-121500000D01*
X217642857Y-121500000D01*
X217500000Y-121571428D01*
X217428571Y-121714285D01*
X217428571Y-121928571D01*
X217357143Y-122071428D01*
X217214286Y-122142857D01*
X217142857Y-122142857D01*
X217000000Y-122071428D01*
X216928571Y-121928571D01*
X216928571Y-121714285D01*
X217000000Y-121571428D01*
X217142857Y-120857142D02*
X217142857Y-120357142D01*
X217928571Y-120142856D02*
X217928571Y-120857142D01*
X216428571Y-120857142D01*
X216428571Y-120142856D01*
X217928571Y-119499999D02*
X216928571Y-119499999D01*
X217214286Y-119499999D02*
X217071429Y-119428571D01*
X217000000Y-119357142D01*
X216928571Y-119214285D01*
X216928571Y-119071428D01*
X217928571Y-118571428D02*
X216928571Y-118571428D01*
X217214286Y-118571428D02*
X217071429Y-118500000D01*
X217000000Y-118428571D01*
X216928571Y-118285714D01*
X216928571Y-118142857D01*
X213857143Y-126142857D02*
X213928571Y-125928571D01*
X213928571Y-125571428D01*
X213857143Y-125428571D01*
X213785714Y-125357142D01*
X213642857Y-125285714D01*
X213500000Y-125285714D01*
X213357143Y-125357142D01*
X213285714Y-125428571D01*
X213214286Y-125571428D01*
X213142857Y-125857142D01*
X213071429Y-126000000D01*
X213000000Y-126071428D01*
X212857143Y-126142857D01*
X212714286Y-126142857D01*
X212571429Y-126071428D01*
X212500000Y-126000000D01*
X212428571Y-125857142D01*
X212428571Y-125500000D01*
X212500000Y-125285714D01*
X213857143Y-124071429D02*
X213928571Y-124214286D01*
X213928571Y-124500000D01*
X213857143Y-124642857D01*
X213714286Y-124714286D01*
X213142857Y-124714286D01*
X213000000Y-124642857D01*
X212928571Y-124500000D01*
X212928571Y-124214286D01*
X213000000Y-124071429D01*
X213142857Y-124000000D01*
X213285714Y-124000000D01*
X213428571Y-124714286D01*
X212928571Y-123357143D02*
X213928571Y-123357143D01*
X213071429Y-123357143D02*
X213000000Y-123285715D01*
X212928571Y-123142857D01*
X212928571Y-122928572D01*
X213000000Y-122785715D01*
X213142857Y-122714286D01*
X213928571Y-122714286D01*
X213857143Y-122071429D02*
X213928571Y-121928572D01*
X213928571Y-121642857D01*
X213857143Y-121500000D01*
X213714286Y-121428572D01*
X213642857Y-121428572D01*
X213500000Y-121500000D01*
X213428571Y-121642857D01*
X213428571Y-121857143D01*
X213357143Y-122000000D01*
X213214286Y-122071429D01*
X213142857Y-122071429D01*
X213000000Y-122000000D01*
X212928571Y-121857143D01*
X212928571Y-121642857D01*
X213000000Y-121500000D01*
X212428571Y-120500000D02*
X212428571Y-120214286D01*
X212500000Y-120071428D01*
X212642857Y-119928571D01*
X212928571Y-119857143D01*
X213428571Y-119857143D01*
X213714286Y-119928571D01*
X213857143Y-120071428D01*
X213928571Y-120214286D01*
X213928571Y-120500000D01*
X213857143Y-120642857D01*
X213714286Y-120785714D01*
X213428571Y-120857143D01*
X212928571Y-120857143D01*
X212642857Y-120785714D01*
X212500000Y-120642857D01*
X212428571Y-120500000D01*
X213928571Y-119214285D02*
X212428571Y-119214285D01*
X213928571Y-118357142D02*
X213071429Y-118999999D01*
X212428571Y-118357142D02*
X213285714Y-119214285D01*
X208428571Y-126107142D02*
X208428571Y-125178571D01*
X209000000Y-125678571D01*
X209000000Y-125464285D01*
X209071429Y-125321428D01*
X209142857Y-125249999D01*
X209285714Y-125178571D01*
X209642857Y-125178571D01*
X209785714Y-125249999D01*
X209857143Y-125321428D01*
X209928571Y-125464285D01*
X209928571Y-125892857D01*
X209857143Y-126035714D01*
X209785714Y-126107142D01*
X208428571Y-124750000D02*
X209928571Y-124250000D01*
X208428571Y-123750000D01*
X208428571Y-123392857D02*
X208428571Y-122464286D01*
X209000000Y-122964286D01*
X209000000Y-122750000D01*
X209071429Y-122607143D01*
X209142857Y-122535714D01*
X209285714Y-122464286D01*
X209642857Y-122464286D01*
X209785714Y-122535714D01*
X209857143Y-122607143D01*
X209928571Y-122750000D01*
X209928571Y-123178572D01*
X209857143Y-123321429D01*
X209785714Y-123392857D01*
X204428571Y-125285713D02*
X204428571Y-125999999D01*
X205142857Y-126071428D01*
X205071429Y-125999999D01*
X205000000Y-125857142D01*
X205000000Y-125499999D01*
X205071429Y-125357142D01*
X205142857Y-125285713D01*
X205285714Y-125214285D01*
X205642857Y-125214285D01*
X205785714Y-125285713D01*
X205857143Y-125357142D01*
X205928571Y-125499999D01*
X205928571Y-125857142D01*
X205857143Y-125999999D01*
X205785714Y-126071428D01*
X204428571Y-124785714D02*
X205928571Y-124285714D01*
X204428571Y-123785714D01*
D15*
X228546798Y-113865622D02*
X228546798Y-91158022D01*
X228546798Y-113865622D02*
X224533598Y-113865622D01*
X224533598Y-113865622D02*
X224533598Y-117853422D01*
X224533598Y-117853422D02*
X220545798Y-117853422D01*
X220545798Y-117853422D02*
X220545798Y-113865622D01*
X220545798Y-113865622D02*
X216557998Y-113865622D01*
X216557998Y-113865622D02*
X216557998Y-117853422D01*
X216557998Y-117853422D02*
X212570198Y-117853422D01*
X212570198Y-117853422D02*
X212570198Y-113865622D01*
X212570198Y-113865622D02*
X208556998Y-113865622D01*
X228546798Y-91158022D02*
X224533598Y-91158022D01*
X224533598Y-91158022D02*
X224533598Y-87170222D01*
X224533598Y-87170222D02*
X220545798Y-87170222D01*
X220545798Y-87170222D02*
X220545798Y-91158022D01*
X220545798Y-91158022D02*
X216557998Y-91158022D01*
X216557998Y-91158022D02*
X216557998Y-87170222D01*
X216557998Y-87170222D02*
X212570198Y-87170222D01*
X212570198Y-87170222D02*
X212570198Y-91158022D01*
X212570198Y-91158022D02*
X208556998Y-91158022D01*
X208556998Y-113865622D02*
X208556998Y-107896622D01*
X208556998Y-107896622D02*
X197761998Y-107896622D01*
X197761998Y-107896622D02*
X197761998Y-108887222D01*
X197761998Y-108887222D02*
X195221998Y-108887222D01*
X195221998Y-108887222D02*
X195221998Y-95907822D01*
X195221998Y-95907822D02*
X197761998Y-95907822D01*
X197761998Y-95907822D02*
X197761998Y-96898422D01*
X197761998Y-96898422D02*
X208556998Y-96898422D01*
X208556998Y-96898422D02*
X208556998Y-91158022D01*
D11*
X155748000Y-99822000D02*
X168148000Y-99822000D01*
X153948000Y-101222000D02*
X153948000Y-111322000D01*
X168148000Y-100972000D02*
X168148000Y-99822000D01*
X168148000Y-106672000D02*
X168148000Y-104022000D01*
X168148000Y-113822000D02*
X168148000Y-108472000D01*
X168148000Y-113822000D02*
X154748000Y-113822000D01*
X152948000Y-111322000D02*
X152948000Y-112522000D01*
X155748000Y-108822000D02*
G75*
G03X155748000Y-108822000I-200000J0D01*
G01*
X155648000Y-108822000D02*
G75*
G03X155648000Y-108822000I-100000J0D01*
G01*
X152948000Y-111322000D02*
X153948000Y-111322000D01*
X168148000Y-99822000D02*
X168048000Y-99822000D01*
X167294000Y-91536000D02*
X167294000Y-90836000D01*
X168494000Y-90836000D02*
X168494000Y-91536000D01*
X178600000Y-113650000D02*
X178600000Y-114350000D01*
X177400000Y-114350000D02*
X177400000Y-113650000D01*
X176900000Y-117850000D02*
X176900000Y-117150000D01*
X178100000Y-117150000D02*
X178100000Y-117850000D01*
X185900000Y-117850000D02*
X185900000Y-117150000D01*
X187100000Y-117150000D02*
X187100000Y-117850000D01*
X161386000Y-88738000D02*
X160686000Y-88738000D01*
X160686000Y-87538000D02*
X161386000Y-87538000D01*
X181100000Y-113650000D02*
X181100000Y-114350000D01*
X179900000Y-114350000D02*
X179900000Y-113650000D01*
X187100000Y-113650000D02*
X187100000Y-114350000D01*
X185900000Y-114350000D02*
X185900000Y-113650000D01*
X185100000Y-113650000D02*
X185100000Y-114350000D01*
X183900000Y-114350000D02*
X183900000Y-113650000D01*
X189100000Y-113650000D02*
X189100000Y-114350000D01*
X187900000Y-114350000D02*
X187900000Y-113650000D01*
X191671500Y-108679500D02*
X191671500Y-109379500D01*
X190471500Y-109379500D02*
X190471500Y-108679500D01*
X192150000Y-98178000D02*
X192850000Y-98178000D01*
X192850000Y-99378000D02*
X192150000Y-99378000D01*
X192150000Y-100178000D02*
X192850000Y-100178000D01*
X192850000Y-101378000D02*
X192150000Y-101378000D01*
X169326000Y-91536000D02*
X169326000Y-90836000D01*
X170526000Y-90836000D02*
X170526000Y-91536000D01*
X171358000Y-92298000D02*
X171358000Y-91598000D01*
X172558000Y-91598000D02*
X172558000Y-92298000D01*
X173070000Y-114900000D02*
X172370000Y-114900000D01*
X172370000Y-113700000D02*
X173070000Y-113700000D01*
X158334000Y-91344000D02*
X158334000Y-92044000D01*
X157134000Y-92044000D02*
X157134000Y-91344000D01*
X206858000Y-91647000D02*
X206158000Y-91647000D01*
X206158000Y-90447000D02*
X206858000Y-90447000D01*
X206598000Y-83150000D02*
X205898000Y-83150000D01*
X205898000Y-81950000D02*
X206598000Y-81950000D01*
X206598000Y-81118000D02*
X205898000Y-81118000D01*
X205898000Y-79918000D02*
X206598000Y-79918000D01*
X202911000Y-91344000D02*
X202911000Y-92044000D01*
X201711000Y-92044000D02*
X201711000Y-91344000D01*
X200060000Y-92044000D02*
X200060000Y-91344000D01*
X201260000Y-91344000D02*
X201260000Y-92044000D01*
X201772000Y-83150000D02*
X201072000Y-83150000D01*
X201072000Y-81950000D02*
X201772000Y-81950000D01*
X201772000Y-81118000D02*
X201072000Y-81118000D01*
X201072000Y-79918000D02*
X201772000Y-79918000D01*
X198536000Y-95219000D02*
X198536000Y-94519000D01*
X199736000Y-94519000D02*
X199736000Y-95219000D01*
X207550000Y-126100000D02*
X207550000Y-124200000D01*
X206450000Y-126100000D02*
X206450000Y-124200000D01*
X207000000Y-125200000D02*
X207000000Y-124750000D01*
X206750000Y-125250000D02*
X207250000Y-125250000D01*
X207000000Y-125250000D02*
X206750000Y-125000000D01*
X206750000Y-125000000D02*
X207250000Y-125000000D01*
X207250000Y-125000000D02*
X207000000Y-125250000D01*
X211550000Y-126100000D02*
X211550000Y-124200000D01*
X210450000Y-126100000D02*
X210450000Y-124200000D01*
X211000000Y-125200000D02*
X211000000Y-124750000D01*
X210750000Y-125250000D02*
X211250000Y-125250000D01*
X211000000Y-125250000D02*
X210750000Y-125000000D01*
X210750000Y-125000000D02*
X211250000Y-125000000D01*
X211250000Y-125000000D02*
X211000000Y-125250000D01*
X215550000Y-126100000D02*
X215550000Y-124200000D01*
X214450000Y-126100000D02*
X214450000Y-124200000D01*
X215000000Y-125200000D02*
X215000000Y-124750000D01*
X214750000Y-125250000D02*
X215250000Y-125250000D01*
X215000000Y-125250000D02*
X214750000Y-125000000D01*
X214750000Y-125000000D02*
X215250000Y-125000000D01*
X215250000Y-125000000D02*
X215000000Y-125250000D01*
X219550000Y-126100000D02*
X219550000Y-124200000D01*
X218450000Y-126100000D02*
X218450000Y-124200000D01*
X219000000Y-125200000D02*
X219000000Y-124750000D01*
X218750000Y-125250000D02*
X219250000Y-125250000D01*
X219000000Y-125250000D02*
X218750000Y-125000000D01*
X218750000Y-125000000D02*
X219250000Y-125000000D01*
X219250000Y-125000000D02*
X219000000Y-125250000D01*
X223550000Y-126100000D02*
X223550000Y-124200000D01*
X222450000Y-126100000D02*
X222450000Y-124200000D01*
X223000000Y-125200000D02*
X223000000Y-124750000D01*
X222750000Y-125250000D02*
X223250000Y-125250000D01*
X223000000Y-125250000D02*
X222750000Y-125000000D01*
X222750000Y-125000000D02*
X223250000Y-125000000D01*
X223250000Y-125000000D02*
X223000000Y-125250000D01*
X227550000Y-126100000D02*
X227550000Y-124200000D01*
X226450000Y-126100000D02*
X226450000Y-124200000D01*
X227000000Y-125200000D02*
X227000000Y-124750000D01*
X226750000Y-125250000D02*
X227250000Y-125250000D01*
X227000000Y-125250000D02*
X226750000Y-125000000D01*
X226750000Y-125000000D02*
X227250000Y-125000000D01*
X227250000Y-125000000D02*
X227000000Y-125250000D01*
X195861940Y-85703860D02*
X196212460Y-85703860D01*
X199362060Y-85703860D02*
X199011540Y-85703860D01*
X195861940Y-89753440D02*
X196212460Y-89753440D01*
X195861940Y-85252560D02*
X196212460Y-85252560D01*
X199362060Y-85252560D02*
X199011540Y-85252560D01*
X199362060Y-89753440D02*
X199011540Y-89753440D01*
X195861940Y-85252560D02*
X195861940Y-89753440D01*
X199362060Y-85252560D02*
X199362060Y-89753440D01*
X178076000Y-90786000D02*
G75*
G03X178076000Y-90786000I-100000J0D01*
G01*
X177726000Y-91436000D02*
X177726000Y-90936000D01*
X174826000Y-91436000D02*
X177726000Y-91436000D01*
X174826000Y-90936000D02*
X174826000Y-91436000D01*
X177726000Y-90936000D02*
X174826000Y-90936000D01*
X174250000Y-110500000D02*
G75*
G03X174250000Y-110500000I-250000J0D01*
G01*
X174111803Y-110500000D02*
G75*
G03X174111803Y-110500000I-111803J0D01*
G01*
X175000000Y-95500000D02*
X174000000Y-95500000D01*
X174000000Y-95500000D02*
X174000000Y-96500000D01*
X188000000Y-95500000D02*
X189000000Y-95500000D01*
X189000000Y-95500000D02*
X189000000Y-96500000D01*
X188000000Y-110500000D02*
X189000000Y-110500000D01*
X189000000Y-110500000D02*
X189000000Y-109500000D01*
X174000000Y-109500000D02*
X174000000Y-110500000D01*
X174000000Y-110500000D02*
X175000000Y-110500000D01*
X207958000Y-84547000D02*
G75*
G03X207958000Y-84547000I-200000J0D01*
G01*
X207858000Y-84547000D02*
G75*
G03X207858000Y-84547000I-100000J0D01*
G01*
X204758000Y-84547000D02*
X204758000Y-89047000D01*
X207758000Y-84547000D02*
X207758000Y-89047000D01*
X203138000Y-84582000D02*
G75*
G03X203138000Y-84582000I-200000J0D01*
G01*
X203038000Y-84582000D02*
G75*
G03X203038000Y-84582000I-100000J0D01*
G01*
X199938000Y-84582000D02*
X199938000Y-89082000D01*
X202938000Y-84582000D02*
X202938000Y-89082000D01*
X194321000Y-96131000D02*
G75*
G03X194321000Y-96131000I-150000J0D01*
G01*
X194221000Y-96131000D02*
G75*
G03X194221000Y-96131000I-50000J0D01*
G01*
X192671000Y-95881000D02*
X191921000Y-95881000D01*
X190921000Y-94881000D02*
X190921000Y-95131000D01*
X190921000Y-93631000D02*
X190921000Y-93881000D01*
X190921000Y-92381000D02*
X190921000Y-92631000D01*
X192671000Y-91631000D02*
X191921000Y-91631000D01*
X193671000Y-92631000D02*
X193671000Y-92381000D01*
X193671000Y-93881000D02*
X193671000Y-93631000D01*
X193671000Y-95131000D02*
X193671000Y-94881000D01*
D12*
X188594000Y-79176000D02*
X178594000Y-79176000D01*
X188594000Y-84376000D02*
X188594000Y-79176000D01*
X188594000Y-90876000D02*
X188594000Y-86176000D01*
X178594000Y-90876000D02*
X188594000Y-90876000D01*
X178594000Y-86176000D02*
X178594000Y-90876000D01*
X178594000Y-79176000D02*
X178594000Y-84376000D01*
D11*
X159448500Y-96266000D02*
X158623000Y-96266000D01*
X158623000Y-96266000D02*
X158623000Y-94805500D01*
X158623000Y-94805500D02*
X159448500Y-94805500D01*
X159448500Y-91186000D02*
X158623000Y-91186000D01*
X158623000Y-91186000D02*
X158623000Y-92646500D01*
X158623000Y-92646500D02*
X159448500Y-92646500D01*
X162877500Y-91186000D02*
X163703000Y-91186000D01*
X163703000Y-91186000D02*
X163703000Y-96266000D01*
X163703000Y-96266000D02*
X162877500Y-96266000D01*
X162877500Y-93726000D02*
X162877500Y-96901000D01*
X162877500Y-96901000D02*
X159448500Y-96901000D01*
X159448500Y-96901000D02*
X159448500Y-90551000D01*
X159448500Y-90551000D02*
X162877500Y-90551000D01*
X162877500Y-90551000D02*
X162877500Y-93726000D01*
D12*
X190120000Y-127072000D02*
X200120000Y-127072000D01*
X190120000Y-121872000D02*
X190120000Y-127072000D01*
X190120000Y-115372000D02*
X190120000Y-120072000D01*
X200120000Y-115372000D02*
X190120000Y-115372000D01*
X200120000Y-120072000D02*
X200120000Y-115372000D01*
X200120000Y-127072000D02*
X200120000Y-121872000D01*
D11*
X173512640Y-80400820D02*
X165811360Y-80400820D01*
X173512640Y-79400060D02*
X165811360Y-79400060D01*
X165811360Y-79400060D02*
X165811360Y-88599940D01*
X165811360Y-88599940D02*
X173512640Y-88599940D01*
X173512640Y-88599940D02*
X173512640Y-79400060D01*
X184120840Y-124348240D02*
X184169100Y-124348240D01*
X186919820Y-123647200D02*
X186919820Y-124348240D01*
X186919820Y-124348240D02*
X186670900Y-124348240D01*
X184120840Y-124348240D02*
X183920180Y-124348240D01*
X183920180Y-124348240D02*
X183920180Y-123647200D01*
X169172000Y-113625000D02*
X170172000Y-113625000D01*
X170172000Y-114975000D02*
X169172000Y-114975000D01*
X181825000Y-114500000D02*
X181825000Y-113500000D01*
X183175000Y-113500000D02*
X183175000Y-114500000D01*
X170775000Y-96512000D02*
X170775000Y-95512000D01*
X172125000Y-95512000D02*
X172125000Y-96512000D01*
X167219000Y-95750000D02*
X167219000Y-94750000D01*
X168569000Y-94750000D02*
X168569000Y-95750000D01*
X157694000Y-98798000D02*
X157694000Y-97798000D01*
X159044000Y-97798000D02*
X159044000Y-98798000D01*
X159345000Y-98798000D02*
X159345000Y-97798000D01*
X160695000Y-97798000D02*
X160695000Y-98798000D01*
X207675000Y-120750000D02*
X207675000Y-121750000D01*
X206325000Y-121750000D02*
X206325000Y-120750000D01*
X211675000Y-120750000D02*
X211675000Y-121750000D01*
X210325000Y-121750000D02*
X210325000Y-120750000D01*
X215675000Y-120750000D02*
X215675000Y-121750000D01*
X214325000Y-121750000D02*
X214325000Y-120750000D01*
X219675000Y-120750000D02*
X219675000Y-121750000D01*
X218325000Y-121750000D02*
X218325000Y-120750000D01*
X223675000Y-120750000D02*
X223675000Y-121750000D01*
X222325000Y-121750000D02*
X222325000Y-120750000D01*
X227675000Y-120750000D02*
X227675000Y-121750000D01*
X226325000Y-121750000D02*
X226325000Y-120750000D01*
X179840000Y-122007000D02*
X180840000Y-122007000D01*
X180840000Y-123357000D02*
X179840000Y-123357000D01*
X179840000Y-124039000D02*
X180840000Y-124039000D01*
X180840000Y-125389000D02*
X179840000Y-125389000D01*
X176942000Y-121158000D02*
G75*
G03X176942000Y-121158000I-6000000J0D01*
G01*
X162498000Y-81658000D02*
X162498000Y-84458000D01*
X162498000Y-84458000D02*
X161098000Y-84458000D01*
X161098000Y-84458000D02*
X161098000Y-81658000D01*
X161098000Y-81658000D02*
X162498000Y-81658000D01*
X163548000Y-86058000D02*
X162898000Y-86058000D01*
X160048000Y-86058000D02*
X160698000Y-86058000D01*
X160698000Y-80058000D02*
X160048000Y-80058000D01*
X163548000Y-80058000D02*
X162898000Y-80058000D01*
X163548000Y-86058000D02*
X163548000Y-80058000D01*
X160048000Y-80058000D02*
X160048000Y-86058000D01*
X179750000Y-115900000D02*
X184350000Y-115900000D01*
X184550000Y-116100000D02*
X184350000Y-115900000D01*
X179550000Y-116100000D02*
X179750000Y-115900000D01*
X179700000Y-119100000D02*
X184400000Y-119100000D01*
X179550000Y-118900000D02*
X179700000Y-119100000D01*
X184550000Y-118900000D02*
X184400000Y-119100000D01*
X199486000Y-93010000D02*
X199486000Y-91310000D01*
X198786000Y-93010000D02*
X198786000Y-91310000D01*
X178038000Y-84874000D02*
X178038000Y-83274000D01*
X176038000Y-84874000D02*
X176038000Y-83274000D01*
D12*
X195262000Y-79176000D02*
X189262000Y-79176000D01*
X195262000Y-84376000D02*
X195262000Y-79176000D01*
X195262000Y-90876000D02*
X195262000Y-86176000D01*
X189262000Y-90876000D02*
X195262000Y-90876000D01*
X189262000Y-86176000D02*
X189262000Y-90876000D01*
X189262000Y-79176000D02*
X189262000Y-84376000D01*
D11*
X157988000Y-122936000D02*
X157988000Y-115316000D01*
X155448000Y-122936000D02*
X155448000Y-115316000D01*
X155168000Y-125756000D02*
X155168000Y-124206000D01*
X157988000Y-115316000D02*
X155448000Y-115316000D01*
X155448000Y-122936000D02*
X157988000Y-122936000D01*
X158268000Y-124206000D02*
X158268000Y-125756000D01*
X158268000Y-125756000D02*
X155168000Y-125756000D01*
X164084000Y-122936000D02*
X164084000Y-115316000D01*
X164084000Y-115316000D02*
X159004000Y-115316000D01*
X159004000Y-115316000D02*
X159004000Y-125476000D01*
X159004000Y-125476000D02*
X161544000Y-125476000D01*
X162814000Y-125756000D02*
X164364000Y-125756000D01*
X161544000Y-125476000D02*
X161544000Y-122936000D01*
X161544000Y-122936000D02*
X164084000Y-122936000D01*
X164364000Y-125756000D02*
X164364000Y-124206000D01*
X198660500Y-115090500D02*
X197960500Y-115090500D01*
X197960500Y-113890500D02*
X198660500Y-113890500D01*
X199355000Y-111410000D02*
X199355000Y-112110000D01*
X198155000Y-112110000D02*
X198155000Y-111410000D01*
X191551000Y-112237000D02*
X191551000Y-111537000D01*
X192751000Y-111537000D02*
X192751000Y-112237000D01*
X227836000Y-82804000D02*
G75*
G03X227836000Y-82804000I-3300000J0D01*
G01*
X159764000Y-82804000D02*
G75*
G03X159764000Y-82804000I-3300000J0D01*
G01*
D10*
G36*
X155245736Y-98638875D02*
X155243366Y-98687746D01*
X155222523Y-98718489D01*
X155204842Y-98723000D01*
X155180121Y-98711207D01*
X155124208Y-98677355D01*
X155040543Y-98623733D01*
X154932563Y-98552633D01*
X154803707Y-98466343D01*
X154657414Y-98367155D01*
X154497121Y-98257357D01*
X154326267Y-98139240D01*
X154278800Y-98106240D01*
X154104527Y-97984672D01*
X153939338Y-97868944D01*
X153786790Y-97761580D01*
X153650440Y-97665108D01*
X153533844Y-97582054D01*
X153440559Y-97514943D01*
X153374142Y-97466302D01*
X153338149Y-97438657D01*
X153334542Y-97435530D01*
X153288296Y-97373875D01*
X153276334Y-97308989D01*
X153279800Y-97260576D01*
X153295620Y-97243531D01*
X153324288Y-97245565D01*
X153348883Y-97258810D01*
X153404107Y-97293668D01*
X153485971Y-97347387D01*
X153590488Y-97417211D01*
X153713669Y-97500388D01*
X153851526Y-97594163D01*
X154000070Y-97695783D01*
X154155314Y-97802495D01*
X154313270Y-97911543D01*
X154469948Y-98020175D01*
X154621361Y-98125637D01*
X154763521Y-98225175D01*
X154892440Y-98316035D01*
X155004128Y-98395464D01*
X155094598Y-98460707D01*
X155159862Y-98509012D01*
X155195932Y-98537623D01*
X155197209Y-98538770D01*
X155230170Y-98584882D01*
X155245736Y-98638875D01*
X155245736Y-98638875D01*
X155245736Y-98638875D01*
G37*
X155245736Y-98638875D02*
X155243366Y-98687746D01*
X155222523Y-98718489D01*
X155204842Y-98723000D01*
X155180121Y-98711207D01*
X155124208Y-98677355D01*
X155040543Y-98623733D01*
X154932563Y-98552633D01*
X154803707Y-98466343D01*
X154657414Y-98367155D01*
X154497121Y-98257357D01*
X154326267Y-98139240D01*
X154278800Y-98106240D01*
X154104527Y-97984672D01*
X153939338Y-97868944D01*
X153786790Y-97761580D01*
X153650440Y-97665108D01*
X153533844Y-97582054D01*
X153440559Y-97514943D01*
X153374142Y-97466302D01*
X153338149Y-97438657D01*
X153334542Y-97435530D01*
X153288296Y-97373875D01*
X153276334Y-97308989D01*
X153279800Y-97260576D01*
X153295620Y-97243531D01*
X153324288Y-97245565D01*
X153348883Y-97258810D01*
X153404107Y-97293668D01*
X153485971Y-97347387D01*
X153590488Y-97417211D01*
X153713669Y-97500388D01*
X153851526Y-97594163D01*
X154000070Y-97695783D01*
X154155314Y-97802495D01*
X154313270Y-97911543D01*
X154469948Y-98020175D01*
X154621361Y-98125637D01*
X154763521Y-98225175D01*
X154892440Y-98316035D01*
X155004128Y-98395464D01*
X155094598Y-98460707D01*
X155159862Y-98509012D01*
X155195932Y-98537623D01*
X155197209Y-98538770D01*
X155230170Y-98584882D01*
X155245736Y-98638875D01*
X155245736Y-98638875D01*
G36*
X155246748Y-98094801D02*
X155233434Y-98136726D01*
X155207253Y-98151500D01*
X155183072Y-98139695D01*
X155127671Y-98105795D01*
X155044447Y-98052075D01*
X154936797Y-97980809D01*
X154808118Y-97894270D01*
X154661806Y-97794732D01*
X154501259Y-97684469D01*
X154329873Y-97565756D01*
X154270628Y-97524494D01*
X154095603Y-97402236D01*
X153930001Y-97286186D01*
X153777289Y-97178802D01*
X153640936Y-97082539D01*
X153524410Y-96999853D01*
X153431180Y-96933202D01*
X153364714Y-96885041D01*
X153328480Y-96857826D01*
X153323959Y-96854055D01*
X153294669Y-96810728D01*
X153277541Y-96753450D01*
X153273346Y-96695206D01*
X153282852Y-96648978D01*
X153306834Y-96627751D01*
X153310508Y-96627500D01*
X153333315Y-96639257D01*
X153386766Y-96672714D01*
X153466927Y-96725147D01*
X153569864Y-96793835D01*
X153691641Y-96876054D01*
X153828326Y-96969082D01*
X153975982Y-97070196D01*
X154130677Y-97176674D01*
X154288476Y-97285792D01*
X154445444Y-97394828D01*
X154597647Y-97501060D01*
X154741151Y-97601765D01*
X154872021Y-97694219D01*
X154986324Y-97775701D01*
X155080124Y-97843488D01*
X155149488Y-97894856D01*
X155190480Y-97927085D01*
X155197209Y-97933151D01*
X155228047Y-97980230D01*
X155244756Y-98038374D01*
X155246748Y-98094801D01*
X155246748Y-98094801D01*
X155246748Y-98094801D01*
G37*
X155246748Y-98094801D02*
X155233434Y-98136726D01*
X155207253Y-98151500D01*
X155183072Y-98139695D01*
X155127671Y-98105795D01*
X155044447Y-98052075D01*
X154936797Y-97980809D01*
X154808118Y-97894270D01*
X154661806Y-97794732D01*
X154501259Y-97684469D01*
X154329873Y-97565756D01*
X154270628Y-97524494D01*
X154095603Y-97402236D01*
X153930001Y-97286186D01*
X153777289Y-97178802D01*
X153640936Y-97082539D01*
X153524410Y-96999853D01*
X153431180Y-96933202D01*
X153364714Y-96885041D01*
X153328480Y-96857826D01*
X153323959Y-96854055D01*
X153294669Y-96810728D01*
X153277541Y-96753450D01*
X153273346Y-96695206D01*
X153282852Y-96648978D01*
X153306834Y-96627751D01*
X153310508Y-96627500D01*
X153333315Y-96639257D01*
X153386766Y-96672714D01*
X153466927Y-96725147D01*
X153569864Y-96793835D01*
X153691641Y-96876054D01*
X153828326Y-96969082D01*
X153975982Y-97070196D01*
X154130677Y-97176674D01*
X154288476Y-97285792D01*
X154445444Y-97394828D01*
X154597647Y-97501060D01*
X154741151Y-97601765D01*
X154872021Y-97694219D01*
X154986324Y-97775701D01*
X155080124Y-97843488D01*
X155149488Y-97894856D01*
X155190480Y-97927085D01*
X155197209Y-97933151D01*
X155228047Y-97980230D01*
X155244756Y-98038374D01*
X155246748Y-98094801D01*
X155246748Y-98094801D01*
G36*
X155244834Y-97425960D02*
X155242604Y-97492050D01*
X155233617Y-97525823D01*
X155214423Y-97537161D01*
X155205856Y-97537667D01*
X155181394Y-97525859D01*
X155125726Y-97491954D01*
X155042258Y-97438228D01*
X154934395Y-97366958D01*
X154805543Y-97280421D01*
X154659109Y-97180891D01*
X154498499Y-97070647D01*
X154327118Y-96951965D01*
X154269231Y-96911651D01*
X154094292Y-96789432D01*
X153928747Y-96673358D01*
X153776074Y-96565897D01*
X153639748Y-96469514D01*
X153523246Y-96386676D01*
X153430046Y-96319850D01*
X153363623Y-96271503D01*
X153327456Y-96244102D01*
X153323038Y-96240346D01*
X153294389Y-96206540D01*
X153281232Y-96165392D01*
X153279624Y-96101774D01*
X153280705Y-96077904D01*
X153286162Y-96010443D01*
X153296180Y-95975413D01*
X153315065Y-95962911D01*
X153331081Y-95962059D01*
X153356579Y-95974166D01*
X153412554Y-96008120D01*
X153495032Y-96061161D01*
X153600040Y-96130532D01*
X153723606Y-96213472D01*
X153861756Y-96307225D01*
X154010519Y-96409030D01*
X154165920Y-96516130D01*
X154323989Y-96625765D01*
X154480751Y-96735178D01*
X154632233Y-96841609D01*
X154774464Y-96942300D01*
X154903471Y-97034492D01*
X155015280Y-97115426D01*
X155105919Y-97182344D01*
X155171415Y-97232487D01*
X155207795Y-97263097D01*
X155213054Y-97268881D01*
X155233116Y-97320395D01*
X155243914Y-97395912D01*
X155244834Y-97425960D01*
X155244834Y-97425960D01*
X155244834Y-97425960D01*
G37*
X155244834Y-97425960D02*
X155242604Y-97492050D01*
X155233617Y-97525823D01*
X155214423Y-97537161D01*
X155205856Y-97537667D01*
X155181394Y-97525859D01*
X155125726Y-97491954D01*
X155042258Y-97438228D01*
X154934395Y-97366958D01*
X154805543Y-97280421D01*
X154659109Y-97180891D01*
X154498499Y-97070647D01*
X154327118Y-96951965D01*
X154269231Y-96911651D01*
X154094292Y-96789432D01*
X153928747Y-96673358D01*
X153776074Y-96565897D01*
X153639748Y-96469514D01*
X153523246Y-96386676D01*
X153430046Y-96319850D01*
X153363623Y-96271503D01*
X153327456Y-96244102D01*
X153323038Y-96240346D01*
X153294389Y-96206540D01*
X153281232Y-96165392D01*
X153279624Y-96101774D01*
X153280705Y-96077904D01*
X153286162Y-96010443D01*
X153296180Y-95975413D01*
X153315065Y-95962911D01*
X153331081Y-95962059D01*
X153356579Y-95974166D01*
X153412554Y-96008120D01*
X153495032Y-96061161D01*
X153600040Y-96130532D01*
X153723606Y-96213472D01*
X153861756Y-96307225D01*
X154010519Y-96409030D01*
X154165920Y-96516130D01*
X154323989Y-96625765D01*
X154480751Y-96735178D01*
X154632233Y-96841609D01*
X154774464Y-96942300D01*
X154903471Y-97034492D01*
X155015280Y-97115426D01*
X155105919Y-97182344D01*
X155171415Y-97232487D01*
X155207795Y-97263097D01*
X155213054Y-97268881D01*
X155233116Y-97320395D01*
X155243914Y-97395912D01*
X155244834Y-97425960D01*
X155244834Y-97425960D01*
G36*
X155242199Y-96613405D02*
X155240412Y-96689997D01*
X155240400Y-96690272D01*
X155234093Y-96770389D01*
X155222762Y-96815715D01*
X155204411Y-96833683D01*
X155201719Y-96834339D01*
X155178535Y-96823757D01*
X155124105Y-96791054D01*
X155041802Y-96738476D01*
X154935000Y-96668269D01*
X154807070Y-96582678D01*
X154661387Y-96483947D01*
X154501323Y-96374322D01*
X154330250Y-96256048D01*
X154270386Y-96214408D01*
X154095256Y-96092031D01*
X153929565Y-95975523D01*
X153776790Y-95867378D01*
X153640408Y-95770093D01*
X153523895Y-95686161D01*
X153430728Y-95618078D01*
X153364383Y-95568339D01*
X153328338Y-95539438D01*
X153323959Y-95535211D01*
X153295110Y-95493263D01*
X153280573Y-95440578D01*
X153276347Y-95362070D01*
X153276334Y-95355655D01*
X153281688Y-95271067D01*
X153299559Y-95224355D01*
X153332654Y-95212216D01*
X153379906Y-95229290D01*
X153411414Y-95249033D01*
X153473029Y-95290191D01*
X153560602Y-95349854D01*
X153669985Y-95425113D01*
X153797028Y-95513058D01*
X153937584Y-95610780D01*
X154087504Y-95715370D01*
X154242638Y-95823918D01*
X154398839Y-95933514D01*
X154551958Y-96041250D01*
X154697845Y-96144215D01*
X154832353Y-96239501D01*
X154951334Y-96324198D01*
X155050637Y-96395396D01*
X155126115Y-96450187D01*
X155173619Y-96485661D01*
X155187483Y-96496937D01*
X155219553Y-96530826D01*
X155236519Y-96564998D01*
X155242199Y-96613405D01*
X155242199Y-96613405D01*
X155242199Y-96613405D01*
G37*
X155242199Y-96613405D02*
X155240412Y-96689997D01*
X155240400Y-96690272D01*
X155234093Y-96770389D01*
X155222762Y-96815715D01*
X155204411Y-96833683D01*
X155201719Y-96834339D01*
X155178535Y-96823757D01*
X155124105Y-96791054D01*
X155041802Y-96738476D01*
X154935000Y-96668269D01*
X154807070Y-96582678D01*
X154661387Y-96483947D01*
X154501323Y-96374322D01*
X154330250Y-96256048D01*
X154270386Y-96214408D01*
X154095256Y-96092031D01*
X153929565Y-95975523D01*
X153776790Y-95867378D01*
X153640408Y-95770093D01*
X153523895Y-95686161D01*
X153430728Y-95618078D01*
X153364383Y-95568339D01*
X153328338Y-95539438D01*
X153323959Y-95535211D01*
X153295110Y-95493263D01*
X153280573Y-95440578D01*
X153276347Y-95362070D01*
X153276334Y-95355655D01*
X153281688Y-95271067D01*
X153299559Y-95224355D01*
X153332654Y-95212216D01*
X153379906Y-95229290D01*
X153411414Y-95249033D01*
X153473029Y-95290191D01*
X153560602Y-95349854D01*
X153669985Y-95425113D01*
X153797028Y-95513058D01*
X153937584Y-95610780D01*
X154087504Y-95715370D01*
X154242638Y-95823918D01*
X154398839Y-95933514D01*
X154551958Y-96041250D01*
X154697845Y-96144215D01*
X154832353Y-96239501D01*
X154951334Y-96324198D01*
X155050637Y-96395396D01*
X155126115Y-96450187D01*
X155173619Y-96485661D01*
X155187483Y-96496937D01*
X155219553Y-96530826D01*
X155236519Y-96564998D01*
X155242199Y-96613405D01*
X155242199Y-96613405D01*
G36*
X155242455Y-95863004D02*
X155240416Y-95931445D01*
X155234431Y-96021917D01*
X155224470Y-96084698D01*
X155211685Y-96112798D01*
X155210424Y-96113391D01*
X155183054Y-96105780D01*
X155131077Y-96078623D01*
X155064195Y-96037173D01*
X155041091Y-96021655D01*
X154833644Y-95879206D01*
X154627312Y-95736717D01*
X154425343Y-95596486D01*
X154230983Y-95460811D01*
X154047481Y-95331988D01*
X153878083Y-95212316D01*
X153726037Y-95104091D01*
X153594590Y-95009612D01*
X153486990Y-94931175D01*
X153406484Y-94871078D01*
X153356320Y-94831619D01*
X153345125Y-94821796D01*
X153310428Y-94786494D01*
X153289927Y-94753934D01*
X153279898Y-94711636D01*
X153276615Y-94647124D01*
X153276334Y-94591348D01*
X153277070Y-94508540D01*
X153280955Y-94459385D01*
X153290499Y-94435205D01*
X153308213Y-94427325D01*
X153323959Y-94426812D01*
X153348170Y-94438643D01*
X153403016Y-94472108D01*
X153484510Y-94524471D01*
X153588671Y-94593000D01*
X153711514Y-94674959D01*
X153849055Y-94767614D01*
X153997312Y-94868231D01*
X154152301Y-94974075D01*
X154310037Y-95082413D01*
X154466538Y-95190509D01*
X154617820Y-95295630D01*
X154759899Y-95395042D01*
X154888791Y-95486008D01*
X155000514Y-95565797D01*
X155091083Y-95631672D01*
X155156515Y-95680900D01*
X155187500Y-95705949D01*
X155216549Y-95733609D01*
X155233641Y-95761543D01*
X155241400Y-95800943D01*
X155242455Y-95863004D01*
X155242455Y-95863004D01*
X155242455Y-95863004D01*
G37*
X155242455Y-95863004D02*
X155240416Y-95931445D01*
X155234431Y-96021917D01*
X155224470Y-96084698D01*
X155211685Y-96112798D01*
X155210424Y-96113391D01*
X155183054Y-96105780D01*
X155131077Y-96078623D01*
X155064195Y-96037173D01*
X155041091Y-96021655D01*
X154833644Y-95879206D01*
X154627312Y-95736717D01*
X154425343Y-95596486D01*
X154230983Y-95460811D01*
X154047481Y-95331988D01*
X153878083Y-95212316D01*
X153726037Y-95104091D01*
X153594590Y-95009612D01*
X153486990Y-94931175D01*
X153406484Y-94871078D01*
X153356320Y-94831619D01*
X153345125Y-94821796D01*
X153310428Y-94786494D01*
X153289927Y-94753934D01*
X153279898Y-94711636D01*
X153276615Y-94647124D01*
X153276334Y-94591348D01*
X153277070Y-94508540D01*
X153280955Y-94459385D01*
X153290499Y-94435205D01*
X153308213Y-94427325D01*
X153323959Y-94426812D01*
X153348170Y-94438643D01*
X153403016Y-94472108D01*
X153484510Y-94524471D01*
X153588671Y-94593000D01*
X153711514Y-94674959D01*
X153849055Y-94767614D01*
X153997312Y-94868231D01*
X154152301Y-94974075D01*
X154310037Y-95082413D01*
X154466538Y-95190509D01*
X154617820Y-95295630D01*
X154759899Y-95395042D01*
X154888791Y-95486008D01*
X155000514Y-95565797D01*
X155091083Y-95631672D01*
X155156515Y-95680900D01*
X155187500Y-95705949D01*
X155216549Y-95733609D01*
X155233641Y-95761543D01*
X155241400Y-95800943D01*
X155242455Y-95863004D01*
X155242455Y-95863004D01*
G36*
X155244954Y-87987874D02*
X155239602Y-91635645D01*
X155238922Y-92096080D01*
X155238277Y-92516045D01*
X155237643Y-92897406D01*
X155236995Y-93242026D01*
X155236311Y-93551770D01*
X155235564Y-93828502D01*
X155234730Y-94074087D01*
X155233786Y-94290388D01*
X155232707Y-94479271D01*
X155231469Y-94642598D01*
X155230047Y-94782235D01*
X155228417Y-94900047D01*
X155226555Y-94997896D01*
X155224436Y-95077648D01*
X155222036Y-95141166D01*
X155219330Y-95190315D01*
X155216295Y-95226960D01*
X155212906Y-95252965D01*
X155209138Y-95270193D01*
X155204968Y-95280509D01*
X155200371Y-95285778D01*
X155195322Y-95287864D01*
X155191917Y-95288380D01*
X155164543Y-95277381D01*
X155104647Y-95242682D01*
X155013974Y-95185439D01*
X154894271Y-95106807D01*
X154869973Y-95090463D01*
X154869973Y-88795833D01*
X154729320Y-88795833D01*
X154588667Y-88795833D01*
X154588667Y-88868539D01*
X154576661Y-88965783D01*
X154542835Y-89037782D01*
X154506067Y-89069894D01*
X154446567Y-89088846D01*
X154360079Y-89101361D01*
X154261547Y-89106794D01*
X154165919Y-89104495D01*
X154088141Y-89093820D01*
X154070153Y-89088763D01*
X154024589Y-89068484D01*
X153989984Y-89038681D01*
X153964872Y-88993854D01*
X153947789Y-88928501D01*
X153937270Y-88837120D01*
X153931851Y-88714210D01*
X153930090Y-88562690D01*
X153931932Y-88399848D01*
X153939192Y-88274828D01*
X153952742Y-88183364D01*
X153973458Y-88121188D01*
X154002214Y-88084034D01*
X154031110Y-88069590D01*
X154123276Y-88048050D01*
X154204856Y-88039607D01*
X154297676Y-88042626D01*
X154340214Y-88046416D01*
X154444190Y-88062503D01*
X154512451Y-88089568D01*
X154551168Y-88132440D01*
X154566510Y-88195950D01*
X154567500Y-88224333D01*
X154567500Y-88309000D01*
X154707981Y-88309000D01*
X154848463Y-88309000D01*
X154837767Y-88175752D01*
X154820581Y-88057841D01*
X154787310Y-87967074D01*
X154733476Y-87900415D01*
X154654605Y-87854829D01*
X154546219Y-87827282D01*
X154403842Y-87814739D01*
X154302917Y-87813145D01*
X154125624Y-87818981D01*
X153984684Y-87836939D01*
X153875330Y-87869090D01*
X153792793Y-87917503D01*
X153732303Y-87984249D01*
X153689092Y-88071399D01*
X153685591Y-88081163D01*
X153664973Y-88170234D01*
X153651861Y-88290487D01*
X153645889Y-88432268D01*
X153646692Y-88585918D01*
X153653904Y-88741780D01*
X153667159Y-88890198D01*
X153686091Y-89021514D01*
X153710337Y-89126071D01*
X153726845Y-89170990D01*
X153772365Y-89227881D01*
X153848483Y-89278321D01*
X153943467Y-89315206D01*
X153978733Y-89323547D01*
X154083871Y-89336948D01*
X154213168Y-89342825D01*
X154349129Y-89341193D01*
X154474259Y-89332068D01*
X154536727Y-89323028D01*
X154615280Y-89305396D01*
X154684836Y-89284531D01*
X154717677Y-89271044D01*
X154778915Y-89215934D01*
X154823981Y-89123307D01*
X154852049Y-88995103D01*
X154857603Y-88943390D01*
X154869973Y-88795833D01*
X154869973Y-95090463D01*
X154868120Y-95089217D01*
X154868120Y-89367333D01*
X154728393Y-89367333D01*
X154588667Y-89367333D01*
X154587745Y-89880625D01*
X154586650Y-90074004D01*
X154583839Y-90229581D01*
X154578872Y-90351868D01*
X154571308Y-90445378D01*
X154560709Y-90514623D01*
X154546632Y-90564114D01*
X154528640Y-90598364D01*
X154516312Y-90612947D01*
X154476703Y-90630743D01*
X154406521Y-90643029D01*
X154317143Y-90649787D01*
X154219947Y-90650996D01*
X154126308Y-90646638D01*
X154047604Y-90636692D01*
X153995210Y-90621141D01*
X153984661Y-90613853D01*
X153963572Y-90586242D01*
X153946843Y-90547101D01*
X153934008Y-90491788D01*
X153924597Y-90415658D01*
X153918143Y-90314069D01*
X153914179Y-90182376D01*
X153912236Y-90015936D01*
X153911838Y-89891208D01*
X153911334Y-89367333D01*
X153772073Y-89367333D01*
X153632813Y-89367333D01*
X153640176Y-89986458D01*
X153642742Y-90172457D01*
X153645721Y-90320933D01*
X153649398Y-90436695D01*
X153654059Y-90524553D01*
X153659989Y-90589317D01*
X153667473Y-90635797D01*
X153676795Y-90668802D01*
X153681265Y-90679667D01*
X153734924Y-90766172D01*
X153808794Y-90824558D01*
X153906029Y-90861423D01*
X153989105Y-90876079D01*
X154100571Y-90885338D01*
X154226814Y-90889073D01*
X154354219Y-90887155D01*
X154469171Y-90879456D01*
X154550583Y-90867508D01*
X154662066Y-90833412D01*
X154741262Y-90782303D01*
X154796869Y-90707779D01*
X154812507Y-90674648D01*
X154823915Y-90643022D01*
X154833059Y-90604537D01*
X154840287Y-90553987D01*
X154845950Y-90486169D01*
X154850396Y-90395879D01*
X154853974Y-90277913D01*
X154857034Y-90127067D01*
X154859391Y-89975875D01*
X154868120Y-89367333D01*
X154868120Y-95089217D01*
X154863834Y-95086334D01*
X154863834Y-92711667D01*
X154863834Y-92595250D01*
X154863834Y-92478833D01*
X154852885Y-92478833D01*
X154852885Y-91987994D01*
X154846344Y-91872183D01*
X154826036Y-91772717D01*
X154793535Y-91700686D01*
X154784519Y-91689188D01*
X154735633Y-91648123D01*
X154667233Y-91616583D01*
X154572492Y-91592456D01*
X154444587Y-91573629D01*
X154393502Y-91568175D01*
X154243023Y-91552912D01*
X154129471Y-91539419D01*
X154047647Y-91525284D01*
X153992354Y-91508091D01*
X153958391Y-91485428D01*
X153940560Y-91454878D01*
X153933663Y-91414029D01*
X153932501Y-91360466D01*
X153932500Y-91354096D01*
X153937897Y-91264702D01*
X153958729Y-91207112D01*
X154001961Y-91171652D01*
X154074556Y-91148651D01*
X154081490Y-91147134D01*
X154229522Y-91125757D01*
X154352417Y-91129486D01*
X154447509Y-91157354D01*
X154512129Y-91208394D01*
X154543613Y-91281640D01*
X154546334Y-91315662D01*
X154550799Y-91337876D01*
X154570344Y-91350361D01*
X154614191Y-91355831D01*
X154686878Y-91357000D01*
X154827423Y-91357000D01*
X154814990Y-91236537D01*
X154792122Y-91125687D01*
X154745978Y-91044030D01*
X154670424Y-90982049D01*
X154640218Y-90965417D01*
X154601303Y-90948326D01*
X154557719Y-90936474D01*
X154501062Y-90928949D01*
X154422928Y-90924839D01*
X154314914Y-90923233D01*
X154250000Y-90923083D01*
X154090230Y-90925444D01*
X153966648Y-90933750D01*
X153873307Y-90949840D01*
X153804261Y-90975549D01*
X153753565Y-91012715D01*
X153715271Y-91063176D01*
X153699273Y-91093231D01*
X153670734Y-91182892D01*
X153655378Y-91296213D01*
X153653655Y-91416480D01*
X153666016Y-91526980D01*
X153685745Y-91595691D01*
X153716460Y-91647839D01*
X153763501Y-91689685D01*
X153831701Y-91722813D01*
X153925894Y-91748809D01*
X154050911Y-91769258D01*
X154211585Y-91785746D01*
X154281750Y-91791212D01*
X154372823Y-91800713D01*
X154452133Y-91814132D01*
X154506910Y-91829116D01*
X154518886Y-91834890D01*
X154559907Y-91883547D01*
X154580261Y-91954864D01*
X154581053Y-92035973D01*
X154563384Y-92114006D01*
X154528357Y-92176094D01*
X154487059Y-92206237D01*
X154441968Y-92214865D01*
X154366739Y-92220419D01*
X154273499Y-92222242D01*
X154211052Y-92221182D01*
X154111150Y-92217238D01*
X154044450Y-92211643D01*
X154001825Y-92202394D01*
X153974144Y-92187487D01*
X153952278Y-92164919D01*
X153951760Y-92164280D01*
X153922957Y-92107153D01*
X153911334Y-92042572D01*
X153911334Y-91970833D01*
X153771311Y-91970833D01*
X153631289Y-91970833D01*
X153646194Y-92092542D01*
X153673614Y-92226813D01*
X153718480Y-92323017D01*
X153781099Y-92381796D01*
X153786198Y-92384547D01*
X153872782Y-92415496D01*
X153990411Y-92437966D01*
X154128498Y-92451165D01*
X154276457Y-92454299D01*
X154423704Y-92446573D01*
X154497369Y-92437871D01*
X154624021Y-92411923D01*
X154715506Y-92372326D01*
X154778323Y-92312917D01*
X154818971Y-92227532D01*
X154843951Y-92110007D01*
X154844086Y-92109059D01*
X154852885Y-91987994D01*
X154852885Y-92478833D01*
X154250000Y-92478833D01*
X153636167Y-92478833D01*
X153636167Y-93230250D01*
X153636167Y-93981667D01*
X153773750Y-93981667D01*
X153911334Y-93981667D01*
X153911334Y-93674750D01*
X153911334Y-93367833D01*
X154324084Y-93367833D01*
X154736834Y-93367833D01*
X154736834Y-93251417D01*
X154736834Y-93135000D01*
X154324084Y-93135000D01*
X153911334Y-93135000D01*
X153911334Y-92923333D01*
X153911334Y-92711667D01*
X154387584Y-92711667D01*
X154863834Y-92711667D01*
X154863834Y-95086334D01*
X154747285Y-95007942D01*
X154574761Y-94889998D01*
X154378447Y-94754132D01*
X154271167Y-94679316D01*
X154097757Y-94557837D01*
X153933415Y-94442206D01*
X153781709Y-94334969D01*
X153646207Y-94238670D01*
X153530475Y-94155855D01*
X153438080Y-94089068D01*
X153372591Y-94040855D01*
X153337574Y-94013760D01*
X153334542Y-94011100D01*
X153276334Y-93956911D01*
X153276334Y-90984085D01*
X153276334Y-88011259D01*
X153331221Y-87900838D01*
X153353573Y-87858055D01*
X153393974Y-87783001D01*
X153449850Y-87680374D01*
X153518624Y-87554871D01*
X153597720Y-87411192D01*
X153684561Y-87254032D01*
X153776572Y-87088091D01*
X153801401Y-87043411D01*
X153906967Y-86854043D01*
X153994297Y-86698753D01*
X154065331Y-86574405D01*
X154122012Y-86477862D01*
X154166279Y-86405986D01*
X154200073Y-86355641D01*
X154225337Y-86323689D01*
X154244010Y-86306994D01*
X154258034Y-86302420D01*
X154259804Y-86302577D01*
X154277764Y-86314387D01*
X154305897Y-86347671D01*
X154345809Y-86404973D01*
X154399108Y-86488838D01*
X154467398Y-86601809D01*
X154552288Y-86746430D01*
X154655383Y-86925245D01*
X154678088Y-86964917D01*
X154769916Y-87125974D01*
X154859242Y-87283485D01*
X154942818Y-87431663D01*
X155017398Y-87564721D01*
X155079735Y-87676872D01*
X155126582Y-87762329D01*
X155149107Y-87804479D01*
X155244954Y-87987874D01*
X155244954Y-87987874D01*
X155244954Y-87987874D01*
G37*
X155244954Y-87987874D02*
X155239602Y-91635645D01*
X155238922Y-92096080D01*
X155238277Y-92516045D01*
X155237643Y-92897406D01*
X155236995Y-93242026D01*
X155236311Y-93551770D01*
X155235564Y-93828502D01*
X155234730Y-94074087D01*
X155233786Y-94290388D01*
X155232707Y-94479271D01*
X155231469Y-94642598D01*
X155230047Y-94782235D01*
X155228417Y-94900047D01*
X155226555Y-94997896D01*
X155224436Y-95077648D01*
X155222036Y-95141166D01*
X155219330Y-95190315D01*
X155216295Y-95226960D01*
X155212906Y-95252965D01*
X155209138Y-95270193D01*
X155204968Y-95280509D01*
X155200371Y-95285778D01*
X155195322Y-95287864D01*
X155191917Y-95288380D01*
X155164543Y-95277381D01*
X155104647Y-95242682D01*
X155013974Y-95185439D01*
X154894271Y-95106807D01*
X154869973Y-95090463D01*
X154869973Y-88795833D01*
X154729320Y-88795833D01*
X154588667Y-88795833D01*
X154588667Y-88868539D01*
X154576661Y-88965783D01*
X154542835Y-89037782D01*
X154506067Y-89069894D01*
X154446567Y-89088846D01*
X154360079Y-89101361D01*
X154261547Y-89106794D01*
X154165919Y-89104495D01*
X154088141Y-89093820D01*
X154070153Y-89088763D01*
X154024589Y-89068484D01*
X153989984Y-89038681D01*
X153964872Y-88993854D01*
X153947789Y-88928501D01*
X153937270Y-88837120D01*
X153931851Y-88714210D01*
X153930090Y-88562690D01*
X153931932Y-88399848D01*
X153939192Y-88274828D01*
X153952742Y-88183364D01*
X153973458Y-88121188D01*
X154002214Y-88084034D01*
X154031110Y-88069590D01*
X154123276Y-88048050D01*
X154204856Y-88039607D01*
X154297676Y-88042626D01*
X154340214Y-88046416D01*
X154444190Y-88062503D01*
X154512451Y-88089568D01*
X154551168Y-88132440D01*
X154566510Y-88195950D01*
X154567500Y-88224333D01*
X154567500Y-88309000D01*
X154707981Y-88309000D01*
X154848463Y-88309000D01*
X154837767Y-88175752D01*
X154820581Y-88057841D01*
X154787310Y-87967074D01*
X154733476Y-87900415D01*
X154654605Y-87854829D01*
X154546219Y-87827282D01*
X154403842Y-87814739D01*
X154302917Y-87813145D01*
X154125624Y-87818981D01*
X153984684Y-87836939D01*
X153875330Y-87869090D01*
X153792793Y-87917503D01*
X153732303Y-87984249D01*
X153689092Y-88071399D01*
X153685591Y-88081163D01*
X153664973Y-88170234D01*
X153651861Y-88290487D01*
X153645889Y-88432268D01*
X153646692Y-88585918D01*
X153653904Y-88741780D01*
X153667159Y-88890198D01*
X153686091Y-89021514D01*
X153710337Y-89126071D01*
X153726845Y-89170990D01*
X153772365Y-89227881D01*
X153848483Y-89278321D01*
X153943467Y-89315206D01*
X153978733Y-89323547D01*
X154083871Y-89336948D01*
X154213168Y-89342825D01*
X154349129Y-89341193D01*
X154474259Y-89332068D01*
X154536727Y-89323028D01*
X154615280Y-89305396D01*
X154684836Y-89284531D01*
X154717677Y-89271044D01*
X154778915Y-89215934D01*
X154823981Y-89123307D01*
X154852049Y-88995103D01*
X154857603Y-88943390D01*
X154869973Y-88795833D01*
X154869973Y-95090463D01*
X154868120Y-95089217D01*
X154868120Y-89367333D01*
X154728393Y-89367333D01*
X154588667Y-89367333D01*
X154587745Y-89880625D01*
X154586650Y-90074004D01*
X154583839Y-90229581D01*
X154578872Y-90351868D01*
X154571308Y-90445378D01*
X154560709Y-90514623D01*
X154546632Y-90564114D01*
X154528640Y-90598364D01*
X154516312Y-90612947D01*
X154476703Y-90630743D01*
X154406521Y-90643029D01*
X154317143Y-90649787D01*
X154219947Y-90650996D01*
X154126308Y-90646638D01*
X154047604Y-90636692D01*
X153995210Y-90621141D01*
X153984661Y-90613853D01*
X153963572Y-90586242D01*
X153946843Y-90547101D01*
X153934008Y-90491788D01*
X153924597Y-90415658D01*
X153918143Y-90314069D01*
X153914179Y-90182376D01*
X153912236Y-90015936D01*
X153911838Y-89891208D01*
X153911334Y-89367333D01*
X153772073Y-89367333D01*
X153632813Y-89367333D01*
X153640176Y-89986458D01*
X153642742Y-90172457D01*
X153645721Y-90320933D01*
X153649398Y-90436695D01*
X153654059Y-90524553D01*
X153659989Y-90589317D01*
X153667473Y-90635797D01*
X153676795Y-90668802D01*
X153681265Y-90679667D01*
X153734924Y-90766172D01*
X153808794Y-90824558D01*
X153906029Y-90861423D01*
X153989105Y-90876079D01*
X154100571Y-90885338D01*
X154226814Y-90889073D01*
X154354219Y-90887155D01*
X154469171Y-90879456D01*
X154550583Y-90867508D01*
X154662066Y-90833412D01*
X154741262Y-90782303D01*
X154796869Y-90707779D01*
X154812507Y-90674648D01*
X154823915Y-90643022D01*
X154833059Y-90604537D01*
X154840287Y-90553987D01*
X154845950Y-90486169D01*
X154850396Y-90395879D01*
X154853974Y-90277913D01*
X154857034Y-90127067D01*
X154859391Y-89975875D01*
X154868120Y-89367333D01*
X154868120Y-95089217D01*
X154863834Y-95086334D01*
X154863834Y-92711667D01*
X154863834Y-92595250D01*
X154863834Y-92478833D01*
X154852885Y-92478833D01*
X154852885Y-91987994D01*
X154846344Y-91872183D01*
X154826036Y-91772717D01*
X154793535Y-91700686D01*
X154784519Y-91689188D01*
X154735633Y-91648123D01*
X154667233Y-91616583D01*
X154572492Y-91592456D01*
X154444587Y-91573629D01*
X154393502Y-91568175D01*
X154243023Y-91552912D01*
X154129471Y-91539419D01*
X154047647Y-91525284D01*
X153992354Y-91508091D01*
X153958391Y-91485428D01*
X153940560Y-91454878D01*
X153933663Y-91414029D01*
X153932501Y-91360466D01*
X153932500Y-91354096D01*
X153937897Y-91264702D01*
X153958729Y-91207112D01*
X154001961Y-91171652D01*
X154074556Y-91148651D01*
X154081490Y-91147134D01*
X154229522Y-91125757D01*
X154352417Y-91129486D01*
X154447509Y-91157354D01*
X154512129Y-91208394D01*
X154543613Y-91281640D01*
X154546334Y-91315662D01*
X154550799Y-91337876D01*
X154570344Y-91350361D01*
X154614191Y-91355831D01*
X154686878Y-91357000D01*
X154827423Y-91357000D01*
X154814990Y-91236537D01*
X154792122Y-91125687D01*
X154745978Y-91044030D01*
X154670424Y-90982049D01*
X154640218Y-90965417D01*
X154601303Y-90948326D01*
X154557719Y-90936474D01*
X154501062Y-90928949D01*
X154422928Y-90924839D01*
X154314914Y-90923233D01*
X154250000Y-90923083D01*
X154090230Y-90925444D01*
X153966648Y-90933750D01*
X153873307Y-90949840D01*
X153804261Y-90975549D01*
X153753565Y-91012715D01*
X153715271Y-91063176D01*
X153699273Y-91093231D01*
X153670734Y-91182892D01*
X153655378Y-91296213D01*
X153653655Y-91416480D01*
X153666016Y-91526980D01*
X153685745Y-91595691D01*
X153716460Y-91647839D01*
X153763501Y-91689685D01*
X153831701Y-91722813D01*
X153925894Y-91748809D01*
X154050911Y-91769258D01*
X154211585Y-91785746D01*
X154281750Y-91791212D01*
X154372823Y-91800713D01*
X154452133Y-91814132D01*
X154506910Y-91829116D01*
X154518886Y-91834890D01*
X154559907Y-91883547D01*
X154580261Y-91954864D01*
X154581053Y-92035973D01*
X154563384Y-92114006D01*
X154528357Y-92176094D01*
X154487059Y-92206237D01*
X154441968Y-92214865D01*
X154366739Y-92220419D01*
X154273499Y-92222242D01*
X154211052Y-92221182D01*
X154111150Y-92217238D01*
X154044450Y-92211643D01*
X154001825Y-92202394D01*
X153974144Y-92187487D01*
X153952278Y-92164919D01*
X153951760Y-92164280D01*
X153922957Y-92107153D01*
X153911334Y-92042572D01*
X153911334Y-91970833D01*
X153771311Y-91970833D01*
X153631289Y-91970833D01*
X153646194Y-92092542D01*
X153673614Y-92226813D01*
X153718480Y-92323017D01*
X153781099Y-92381796D01*
X153786198Y-92384547D01*
X153872782Y-92415496D01*
X153990411Y-92437966D01*
X154128498Y-92451165D01*
X154276457Y-92454299D01*
X154423704Y-92446573D01*
X154497369Y-92437871D01*
X154624021Y-92411923D01*
X154715506Y-92372326D01*
X154778323Y-92312917D01*
X154818971Y-92227532D01*
X154843951Y-92110007D01*
X154844086Y-92109059D01*
X154852885Y-91987994D01*
X154852885Y-92478833D01*
X154250000Y-92478833D01*
X153636167Y-92478833D01*
X153636167Y-93230250D01*
X153636167Y-93981667D01*
X153773750Y-93981667D01*
X153911334Y-93981667D01*
X153911334Y-93674750D01*
X153911334Y-93367833D01*
X154324084Y-93367833D01*
X154736834Y-93367833D01*
X154736834Y-93251417D01*
X154736834Y-93135000D01*
X154324084Y-93135000D01*
X153911334Y-93135000D01*
X153911334Y-92923333D01*
X153911334Y-92711667D01*
X154387584Y-92711667D01*
X154863834Y-92711667D01*
X154863834Y-95086334D01*
X154747285Y-95007942D01*
X154574761Y-94889998D01*
X154378447Y-94754132D01*
X154271167Y-94679316D01*
X154097757Y-94557837D01*
X153933415Y-94442206D01*
X153781709Y-94334969D01*
X153646207Y-94238670D01*
X153530475Y-94155855D01*
X153438080Y-94089068D01*
X153372591Y-94040855D01*
X153337574Y-94013760D01*
X153334542Y-94011100D01*
X153276334Y-93956911D01*
X153276334Y-90984085D01*
X153276334Y-88011259D01*
X153331221Y-87900838D01*
X153353573Y-87858055D01*
X153393974Y-87783001D01*
X153449850Y-87680374D01*
X153518624Y-87554871D01*
X153597720Y-87411192D01*
X153684561Y-87254032D01*
X153776572Y-87088091D01*
X153801401Y-87043411D01*
X153906967Y-86854043D01*
X153994297Y-86698753D01*
X154065331Y-86574405D01*
X154122012Y-86477862D01*
X154166279Y-86405986D01*
X154200073Y-86355641D01*
X154225337Y-86323689D01*
X154244010Y-86306994D01*
X154258034Y-86302420D01*
X154259804Y-86302577D01*
X154277764Y-86314387D01*
X154305897Y-86347671D01*
X154345809Y-86404973D01*
X154399108Y-86488838D01*
X154467398Y-86601809D01*
X154552288Y-86746430D01*
X154655383Y-86925245D01*
X154678088Y-86964917D01*
X154769916Y-87125974D01*
X154859242Y-87283485D01*
X154942818Y-87431663D01*
X155017398Y-87564721D01*
X155079735Y-87676872D01*
X155126582Y-87762329D01*
X155149107Y-87804479D01*
X155244954Y-87987874D01*
X155244954Y-87987874D01*
D11*
X156043000Y-98798000D02*
X156043000Y-97798000D01*
X157393000Y-97798000D02*
X157393000Y-98798000D01*
D12*
X194767200Y-110744000D02*
G75*
G03X194767200Y-110744000I-101600J0D01*
G01*
D11*
X217797994Y-101952392D02*
X217797994Y-102761916D01*
X217845613Y-102857154D01*
X217893232Y-102904773D01*
X217988470Y-102952392D01*
X218178947Y-102952392D01*
X218274185Y-102904773D01*
X218321804Y-102857154D01*
X218369423Y-102761916D01*
X218369423Y-101952392D01*
X218797994Y-102047630D02*
X218845613Y-102000011D01*
X218940851Y-101952392D01*
X219178947Y-101952392D01*
X219274185Y-102000011D01*
X219321804Y-102047630D01*
X219369423Y-102142868D01*
X219369423Y-102238106D01*
X219321804Y-102380963D01*
X218750375Y-102952392D01*
X219369423Y-102952392D01*
X159091381Y-107314905D02*
X159900905Y-107314905D01*
X159996143Y-107267286D01*
X160043762Y-107219667D01*
X160091381Y-107124429D01*
X160091381Y-106933952D01*
X160043762Y-106838714D01*
X159996143Y-106791095D01*
X159900905Y-106743476D01*
X159091381Y-106743476D01*
X160091381Y-105743476D02*
X160091381Y-106314905D01*
X160091381Y-106029191D02*
X159091381Y-106029191D01*
X159234238Y-106124429D01*
X159329476Y-106219667D01*
X159377095Y-106314905D01*
X164900381Y-113179143D02*
X163900381Y-113179143D01*
X164614667Y-112845809D01*
X163900381Y-112512476D01*
X164900381Y-112512476D01*
X164900381Y-112036286D02*
X163900381Y-112036286D01*
X164805143Y-110988667D02*
X164852762Y-111036286D01*
X164900381Y-111179143D01*
X164900381Y-111274381D01*
X164852762Y-111417239D01*
X164757524Y-111512477D01*
X164662286Y-111560096D01*
X164471810Y-111607715D01*
X164328952Y-111607715D01*
X164138476Y-111560096D01*
X164043238Y-111512477D01*
X163948000Y-111417239D01*
X163900381Y-111274381D01*
X163900381Y-111179143D01*
X163948000Y-111036286D01*
X163995619Y-110988667D01*
X164900381Y-109988667D02*
X164424190Y-110322001D01*
X164900381Y-110560096D02*
X163900381Y-110560096D01*
X163900381Y-110179143D01*
X163948000Y-110083905D01*
X163995619Y-110036286D01*
X164090857Y-109988667D01*
X164233714Y-109988667D01*
X164328952Y-110036286D01*
X164376571Y-110083905D01*
X164424190Y-110179143D01*
X164424190Y-110560096D01*
X163900381Y-109369620D02*
X163900381Y-109179143D01*
X163948000Y-109083905D01*
X164043238Y-108988667D01*
X164233714Y-108941048D01*
X164567048Y-108941048D01*
X164757524Y-108988667D01*
X164852762Y-109083905D01*
X164900381Y-109179143D01*
X164900381Y-109369620D01*
X164852762Y-109464858D01*
X164757524Y-109560096D01*
X164567048Y-109607715D01*
X164233714Y-109607715D01*
X164043238Y-109560096D01*
X163948000Y-109464858D01*
X163900381Y-109369620D01*
X164852762Y-108560096D02*
X164900381Y-108417239D01*
X164900381Y-108179143D01*
X164852762Y-108083905D01*
X164805143Y-108036286D01*
X164709905Y-107988667D01*
X164614667Y-107988667D01*
X164519429Y-108036286D01*
X164471810Y-108083905D01*
X164424190Y-108179143D01*
X164376571Y-108369620D01*
X164328952Y-108464858D01*
X164281333Y-108512477D01*
X164186095Y-108560096D01*
X164090857Y-108560096D01*
X163995619Y-108512477D01*
X163948000Y-108464858D01*
X163900381Y-108369620D01*
X163900381Y-108131524D01*
X163948000Y-107988667D01*
X164900381Y-107560096D02*
X163900381Y-107560096D01*
X163900381Y-107322001D01*
X163948000Y-107179143D01*
X164043238Y-107083905D01*
X164138476Y-107036286D01*
X164328952Y-106988667D01*
X164471810Y-106988667D01*
X164662286Y-107036286D01*
X164757524Y-107083905D01*
X164852762Y-107179143D01*
X164900381Y-107322001D01*
X164900381Y-107560096D01*
X164995619Y-106798191D02*
X164995619Y-106036286D01*
X164900381Y-105798191D02*
X163900381Y-105798191D01*
X164376571Y-105798191D02*
X164376571Y-105226762D01*
X164900381Y-105226762D02*
X163900381Y-105226762D01*
X163900381Y-104560096D02*
X163900381Y-104369619D01*
X163948000Y-104274381D01*
X164043238Y-104179143D01*
X164233714Y-104131524D01*
X164567048Y-104131524D01*
X164757524Y-104179143D01*
X164852762Y-104274381D01*
X164900381Y-104369619D01*
X164900381Y-104560096D01*
X164852762Y-104655334D01*
X164757524Y-104750572D01*
X164567048Y-104798191D01*
X164233714Y-104798191D01*
X164043238Y-104750572D01*
X163948000Y-104655334D01*
X163900381Y-104560096D01*
X164900381Y-103226762D02*
X164900381Y-103702953D01*
X163900381Y-103702953D01*
X164900381Y-102893429D02*
X163900381Y-102893429D01*
X163900381Y-102655334D01*
X163948000Y-102512476D01*
X164043238Y-102417238D01*
X164138476Y-102369619D01*
X164328952Y-102322000D01*
X164471810Y-102322000D01*
X164662286Y-102369619D01*
X164757524Y-102417238D01*
X164852762Y-102512476D01*
X164900381Y-102655334D01*
X164900381Y-102893429D01*
X164376571Y-101893429D02*
X164376571Y-101560095D01*
X164900381Y-101417238D02*
X164900381Y-101893429D01*
X163900381Y-101893429D01*
X163900381Y-101417238D01*
X164900381Y-100417238D02*
X164424190Y-100750572D01*
X164900381Y-100988667D02*
X163900381Y-100988667D01*
X163900381Y-100607714D01*
X163948000Y-100512476D01*
X163995619Y-100464857D01*
X164090857Y-100417238D01*
X164233714Y-100417238D01*
X164328952Y-100464857D01*
X164376571Y-100512476D01*
X164424190Y-100607714D01*
X164424190Y-100988667D01*
X166727143Y-91352666D02*
X166774762Y-91400285D01*
X166822381Y-91543142D01*
X166822381Y-91638380D01*
X166774762Y-91781238D01*
X166679524Y-91876476D01*
X166584286Y-91924095D01*
X166393810Y-91971714D01*
X166250952Y-91971714D01*
X166060476Y-91924095D01*
X165965238Y-91876476D01*
X165870000Y-91781238D01*
X165822381Y-91638380D01*
X165822381Y-91543142D01*
X165870000Y-91400285D01*
X165917619Y-91352666D01*
X166822381Y-90400285D02*
X166822381Y-90971714D01*
X166822381Y-90686000D02*
X165822381Y-90686000D01*
X165965238Y-90781238D01*
X166060476Y-90876476D01*
X166108095Y-90971714D01*
X177833334Y-112357143D02*
X177785715Y-112404762D01*
X177642858Y-112452381D01*
X177547620Y-112452381D01*
X177404762Y-112404762D01*
X177309524Y-112309524D01*
X177261905Y-112214286D01*
X177214286Y-112023810D01*
X177214286Y-111880952D01*
X177261905Y-111690476D01*
X177309524Y-111595238D01*
X177404762Y-111500000D01*
X177547620Y-111452381D01*
X177642858Y-111452381D01*
X177785715Y-111500000D01*
X177833334Y-111547619D01*
X178214286Y-111547619D02*
X178261905Y-111500000D01*
X178357143Y-111452381D01*
X178595239Y-111452381D01*
X178690477Y-111500000D01*
X178738096Y-111547619D01*
X178785715Y-111642857D01*
X178785715Y-111738095D01*
X178738096Y-111880952D01*
X178166667Y-112452381D01*
X178785715Y-112452381D01*
X176633143Y-116752666D02*
X176680762Y-116800285D01*
X176728381Y-116943142D01*
X176728381Y-117038380D01*
X176680762Y-117181238D01*
X176585524Y-117276476D01*
X176490286Y-117324095D01*
X176299810Y-117371714D01*
X176156952Y-117371714D01*
X175966476Y-117324095D01*
X175871238Y-117276476D01*
X175776000Y-117181238D01*
X175728381Y-117038380D01*
X175728381Y-116943142D01*
X175776000Y-116800285D01*
X175823619Y-116752666D01*
X175728381Y-116419333D02*
X175728381Y-115800285D01*
X176109333Y-116133619D01*
X176109333Y-115990761D01*
X176156952Y-115895523D01*
X176204571Y-115847904D01*
X176299810Y-115800285D01*
X176537905Y-115800285D01*
X176633143Y-115847904D01*
X176680762Y-115895523D01*
X176728381Y-115990761D01*
X176728381Y-116276476D01*
X176680762Y-116371714D01*
X176633143Y-116419333D01*
X188357143Y-117666666D02*
X188404762Y-117714285D01*
X188452381Y-117857142D01*
X188452381Y-117952380D01*
X188404762Y-118095238D01*
X188309524Y-118190476D01*
X188214286Y-118238095D01*
X188023810Y-118285714D01*
X187880952Y-118285714D01*
X187690476Y-118238095D01*
X187595238Y-118190476D01*
X187500000Y-118095238D01*
X187452381Y-117952380D01*
X187452381Y-117857142D01*
X187500000Y-117714285D01*
X187547619Y-117666666D01*
X187785714Y-116809523D02*
X188452381Y-116809523D01*
X187404762Y-117047619D02*
X188119048Y-117285714D01*
X188119048Y-116666666D01*
X160869334Y-90019143D02*
X160821715Y-90066762D01*
X160678858Y-90114381D01*
X160583620Y-90114381D01*
X160440762Y-90066762D01*
X160345524Y-89971524D01*
X160297905Y-89876286D01*
X160250286Y-89685810D01*
X160250286Y-89542952D01*
X160297905Y-89352476D01*
X160345524Y-89257238D01*
X160440762Y-89162000D01*
X160583620Y-89114381D01*
X160678858Y-89114381D01*
X160821715Y-89162000D01*
X160869334Y-89209619D01*
X161774096Y-89114381D02*
X161297905Y-89114381D01*
X161250286Y-89590571D01*
X161297905Y-89542952D01*
X161393143Y-89495333D01*
X161631239Y-89495333D01*
X161726477Y-89542952D01*
X161774096Y-89590571D01*
X161821715Y-89685810D01*
X161821715Y-89923905D01*
X161774096Y-90019143D01*
X161726477Y-90066762D01*
X161631239Y-90114381D01*
X161393143Y-90114381D01*
X161297905Y-90066762D01*
X161250286Y-90019143D01*
X180333334Y-112357143D02*
X180285715Y-112404762D01*
X180142858Y-112452381D01*
X180047620Y-112452381D01*
X179904762Y-112404762D01*
X179809524Y-112309524D01*
X179761905Y-112214286D01*
X179714286Y-112023810D01*
X179714286Y-111880952D01*
X179761905Y-111690476D01*
X179809524Y-111595238D01*
X179904762Y-111500000D01*
X180047620Y-111452381D01*
X180142858Y-111452381D01*
X180285715Y-111500000D01*
X180333334Y-111547619D01*
X181190477Y-111452381D02*
X181000000Y-111452381D01*
X180904762Y-111500000D01*
X180857143Y-111547619D01*
X180761905Y-111690476D01*
X180714286Y-111880952D01*
X180714286Y-112261905D01*
X180761905Y-112357143D01*
X180809524Y-112404762D01*
X180904762Y-112452381D01*
X181095239Y-112452381D01*
X181190477Y-112404762D01*
X181238096Y-112357143D01*
X181285715Y-112261905D01*
X181285715Y-112023810D01*
X181238096Y-111928571D01*
X181190477Y-111880952D01*
X181095239Y-111833333D01*
X180904762Y-111833333D01*
X180809524Y-111880952D01*
X180761905Y-111928571D01*
X180714286Y-112023810D01*
X186333334Y-112357143D02*
X186285715Y-112404762D01*
X186142858Y-112452381D01*
X186047620Y-112452381D01*
X185904762Y-112404762D01*
X185809524Y-112309524D01*
X185761905Y-112214286D01*
X185714286Y-112023810D01*
X185714286Y-111880952D01*
X185761905Y-111690476D01*
X185809524Y-111595238D01*
X185904762Y-111500000D01*
X186047620Y-111452381D01*
X186142858Y-111452381D01*
X186285715Y-111500000D01*
X186333334Y-111547619D01*
X186666667Y-111452381D02*
X187333334Y-111452381D01*
X186904762Y-112452381D01*
X184333334Y-112357143D02*
X184285715Y-112404762D01*
X184142858Y-112452381D01*
X184047620Y-112452381D01*
X183904762Y-112404762D01*
X183809524Y-112309524D01*
X183761905Y-112214286D01*
X183714286Y-112023810D01*
X183714286Y-111880952D01*
X183761905Y-111690476D01*
X183809524Y-111595238D01*
X183904762Y-111500000D01*
X184047620Y-111452381D01*
X184142858Y-111452381D01*
X184285715Y-111500000D01*
X184333334Y-111547619D01*
X184904762Y-111880952D02*
X184809524Y-111833333D01*
X184761905Y-111785714D01*
X184714286Y-111690476D01*
X184714286Y-111642857D01*
X184761905Y-111547619D01*
X184809524Y-111500000D01*
X184904762Y-111452381D01*
X185095239Y-111452381D01*
X185190477Y-111500000D01*
X185238096Y-111547619D01*
X185285715Y-111642857D01*
X185285715Y-111690476D01*
X185238096Y-111785714D01*
X185190477Y-111833333D01*
X185095239Y-111880952D01*
X184904762Y-111880952D01*
X184809524Y-111928571D01*
X184761905Y-111976190D01*
X184714286Y-112071429D01*
X184714286Y-112261905D01*
X184761905Y-112357143D01*
X184809524Y-112404762D01*
X184904762Y-112452381D01*
X185095239Y-112452381D01*
X185190477Y-112404762D01*
X185238096Y-112357143D01*
X185285715Y-112261905D01*
X185285715Y-112071429D01*
X185238096Y-111976190D01*
X185190477Y-111928571D01*
X185095239Y-111880952D01*
X188333334Y-112357143D02*
X188285715Y-112404762D01*
X188142858Y-112452381D01*
X188047620Y-112452381D01*
X187904762Y-112404762D01*
X187809524Y-112309524D01*
X187761905Y-112214286D01*
X187714286Y-112023810D01*
X187714286Y-111880952D01*
X187761905Y-111690476D01*
X187809524Y-111595238D01*
X187904762Y-111500000D01*
X188047620Y-111452381D01*
X188142858Y-111452381D01*
X188285715Y-111500000D01*
X188333334Y-111547619D01*
X188809524Y-112452381D02*
X189000000Y-112452381D01*
X189095239Y-112404762D01*
X189142858Y-112357143D01*
X189238096Y-112214286D01*
X189285715Y-112023810D01*
X189285715Y-111642857D01*
X189238096Y-111547619D01*
X189190477Y-111500000D01*
X189095239Y-111452381D01*
X188904762Y-111452381D01*
X188809524Y-111500000D01*
X188761905Y-111547619D01*
X188714286Y-111642857D01*
X188714286Y-111880952D01*
X188761905Y-111976190D01*
X188809524Y-112023810D01*
X188904762Y-112071429D01*
X189095239Y-112071429D01*
X189190477Y-112023810D01*
X189238096Y-111976190D01*
X189285715Y-111880952D01*
X192889143Y-109608857D02*
X192936762Y-109656476D01*
X192984381Y-109799333D01*
X192984381Y-109894571D01*
X192936762Y-110037429D01*
X192841524Y-110132667D01*
X192746286Y-110180286D01*
X192555810Y-110227905D01*
X192412952Y-110227905D01*
X192222476Y-110180286D01*
X192127238Y-110132667D01*
X192032000Y-110037429D01*
X191984381Y-109894571D01*
X191984381Y-109799333D01*
X192032000Y-109656476D01*
X192079619Y-109608857D01*
X192984381Y-108656476D02*
X192984381Y-109227905D01*
X192984381Y-108942191D02*
X191984381Y-108942191D01*
X192127238Y-109037429D01*
X192222476Y-109132667D01*
X192270095Y-109227905D01*
X191984381Y-108037429D02*
X191984381Y-107942190D01*
X192032000Y-107846952D01*
X192079619Y-107799333D01*
X192174857Y-107751714D01*
X192365333Y-107704095D01*
X192603429Y-107704095D01*
X192793905Y-107751714D01*
X192889143Y-107799333D01*
X192936762Y-107846952D01*
X192984381Y-107942190D01*
X192984381Y-108037429D01*
X192936762Y-108132667D01*
X192889143Y-108180286D01*
X192793905Y-108227905D01*
X192603429Y-108275524D01*
X192365333Y-108275524D01*
X192174857Y-108227905D01*
X192079619Y-108180286D01*
X192032000Y-108132667D01*
X191984381Y-108037429D01*
X191857143Y-97635143D02*
X191809524Y-97682762D01*
X191666667Y-97730381D01*
X191571429Y-97730381D01*
X191428571Y-97682762D01*
X191333333Y-97587524D01*
X191285714Y-97492286D01*
X191238095Y-97301810D01*
X191238095Y-97158952D01*
X191285714Y-96968476D01*
X191333333Y-96873238D01*
X191428571Y-96778000D01*
X191571429Y-96730381D01*
X191666667Y-96730381D01*
X191809524Y-96778000D01*
X191857143Y-96825619D01*
X192809524Y-97730381D02*
X192238095Y-97730381D01*
X192523809Y-97730381D02*
X192523809Y-96730381D01*
X192428571Y-96873238D01*
X192333333Y-96968476D01*
X192238095Y-97016095D01*
X193761905Y-97730381D02*
X193190476Y-97730381D01*
X193476190Y-97730381D02*
X193476190Y-96730381D01*
X193380952Y-96873238D01*
X193285714Y-96968476D01*
X193190476Y-97016095D01*
X191857143Y-102635143D02*
X191809524Y-102682762D01*
X191666667Y-102730381D01*
X191571429Y-102730381D01*
X191428571Y-102682762D01*
X191333333Y-102587524D01*
X191285714Y-102492286D01*
X191238095Y-102301810D01*
X191238095Y-102158952D01*
X191285714Y-101968476D01*
X191333333Y-101873238D01*
X191428571Y-101778000D01*
X191571429Y-101730381D01*
X191666667Y-101730381D01*
X191809524Y-101778000D01*
X191857143Y-101825619D01*
X192809524Y-102730381D02*
X192238095Y-102730381D01*
X192523809Y-102730381D02*
X192523809Y-101730381D01*
X192428571Y-101873238D01*
X192333333Y-101968476D01*
X192238095Y-102016095D01*
X193190476Y-101825619D02*
X193238095Y-101778000D01*
X193333333Y-101730381D01*
X193571429Y-101730381D01*
X193666667Y-101778000D01*
X193714286Y-101825619D01*
X193761905Y-101920857D01*
X193761905Y-102016095D01*
X193714286Y-102158952D01*
X193142857Y-102730381D01*
X193761905Y-102730381D01*
X170283143Y-94622857D02*
X170330762Y-94670476D01*
X170378381Y-94813333D01*
X170378381Y-94908571D01*
X170330762Y-95051429D01*
X170235524Y-95146667D01*
X170140286Y-95194286D01*
X169949810Y-95241905D01*
X169806952Y-95241905D01*
X169616476Y-95194286D01*
X169521238Y-95146667D01*
X169426000Y-95051429D01*
X169378381Y-94908571D01*
X169378381Y-94813333D01*
X169426000Y-94670476D01*
X169473619Y-94622857D01*
X170378381Y-93670476D02*
X170378381Y-94241905D01*
X170378381Y-93956191D02*
X169378381Y-93956191D01*
X169521238Y-94051429D01*
X169616476Y-94146667D01*
X169664095Y-94241905D01*
X169378381Y-93337143D02*
X169378381Y-92718095D01*
X169759333Y-93051429D01*
X169759333Y-92908571D01*
X169806952Y-92813333D01*
X169854571Y-92765714D01*
X169949810Y-92718095D01*
X170187905Y-92718095D01*
X170283143Y-92765714D01*
X170330762Y-92813333D01*
X170378381Y-92908571D01*
X170378381Y-93194286D01*
X170330762Y-93289524D01*
X170283143Y-93337143D01*
X173839143Y-92336857D02*
X173886762Y-92384476D01*
X173934381Y-92527333D01*
X173934381Y-92622571D01*
X173886762Y-92765429D01*
X173791524Y-92860667D01*
X173696286Y-92908286D01*
X173505810Y-92955905D01*
X173362952Y-92955905D01*
X173172476Y-92908286D01*
X173077238Y-92860667D01*
X172982000Y-92765429D01*
X172934381Y-92622571D01*
X172934381Y-92527333D01*
X172982000Y-92384476D01*
X173029619Y-92336857D01*
X173934381Y-91384476D02*
X173934381Y-91955905D01*
X173934381Y-91670191D02*
X172934381Y-91670191D01*
X173077238Y-91765429D01*
X173172476Y-91860667D01*
X173220095Y-91955905D01*
X173267714Y-90527333D02*
X173934381Y-90527333D01*
X172886762Y-90765429D02*
X173601048Y-91003524D01*
X173601048Y-90384476D01*
X174871143Y-114657143D02*
X174823524Y-114704762D01*
X174680667Y-114752381D01*
X174585429Y-114752381D01*
X174442571Y-114704762D01*
X174347333Y-114609524D01*
X174299714Y-114514286D01*
X174252095Y-114323810D01*
X174252095Y-114180952D01*
X174299714Y-113990476D01*
X174347333Y-113895238D01*
X174442571Y-113800000D01*
X174585429Y-113752381D01*
X174680667Y-113752381D01*
X174823524Y-113800000D01*
X174871143Y-113847619D01*
X175823524Y-114752381D02*
X175252095Y-114752381D01*
X175537809Y-114752381D02*
X175537809Y-113752381D01*
X175442571Y-113895238D01*
X175347333Y-113990476D01*
X175252095Y-114038095D01*
X176728286Y-113752381D02*
X176252095Y-113752381D01*
X176204476Y-114228571D01*
X176252095Y-114180952D01*
X176347333Y-114133333D01*
X176585429Y-114133333D01*
X176680667Y-114180952D01*
X176728286Y-114228571D01*
X176775905Y-114323810D01*
X176775905Y-114561905D01*
X176728286Y-114657143D01*
X176680667Y-114704762D01*
X176585429Y-114752381D01*
X176347333Y-114752381D01*
X176252095Y-114704762D01*
X176204476Y-114657143D01*
X156567143Y-92336857D02*
X156614762Y-92384476D01*
X156662381Y-92527333D01*
X156662381Y-92622571D01*
X156614762Y-92765429D01*
X156519524Y-92860667D01*
X156424286Y-92908286D01*
X156233810Y-92955905D01*
X156090952Y-92955905D01*
X155900476Y-92908286D01*
X155805238Y-92860667D01*
X155710000Y-92765429D01*
X155662381Y-92622571D01*
X155662381Y-92527333D01*
X155710000Y-92384476D01*
X155757619Y-92336857D01*
X156662381Y-91384476D02*
X156662381Y-91955905D01*
X156662381Y-91670191D02*
X155662381Y-91670191D01*
X155805238Y-91765429D01*
X155900476Y-91860667D01*
X155948095Y-91955905D01*
X155662381Y-90527333D02*
X155662381Y-90717810D01*
X155710000Y-90813048D01*
X155757619Y-90860667D01*
X155900476Y-90955905D01*
X156090952Y-91003524D01*
X156471905Y-91003524D01*
X156567143Y-90955905D01*
X156614762Y-90908286D01*
X156662381Y-90813048D01*
X156662381Y-90622571D01*
X156614762Y-90527333D01*
X156567143Y-90479714D01*
X156471905Y-90432095D01*
X156233810Y-90432095D01*
X156138571Y-90479714D01*
X156090952Y-90527333D01*
X156043333Y-90622571D01*
X156043333Y-90813048D01*
X156090952Y-90908286D01*
X156138571Y-90955905D01*
X156233810Y-91003524D01*
X205859143Y-93067143D02*
X205811524Y-93114762D01*
X205668667Y-93162381D01*
X205573429Y-93162381D01*
X205430571Y-93114762D01*
X205335333Y-93019524D01*
X205287714Y-92924286D01*
X205240095Y-92733810D01*
X205240095Y-92590952D01*
X205287714Y-92400476D01*
X205335333Y-92305238D01*
X205430571Y-92210000D01*
X205573429Y-92162381D01*
X205668667Y-92162381D01*
X205811524Y-92210000D01*
X205859143Y-92257619D01*
X206811524Y-93162381D02*
X206240095Y-93162381D01*
X206525809Y-93162381D02*
X206525809Y-92162381D01*
X206430571Y-92305238D01*
X206335333Y-92400476D01*
X206240095Y-92448095D01*
X207144857Y-92162381D02*
X207811524Y-92162381D01*
X207382952Y-93162381D01*
X208653143Y-83415143D02*
X208605524Y-83462762D01*
X208462667Y-83510381D01*
X208367429Y-83510381D01*
X208224571Y-83462762D01*
X208129333Y-83367524D01*
X208081714Y-83272286D01*
X208034095Y-83081810D01*
X208034095Y-82938952D01*
X208081714Y-82748476D01*
X208129333Y-82653238D01*
X208224571Y-82558000D01*
X208367429Y-82510381D01*
X208462667Y-82510381D01*
X208605524Y-82558000D01*
X208653143Y-82605619D01*
X209605524Y-83510381D02*
X209034095Y-83510381D01*
X209319809Y-83510381D02*
X209319809Y-82510381D01*
X209224571Y-82653238D01*
X209129333Y-82748476D01*
X209034095Y-82796095D01*
X210176952Y-82938952D02*
X210081714Y-82891333D01*
X210034095Y-82843714D01*
X209986476Y-82748476D01*
X209986476Y-82700857D01*
X210034095Y-82605619D01*
X210081714Y-82558000D01*
X210176952Y-82510381D01*
X210367429Y-82510381D01*
X210462667Y-82558000D01*
X210510286Y-82605619D01*
X210557905Y-82700857D01*
X210557905Y-82748476D01*
X210510286Y-82843714D01*
X210462667Y-82891333D01*
X210367429Y-82938952D01*
X210176952Y-82938952D01*
X210081714Y-82986571D01*
X210034095Y-83034190D01*
X209986476Y-83129429D01*
X209986476Y-83319905D01*
X210034095Y-83415143D01*
X210081714Y-83462762D01*
X210176952Y-83510381D01*
X210367429Y-83510381D01*
X210462667Y-83462762D01*
X210510286Y-83415143D01*
X210557905Y-83319905D01*
X210557905Y-83129429D01*
X210510286Y-83034190D01*
X210462667Y-82986571D01*
X210367429Y-82938952D01*
X205605143Y-79605143D02*
X205557524Y-79652762D01*
X205414667Y-79700381D01*
X205319429Y-79700381D01*
X205176571Y-79652762D01*
X205081333Y-79557524D01*
X205033714Y-79462286D01*
X204986095Y-79271810D01*
X204986095Y-79128952D01*
X205033714Y-78938476D01*
X205081333Y-78843238D01*
X205176571Y-78748000D01*
X205319429Y-78700381D01*
X205414667Y-78700381D01*
X205557524Y-78748000D01*
X205605143Y-78795619D01*
X206557524Y-79700381D02*
X205986095Y-79700381D01*
X206271809Y-79700381D02*
X206271809Y-78700381D01*
X206176571Y-78843238D01*
X206081333Y-78938476D01*
X205986095Y-78986095D01*
X207033714Y-79700381D02*
X207224190Y-79700381D01*
X207319429Y-79652762D01*
X207367048Y-79605143D01*
X207462286Y-79462286D01*
X207509905Y-79271810D01*
X207509905Y-78890857D01*
X207462286Y-78795619D01*
X207414667Y-78748000D01*
X207319429Y-78700381D01*
X207128952Y-78700381D01*
X207033714Y-78748000D01*
X206986095Y-78795619D01*
X206938476Y-78890857D01*
X206938476Y-79128952D01*
X206986095Y-79224190D01*
X207033714Y-79271810D01*
X207128952Y-79319429D01*
X207319429Y-79319429D01*
X207414667Y-79271810D01*
X207462286Y-79224190D01*
X207509905Y-79128952D01*
X202668143Y-95336857D02*
X202715762Y-95384476D01*
X202763381Y-95527333D01*
X202763381Y-95622571D01*
X202715762Y-95765429D01*
X202620524Y-95860667D01*
X202525286Y-95908286D01*
X202334810Y-95955905D01*
X202191952Y-95955905D01*
X202001476Y-95908286D01*
X201906238Y-95860667D01*
X201811000Y-95765429D01*
X201763381Y-95622571D01*
X201763381Y-95527333D01*
X201811000Y-95384476D01*
X201858619Y-95336857D01*
X201858619Y-94955905D02*
X201811000Y-94908286D01*
X201763381Y-94813048D01*
X201763381Y-94574952D01*
X201811000Y-94479714D01*
X201858619Y-94432095D01*
X201953857Y-94384476D01*
X202049095Y-94384476D01*
X202191952Y-94432095D01*
X202763381Y-95003524D01*
X202763381Y-94384476D01*
X201763381Y-93765429D02*
X201763381Y-93670190D01*
X201811000Y-93574952D01*
X201858619Y-93527333D01*
X201953857Y-93479714D01*
X202144333Y-93432095D01*
X202382429Y-93432095D01*
X202572905Y-93479714D01*
X202668143Y-93527333D01*
X202715762Y-93574952D01*
X202763381Y-93670190D01*
X202763381Y-93765429D01*
X202715762Y-93860667D01*
X202668143Y-93908286D01*
X202572905Y-93955905D01*
X202382429Y-94003524D01*
X202144333Y-94003524D01*
X201953857Y-93955905D01*
X201858619Y-93908286D01*
X201811000Y-93860667D01*
X201763381Y-93765429D01*
X201017143Y-95384857D02*
X201064762Y-95432476D01*
X201112381Y-95575333D01*
X201112381Y-95670571D01*
X201064762Y-95813429D01*
X200969524Y-95908667D01*
X200874286Y-95956286D01*
X200683810Y-96003905D01*
X200540952Y-96003905D01*
X200350476Y-95956286D01*
X200255238Y-95908667D01*
X200160000Y-95813429D01*
X200112381Y-95670571D01*
X200112381Y-95575333D01*
X200160000Y-95432476D01*
X200207619Y-95384857D01*
X200207619Y-95003905D02*
X200160000Y-94956286D01*
X200112381Y-94861048D01*
X200112381Y-94622952D01*
X200160000Y-94527714D01*
X200207619Y-94480095D01*
X200302857Y-94432476D01*
X200398095Y-94432476D01*
X200540952Y-94480095D01*
X201112381Y-95051524D01*
X201112381Y-94432476D01*
X201112381Y-93480095D02*
X201112381Y-94051524D01*
X201112381Y-93765810D02*
X200112381Y-93765810D01*
X200255238Y-93861048D01*
X200350476Y-93956286D01*
X200398095Y-94051524D01*
X197731143Y-83415143D02*
X197683524Y-83462762D01*
X197540667Y-83510381D01*
X197445429Y-83510381D01*
X197302571Y-83462762D01*
X197207333Y-83367524D01*
X197159714Y-83272286D01*
X197112095Y-83081810D01*
X197112095Y-82938952D01*
X197159714Y-82748476D01*
X197207333Y-82653238D01*
X197302571Y-82558000D01*
X197445429Y-82510381D01*
X197540667Y-82510381D01*
X197683524Y-82558000D01*
X197731143Y-82605619D01*
X198112095Y-82605619D02*
X198159714Y-82558000D01*
X198254952Y-82510381D01*
X198493048Y-82510381D01*
X198588286Y-82558000D01*
X198635905Y-82605619D01*
X198683524Y-82700857D01*
X198683524Y-82796095D01*
X198635905Y-82938952D01*
X198064476Y-83510381D01*
X198683524Y-83510381D01*
X199064476Y-82605619D02*
X199112095Y-82558000D01*
X199207333Y-82510381D01*
X199445429Y-82510381D01*
X199540667Y-82558000D01*
X199588286Y-82605619D01*
X199635905Y-82700857D01*
X199635905Y-82796095D01*
X199588286Y-82938952D01*
X199016857Y-83510381D01*
X199635905Y-83510381D01*
X202557143Y-79605143D02*
X202509524Y-79652762D01*
X202366667Y-79700381D01*
X202271429Y-79700381D01*
X202128571Y-79652762D01*
X202033333Y-79557524D01*
X201985714Y-79462286D01*
X201938095Y-79271810D01*
X201938095Y-79128952D01*
X201985714Y-78938476D01*
X202033333Y-78843238D01*
X202128571Y-78748000D01*
X202271429Y-78700381D01*
X202366667Y-78700381D01*
X202509524Y-78748000D01*
X202557143Y-78795619D01*
X202938095Y-78795619D02*
X202985714Y-78748000D01*
X203080952Y-78700381D01*
X203319048Y-78700381D01*
X203414286Y-78748000D01*
X203461905Y-78795619D01*
X203509524Y-78890857D01*
X203509524Y-78986095D01*
X203461905Y-79128952D01*
X202890476Y-79700381D01*
X203509524Y-79700381D01*
X203842857Y-78700381D02*
X204461905Y-78700381D01*
X204128571Y-79081333D01*
X204271429Y-79081333D01*
X204366667Y-79128952D01*
X204414286Y-79176571D01*
X204461905Y-79271810D01*
X204461905Y-79509905D01*
X204414286Y-79605143D01*
X204366667Y-79652762D01*
X204271429Y-79700381D01*
X203985714Y-79700381D01*
X203890476Y-79652762D01*
X203842857Y-79605143D01*
X196207143Y-95099143D02*
X196159524Y-95146762D01*
X196016667Y-95194381D01*
X195921429Y-95194381D01*
X195778571Y-95146762D01*
X195683333Y-95051524D01*
X195635714Y-94956286D01*
X195588095Y-94765810D01*
X195588095Y-94622952D01*
X195635714Y-94432476D01*
X195683333Y-94337238D01*
X195778571Y-94242000D01*
X195921429Y-94194381D01*
X196016667Y-94194381D01*
X196159524Y-94242000D01*
X196207143Y-94289619D01*
X196588095Y-94289619D02*
X196635714Y-94242000D01*
X196730952Y-94194381D01*
X196969048Y-94194381D01*
X197064286Y-94242000D01*
X197111905Y-94289619D01*
X197159524Y-94384857D01*
X197159524Y-94480095D01*
X197111905Y-94622952D01*
X196540476Y-95194381D01*
X197159524Y-95194381D01*
X198016667Y-94527714D02*
X198016667Y-95194381D01*
X197778571Y-94146762D02*
X197540476Y-94861048D01*
X198159524Y-94861048D01*
X206271905Y-127452381D02*
X206271905Y-126452381D01*
X206510000Y-126452381D01*
X206652858Y-126500000D01*
X206748096Y-126595238D01*
X206795715Y-126690476D01*
X206843334Y-126880952D01*
X206843334Y-127023810D01*
X206795715Y-127214286D01*
X206748096Y-127309524D01*
X206652858Y-127404762D01*
X206510000Y-127452381D01*
X206271905Y-127452381D01*
X207795715Y-127452381D02*
X207224286Y-127452381D01*
X207510000Y-127452381D02*
X207510000Y-126452381D01*
X207414762Y-126595238D01*
X207319524Y-126690476D01*
X207224286Y-126738095D01*
X210081905Y-127452381D02*
X210081905Y-126452381D01*
X210320000Y-126452381D01*
X210462858Y-126500000D01*
X210558096Y-126595238D01*
X210605715Y-126690476D01*
X210653334Y-126880952D01*
X210653334Y-127023810D01*
X210605715Y-127214286D01*
X210558096Y-127309524D01*
X210462858Y-127404762D01*
X210320000Y-127452381D01*
X210081905Y-127452381D01*
X211034286Y-126547619D02*
X211081905Y-126500000D01*
X211177143Y-126452381D01*
X211415239Y-126452381D01*
X211510477Y-126500000D01*
X211558096Y-126547619D01*
X211605715Y-126642857D01*
X211605715Y-126738095D01*
X211558096Y-126880952D01*
X210986667Y-127452381D01*
X211605715Y-127452381D01*
X214145905Y-127452381D02*
X214145905Y-126452381D01*
X214384000Y-126452381D01*
X214526858Y-126500000D01*
X214622096Y-126595238D01*
X214669715Y-126690476D01*
X214717334Y-126880952D01*
X214717334Y-127023810D01*
X214669715Y-127214286D01*
X214622096Y-127309524D01*
X214526858Y-127404762D01*
X214384000Y-127452381D01*
X214145905Y-127452381D01*
X215050667Y-126452381D02*
X215669715Y-126452381D01*
X215336381Y-126833333D01*
X215479239Y-126833333D01*
X215574477Y-126880952D01*
X215622096Y-126928571D01*
X215669715Y-127023810D01*
X215669715Y-127261905D01*
X215622096Y-127357143D01*
X215574477Y-127404762D01*
X215479239Y-127452381D01*
X215193524Y-127452381D01*
X215098286Y-127404762D01*
X215050667Y-127357143D01*
X218209905Y-127452381D02*
X218209905Y-126452381D01*
X218448000Y-126452381D01*
X218590858Y-126500000D01*
X218686096Y-126595238D01*
X218733715Y-126690476D01*
X218781334Y-126880952D01*
X218781334Y-127023810D01*
X218733715Y-127214286D01*
X218686096Y-127309524D01*
X218590858Y-127404762D01*
X218448000Y-127452381D01*
X218209905Y-127452381D01*
X219638477Y-126785714D02*
X219638477Y-127452381D01*
X219400381Y-126404762D02*
X219162286Y-127119048D01*
X219781334Y-127119048D01*
X222273905Y-127452381D02*
X222273905Y-126452381D01*
X222512000Y-126452381D01*
X222654858Y-126500000D01*
X222750096Y-126595238D01*
X222797715Y-126690476D01*
X222845334Y-126880952D01*
X222845334Y-127023810D01*
X222797715Y-127214286D01*
X222750096Y-127309524D01*
X222654858Y-127404762D01*
X222512000Y-127452381D01*
X222273905Y-127452381D01*
X223750096Y-126452381D02*
X223273905Y-126452381D01*
X223226286Y-126928571D01*
X223273905Y-126880952D01*
X223369143Y-126833333D01*
X223607239Y-126833333D01*
X223702477Y-126880952D01*
X223750096Y-126928571D01*
X223797715Y-127023810D01*
X223797715Y-127261905D01*
X223750096Y-127357143D01*
X223702477Y-127404762D01*
X223607239Y-127452381D01*
X223369143Y-127452381D01*
X223273905Y-127404762D01*
X223226286Y-127357143D01*
X226337905Y-127452381D02*
X226337905Y-126452381D01*
X226576000Y-126452381D01*
X226718858Y-126500000D01*
X226814096Y-126595238D01*
X226861715Y-126690476D01*
X226909334Y-126880952D01*
X226909334Y-127023810D01*
X226861715Y-127214286D01*
X226814096Y-127309524D01*
X226718858Y-127404762D01*
X226576000Y-127452381D01*
X226337905Y-127452381D01*
X227766477Y-126452381D02*
X227576000Y-126452381D01*
X227480762Y-126500000D01*
X227433143Y-126547619D01*
X227337905Y-126690476D01*
X227290286Y-126880952D01*
X227290286Y-127261905D01*
X227337905Y-127357143D01*
X227385524Y-127404762D01*
X227480762Y-127452381D01*
X227671239Y-127452381D01*
X227766477Y-127404762D01*
X227814096Y-127357143D01*
X227861715Y-127261905D01*
X227861715Y-127023810D01*
X227814096Y-126928571D01*
X227766477Y-126880952D01*
X227671239Y-126833333D01*
X227480762Y-126833333D01*
X227385524Y-126880952D01*
X227337905Y-126928571D01*
X227290286Y-127023810D01*
X196873905Y-88082381D02*
X196873905Y-87082381D01*
X197112000Y-87082381D01*
X197254858Y-87130000D01*
X197350096Y-87225238D01*
X197397715Y-87320476D01*
X197445334Y-87510952D01*
X197445334Y-87653810D01*
X197397715Y-87844286D01*
X197350096Y-87939524D01*
X197254858Y-88034762D01*
X197112000Y-88082381D01*
X196873905Y-88082381D01*
X197778667Y-87082381D02*
X198445334Y-87082381D01*
X198016762Y-88082381D01*
X175537905Y-89138381D02*
X175537905Y-88138381D01*
X175776000Y-88138381D01*
X175918858Y-88186000D01*
X176014096Y-88281238D01*
X176061715Y-88376476D01*
X176109334Y-88566952D01*
X176109334Y-88709810D01*
X176061715Y-88900286D01*
X176014096Y-88995524D01*
X175918858Y-89090762D01*
X175776000Y-89138381D01*
X175537905Y-89138381D01*
X176680762Y-88566952D02*
X176585524Y-88519333D01*
X176537905Y-88471714D01*
X176490286Y-88376476D01*
X176490286Y-88328857D01*
X176537905Y-88233619D01*
X176585524Y-88186000D01*
X176680762Y-88138381D01*
X176871239Y-88138381D01*
X176966477Y-88186000D01*
X177014096Y-88233619D01*
X177061715Y-88328857D01*
X177061715Y-88376476D01*
X177014096Y-88471714D01*
X176966477Y-88519333D01*
X176871239Y-88566952D01*
X176680762Y-88566952D01*
X176585524Y-88614571D01*
X176537905Y-88662190D01*
X176490286Y-88757429D01*
X176490286Y-88947905D01*
X176537905Y-89043143D01*
X176585524Y-89090762D01*
X176680762Y-89138381D01*
X176871239Y-89138381D01*
X176966477Y-89090762D01*
X177014096Y-89043143D01*
X177061715Y-88947905D01*
X177061715Y-88757429D01*
X177014096Y-88662190D01*
X176966477Y-88614571D01*
X176871239Y-88566952D01*
X180633810Y-97480381D02*
X180633810Y-96480381D01*
X181681429Y-97385143D02*
X181633810Y-97432762D01*
X181490953Y-97480381D01*
X181395715Y-97480381D01*
X181252857Y-97432762D01*
X181157619Y-97337524D01*
X181110000Y-97242286D01*
X181062381Y-97051810D01*
X181062381Y-96908952D01*
X181110000Y-96718476D01*
X181157619Y-96623238D01*
X181252857Y-96528000D01*
X181395715Y-96480381D01*
X181490953Y-96480381D01*
X181633810Y-96528000D01*
X181681429Y-96575619D01*
X182633810Y-97480381D02*
X182062381Y-97480381D01*
X182348095Y-97480381D02*
X182348095Y-96480381D01*
X182252857Y-96623238D01*
X182157619Y-96718476D01*
X182062381Y-96766095D01*
X209210381Y-87723190D02*
X208210381Y-87723190D01*
X209115143Y-86675571D02*
X209162762Y-86723190D01*
X209210381Y-86866047D01*
X209210381Y-86961285D01*
X209162762Y-87104143D01*
X209067524Y-87199381D01*
X208972286Y-87247000D01*
X208781810Y-87294619D01*
X208638952Y-87294619D01*
X208448476Y-87247000D01*
X208353238Y-87199381D01*
X208258000Y-87104143D01*
X208210381Y-86961285D01*
X208210381Y-86866047D01*
X208258000Y-86723190D01*
X208305619Y-86675571D01*
X208305619Y-86294619D02*
X208258000Y-86247000D01*
X208210381Y-86151762D01*
X208210381Y-85913666D01*
X208258000Y-85818428D01*
X208305619Y-85770809D01*
X208400857Y-85723190D01*
X208496095Y-85723190D01*
X208638952Y-85770809D01*
X209210381Y-86342238D01*
X209210381Y-85723190D01*
X204390381Y-87758190D02*
X203390381Y-87758190D01*
X204295143Y-86710571D02*
X204342762Y-86758190D01*
X204390381Y-86901047D01*
X204390381Y-86996285D01*
X204342762Y-87139143D01*
X204247524Y-87234381D01*
X204152286Y-87282000D01*
X203961810Y-87329619D01*
X203818952Y-87329619D01*
X203628476Y-87282000D01*
X203533238Y-87234381D01*
X203438000Y-87139143D01*
X203390381Y-86996285D01*
X203390381Y-86901047D01*
X203438000Y-86758190D01*
X203485619Y-86710571D01*
X203390381Y-86377238D02*
X203390381Y-85758190D01*
X203771333Y-86091524D01*
X203771333Y-85948666D01*
X203818952Y-85853428D01*
X203866571Y-85805809D01*
X203961810Y-85758190D01*
X204199905Y-85758190D01*
X204295143Y-85805809D01*
X204342762Y-85853428D01*
X204390381Y-85948666D01*
X204390381Y-86234381D01*
X204342762Y-86329619D01*
X204295143Y-86377238D01*
X189682381Y-94448190D02*
X188682381Y-94448190D01*
X189587143Y-93400571D02*
X189634762Y-93448190D01*
X189682381Y-93591047D01*
X189682381Y-93686285D01*
X189634762Y-93829143D01*
X189539524Y-93924381D01*
X189444286Y-93972000D01*
X189253810Y-94019619D01*
X189110952Y-94019619D01*
X188920476Y-93972000D01*
X188825238Y-93924381D01*
X188730000Y-93829143D01*
X188682381Y-93686285D01*
X188682381Y-93591047D01*
X188730000Y-93448190D01*
X188777619Y-93400571D01*
X189015714Y-92543428D02*
X189682381Y-92543428D01*
X188634762Y-92781524D02*
X189349048Y-93019619D01*
X189349048Y-92400571D01*
X182903905Y-90622381D02*
X182903905Y-89622381D01*
X183284858Y-89622381D01*
X183380096Y-89670000D01*
X183427715Y-89717619D01*
X183475334Y-89812857D01*
X183475334Y-89955714D01*
X183427715Y-90050952D01*
X183380096Y-90098571D01*
X183284858Y-90146190D01*
X182903905Y-90146190D01*
X184427715Y-90622381D02*
X183856286Y-90622381D01*
X184142000Y-90622381D02*
X184142000Y-89622381D01*
X184046762Y-89765238D01*
X183951524Y-89860476D01*
X183856286Y-89908095D01*
X164996762Y-95083143D02*
X165044381Y-94940286D01*
X165044381Y-94702190D01*
X164996762Y-94606952D01*
X164949143Y-94559333D01*
X164853905Y-94511714D01*
X164758667Y-94511714D01*
X164663429Y-94559333D01*
X164615810Y-94606952D01*
X164568190Y-94702190D01*
X164520571Y-94892667D01*
X164472952Y-94987905D01*
X164425333Y-95035524D01*
X164330095Y-95083143D01*
X164234857Y-95083143D01*
X164139619Y-95035524D01*
X164092000Y-94987905D01*
X164044381Y-94892667D01*
X164044381Y-94654571D01*
X164092000Y-94511714D01*
X164044381Y-94178381D02*
X165044381Y-93940286D01*
X164330095Y-93749809D01*
X165044381Y-93559333D01*
X164044381Y-93321238D01*
X165044381Y-92940286D02*
X164044381Y-92940286D01*
X164044381Y-92702191D01*
X164092000Y-92559333D01*
X164187238Y-92464095D01*
X164282476Y-92416476D01*
X164472952Y-92368857D01*
X164615810Y-92368857D01*
X164806286Y-92416476D01*
X164901524Y-92464095D01*
X164996762Y-92559333D01*
X165044381Y-92702191D01*
X165044381Y-92940286D01*
X194333905Y-116784381D02*
X194333905Y-115784381D01*
X194714858Y-115784381D01*
X194810096Y-115832000D01*
X194857715Y-115879619D01*
X194905334Y-115974857D01*
X194905334Y-116117714D01*
X194857715Y-116212952D01*
X194810096Y-116260571D01*
X194714858Y-116308190D01*
X194333905Y-116308190D01*
X195238667Y-115784381D02*
X195857715Y-115784381D01*
X195524381Y-116165333D01*
X195667239Y-116165333D01*
X195762477Y-116212952D01*
X195810096Y-116260571D01*
X195857715Y-116355810D01*
X195857715Y-116593905D01*
X195810096Y-116689143D01*
X195762477Y-116736762D01*
X195667239Y-116784381D01*
X195381524Y-116784381D01*
X195286286Y-116736762D01*
X195238667Y-116689143D01*
X168933905Y-84526381D02*
X168933905Y-83526381D01*
X169314858Y-83526381D01*
X169410096Y-83574000D01*
X169457715Y-83621619D01*
X169505334Y-83716857D01*
X169505334Y-83859714D01*
X169457715Y-83954952D01*
X169410096Y-84002571D01*
X169314858Y-84050190D01*
X168933905Y-84050190D01*
X170362477Y-83526381D02*
X170172000Y-83526381D01*
X170076762Y-83574000D01*
X170029143Y-83621619D01*
X169933905Y-83764476D01*
X169886286Y-83954952D01*
X169886286Y-84335905D01*
X169933905Y-84431143D01*
X169981524Y-84478762D01*
X170076762Y-84526381D01*
X170267239Y-84526381D01*
X170362477Y-84478762D01*
X170410096Y-84431143D01*
X170457715Y-84335905D01*
X170457715Y-84097810D01*
X170410096Y-84002571D01*
X170362477Y-83954952D01*
X170267239Y-83907333D01*
X170076762Y-83907333D01*
X169981524Y-83954952D01*
X169933905Y-84002571D01*
X169886286Y-84097810D01*
X185324762Y-126495619D02*
X185229524Y-126448000D01*
X185134286Y-126352762D01*
X184991429Y-126209905D01*
X184896190Y-126162286D01*
X184800952Y-126162286D01*
X184848571Y-126400381D02*
X184753333Y-126352762D01*
X184658095Y-126257524D01*
X184610476Y-126067048D01*
X184610476Y-125733714D01*
X184658095Y-125543238D01*
X184753333Y-125448000D01*
X184848571Y-125400381D01*
X185039048Y-125400381D01*
X185134286Y-125448000D01*
X185229524Y-125543238D01*
X185277143Y-125733714D01*
X185277143Y-126067048D01*
X185229524Y-126257524D01*
X185134286Y-126352762D01*
X185039048Y-126400381D01*
X184848571Y-126400381D01*
X186229524Y-126400381D02*
X185658095Y-126400381D01*
X185943809Y-126400381D02*
X185943809Y-125400381D01*
X185848571Y-125543238D01*
X185753333Y-125638476D01*
X185658095Y-125686095D01*
X167473334Y-115260381D02*
X167140000Y-114784190D01*
X166901905Y-115260381D02*
X166901905Y-114260381D01*
X167282858Y-114260381D01*
X167378096Y-114308000D01*
X167425715Y-114355619D01*
X167473334Y-114450857D01*
X167473334Y-114593714D01*
X167425715Y-114688952D01*
X167378096Y-114736571D01*
X167282858Y-114784190D01*
X166901905Y-114784190D01*
X168425715Y-115260381D02*
X167854286Y-115260381D01*
X168140000Y-115260381D02*
X168140000Y-114260381D01*
X168044762Y-114403238D01*
X167949524Y-114498476D01*
X167854286Y-114546095D01*
X182333334Y-112452381D02*
X182000000Y-111976190D01*
X181761905Y-112452381D02*
X181761905Y-111452381D01*
X182142858Y-111452381D01*
X182238096Y-111500000D01*
X182285715Y-111547619D01*
X182333334Y-111642857D01*
X182333334Y-111785714D01*
X182285715Y-111880952D01*
X182238096Y-111928571D01*
X182142858Y-111976190D01*
X181761905Y-111976190D01*
X182714286Y-111547619D02*
X182761905Y-111500000D01*
X182857143Y-111452381D01*
X183095239Y-111452381D01*
X183190477Y-111500000D01*
X183238096Y-111547619D01*
X183285715Y-111642857D01*
X183285715Y-111738095D01*
X183238096Y-111880952D01*
X182666667Y-112452381D01*
X183285715Y-112452381D01*
X171902381Y-98464666D02*
X171426190Y-98798000D01*
X171902381Y-99036095D02*
X170902381Y-99036095D01*
X170902381Y-98655142D01*
X170950000Y-98559904D01*
X170997619Y-98512285D01*
X171092857Y-98464666D01*
X171235714Y-98464666D01*
X171330952Y-98512285D01*
X171378571Y-98559904D01*
X171426190Y-98655142D01*
X171426190Y-99036095D01*
X170902381Y-98131333D02*
X170902381Y-97512285D01*
X171283333Y-97845619D01*
X171283333Y-97702761D01*
X171330952Y-97607523D01*
X171378571Y-97559904D01*
X171473810Y-97512285D01*
X171711905Y-97512285D01*
X171807143Y-97559904D01*
X171854762Y-97607523D01*
X171902381Y-97702761D01*
X171902381Y-97988476D01*
X171854762Y-98083714D01*
X171807143Y-98131333D01*
X166822381Y-95416666D02*
X166346190Y-95750000D01*
X166822381Y-95988095D02*
X165822381Y-95988095D01*
X165822381Y-95607142D01*
X165870000Y-95511904D01*
X165917619Y-95464285D01*
X166012857Y-95416666D01*
X166155714Y-95416666D01*
X166250952Y-95464285D01*
X166298571Y-95511904D01*
X166346190Y-95607142D01*
X166346190Y-95988095D01*
X166155714Y-94559523D02*
X166822381Y-94559523D01*
X165774762Y-94797619D02*
X166489048Y-95035714D01*
X166489048Y-94416666D01*
X158440381Y-96432666D02*
X157964190Y-96766000D01*
X158440381Y-97004095D02*
X157440381Y-97004095D01*
X157440381Y-96623142D01*
X157488000Y-96527904D01*
X157535619Y-96480285D01*
X157630857Y-96432666D01*
X157773714Y-96432666D01*
X157868952Y-96480285D01*
X157916571Y-96527904D01*
X157964190Y-96623142D01*
X157964190Y-97004095D01*
X157440381Y-95527904D02*
X157440381Y-96004095D01*
X157916571Y-96051714D01*
X157868952Y-96004095D01*
X157821333Y-95908857D01*
X157821333Y-95670761D01*
X157868952Y-95575523D01*
X157916571Y-95527904D01*
X158011810Y-95480285D01*
X158249905Y-95480285D01*
X158345143Y-95527904D01*
X158392762Y-95575523D01*
X158440381Y-95670761D01*
X158440381Y-95908857D01*
X158392762Y-96004095D01*
X158345143Y-96051714D01*
X161996381Y-98464666D02*
X161520190Y-98798000D01*
X161996381Y-99036095D02*
X160996381Y-99036095D01*
X160996381Y-98655142D01*
X161044000Y-98559904D01*
X161091619Y-98512285D01*
X161186857Y-98464666D01*
X161329714Y-98464666D01*
X161424952Y-98512285D01*
X161472571Y-98559904D01*
X161520190Y-98655142D01*
X161520190Y-99036095D01*
X160996381Y-97607523D02*
X160996381Y-97798000D01*
X161044000Y-97893238D01*
X161091619Y-97940857D01*
X161234476Y-98036095D01*
X161424952Y-98083714D01*
X161805905Y-98083714D01*
X161901143Y-98036095D01*
X161948762Y-97988476D01*
X161996381Y-97893238D01*
X161996381Y-97702761D01*
X161948762Y-97607523D01*
X161901143Y-97559904D01*
X161805905Y-97512285D01*
X161567810Y-97512285D01*
X161472571Y-97559904D01*
X161424952Y-97607523D01*
X161377333Y-97702761D01*
X161377333Y-97893238D01*
X161424952Y-97988476D01*
X161472571Y-98036095D01*
X161567810Y-98083714D01*
X205752381Y-121466666D02*
X205276190Y-121800000D01*
X205752381Y-122038095D02*
X204752381Y-122038095D01*
X204752381Y-121657142D01*
X204800000Y-121561904D01*
X204847619Y-121514285D01*
X204942857Y-121466666D01*
X205085714Y-121466666D01*
X205180952Y-121514285D01*
X205228571Y-121561904D01*
X205276190Y-121657142D01*
X205276190Y-122038095D01*
X204752381Y-121133333D02*
X204752381Y-120466666D01*
X205752381Y-120895238D01*
X211411219Y-118916666D02*
X210935028Y-119250000D01*
X211411219Y-119488095D02*
X210411219Y-119488095D01*
X210411219Y-119107142D01*
X210458838Y-119011904D01*
X210506457Y-118964285D01*
X210601695Y-118916666D01*
X210744552Y-118916666D01*
X210839790Y-118964285D01*
X210887409Y-119011904D01*
X210935028Y-119107142D01*
X210935028Y-119488095D01*
X210839790Y-118345238D02*
X210792171Y-118440476D01*
X210744552Y-118488095D01*
X210649314Y-118535714D01*
X210601695Y-118535714D01*
X210506457Y-118488095D01*
X210458838Y-118440476D01*
X210411219Y-118345238D01*
X210411219Y-118154761D01*
X210458838Y-118059523D01*
X210506457Y-118011904D01*
X210601695Y-117964285D01*
X210649314Y-117964285D01*
X210744552Y-118011904D01*
X210792171Y-118059523D01*
X210839790Y-118154761D01*
X210839790Y-118345238D01*
X210887409Y-118440476D01*
X210935028Y-118488095D01*
X211030267Y-118535714D01*
X211220743Y-118535714D01*
X211315981Y-118488095D01*
X211363600Y-118440476D01*
X211411219Y-118345238D01*
X211411219Y-118154761D01*
X211363600Y-118059523D01*
X211315981Y-118011904D01*
X211220743Y-117964285D01*
X211030267Y-117964285D01*
X210935028Y-118011904D01*
X210887409Y-118059523D01*
X210839790Y-118154761D01*
X215590381Y-119419666D02*
X215114190Y-119753000D01*
X215590381Y-119991095D02*
X214590381Y-119991095D01*
X214590381Y-119610142D01*
X214638000Y-119514904D01*
X214685619Y-119467285D01*
X214780857Y-119419666D01*
X214923714Y-119419666D01*
X215018952Y-119467285D01*
X215066571Y-119514904D01*
X215114190Y-119610142D01*
X215114190Y-119991095D01*
X215590381Y-118943476D02*
X215590381Y-118753000D01*
X215542762Y-118657761D01*
X215495143Y-118610142D01*
X215352286Y-118514904D01*
X215161810Y-118467285D01*
X214780857Y-118467285D01*
X214685619Y-118514904D01*
X214638000Y-118562523D01*
X214590381Y-118657761D01*
X214590381Y-118848238D01*
X214638000Y-118943476D01*
X214685619Y-118991095D01*
X214780857Y-119038714D01*
X215018952Y-119038714D01*
X215114190Y-118991095D01*
X215161810Y-118943476D01*
X215209429Y-118848238D01*
X215209429Y-118657761D01*
X215161810Y-118562523D01*
X215114190Y-118514904D01*
X215018952Y-118467285D01*
X220162381Y-119387857D02*
X219686190Y-119721191D01*
X220162381Y-119959286D02*
X219162381Y-119959286D01*
X219162381Y-119578333D01*
X219210000Y-119483095D01*
X219257619Y-119435476D01*
X219352857Y-119387857D01*
X219495714Y-119387857D01*
X219590952Y-119435476D01*
X219638571Y-119483095D01*
X219686190Y-119578333D01*
X219686190Y-119959286D01*
X220162381Y-118435476D02*
X220162381Y-119006905D01*
X220162381Y-118721191D02*
X219162381Y-118721191D01*
X219305238Y-118816429D01*
X219400476Y-118911667D01*
X219448095Y-119006905D01*
X219162381Y-117816429D02*
X219162381Y-117721190D01*
X219210000Y-117625952D01*
X219257619Y-117578333D01*
X219352857Y-117530714D01*
X219543333Y-117483095D01*
X219781429Y-117483095D01*
X219971905Y-117530714D01*
X220067143Y-117578333D01*
X220114762Y-117625952D01*
X220162381Y-117721190D01*
X220162381Y-117816429D01*
X220114762Y-117911667D01*
X220067143Y-117959286D01*
X219971905Y-118006905D01*
X219781429Y-118054524D01*
X219543333Y-118054524D01*
X219352857Y-118006905D01*
X219257619Y-117959286D01*
X219210000Y-117911667D01*
X219162381Y-117816429D01*
X223464381Y-119387857D02*
X222988190Y-119721191D01*
X223464381Y-119959286D02*
X222464381Y-119959286D01*
X222464381Y-119578333D01*
X222512000Y-119483095D01*
X222559619Y-119435476D01*
X222654857Y-119387857D01*
X222797714Y-119387857D01*
X222892952Y-119435476D01*
X222940571Y-119483095D01*
X222988190Y-119578333D01*
X222988190Y-119959286D01*
X223464381Y-118435476D02*
X223464381Y-119006905D01*
X223464381Y-118721191D02*
X222464381Y-118721191D01*
X222607238Y-118816429D01*
X222702476Y-118911667D01*
X222750095Y-119006905D01*
X223464381Y-117483095D02*
X223464381Y-118054524D01*
X223464381Y-117768810D02*
X222464381Y-117768810D01*
X222607238Y-117864048D01*
X222702476Y-117959286D01*
X222750095Y-118054524D01*
X228544381Y-119387857D02*
X228068190Y-119721191D01*
X228544381Y-119959286D02*
X227544381Y-119959286D01*
X227544381Y-119578333D01*
X227592000Y-119483095D01*
X227639619Y-119435476D01*
X227734857Y-119387857D01*
X227877714Y-119387857D01*
X227972952Y-119435476D01*
X228020571Y-119483095D01*
X228068190Y-119578333D01*
X228068190Y-119959286D01*
X228544381Y-118435476D02*
X228544381Y-119006905D01*
X228544381Y-118721191D02*
X227544381Y-118721191D01*
X227687238Y-118816429D01*
X227782476Y-118911667D01*
X227830095Y-119006905D01*
X227639619Y-118054524D02*
X227592000Y-118006905D01*
X227544381Y-117911667D01*
X227544381Y-117673571D01*
X227592000Y-117578333D01*
X227639619Y-117530714D01*
X227734857Y-117483095D01*
X227830095Y-117483095D01*
X227972952Y-117530714D01*
X228544381Y-118102143D01*
X228544381Y-117483095D01*
X179697143Y-121610381D02*
X179363809Y-121134190D01*
X179125714Y-121610381D02*
X179125714Y-120610381D01*
X179506667Y-120610381D01*
X179601905Y-120658000D01*
X179649524Y-120705619D01*
X179697143Y-120800857D01*
X179697143Y-120943714D01*
X179649524Y-121038952D01*
X179601905Y-121086571D01*
X179506667Y-121134190D01*
X179125714Y-121134190D01*
X180649524Y-121610381D02*
X180078095Y-121610381D01*
X180363809Y-121610381D02*
X180363809Y-120610381D01*
X180268571Y-120753238D01*
X180173333Y-120848476D01*
X180078095Y-120896095D01*
X180982857Y-120610381D02*
X181601905Y-120610381D01*
X181268571Y-120991333D01*
X181411429Y-120991333D01*
X181506667Y-121038952D01*
X181554286Y-121086571D01*
X181601905Y-121181810D01*
X181601905Y-121419905D01*
X181554286Y-121515143D01*
X181506667Y-121562762D01*
X181411429Y-121610381D01*
X181125714Y-121610381D01*
X181030476Y-121562762D01*
X180982857Y-121515143D01*
X179697143Y-127066381D02*
X179363809Y-126590190D01*
X179125714Y-127066381D02*
X179125714Y-126066381D01*
X179506667Y-126066381D01*
X179601905Y-126114000D01*
X179649524Y-126161619D01*
X179697143Y-126256857D01*
X179697143Y-126399714D01*
X179649524Y-126494952D01*
X179601905Y-126542571D01*
X179506667Y-126590190D01*
X179125714Y-126590190D01*
X180649524Y-127066381D02*
X180078095Y-127066381D01*
X180363809Y-127066381D02*
X180363809Y-126066381D01*
X180268571Y-126209238D01*
X180173333Y-126304476D01*
X180078095Y-126352095D01*
X181506667Y-126399714D02*
X181506667Y-127066381D01*
X181268571Y-126018762D02*
X181030476Y-126733048D01*
X181649524Y-126733048D01*
X169146762Y-122419905D02*
X169194381Y-122277048D01*
X169194381Y-122038952D01*
X169146762Y-121943714D01*
X169099143Y-121896095D01*
X169003905Y-121848476D01*
X168908667Y-121848476D01*
X168813429Y-121896095D01*
X168765810Y-121943714D01*
X168718190Y-122038952D01*
X168670571Y-122229429D01*
X168622952Y-122324667D01*
X168575333Y-122372286D01*
X168480095Y-122419905D01*
X168384857Y-122419905D01*
X168289619Y-122372286D01*
X168242000Y-122324667D01*
X168194381Y-122229429D01*
X168194381Y-121991333D01*
X168242000Y-121848476D01*
X169194381Y-121419905D02*
X168194381Y-121419905D01*
X168194381Y-121038952D01*
X168242000Y-120943714D01*
X168289619Y-120896095D01*
X168384857Y-120848476D01*
X168527714Y-120848476D01*
X168622952Y-120896095D01*
X168670571Y-120943714D01*
X168718190Y-121038952D01*
X168718190Y-121419905D01*
X169194381Y-119896095D02*
X169194381Y-120467524D01*
X169194381Y-120181810D02*
X168194381Y-120181810D01*
X168337238Y-120277048D01*
X168432476Y-120372286D01*
X168480095Y-120467524D01*
X173446762Y-124277048D02*
X173494381Y-124134191D01*
X173494381Y-123896095D01*
X173446762Y-123800857D01*
X173399143Y-123753238D01*
X173303905Y-123705619D01*
X173208667Y-123705619D01*
X173113429Y-123753238D01*
X173065810Y-123800857D01*
X173018190Y-123896095D01*
X172970571Y-124086572D01*
X172922952Y-124181810D01*
X172875333Y-124229429D01*
X172780095Y-124277048D01*
X172684857Y-124277048D01*
X172589619Y-124229429D01*
X172542000Y-124181810D01*
X172494381Y-124086572D01*
X172494381Y-123848476D01*
X172542000Y-123705619D01*
X173494381Y-123277048D02*
X172494381Y-123277048D01*
X172494381Y-122896095D01*
X172542000Y-122800857D01*
X172589619Y-122753238D01*
X172684857Y-122705619D01*
X172827714Y-122705619D01*
X172922952Y-122753238D01*
X172970571Y-122800857D01*
X173018190Y-122896095D01*
X173018190Y-123277048D01*
X172970571Y-122277048D02*
X172970571Y-121943714D01*
X173494381Y-121800857D02*
X173494381Y-122277048D01*
X172494381Y-122277048D01*
X172494381Y-121800857D01*
X173208667Y-121419905D02*
X173208667Y-120943714D01*
X173494381Y-121515143D02*
X172494381Y-121181810D01*
X173494381Y-120848476D01*
X173494381Y-120515143D02*
X172494381Y-120515143D01*
X173494381Y-119943714D02*
X172922952Y-120372286D01*
X172494381Y-119943714D02*
X173065810Y-120515143D01*
X172970571Y-119515143D02*
X172970571Y-119181809D01*
X173494381Y-119038952D02*
X173494381Y-119515143D01*
X172494381Y-119515143D01*
X172494381Y-119038952D01*
X173494381Y-118038952D02*
X173018190Y-118372286D01*
X173494381Y-118610381D02*
X172494381Y-118610381D01*
X172494381Y-118229428D01*
X172542000Y-118134190D01*
X172589619Y-118086571D01*
X172684857Y-118038952D01*
X172827714Y-118038952D01*
X172922952Y-118086571D01*
X172970571Y-118134190D01*
X173018190Y-118229428D01*
X173018190Y-118610381D01*
X163004667Y-79652762D02*
X163147524Y-79700381D01*
X163385620Y-79700381D01*
X163480858Y-79652762D01*
X163528477Y-79605143D01*
X163576096Y-79509905D01*
X163576096Y-79414667D01*
X163528477Y-79319429D01*
X163480858Y-79271810D01*
X163385620Y-79224190D01*
X163195143Y-79176571D01*
X163099905Y-79128952D01*
X163052286Y-79081333D01*
X163004667Y-78986095D01*
X163004667Y-78890857D01*
X163052286Y-78795619D01*
X163099905Y-78748000D01*
X163195143Y-78700381D01*
X163433239Y-78700381D01*
X163576096Y-78748000D01*
X163909429Y-78700381D02*
X164147524Y-79700381D01*
X164338001Y-78986095D01*
X164528477Y-79700381D01*
X164766572Y-78700381D01*
X165671334Y-79700381D02*
X165099905Y-79700381D01*
X165385619Y-79700381D02*
X165385619Y-78700381D01*
X165290381Y-78843238D01*
X165195143Y-78938476D01*
X165099905Y-78986095D01*
X181523809Y-117476190D02*
X181523809Y-117952381D01*
X181190476Y-116952381D02*
X181523809Y-117476190D01*
X181857143Y-116952381D01*
X182714286Y-117952381D02*
X182142857Y-117952381D01*
X182428571Y-117952381D02*
X182428571Y-116952381D01*
X182333333Y-117095238D01*
X182238095Y-117190476D01*
X182142857Y-117238095D01*
X198338381Y-93048095D02*
X197338381Y-93048095D01*
X197338381Y-92810000D01*
X197386000Y-92667142D01*
X197481238Y-92571904D01*
X197576476Y-92524285D01*
X197766952Y-92476666D01*
X197909810Y-92476666D01*
X198100286Y-92524285D01*
X198195524Y-92571904D01*
X198290762Y-92667142D01*
X198338381Y-92810000D01*
X198338381Y-93048095D01*
X198338381Y-92000476D02*
X198338381Y-91810000D01*
X198290762Y-91714761D01*
X198243143Y-91667142D01*
X198100286Y-91571904D01*
X197909810Y-91524285D01*
X197528857Y-91524285D01*
X197433619Y-91571904D01*
X197386000Y-91619523D01*
X197338381Y-91714761D01*
X197338381Y-91905238D01*
X197386000Y-92000476D01*
X197433619Y-92048095D01*
X197528857Y-92095714D01*
X197766952Y-92095714D01*
X197862190Y-92048095D01*
X197909810Y-92000476D01*
X197957429Y-91905238D01*
X197957429Y-91714761D01*
X197909810Y-91619523D01*
X197862190Y-91571904D01*
X197766952Y-91524285D01*
X176704667Y-80954571D02*
X176371333Y-80954571D01*
X176371333Y-81478381D02*
X176371333Y-80478381D01*
X176847524Y-80478381D01*
X177752286Y-81478381D02*
X177180857Y-81478381D01*
X177466571Y-81478381D02*
X177466571Y-80478381D01*
X177371333Y-80621238D01*
X177276095Y-80716476D01*
X177180857Y-80764095D01*
X191539905Y-90622381D02*
X191539905Y-89622381D01*
X191920858Y-89622381D01*
X192016096Y-89670000D01*
X192063715Y-89717619D01*
X192111334Y-89812857D01*
X192111334Y-89955714D01*
X192063715Y-90050952D01*
X192016096Y-90098571D01*
X191920858Y-90146190D01*
X191539905Y-90146190D01*
X193016096Y-89622381D02*
X192539905Y-89622381D01*
X192492286Y-90098571D01*
X192539905Y-90050952D01*
X192635143Y-90003333D01*
X192873239Y-90003333D01*
X192968477Y-90050952D01*
X193016096Y-90098571D01*
X193063715Y-90193810D01*
X193063715Y-90431905D01*
X193016096Y-90527143D01*
X192968477Y-90574762D01*
X192873239Y-90622381D01*
X192635143Y-90622381D01*
X192539905Y-90574762D01*
X192492286Y-90527143D01*
X155979905Y-129758381D02*
X155979905Y-128758381D01*
X156360858Y-128758381D01*
X156456096Y-128806000D01*
X156503715Y-128853619D01*
X156551334Y-128948857D01*
X156551334Y-129091714D01*
X156503715Y-129186952D01*
X156456096Y-129234571D01*
X156360858Y-129282190D01*
X155979905Y-129282190D01*
X156884667Y-128758381D02*
X157551334Y-128758381D01*
X157122762Y-129758381D01*
X162075905Y-129758381D02*
X162075905Y-128758381D01*
X162456858Y-128758381D01*
X162552096Y-128806000D01*
X162599715Y-128853619D01*
X162647334Y-128948857D01*
X162647334Y-129091714D01*
X162599715Y-129186952D01*
X162552096Y-129234571D01*
X162456858Y-129282190D01*
X162075905Y-129282190D01*
X163504477Y-129091714D02*
X163504477Y-129758381D01*
X163266381Y-128710762D02*
X163028286Y-129425048D01*
X163647334Y-129425048D01*
X195107143Y-114857143D02*
X195059524Y-114904762D01*
X194916667Y-114952381D01*
X194821429Y-114952381D01*
X194678571Y-114904762D01*
X194583333Y-114809524D01*
X194535714Y-114714286D01*
X194488095Y-114523810D01*
X194488095Y-114380952D01*
X194535714Y-114190476D01*
X194583333Y-114095238D01*
X194678571Y-114000000D01*
X194821429Y-113952381D01*
X194916667Y-113952381D01*
X195059524Y-114000000D01*
X195107143Y-114047619D01*
X195488095Y-114047619D02*
X195535714Y-114000000D01*
X195630952Y-113952381D01*
X195869048Y-113952381D01*
X195964286Y-114000000D01*
X196011905Y-114047619D01*
X196059524Y-114142857D01*
X196059524Y-114238095D01*
X196011905Y-114380952D01*
X195440476Y-114952381D01*
X196059524Y-114952381D01*
X196964286Y-113952381D02*
X196488095Y-113952381D01*
X196440476Y-114428571D01*
X196488095Y-114380952D01*
X196583333Y-114333333D01*
X196821429Y-114333333D01*
X196916667Y-114380952D01*
X196964286Y-114428571D01*
X197011905Y-114523810D01*
X197011905Y-114761905D01*
X196964286Y-114857143D01*
X196916667Y-114904762D01*
X196821429Y-114952381D01*
X196583333Y-114952381D01*
X196488095Y-114904762D01*
X196440476Y-114857143D01*
X201012143Y-112402857D02*
X201059762Y-112450476D01*
X201107381Y-112593333D01*
X201107381Y-112688571D01*
X201059762Y-112831429D01*
X200964524Y-112926667D01*
X200869286Y-112974286D01*
X200678810Y-113021905D01*
X200535952Y-113021905D01*
X200345476Y-112974286D01*
X200250238Y-112926667D01*
X200155000Y-112831429D01*
X200107381Y-112688571D01*
X200107381Y-112593333D01*
X200155000Y-112450476D01*
X200202619Y-112402857D01*
X200202619Y-112021905D02*
X200155000Y-111974286D01*
X200107381Y-111879048D01*
X200107381Y-111640952D01*
X200155000Y-111545714D01*
X200202619Y-111498095D01*
X200297857Y-111450476D01*
X200393095Y-111450476D01*
X200535952Y-111498095D01*
X201107381Y-112069524D01*
X201107381Y-111450476D01*
X200107381Y-110593333D02*
X200107381Y-110783810D01*
X200155000Y-110879048D01*
X200202619Y-110926667D01*
X200345476Y-111021905D01*
X200535952Y-111069524D01*
X200916905Y-111069524D01*
X201012143Y-111021905D01*
X201059762Y-110974286D01*
X201107381Y-110879048D01*
X201107381Y-110688571D01*
X201059762Y-110593333D01*
X201012143Y-110545714D01*
X200916905Y-110498095D01*
X200678810Y-110498095D01*
X200583571Y-110545714D01*
X200535952Y-110593333D01*
X200488333Y-110688571D01*
X200488333Y-110879048D01*
X200535952Y-110974286D01*
X200583571Y-111021905D01*
X200678810Y-111069524D01*
X191111143Y-112656857D02*
X191158762Y-112704476D01*
X191206381Y-112847333D01*
X191206381Y-112942571D01*
X191158762Y-113085429D01*
X191063524Y-113180667D01*
X190968286Y-113228286D01*
X190777810Y-113275905D01*
X190634952Y-113275905D01*
X190444476Y-113228286D01*
X190349238Y-113180667D01*
X190254000Y-113085429D01*
X190206381Y-112942571D01*
X190206381Y-112847333D01*
X190254000Y-112704476D01*
X190301619Y-112656857D01*
X190301619Y-112275905D02*
X190254000Y-112228286D01*
X190206381Y-112133048D01*
X190206381Y-111894952D01*
X190254000Y-111799714D01*
X190301619Y-111752095D01*
X190396857Y-111704476D01*
X190492095Y-111704476D01*
X190634952Y-111752095D01*
X191206381Y-112323524D01*
X191206381Y-111704476D01*
X190206381Y-111371143D02*
X190206381Y-110704476D01*
X191206381Y-111133048D01*
X157170381Y-96400857D02*
X156694190Y-96734191D01*
X157170381Y-96972286D02*
X156170381Y-96972286D01*
X156170381Y-96591333D01*
X156218000Y-96496095D01*
X156265619Y-96448476D01*
X156360857Y-96400857D01*
X156503714Y-96400857D01*
X156598952Y-96448476D01*
X156646571Y-96496095D01*
X156694190Y-96591333D01*
X156694190Y-96972286D01*
X157170381Y-95448476D02*
X157170381Y-96019905D01*
X157170381Y-95734191D02*
X156170381Y-95734191D01*
X156313238Y-95829429D01*
X156408476Y-95924667D01*
X156456095Y-96019905D01*
X156170381Y-94543714D02*
X156170381Y-95019905D01*
X156646571Y-95067524D01*
X156598952Y-95019905D01*
X156551333Y-94924667D01*
X156551333Y-94686571D01*
X156598952Y-94591333D01*
X156646571Y-94543714D01*
X156741810Y-94496095D01*
X156979905Y-94496095D01*
X157075143Y-94543714D01*
X157122762Y-94591333D01*
X157170381Y-94686571D01*
X157170381Y-94924667D01*
X157122762Y-95019905D01*
X157075143Y-95067524D01*
X169838858Y-109148571D02*
X169981715Y-109196190D01*
X170029334Y-109243810D01*
X170076953Y-109339048D01*
X170076953Y-109481905D01*
X170029334Y-109577143D01*
X169981715Y-109624762D01*
X169886477Y-109672381D01*
X169505524Y-109672381D01*
X169505524Y-108672381D01*
X169838858Y-108672381D01*
X169934096Y-108720000D01*
X169981715Y-108767619D01*
X170029334Y-108862857D01*
X170029334Y-108958095D01*
X169981715Y-109053333D01*
X169934096Y-109100952D01*
X169838858Y-109148571D01*
X169505524Y-109148571D01*
X170696000Y-108672381D02*
X170886477Y-108672381D01*
X170981715Y-108720000D01*
X171076953Y-108815238D01*
X171124572Y-109005714D01*
X171124572Y-109339048D01*
X171076953Y-109529524D01*
X170981715Y-109624762D01*
X170886477Y-109672381D01*
X170696000Y-109672381D01*
X170600762Y-109624762D01*
X170505524Y-109529524D01*
X170457905Y-109339048D01*
X170457905Y-109005714D01*
X170505524Y-108815238D01*
X170600762Y-108720000D01*
X170696000Y-108672381D01*
X171743619Y-108672381D02*
X171934096Y-108672381D01*
X172029334Y-108720000D01*
X172124572Y-108815238D01*
X172172191Y-109005714D01*
X172172191Y-109339048D01*
X172124572Y-109529524D01*
X172029334Y-109624762D01*
X171934096Y-109672381D01*
X171743619Y-109672381D01*
X171648381Y-109624762D01*
X171553143Y-109529524D01*
X171505524Y-109339048D01*
X171505524Y-109005714D01*
X171553143Y-108815238D01*
X171648381Y-108720000D01*
X171743619Y-108672381D01*
X172457905Y-108672381D02*
X173029334Y-108672381D01*
X172743619Y-109672381D02*
X172743619Y-108672381D01*
X211613905Y-78700381D02*
X212232953Y-78700381D01*
X211899619Y-79081333D01*
X212042477Y-79081333D01*
X212137715Y-79128952D01*
X212185334Y-79176571D01*
X212232953Y-79271810D01*
X212232953Y-79509905D01*
X212185334Y-79605143D01*
X212137715Y-79652762D01*
X212042477Y-79700381D01*
X211756762Y-79700381D01*
X211661524Y-79652762D01*
X211613905Y-79605143D01*
X212518667Y-78700381D02*
X212852000Y-79700381D01*
X213185334Y-78700381D01*
X213423429Y-78700381D02*
X214042477Y-78700381D01*
X213709143Y-79081333D01*
X213852001Y-79081333D01*
X213947239Y-79128952D01*
X213994858Y-79176571D01*
X214042477Y-79271810D01*
X214042477Y-79509905D01*
X213994858Y-79605143D01*
X213947239Y-79652762D01*
X213852001Y-79700381D01*
X213566286Y-79700381D01*
X213471048Y-79652762D01*
X213423429Y-79605143D01*
X199961524Y-78700381D02*
X199485333Y-78700381D01*
X199437714Y-79176571D01*
X199485333Y-79128952D01*
X199580571Y-79081333D01*
X199818667Y-79081333D01*
X199913905Y-79128952D01*
X199961524Y-79176571D01*
X200009143Y-79271810D01*
X200009143Y-79509905D01*
X199961524Y-79605143D01*
X199913905Y-79652762D01*
X199818667Y-79700381D01*
X199580571Y-79700381D01*
X199485333Y-79652762D01*
X199437714Y-79605143D01*
X200294857Y-78700381D02*
X200628190Y-79700381D01*
X200961524Y-78700381D01*
X194818095Y-111466381D02*
X194818095Y-112275905D01*
X194865714Y-112371143D01*
X194913333Y-112418762D01*
X195008571Y-112466381D01*
X195199048Y-112466381D01*
X195294286Y-112418762D01*
X195341905Y-112371143D01*
X195389524Y-112275905D01*
X195389524Y-111466381D01*
X195770476Y-111466381D02*
X196389524Y-111466381D01*
X196056190Y-111847333D01*
X196199048Y-111847333D01*
X196294286Y-111894952D01*
X196341905Y-111942571D01*
X196389524Y-112037810D01*
X196389524Y-112275905D01*
X196341905Y-112371143D01*
X196294286Y-112418762D01*
X196199048Y-112466381D01*
X195913333Y-112466381D01*
X195818095Y-112418762D01*
X195770476Y-112371143D01*
M02*
