M48
;DRILL file {KiCad 4.0.1-stable} date 20/01/2016 23:37:09
;FORMAT={-:-/ absolute / inch / decimal}
FMAT,2
INCH,TZ
T1C0.024
T2C0.035
T3C0.043
T4C0.130
%
G90
G05
M72
T1
X6.0433Y-3.2579
X6.0709Y-3.187
X6.0709Y-3.3287
X6.1417Y-3.1594
X6.1417Y-3.3563
X6.2126Y-3.187
X6.2126Y-3.3287
X6.2402Y-3.2579
X8.5728Y-3.2579
X8.6004Y-3.187
X8.6004Y-3.3287
X8.6713Y-3.1594
X8.6713Y-3.3563
X8.7421Y-3.187
X8.7421Y-3.3287
X8.7697Y-3.2579
T2
X6.593Y-3.3406
X6.7662Y-3.3406
T3
X7.0509Y-3.3573
X7.4053Y-3.3573
X7.4709Y-3.3573
X7.5047Y-4.7627
X7.6678Y-3.3573
X7.8591Y-4.7627
T4
X6.1417Y-3.2579
X8.6713Y-3.2579
T0
M30
