G04 #@! TF.FileFunction,Copper,L1,Top,Signal*
%FSLAX46Y46*%
G04 Gerber Fmt 4.6, Leading zero omitted, Abs format (unit mm)*
G04 Created by KiCad (PCBNEW 4.0.1-stable) date 29/01/2016 20:58:12*
%MOMM*%
G01*
G04 APERTURE LIST*
%ADD10C,0.100000*%
%ADD11R,0.635000X0.300000*%
%ADD12C,1.600200*%
%ADD13C,2.565400*%
%ADD14R,1.400000X1.300000*%
%ADD15R,0.950000X1.000000*%
%ADD16R,1.900000X1.400000*%
%ADD17R,1.500000X0.800000*%
%ADD18R,0.750000X0.800000*%
%ADD19R,0.800000X0.750000*%
%ADD20R,0.797560X0.797560*%
%ADD21R,1.800860X2.499360*%
%ADD22R,0.650000X1.060000*%
%ADD23R,0.300000X1.200000*%
%ADD24R,1.200000X0.300000*%
%ADD25R,0.400000X1.400000*%
%ADD26R,1.500000X0.600000*%
%ADD27C,1.500000*%
%ADD28C,1.016000*%
%ADD29R,0.500380X2.301240*%
%ADD30R,1.998980X2.499360*%
%ADD31R,0.800100X0.800100*%
%ADD32R,0.500000X0.900000*%
%ADD33R,0.900000X0.500000*%
%ADD34R,1.600000X2.000000*%
%ADD35R,2.300000X2.500000*%
%ADD36R,0.500000X0.600000*%
%ADD37R,1.900000X1.000000*%
%ADD38R,2.032000X1.727200*%
%ADD39O,2.032000X1.727200*%
%ADD40R,1.727200X1.727200*%
%ADD41O,1.727200X1.727200*%
%ADD42C,2.999740*%
%ADD43R,0.600000X0.200000*%
%ADD44R,0.200000X0.600000*%
%ADD45C,0.800000*%
%ADD46C,0.280000*%
%ADD47C,0.500000*%
%ADD48C,0.300000*%
%ADD49C,0.200000*%
%ADD50C,0.250000*%
G04 APERTURE END LIST*
D10*
D11*
X196000000Y-108000000D03*
X196999998Y-108000000D03*
X196000000Y-107000002D03*
X196999998Y-107000002D03*
X196000000Y-106000004D03*
X196999998Y-106000004D03*
X196000000Y-105000006D03*
X196999998Y-105000006D03*
X196000000Y-104000008D03*
X196999998Y-104000008D03*
X196000000Y-103000010D03*
X196999998Y-103000010D03*
X196000000Y-102000012D03*
X196999998Y-102000012D03*
X196000000Y-101000014D03*
X196999998Y-101000014D03*
X196000000Y-100000016D03*
X196999998Y-100000016D03*
X196000000Y-99000018D03*
X196999998Y-99000018D03*
X196000000Y-98000020D03*
X196999998Y-98000020D03*
X196000000Y-97000022D03*
X196999998Y-97000022D03*
D12*
X222559891Y-115849998D03*
X222559891Y-115849998D03*
X214559907Y-89150024D03*
X214559907Y-89150024D03*
D13*
X226559883Y-116350124D03*
X226559883Y-116350124D03*
X210559915Y-116350124D03*
X210559915Y-116350124D03*
X226560899Y-88649898D03*
X226560899Y-88649898D03*
X210558899Y-88649898D03*
X210558899Y-88649898D03*
X218559899Y-88637198D03*
X218559899Y-88637198D03*
X218559899Y-116362824D03*
X218559899Y-116362824D03*
D14*
X167748000Y-101872000D03*
D15*
X167973000Y-103262000D03*
D14*
X167748000Y-107572000D03*
D16*
X154598000Y-100272000D03*
X153598000Y-113422000D03*
D17*
X156888000Y-101062000D03*
X156888000Y-102162000D03*
X156688000Y-103262000D03*
X156888000Y-104362000D03*
X156688000Y-105462000D03*
X156888000Y-106562000D03*
X157288000Y-107662000D03*
X156888000Y-108762000D03*
D18*
X167894000Y-91936000D03*
X167894000Y-90436000D03*
X178000000Y-113250000D03*
X178000000Y-114750000D03*
X177500000Y-118250000D03*
X177500000Y-116750000D03*
X186500000Y-118250000D03*
X186500000Y-116750000D03*
D19*
X161786000Y-88138000D03*
X160286000Y-88138000D03*
D18*
X180500000Y-113250000D03*
X180500000Y-114750000D03*
X186500000Y-113250000D03*
X186500000Y-114750000D03*
X184500000Y-113250000D03*
X184500000Y-114750000D03*
X188500000Y-113250000D03*
X188500000Y-114750000D03*
X191071500Y-108279500D03*
X191071500Y-109779500D03*
D19*
X191750000Y-98778000D03*
X193250000Y-98778000D03*
X191750000Y-100778000D03*
X193250000Y-100778000D03*
D18*
X169926000Y-91936000D03*
X169926000Y-90436000D03*
X171958000Y-92698000D03*
X171958000Y-91198000D03*
D19*
X173470000Y-114300000D03*
X171970000Y-114300000D03*
D18*
X157734000Y-90944000D03*
X157734000Y-92444000D03*
D19*
X207258000Y-91047000D03*
X205758000Y-91047000D03*
X206998000Y-82550000D03*
X205498000Y-82550000D03*
X206998000Y-80518000D03*
X205498000Y-80518000D03*
D18*
X202311000Y-90944000D03*
X202311000Y-92444000D03*
X200660000Y-92444000D03*
X200660000Y-90944000D03*
D19*
X202172000Y-82550000D03*
X200672000Y-82550000D03*
X202172000Y-80518000D03*
X200672000Y-80518000D03*
D18*
X199136000Y-95619000D03*
X199136000Y-94119000D03*
D20*
X207000000Y-124250700D03*
X207000000Y-125749300D03*
X211000000Y-124250700D03*
X211000000Y-125749300D03*
X215000000Y-124250700D03*
X215000000Y-125749300D03*
X219000000Y-124250700D03*
X219000000Y-125749300D03*
X223000000Y-124250700D03*
X223000000Y-125749300D03*
X227000000Y-124250700D03*
X227000000Y-125749300D03*
D21*
X197612000Y-85504020D03*
X197612000Y-89501980D03*
D22*
X177226000Y-90086000D03*
X176276000Y-90086000D03*
X175326000Y-90086000D03*
X175326000Y-92286000D03*
X177226000Y-92286000D03*
X176276000Y-92286000D03*
D23*
X175500000Y-110750000D03*
X176000000Y-110750000D03*
X176500000Y-110750000D03*
X177000000Y-110750000D03*
X177500000Y-110750000D03*
X178000000Y-110750000D03*
X178500000Y-110750000D03*
X179000000Y-110750000D03*
X179500000Y-110750000D03*
X180000000Y-110750000D03*
X180500000Y-110750000D03*
X181000000Y-110750000D03*
X181500000Y-110750000D03*
X182000000Y-110750000D03*
X182500000Y-110750000D03*
X183000000Y-110750000D03*
X183500000Y-110750000D03*
X184000000Y-110750000D03*
X184500000Y-110750000D03*
X185000000Y-110750000D03*
X185500000Y-110750000D03*
X186000000Y-110750000D03*
X186500000Y-110750000D03*
X187000000Y-110750000D03*
X187500000Y-110750000D03*
D24*
X189250000Y-109000000D03*
X189250000Y-108500000D03*
X189250000Y-108000000D03*
X189250000Y-107500000D03*
X189250000Y-107000000D03*
X189250000Y-106500000D03*
X189250000Y-106000000D03*
X189250000Y-105500000D03*
X189250000Y-105000000D03*
X189250000Y-104500000D03*
X189250000Y-104000000D03*
X189250000Y-103500000D03*
X189250000Y-103000000D03*
X189250000Y-102500000D03*
X189250000Y-102000000D03*
X189250000Y-101500000D03*
X189250000Y-101000000D03*
X189250000Y-100500000D03*
X189250000Y-100000000D03*
X189250000Y-99500000D03*
X189250000Y-99000000D03*
X189250000Y-98500000D03*
X189250000Y-98000000D03*
X189250000Y-97500000D03*
X189250000Y-97000000D03*
D23*
X187500000Y-95250000D03*
X187000000Y-95250000D03*
X186500000Y-95250000D03*
X186000000Y-95250000D03*
X185500000Y-95250000D03*
X185000000Y-95250000D03*
X184500000Y-95250000D03*
X184000000Y-95250000D03*
X183500000Y-95250000D03*
X183000000Y-95250000D03*
X182500000Y-95250000D03*
X182000000Y-95250000D03*
X181500000Y-95250000D03*
X181000000Y-95250000D03*
X180500000Y-95250000D03*
X180000000Y-95250000D03*
X179500000Y-95250000D03*
X179000000Y-95250000D03*
X178500000Y-95250000D03*
X178000000Y-95250000D03*
X177500000Y-95250000D03*
X177000000Y-95250000D03*
X176500000Y-95250000D03*
X176000000Y-95250000D03*
X175500000Y-95250000D03*
D24*
X173750000Y-97000000D03*
X173750000Y-97500000D03*
X173750000Y-98000000D03*
X173750000Y-98500000D03*
X173750000Y-99000000D03*
X173750000Y-99500000D03*
X173750000Y-100000000D03*
X173750000Y-100500000D03*
X173750000Y-101000000D03*
X173750000Y-101500000D03*
X173750000Y-102000000D03*
X173750000Y-102500000D03*
X173750000Y-103000000D03*
X173750000Y-103500000D03*
X173750000Y-104000000D03*
X173750000Y-104500000D03*
X173750000Y-105000000D03*
X173750000Y-105500000D03*
X173750000Y-106000000D03*
X173750000Y-106500000D03*
X173750000Y-107000000D03*
X173750000Y-107500000D03*
X173750000Y-108000000D03*
X173750000Y-108500000D03*
X173750000Y-109000000D03*
D25*
X207258000Y-84547000D03*
X206608000Y-84547000D03*
X205958000Y-84547000D03*
X205308000Y-84547000D03*
X205308000Y-88947000D03*
X205958000Y-88947000D03*
X206608000Y-88947000D03*
X207258000Y-88947000D03*
X202438000Y-84582000D03*
X201788000Y-84582000D03*
X201138000Y-84582000D03*
X200488000Y-84582000D03*
X200488000Y-88982000D03*
X201138000Y-88982000D03*
X201788000Y-88982000D03*
X202438000Y-88982000D03*
D26*
X193621000Y-95631000D03*
X193621000Y-94381000D03*
X193621000Y-93131000D03*
X191021000Y-93131000D03*
X191021000Y-94381000D03*
X191021000Y-95631000D03*
X193621000Y-91881000D03*
X191021000Y-91881000D03*
D27*
X180594000Y-87376000D03*
X182594000Y-87376000D03*
X184594000Y-87376000D03*
X186594000Y-87376000D03*
D28*
X160528000Y-91186000D03*
X161798000Y-91186000D03*
X160528000Y-92456000D03*
X161798000Y-92456000D03*
X160528000Y-93726000D03*
X161798000Y-93726000D03*
X160528000Y-94996000D03*
X161798000Y-94996000D03*
X160528000Y-96266000D03*
X161798000Y-96266000D03*
D27*
X198120000Y-118872000D03*
X196120000Y-118872000D03*
X194120000Y-118872000D03*
X192120000Y-118872000D03*
D29*
X171262200Y-87449320D03*
X170462100Y-87449320D03*
X169662000Y-87449320D03*
X168861900Y-87449320D03*
X168061800Y-87449320D03*
D30*
X174112080Y-87350260D03*
X174112080Y-81851160D03*
X165211920Y-87350260D03*
X165211920Y-81851160D03*
D31*
X186370000Y-122697240D03*
X184470000Y-122697240D03*
X185420000Y-124696220D03*
D32*
X170422000Y-114300000D03*
X168922000Y-114300000D03*
D33*
X182500000Y-113250000D03*
X182500000Y-114750000D03*
X171450000Y-95262000D03*
X171450000Y-96762000D03*
X167894000Y-94500000D03*
X167894000Y-96000000D03*
X158369000Y-97548000D03*
X158369000Y-99048000D03*
X160020000Y-97548000D03*
X160020000Y-99048000D03*
X207000000Y-122000000D03*
X207000000Y-120500000D03*
X211000000Y-122000000D03*
X211000000Y-120500000D03*
X215000000Y-122000000D03*
X215000000Y-120500000D03*
X219000000Y-122000000D03*
X219000000Y-120500000D03*
X223000000Y-122000000D03*
X223000000Y-120500000D03*
X227000000Y-122000000D03*
X227000000Y-120500000D03*
D32*
X181090000Y-122682000D03*
X179590000Y-122682000D03*
X181090000Y-124714000D03*
X179590000Y-124714000D03*
D27*
X170942000Y-117658000D03*
X170942000Y-124658000D03*
D34*
X161798000Y-85758000D03*
X161798000Y-80358000D03*
D35*
X179800000Y-117500000D03*
X184300000Y-117500000D03*
D36*
X199136000Y-92710000D03*
X199136000Y-91610000D03*
D37*
X177038000Y-82574000D03*
X177038000Y-85574000D03*
D27*
X191262000Y-87376000D03*
X193262000Y-87376000D03*
D38*
X156718000Y-124206000D03*
D39*
X156718000Y-121666000D03*
X156718000Y-119126000D03*
X156718000Y-116586000D03*
D40*
X162814000Y-124206000D03*
D41*
X160274000Y-124206000D03*
X162814000Y-121666000D03*
X160274000Y-121666000D03*
X162814000Y-119126000D03*
X160274000Y-119126000D03*
X162814000Y-116586000D03*
X160274000Y-116586000D03*
D19*
X199060500Y-114490500D03*
X197560500Y-114490500D03*
D18*
X198755000Y-111010000D03*
X198755000Y-112510000D03*
X192151000Y-112637000D03*
X192151000Y-111137000D03*
D33*
X156718000Y-97548000D03*
X156718000Y-99048000D03*
D42*
X171196000Y-111760000D03*
X210058000Y-80518000D03*
X197612000Y-80518000D03*
D43*
X193980000Y-110633000D03*
X193980000Y-111033000D03*
X193980000Y-111433000D03*
X193980000Y-111833000D03*
X193980000Y-112233000D03*
X193980000Y-112633000D03*
D44*
X194580000Y-113233000D03*
X194980000Y-113233000D03*
X195380000Y-113233000D03*
X195780000Y-113233000D03*
X196180000Y-113233000D03*
X196580000Y-113233000D03*
D43*
X197180000Y-112633000D03*
X197180000Y-112233000D03*
X197180000Y-111833000D03*
X197180000Y-111433000D03*
X197180000Y-111033000D03*
X197180000Y-110633000D03*
D44*
X196580000Y-110033000D03*
X196180000Y-110033000D03*
X195780000Y-110033000D03*
X195380000Y-110033000D03*
X194980000Y-110033000D03*
X194580000Y-110033000D03*
D45*
X196532500Y-114363500D03*
X160274000Y-89408000D03*
X159250000Y-79750000D03*
X198882000Y-113538000D03*
X192151000Y-110109000D03*
X197358000Y-109474000D03*
X188023500Y-108775500D03*
X181991000Y-120396000D03*
X199136000Y-82804000D03*
X182880000Y-122682000D03*
X168910000Y-89408000D03*
X175260000Y-107950000D03*
X194564000Y-99822000D03*
X158496000Y-103378000D03*
X205486000Y-125730000D03*
X195072000Y-93726000D03*
X171958000Y-115570000D03*
X176784000Y-96647000D03*
X198247000Y-93345000D03*
X203962000Y-83439000D03*
X202311000Y-93599000D03*
X183500000Y-114000000D03*
X179500000Y-114000000D03*
X179500000Y-112500000D03*
X201168000Y-120650000D03*
X201168000Y-118872000D03*
X200152000Y-96520000D03*
X201803000Y-94742000D03*
X188976000Y-127000000D03*
X199644000Y-101600000D03*
X194437000Y-101600000D03*
X199009000Y-103949500D03*
X192532000Y-103759000D03*
X194564000Y-103187500D03*
X199644000Y-103187500D03*
X170180000Y-109728000D03*
X172212000Y-109728000D03*
X166878000Y-93218000D03*
X170053000Y-93345000D03*
X169164000Y-95250000D03*
X169164000Y-97536000D03*
X199009000Y-102425500D03*
X193802000Y-102425500D03*
X194183000Y-117475000D03*
X198247000Y-117475000D03*
X195834000Y-108839000D03*
X193802000Y-109220000D03*
X164592000Y-92202000D03*
X164592000Y-94742000D03*
X189484000Y-113538000D03*
X186626500Y-109220000D03*
X183515000Y-109220000D03*
X188468000Y-110871000D03*
X154559000Y-98806000D03*
X154178000Y-102489000D03*
X200279000Y-116459000D03*
X198247000Y-116459000D03*
X193675000Y-106235500D03*
X194119500Y-108267500D03*
X189230000Y-95250000D03*
X189230000Y-91948000D03*
X186944000Y-92710000D03*
X188214000Y-93980000D03*
X172212000Y-101854000D03*
X175387000Y-101854000D03*
X164084000Y-100330000D03*
X159893000Y-100203000D03*
X163322000Y-96774000D03*
X165862000Y-99187000D03*
X170281600Y-99314000D03*
X167894000Y-97536000D03*
X160870900Y-103797100D03*
X158242000Y-100203000D03*
X162814000Y-102362000D03*
X169164000Y-102362000D03*
D46*
X190296800Y-108000800D02*
X189250000Y-108000000D01*
D47*
X185975000Y-109775000D02*
X184500000Y-108300000D01*
X184500000Y-108300000D02*
X184500000Y-109728000D01*
D46*
X184500000Y-109728000D02*
X184500000Y-110750000D01*
D47*
X187152000Y-108300000D02*
X184500000Y-108300000D01*
X187152000Y-108300000D02*
X187452000Y-108000000D01*
X184500000Y-108300000D02*
X182403000Y-108300000D01*
X182403000Y-108300000D02*
X181703000Y-109000000D01*
X180467000Y-109000000D02*
X181703000Y-109000000D01*
D48*
X187452000Y-108000000D02*
X188231800Y-108000000D01*
X188231800Y-108000000D02*
X189250000Y-108000000D01*
D47*
X187452000Y-97917000D02*
X187452000Y-108000000D01*
X188595000Y-96774000D02*
X189250000Y-96774000D01*
X187452000Y-97917000D02*
X188595000Y-96774000D01*
X191750000Y-98778000D02*
X191750000Y-96774000D01*
X189250000Y-96774000D02*
X191750000Y-96774000D01*
X191750000Y-96774000D02*
X192786000Y-96774000D01*
X192810000Y-96750000D02*
X193421000Y-96139000D01*
X193421000Y-96139000D02*
X193421000Y-95631000D01*
X192786000Y-96774000D02*
X192810000Y-96750000D01*
D49*
X189250000Y-97000000D02*
X189250000Y-96774000D01*
D47*
X202057000Y-119750726D02*
X202057030Y-119750756D01*
X164719000Y-83820000D02*
X161180000Y-83820000D01*
X157750000Y-87250000D02*
X157750000Y-90928000D01*
X161180000Y-83820000D02*
X157750000Y-87250000D01*
X156718000Y-97548000D02*
X158369000Y-97548000D01*
X158369000Y-97548000D02*
X160020000Y-97548000D01*
X158369000Y-97548000D02*
X158254000Y-97548000D01*
X158254000Y-97548000D02*
X156337000Y-95631000D01*
X157750000Y-90928000D02*
X157734000Y-90944000D01*
X198120000Y-118618000D02*
X194119500Y-114617500D01*
D48*
X199898000Y-113157000D02*
X199898000Y-115443000D01*
X198755000Y-112510000D02*
X199251000Y-112510000D01*
X199251000Y-112510000D02*
X199898000Y-113157000D01*
X199517000Y-117475000D02*
X198120000Y-118872000D01*
X199517000Y-115824000D02*
X199517000Y-117475000D01*
X199898000Y-115443000D02*
X199517000Y-115824000D01*
D49*
X197180000Y-112633000D02*
X198632000Y-112633000D01*
X198632000Y-112633000D02*
X198755000Y-112510000D01*
D47*
X193167000Y-109855000D02*
X193167000Y-111621000D01*
X193167000Y-111621000D02*
X192151000Y-112637000D01*
X194119500Y-114617500D02*
X194119500Y-114605500D01*
X194119500Y-114605500D02*
X192151000Y-112637000D01*
D49*
X194980000Y-113233000D02*
X194980000Y-113757000D01*
X194980000Y-113757000D02*
X194119500Y-114617500D01*
D47*
X198120000Y-118872000D02*
X198120000Y-118618000D01*
D49*
X193980000Y-110633000D02*
X193945000Y-110633000D01*
X193945000Y-110633000D02*
X193421000Y-110109000D01*
D47*
X191071500Y-108279500D02*
X191591500Y-108279500D01*
X191591500Y-108279500D02*
X192913000Y-109601000D01*
X192913000Y-109601000D02*
X193167000Y-109855000D01*
X193167000Y-109855000D02*
X193421000Y-110109000D01*
X193421000Y-110109000D02*
X193294000Y-109982000D01*
X198120000Y-118872000D02*
X197866000Y-118872000D01*
D48*
X190792800Y-108000800D02*
X190296800Y-108000800D01*
X190792800Y-108000800D02*
X191071500Y-108279500D01*
D47*
X178000000Y-109000000D02*
X180467000Y-109000000D01*
X180467000Y-109000000D02*
X180500000Y-109000000D01*
X208018500Y-119768500D02*
X208750000Y-120500000D01*
X202057030Y-119750756D02*
X202564648Y-119752267D01*
X211000000Y-120500000D02*
X208750000Y-120500000D01*
X202564648Y-119752267D02*
X208018500Y-119768500D01*
X198998000Y-119750000D02*
X202057030Y-119750756D01*
X198120000Y-118872000D02*
X198998000Y-119750000D01*
X164846000Y-126238000D02*
X162306000Y-126238000D01*
X162306000Y-126238000D02*
X160274000Y-124206000D01*
X164890998Y-126238000D02*
X164846000Y-126238000D01*
X170942000Y-117658000D02*
X170942000Y-120186998D01*
X164846000Y-126282998D02*
X164846000Y-126238000D01*
X164846000Y-126238000D02*
X164846000Y-126238000D01*
X170942000Y-120186998D02*
X164846000Y-126282998D01*
X173470000Y-115570000D02*
X173470000Y-116344000D01*
X172156000Y-117658000D02*
X170942000Y-117658000D01*
X173470000Y-116344000D02*
X172156000Y-117658000D01*
X153162000Y-99695000D02*
X153162000Y-101473000D01*
X153162000Y-99695000D02*
X153162000Y-98806000D01*
X156337000Y-95631000D02*
X153162000Y-98806000D01*
X155575000Y-105410000D02*
X156636000Y-105410000D01*
X155194000Y-105029000D02*
X155575000Y-105410000D01*
X155194000Y-101473000D02*
X155194000Y-105029000D01*
X153162000Y-101473000D02*
X155194000Y-101473000D01*
D46*
X185500000Y-110250000D02*
X185975000Y-109775000D01*
X186000000Y-110750000D02*
X185975000Y-109775000D01*
D47*
X164846000Y-126238000D02*
X164846000Y-126238000D01*
X164719000Y-83820000D02*
X163703000Y-84836000D01*
X164973000Y-83820000D02*
X164719000Y-83820000D01*
X163703000Y-84836000D02*
X163703000Y-89027000D01*
X163703000Y-89027000D02*
X166624000Y-91948000D01*
X166624000Y-91948000D02*
X166636000Y-91936000D01*
X166636000Y-91936000D02*
X167894000Y-91936000D01*
X170688000Y-83820000D02*
X164973000Y-83820000D01*
X179578000Y-83820000D02*
X170688000Y-83820000D01*
X179832000Y-83820000D02*
X181102000Y-85090000D01*
X179578000Y-83820000D02*
X179832000Y-83820000D01*
X167894000Y-91936000D02*
X169926000Y-91936000D01*
X167894000Y-93218000D02*
X167894000Y-94500000D01*
X156337000Y-95631000D02*
X156337000Y-92341000D01*
X156337000Y-92341000D02*
X157734000Y-90944000D01*
X156636000Y-105410000D02*
X156688000Y-105462000D01*
X167894000Y-93218000D02*
X167894000Y-93230000D01*
X167894000Y-93230000D02*
X167894000Y-91936000D01*
X157734000Y-90944000D02*
X157722000Y-90932000D01*
X160528000Y-91186000D02*
X160286000Y-90944000D01*
X160286000Y-90944000D02*
X157734000Y-90944000D01*
X171450000Y-95262000D02*
X171450000Y-94488000D01*
X167894000Y-93218000D02*
X167906000Y-93206000D01*
X167894000Y-93218000D02*
X169672000Y-94488000D01*
X169672000Y-94488000D02*
X170434000Y-94488000D01*
X180594000Y-87376000D02*
X180594000Y-85598000D01*
X180594000Y-85598000D02*
X181102000Y-85090000D01*
X181102000Y-85090000D02*
X181864000Y-85852000D01*
X192278000Y-90932000D02*
X192024000Y-90932000D01*
X192278000Y-90932000D02*
X194818000Y-90932000D01*
X194818000Y-90932000D02*
X196596000Y-92710000D01*
X196596000Y-95619000D02*
X196596000Y-92710000D01*
X192024000Y-90932000D02*
X186944000Y-85852000D01*
X181864000Y-85852000D02*
X186944000Y-85852000D01*
X180594000Y-87376000D02*
X180594000Y-87122000D01*
D46*
X178000000Y-110750000D02*
X178000000Y-109000000D01*
D47*
X175480000Y-109000000D02*
X178000000Y-109000000D01*
X173470000Y-115582000D02*
X173470000Y-115570000D01*
X173470000Y-115570000D02*
X173470000Y-114300000D01*
X173470000Y-114300000D02*
X173470000Y-111010000D01*
X173470000Y-111010000D02*
X175480000Y-109000000D01*
D46*
X175500000Y-95250000D02*
X174752000Y-95250000D01*
D47*
X170434000Y-94488000D02*
X171450000Y-94488000D01*
X171450000Y-94488000D02*
X173228000Y-94488000D01*
X173228000Y-94488000D02*
X173990000Y-95250000D01*
X173990000Y-95250000D02*
X174752000Y-95250000D01*
X199136000Y-95619000D02*
X196596000Y-95619000D01*
X196596000Y-95619000D02*
X193433000Y-95619000D01*
X193433000Y-95619000D02*
X193421000Y-95631000D01*
X207258000Y-91047000D02*
X207258000Y-91700000D01*
X207258000Y-91700000D02*
X203327000Y-95631000D01*
X203327000Y-95631000D02*
X202438007Y-95628455D01*
X202438007Y-95628455D02*
X202311008Y-95628091D01*
X202311008Y-95628091D02*
X199136000Y-95619000D01*
D46*
X207258000Y-84547000D02*
X205958000Y-84547000D01*
D47*
X207258000Y-84547000D02*
X207258000Y-82810000D01*
X207258000Y-82810000D02*
X206998000Y-82550000D01*
X206608000Y-84547000D02*
X206608000Y-82940000D01*
X206608000Y-82940000D02*
X206998000Y-82550000D01*
D46*
X205958000Y-84547000D02*
X205958000Y-83590000D01*
D47*
X205958000Y-83590000D02*
X206998000Y-82550000D01*
X206998000Y-80518000D02*
X209900000Y-80518000D01*
X209900000Y-80518000D02*
X209931000Y-80487000D01*
X206998000Y-82550000D02*
X206998000Y-80518000D01*
D46*
X173750000Y-109000000D02*
X175480000Y-109000000D01*
X185500000Y-110750000D02*
X185500000Y-110250000D01*
D47*
X208258000Y-85047000D02*
X208258000Y-90047000D01*
X207258000Y-84547000D02*
X207758000Y-84547000D01*
X207758000Y-84547000D02*
X208258000Y-85047000D01*
X208258000Y-90047000D02*
X207258000Y-91047000D01*
D46*
X178000000Y-113250000D02*
X180500000Y-113250000D01*
D47*
X188500000Y-113250000D02*
X186500000Y-113250000D01*
D50*
X185500000Y-111463590D02*
X186249945Y-112213535D01*
D47*
X186249945Y-112213535D02*
X186500000Y-112463590D01*
D46*
X186000000Y-110750000D02*
X186000000Y-111963590D01*
D47*
X186000000Y-111963590D02*
X186249945Y-112213535D01*
D50*
X185500000Y-110750000D02*
X185500000Y-111463590D01*
D47*
X186500000Y-112463590D02*
X186500000Y-112600000D01*
X186500000Y-112600000D02*
X186500000Y-113250000D01*
D46*
X178000000Y-110750000D02*
X178000000Y-111600000D01*
X178000000Y-111600000D02*
X178000000Y-113250000D01*
X184500000Y-110750000D02*
X184500000Y-113250000D01*
X180500000Y-110750000D02*
X180500000Y-113250000D01*
D49*
X196180000Y-113233000D02*
X196180000Y-114011000D01*
X196180000Y-114011000D02*
X196532500Y-114363500D01*
X196189950Y-113252948D02*
X196170002Y-113233000D01*
X196170002Y-113233000D02*
X196180000Y-113233000D01*
D47*
X160286000Y-88138000D02*
X160286000Y-89396000D01*
X160286000Y-89396000D02*
X160274000Y-89408000D01*
X159250000Y-79750000D02*
X160682000Y-79750000D01*
X160682000Y-79750000D02*
X161290000Y-80358000D01*
X199060500Y-114490500D02*
X199060500Y-113716500D01*
D49*
X197180000Y-110633000D02*
X198378000Y-110633000D01*
X198378000Y-110633000D02*
X198755000Y-111010000D01*
D47*
X191510000Y-110496000D02*
X191764000Y-110496000D01*
X191764000Y-110496000D02*
X192151000Y-110109000D01*
X191071500Y-109779500D02*
X191071500Y-110057500D01*
X191071500Y-110057500D02*
X191510000Y-110496000D01*
X191510000Y-110496000D02*
X192151000Y-111137000D01*
D49*
X197180000Y-109601000D02*
X197231000Y-109601000D01*
X197231000Y-109601000D02*
X197358000Y-109474000D01*
X196469000Y-109220000D02*
X196850000Y-109220000D01*
X196180000Y-109509000D02*
X196469000Y-109220000D01*
X196180000Y-110033000D02*
X196180000Y-109509000D01*
X197180000Y-109550000D02*
X197180000Y-109601000D01*
X197180000Y-109601000D02*
X197180000Y-110633000D01*
X196850000Y-109220000D02*
X197180000Y-109550000D01*
X198806500Y-113613500D02*
X198882000Y-113538000D01*
D48*
X189250000Y-108500000D02*
X188299000Y-108500000D01*
X188299000Y-108500000D02*
X188023500Y-108775500D01*
X191071500Y-109779500D02*
X191071500Y-109664500D01*
X191071500Y-109664500D02*
X190588900Y-109181900D01*
X190588900Y-109181900D02*
X190500000Y-109093000D01*
X190246000Y-108500000D02*
X190246000Y-108839000D01*
D46*
X189250000Y-108500000D02*
X190246000Y-108500000D01*
D48*
X190246000Y-108839000D02*
X190500000Y-109093000D01*
D47*
X187579000Y-118745000D02*
X185928000Y-120396000D01*
X176403000Y-117856000D02*
X176403000Y-118745000D01*
X176403000Y-118745000D02*
X178054000Y-120396000D01*
X187579000Y-117856000D02*
X187579000Y-117829000D01*
X187579000Y-117829000D02*
X186500000Y-116750000D01*
X177500000Y-116750000D02*
X177500000Y-116759000D01*
X177500000Y-116759000D02*
X176403000Y-117856000D01*
X178054000Y-120396000D02*
X181991000Y-120396000D01*
X181991000Y-120396000D02*
X185928000Y-120396000D01*
X187579000Y-118745000D02*
X187579000Y-117856000D01*
X200672000Y-82550000D02*
X199390000Y-82550000D01*
X199390000Y-82550000D02*
X199136000Y-82804000D01*
X184470000Y-122697240D02*
X182895240Y-122697240D01*
X182895240Y-122697240D02*
X182880000Y-122682000D01*
X161290000Y-80358000D02*
X161196000Y-80264000D01*
X168910000Y-89408000D02*
X168021000Y-89408000D01*
X168061800Y-87449320D02*
X168021000Y-87490120D01*
X168021000Y-87490120D02*
X168021000Y-89408000D01*
X168021000Y-89408000D02*
X168021000Y-90309000D01*
X168021000Y-90309000D02*
X167894000Y-90436000D01*
D46*
X174710000Y-108500000D02*
X175260000Y-107950000D01*
X173750000Y-108500000D02*
X174710000Y-108500000D01*
D47*
X196000000Y-98000020D02*
X194988980Y-98000020D01*
X194988980Y-98000020D02*
X194564000Y-98425000D01*
X194564000Y-98425000D02*
X194564000Y-99822000D01*
X161290000Y-80772000D02*
X161290000Y-80358000D01*
X156688000Y-103262000D02*
X156804000Y-103378000D01*
X156804000Y-103378000D02*
X158496000Y-103378000D01*
X156636000Y-103124000D02*
X156688000Y-103176000D01*
X207000000Y-125749300D02*
X206980700Y-125730000D01*
X206980700Y-125730000D02*
X205486000Y-125730000D01*
X175704000Y-91250000D02*
X171912000Y-91250000D01*
D46*
X176276000Y-90086000D02*
X176276000Y-90805000D01*
X176276000Y-90805000D02*
X175704000Y-91250000D01*
D47*
X167894000Y-90436000D02*
X169926000Y-90436000D01*
X169926000Y-90436000D02*
X169938000Y-90424000D01*
X169938000Y-90424000D02*
X171086000Y-90424000D01*
X171086000Y-90424000D02*
X171912000Y-91250000D01*
X157734000Y-92444000D02*
X157746000Y-92456000D01*
X157746000Y-92456000D02*
X160528000Y-92456000D01*
X193421000Y-93131000D02*
X194477000Y-93131000D01*
X194417000Y-94381000D02*
X193421000Y-94381000D01*
X194417000Y-94381000D02*
X195072000Y-93726000D01*
X194477000Y-93131000D02*
X195072000Y-93726000D01*
X170180000Y-114288000D02*
X171958000Y-114288000D01*
X171958000Y-114288000D02*
X171958000Y-115570000D01*
D46*
X176000000Y-95250000D02*
X176000000Y-96244000D01*
X176000000Y-96244000D02*
X176784000Y-96647000D01*
D47*
X198247000Y-93345000D02*
X199136000Y-93345000D01*
X194564000Y-99822000D02*
X194564000Y-100457000D01*
X195107014Y-101000014D02*
X196000000Y-101000014D01*
X194564000Y-100457000D02*
X195107014Y-101000014D01*
X194564000Y-99822000D02*
X193250000Y-99822000D01*
X199136000Y-92710000D02*
X199136000Y-93345000D01*
X199136000Y-93345000D02*
X199136000Y-94119000D01*
X205216000Y-84455000D02*
X204724000Y-84455000D01*
X203962000Y-83693000D02*
X204724000Y-84455000D01*
X204851000Y-82550000D02*
X203962000Y-83439000D01*
X204851000Y-82550000D02*
X205498000Y-82550000D01*
X203962000Y-83439000D02*
X203962000Y-83693000D01*
D46*
X205216000Y-84455000D02*
X205308000Y-84547000D01*
D47*
X202311000Y-92444000D02*
X202311000Y-93599000D01*
D46*
X200672000Y-82550000D02*
X200672000Y-83554000D01*
X200488000Y-83738000D02*
X200488000Y-84582000D01*
X200672000Y-83554000D02*
X200488000Y-83738000D01*
D47*
X205498000Y-80518000D02*
X205498000Y-82550000D01*
X200672000Y-80518000D02*
X200672000Y-82550000D01*
X223000000Y-125749300D02*
X227000000Y-125749300D01*
X223000000Y-125749300D02*
X219000000Y-125749300D01*
X215000000Y-125749300D02*
X219000000Y-125749300D01*
X211000000Y-125749300D02*
X215000000Y-125749300D01*
X207000000Y-125749300D02*
X211000000Y-125749300D01*
X227000000Y-125749300D02*
X226500700Y-125749300D01*
X226500700Y-125749300D02*
X226500000Y-125750000D01*
X226500000Y-125750000D02*
X226500000Y-125749300D01*
X184500000Y-114750000D02*
X184250000Y-114750000D01*
X184250000Y-114750000D02*
X183500000Y-114000000D01*
X179500000Y-114000000D02*
X179750000Y-114000000D01*
X179750000Y-114000000D02*
X180500000Y-114750000D01*
D46*
X180000000Y-110750000D02*
X180000000Y-112000000D01*
X180000000Y-112000000D02*
X179500000Y-112500000D01*
D47*
X193225000Y-98778000D02*
X193250000Y-98778000D01*
X186500000Y-114750000D02*
X186500000Y-116750000D01*
X177500000Y-116750000D02*
X177500000Y-115250000D01*
X177500000Y-115250000D02*
X178000000Y-114750000D01*
X195999988Y-102000000D02*
X196000000Y-102000012D01*
X195822200Y-101000014D02*
X196000000Y-101000014D01*
X196000000Y-102000012D02*
X196000000Y-101000014D01*
X196000000Y-102000012D02*
X196999998Y-102000012D01*
X193250000Y-98778000D02*
X193250000Y-99822000D01*
X193250000Y-99822000D02*
X193250000Y-100778000D01*
X186500000Y-114750000D02*
X184500000Y-114750000D01*
X188500000Y-114750000D02*
X186500000Y-114750000D01*
X178000000Y-114750000D02*
X180500000Y-114750000D01*
D46*
X185000000Y-110750000D02*
X185000000Y-111600000D01*
D50*
X185000000Y-111600000D02*
X185200001Y-111800001D01*
X185200001Y-111800001D02*
X185200001Y-114024999D01*
D47*
X185200001Y-114024999D02*
X184500000Y-114725000D01*
X184500000Y-114725000D02*
X184500000Y-114750000D01*
X180500000Y-114725000D02*
X180500000Y-114750000D01*
D46*
X180000000Y-117500000D02*
X181200001Y-116299999D01*
X181000000Y-111600000D02*
X181000000Y-110750000D01*
X181000000Y-112500000D02*
X181000000Y-111600000D01*
D50*
X181200001Y-112700001D02*
X181000000Y-112500000D01*
X181200001Y-116299999D02*
X181200001Y-112700001D01*
D46*
X177500000Y-118250000D02*
X179250000Y-118250000D01*
X179250000Y-118250000D02*
X180000000Y-117500000D01*
X184100000Y-117500000D02*
X182500000Y-115900000D01*
X182500000Y-115900000D02*
X182500000Y-114750000D01*
X186500000Y-118250000D02*
X184850000Y-118250000D01*
X184850000Y-118250000D02*
X184100000Y-117500000D01*
X184000000Y-117400000D02*
X184100000Y-117500000D01*
X189250000Y-97500000D02*
X190210000Y-97500000D01*
X190694000Y-100778000D02*
X191750000Y-100778000D01*
X190500000Y-100584000D02*
X190694000Y-100778000D01*
X190500000Y-97790000D02*
X190500000Y-100584000D01*
X190210000Y-97500000D02*
X190500000Y-97790000D01*
D50*
X174244000Y-94234000D02*
X176276000Y-94234000D01*
D46*
X171958000Y-92698000D02*
X172708000Y-92698000D01*
X174244000Y-94234000D02*
X172708000Y-92698000D01*
D50*
X176479200Y-94437200D02*
X176276000Y-94234000D01*
D46*
X176479200Y-94488000D02*
X176479200Y-94437200D01*
D50*
X176479200Y-94488000D02*
X176479200Y-95229200D01*
X176500000Y-95250000D02*
X176479200Y-95229200D01*
D46*
X171912000Y-92775000D02*
X171912000Y-92750000D01*
X205308000Y-88947000D02*
X205308000Y-90597000D01*
X205308000Y-90597000D02*
X205758000Y-91047000D01*
D47*
X197612000Y-85504020D02*
X199550020Y-85504020D01*
X199550020Y-85504020D02*
X201803000Y-87757000D01*
X202438000Y-88982000D02*
X202438000Y-90817000D01*
X202438000Y-90817000D02*
X202311000Y-90944000D01*
X201788000Y-88982000D02*
X201788000Y-90421000D01*
X201788000Y-90421000D02*
X202311000Y-90944000D01*
X202438000Y-88982000D02*
X202438000Y-88392000D01*
X202438000Y-88392000D02*
X201803000Y-87757000D01*
X201803000Y-87630000D02*
X201803000Y-87757000D01*
X201803000Y-87757000D02*
X201803000Y-88967000D01*
X201803000Y-88967000D02*
X201788000Y-88982000D01*
D46*
X201138000Y-88982000D02*
X201138000Y-88295000D01*
X201138000Y-88295000D02*
X201803000Y-87630000D01*
D47*
X201168000Y-120650000D02*
X206850000Y-120650000D01*
X206850000Y-120650000D02*
X207000000Y-120500000D01*
X188976000Y-127000000D02*
X195326000Y-127000000D01*
X201168000Y-121158000D02*
X201168000Y-120650000D01*
X195326000Y-127000000D02*
X201168000Y-121158000D01*
X198120000Y-107061000D02*
X201168000Y-110109000D01*
X198120000Y-105299762D02*
X198120000Y-107061000D01*
X198120000Y-105299762D02*
X198120000Y-103000010D01*
X201168000Y-110109000D02*
X201168000Y-118872000D01*
D48*
X196999998Y-104000008D02*
X196999998Y-103000010D01*
D47*
X196999998Y-103000010D02*
X198120000Y-103000010D01*
X198120000Y-103000010D02*
X198120000Y-98552000D01*
X198120000Y-98552000D02*
X200152000Y-96520000D01*
X201803000Y-94742000D02*
X201676000Y-94742000D01*
X188976000Y-127000000D02*
X188976000Y-127000000D01*
X180086000Y-80542000D02*
X179070000Y-80542000D01*
X197588000Y-80542000D02*
X180086000Y-80542000D01*
X179070000Y-80542000D02*
X177038000Y-82574000D01*
X197588000Y-80542000D02*
X197612000Y-80518000D01*
X200660000Y-92444000D02*
X200660000Y-93726000D01*
X200660000Y-93726000D02*
X201676000Y-94742000D01*
X201676000Y-94742000D02*
X201930000Y-94742000D01*
X202565000Y-94742000D02*
X203835000Y-93472000D01*
X201930000Y-94742000D02*
X202565000Y-94742000D01*
X203835000Y-93472000D02*
X203835000Y-86621500D01*
D46*
X205958000Y-88947000D02*
X206608000Y-88947000D01*
D47*
X206608000Y-88947000D02*
X207258000Y-88947000D01*
X203827500Y-86621500D02*
X203835000Y-86621500D01*
X203835000Y-86621500D02*
X205732500Y-86621500D01*
X206608000Y-87497000D02*
X206608000Y-88947000D01*
X205732500Y-86621500D02*
X206608000Y-87497000D01*
X203827500Y-86621500D02*
X201788000Y-84582000D01*
X201788000Y-84582000D02*
X202438000Y-84582000D01*
D46*
X201138000Y-84582000D02*
X201138000Y-84231000D01*
X201138000Y-84231000D02*
X202184000Y-83185000D01*
X201138000Y-84582000D02*
X201788000Y-84582000D01*
D47*
X202438000Y-84582000D02*
X202438000Y-83439000D01*
X202438000Y-83439000D02*
X202184000Y-83185000D01*
X202184000Y-83185000D02*
X202172000Y-83173000D01*
X201788000Y-84582000D02*
X201788000Y-83581000D01*
X202172000Y-83197000D02*
X202172000Y-83173000D01*
X202172000Y-83173000D02*
X202172000Y-82550000D01*
X201788000Y-83581000D02*
X202172000Y-83197000D01*
X197612000Y-80518000D02*
X197866000Y-80518000D01*
X197866000Y-80518000D02*
X199009000Y-79375000D01*
X199009000Y-79375000D02*
X201029000Y-79375000D01*
X201029000Y-79375000D02*
X202172000Y-80518000D01*
X202172000Y-80518000D02*
X202172000Y-82550000D01*
X197612000Y-81026000D02*
X197866000Y-81026000D01*
X196000000Y-103000010D02*
X196999998Y-103000010D01*
D46*
X200660000Y-90944000D02*
X200660000Y-90170000D01*
X200488000Y-89998000D02*
X200488000Y-88982000D01*
X200660000Y-90170000D02*
X200488000Y-89998000D01*
X207000000Y-122000000D02*
X207000000Y-124250700D01*
X211000000Y-122000000D02*
X211000000Y-124250700D01*
X215000000Y-122000000D02*
X215000000Y-124250700D01*
X219000000Y-122000000D02*
X219000000Y-124250700D01*
X223000000Y-122000000D02*
X223000000Y-124250700D01*
X227000000Y-122000000D02*
X227000000Y-124250700D01*
D47*
X178117500Y-91186000D02*
X177673000Y-91186000D01*
D46*
X176276000Y-91567000D02*
X176720500Y-91186000D01*
X176720500Y-91186000D02*
X177673000Y-91186000D01*
X176276000Y-91567000D02*
X176276000Y-92286000D01*
D47*
X177038000Y-85574000D02*
X178117500Y-86653500D01*
X178117500Y-86653500D02*
X178117500Y-91186000D01*
X178117500Y-91186000D02*
X178117500Y-91249500D01*
X177038000Y-85574000D02*
X172998000Y-85574000D01*
X172998000Y-85574000D02*
X171262200Y-87309800D01*
X171262200Y-87309800D02*
X171262200Y-87449320D01*
X171262200Y-87449320D02*
X171262200Y-87055800D01*
X171262200Y-86899800D02*
X171262200Y-87449320D01*
D46*
X176911007Y-89025208D02*
X177226000Y-89340201D01*
X170462100Y-87449320D02*
X170462100Y-88800100D01*
X170688108Y-89000105D02*
X170462100Y-88800100D01*
X176911007Y-89025208D02*
X170688108Y-89000105D01*
X177226000Y-89340201D02*
X177226000Y-90086000D01*
X173662000Y-89500000D02*
X174248000Y-90086000D01*
X169662000Y-89000000D02*
X170162000Y-89500000D01*
X169662000Y-87449320D02*
X169662000Y-89000000D01*
X170162000Y-89500000D02*
X173662000Y-89500000D01*
X174248000Y-90086000D02*
X175326000Y-90086000D01*
X211836000Y-114300000D02*
X215900000Y-118364000D01*
X208026000Y-114300000D02*
X211836000Y-114300000D01*
X205486000Y-111760000D02*
X208026000Y-114300000D01*
X205486000Y-110490000D02*
X205486000Y-111760000D01*
X205486000Y-110490000D02*
X205486000Y-105029000D01*
X215900000Y-118364000D02*
X221996000Y-118364000D01*
X205486000Y-110586000D02*
X205486000Y-110490000D01*
X224864000Y-118364000D02*
X221996000Y-118364000D01*
X227000000Y-120500000D02*
X224864000Y-118364000D01*
X192703500Y-102000000D02*
X189250000Y-102000000D01*
X193103500Y-101600000D02*
X194437000Y-101600000D01*
X192703500Y-102000000D02*
X193103500Y-101600000D01*
X202057000Y-101600000D02*
X199644000Y-101600000D01*
X205486000Y-105029000D02*
X202057000Y-101600000D01*
X176000000Y-110750000D02*
X176000000Y-111782000D01*
X176000000Y-120882000D02*
X177800000Y-122682000D01*
X177800000Y-122682000D02*
X179578000Y-122682000D01*
X174244000Y-119126000D02*
X176000000Y-120882000D01*
X174244000Y-113538000D02*
X174244000Y-119126000D01*
X176000000Y-111782000D02*
X174244000Y-113538000D01*
X206502000Y-119126000D02*
X213626000Y-119126000D01*
X215000000Y-120500000D02*
X213626000Y-119126000D01*
X203962000Y-116586000D02*
X206502000Y-119126000D01*
X203962000Y-106172000D02*
X201739500Y-103949500D01*
X203962000Y-116586000D02*
X203962000Y-106172000D01*
X201739500Y-103949500D02*
X199009000Y-103949500D01*
X203962000Y-116586000D02*
X203962000Y-116586000D01*
X189250000Y-103500000D02*
X192273000Y-103500000D01*
X192273000Y-103500000D02*
X192532000Y-103759000D01*
X199263000Y-103949500D02*
X199009000Y-103949500D01*
X206756000Y-118618000D02*
X214122000Y-118618000D01*
X204470000Y-105791000D02*
X201866500Y-103187500D01*
X204470000Y-116332000D02*
X204470000Y-105791000D01*
X204470000Y-116332000D02*
X206756000Y-118618000D01*
X218134000Y-119634000D02*
X216916000Y-119634000D01*
X214122000Y-118618000D02*
X215138000Y-119634000D01*
X215138000Y-119634000D02*
X216916000Y-119634000D01*
X219000000Y-120500000D02*
X218134000Y-119634000D01*
X194564000Y-103187500D02*
X193103500Y-103187500D01*
X193103500Y-103187500D02*
X192916000Y-103000000D01*
X192916000Y-103000000D02*
X189250000Y-103000000D01*
X201866500Y-103187500D02*
X199644000Y-103187500D01*
X167973000Y-103262000D02*
X169534000Y-103262000D01*
X171796000Y-101000000D02*
X173750000Y-101000000D01*
X169534000Y-103262000D02*
X171796000Y-101000000D01*
X173750000Y-101000000D02*
X173740400Y-100990400D01*
X167973000Y-103262000D02*
X167987400Y-103276400D01*
X167973000Y-103262000D02*
X167984000Y-103251000D01*
X181500000Y-110750000D02*
X181500000Y-112250000D01*
X181500000Y-112250000D02*
X181800000Y-112550000D01*
X181800000Y-112550000D02*
X181800000Y-112750000D01*
X181800000Y-112750000D02*
X182300000Y-113250000D01*
X182300000Y-113250000D02*
X182500000Y-113250000D01*
X162814000Y-119126000D02*
X163068000Y-119126000D01*
X163068000Y-119126000D02*
X164338000Y-117856000D01*
X164338000Y-117856000D02*
X164338000Y-115570000D01*
X172662000Y-107500000D02*
X173750000Y-107500000D01*
X172212000Y-107950000D02*
X172662000Y-107500000D01*
X164338000Y-115570000D02*
X170180000Y-109728000D01*
X172212000Y-109728000D02*
X172408000Y-109532000D01*
X172212000Y-109728000D02*
X172212000Y-107950000D01*
X170053000Y-93345000D02*
X170688000Y-92710000D01*
D50*
X177012600Y-94310200D02*
X176479200Y-93776800D01*
X177012600Y-94310200D02*
X177012600Y-95237400D01*
X175310800Y-93776800D02*
X176301400Y-93776800D01*
D46*
X173482000Y-91948000D02*
X171450000Y-91948000D01*
X171450000Y-91948000D02*
X170688000Y-92710000D01*
D50*
X173482000Y-91948000D02*
X175310800Y-93776800D01*
X176479200Y-93776800D02*
X176301400Y-93776800D01*
D46*
X163830000Y-93218000D02*
X166878000Y-93218000D01*
X161798000Y-91186000D02*
X163830000Y-93218000D01*
D50*
X177000000Y-95250000D02*
X177012600Y-95237400D01*
D46*
X167132000Y-95250000D02*
X169164000Y-95250000D01*
X172212000Y-97536000D02*
X172466000Y-97536000D01*
X172466000Y-97536000D02*
X173002000Y-97000000D01*
X173750000Y-97000000D02*
X173002000Y-97000000D01*
X169164000Y-97536000D02*
X172212000Y-97536000D01*
X163195000Y-93853000D02*
X165735000Y-93853000D01*
X165735000Y-93853000D02*
X167132000Y-95250000D01*
X163195000Y-93853000D02*
X161798000Y-92456000D01*
X173750000Y-106000000D02*
X173744200Y-105994200D01*
X173744200Y-105994200D02*
X172516800Y-105994200D01*
X172516800Y-105994200D02*
X172466000Y-106045000D01*
X171196000Y-111760000D02*
X171196000Y-108458000D01*
X171196000Y-107315000D02*
X172466000Y-106045000D01*
X171196000Y-108458000D02*
X171196000Y-107315000D01*
X168922000Y-114300000D02*
X168922000Y-114034000D01*
X168922000Y-114034000D02*
X171196000Y-111760000D01*
X216154000Y-119126000D02*
X215900000Y-119126000D01*
X207024000Y-118124000D02*
X207010000Y-118110000D01*
X204978000Y-116078000D02*
X207024000Y-118124000D01*
X193727500Y-102500000D02*
X193802000Y-102425500D01*
X199072500Y-102362000D02*
X199009000Y-102425500D01*
X201930000Y-102362000D02*
X199072500Y-102362000D01*
X193727500Y-102500000D02*
X193167000Y-102500000D01*
X204978000Y-105410000D02*
X201930000Y-102362000D01*
X204978000Y-105410000D02*
X204978000Y-116078000D01*
X214884000Y-118110000D02*
X207010000Y-118110000D01*
X215900000Y-119126000D02*
X214884000Y-118110000D01*
X223000000Y-120500000D02*
X221626000Y-119126000D01*
X216154000Y-119126000D02*
X219964000Y-119126000D01*
X221626000Y-119126000D02*
X219964000Y-119126000D01*
X216154000Y-119126000D02*
X216126000Y-119126000D01*
X189250000Y-102500000D02*
X193167000Y-102500000D01*
X193167000Y-102500000D02*
X193178000Y-102500000D01*
X181090000Y-122682000D02*
X181610000Y-122682000D01*
X185338760Y-121666000D02*
X186370000Y-122697240D01*
X182626000Y-121666000D02*
X185338760Y-121666000D01*
X181610000Y-122682000D02*
X182626000Y-121666000D01*
X185420000Y-124696220D02*
X181107780Y-124696220D01*
X181107780Y-124696220D02*
X181090000Y-124714000D01*
X179590000Y-124714000D02*
X170998000Y-124714000D01*
X170998000Y-124714000D02*
X170942000Y-124658000D01*
X179534000Y-124658000D02*
X179590000Y-124714000D01*
X199136000Y-91610000D02*
X199136000Y-91025980D01*
X199136000Y-91025980D02*
X197612000Y-89501980D01*
X191262000Y-87376000D02*
X191262000Y-88773000D01*
X191990980Y-89501980D02*
X194394000Y-89501980D01*
X194394000Y-89501980D02*
X197612000Y-89501980D01*
X191262000Y-88773000D02*
X191990980Y-89501980D01*
X156718000Y-121666000D02*
X154686000Y-119634000D01*
X154686000Y-115570000D02*
X154686000Y-119634000D01*
X165862000Y-101092000D02*
X165862000Y-100863400D01*
X165862000Y-103632000D02*
X165862000Y-101092000D01*
X166624000Y-100101400D02*
X166649400Y-100101400D01*
D50*
X170634241Y-100024338D02*
X170557179Y-100101400D01*
D46*
X171244988Y-99500000D02*
X171244988Y-99498990D01*
X171119800Y-99500000D02*
X171244988Y-99500000D01*
D50*
X171119800Y-99500000D02*
X170634241Y-100024338D01*
X170557179Y-100101400D02*
X166649400Y-100101400D01*
D46*
X165862000Y-100863400D02*
X166624000Y-100101400D01*
X156972000Y-112522000D02*
X165862000Y-103632000D01*
X156972000Y-113284000D02*
X156972000Y-112522000D01*
X154686000Y-115570000D02*
X156972000Y-113284000D01*
X154686000Y-115570000D02*
X154686000Y-115570000D01*
X155956000Y-121666000D02*
X155956000Y-121412000D01*
X171244988Y-99498990D02*
X171244988Y-99498990D01*
X171244988Y-99498990D02*
X171245998Y-99500000D01*
X171245998Y-99500000D02*
X173750000Y-99500000D01*
X155194000Y-115824000D02*
X155194000Y-115824000D01*
X156718000Y-119126000D02*
X156464000Y-119126000D01*
X156464000Y-119126000D02*
X155194000Y-117856000D01*
X155194000Y-117856000D02*
X155194000Y-115824000D01*
X157480000Y-112776000D02*
X166370000Y-103886000D01*
X166370000Y-103632000D02*
X166370000Y-103886000D01*
X155194000Y-115824000D02*
X157480000Y-113538000D01*
X157480000Y-113538000D02*
X157480000Y-112776000D01*
X156464000Y-119126000D02*
X155956000Y-119126000D01*
X170434000Y-100584000D02*
X170738826Y-100584000D01*
X168757600Y-100584000D02*
X170434000Y-100584000D01*
X166370000Y-103632000D02*
X166370000Y-101092000D01*
X166878000Y-100584000D02*
X168757600Y-100584000D01*
X166370000Y-101092000D02*
X166878000Y-100584000D01*
X170738826Y-100584000D02*
X171322998Y-99999828D01*
X172313600Y-99999800D02*
X172313572Y-99999828D01*
X173749800Y-99999800D02*
X172313600Y-99999800D01*
X172313572Y-99999828D02*
X171322998Y-99999828D01*
X171322998Y-99999828D02*
X171322998Y-99999828D01*
X173750000Y-100000000D02*
X173749800Y-99999800D01*
X171322998Y-99999828D02*
X171323170Y-100000000D01*
D49*
X197560500Y-114490500D02*
X197421500Y-114490500D01*
X197421500Y-114490500D02*
X196850000Y-115062000D01*
X196850000Y-115062000D02*
X196215000Y-115062000D01*
X196215000Y-115062000D02*
X195780000Y-114627000D01*
X195780000Y-113992000D02*
X195780000Y-114627000D01*
X195780000Y-113233000D02*
X195780000Y-113992000D01*
X198297800Y-114554000D02*
X198297800Y-113944400D01*
D46*
X196977000Y-113233200D02*
X197586600Y-113233200D01*
D49*
X196580000Y-113233000D02*
X196977000Y-113233200D01*
D46*
X197586600Y-113233200D02*
X198120000Y-113766600D01*
D48*
X198247000Y-117475000D02*
X198374000Y-117475000D01*
D49*
X198297800Y-114554000D02*
X198297800Y-114985800D01*
D46*
X189357000Y-112268000D02*
X190246000Y-113157000D01*
X189357000Y-112268000D02*
X187706000Y-112268000D01*
X190246000Y-113538000D02*
X193294000Y-116586000D01*
X190246000Y-113157000D02*
X190246000Y-113538000D01*
D48*
X193294000Y-116586000D02*
X194183000Y-117475000D01*
X199009000Y-115697000D02*
X198297800Y-114985800D01*
X199009000Y-116840000D02*
X199009000Y-115697000D01*
X198374000Y-117475000D02*
X199009000Y-116840000D01*
D49*
X198297800Y-113944400D02*
X198120000Y-113766600D01*
D46*
X187000000Y-111562000D02*
X187706000Y-112268000D01*
X187706000Y-112268000D02*
X187706000Y-112268000D01*
X187000000Y-110750000D02*
X187000000Y-111562000D01*
D49*
X195380000Y-110033000D02*
X195380000Y-109547000D01*
X195580000Y-109093000D02*
X195834000Y-108839000D01*
X195380000Y-109547000D02*
X195580000Y-109347000D01*
X195580000Y-109347000D02*
X195580000Y-109093000D01*
D46*
X192082000Y-107500000D02*
X193802000Y-109220000D01*
X189250000Y-107500000D02*
X191312800Y-107500000D01*
X191312800Y-107500000D02*
X191637500Y-107500000D01*
X191637500Y-107500000D02*
X192082000Y-107500000D01*
X194728000Y-105500000D02*
X196499994Y-105500000D01*
X189250000Y-105500000D02*
X194728000Y-105500000D01*
X196499994Y-105500000D02*
X196999998Y-106000004D01*
D48*
X197018502Y-105981500D02*
X196999998Y-106000004D01*
D46*
X197177798Y-106000004D02*
X196999998Y-106000004D01*
X195999994Y-105000000D02*
X194339000Y-105000000D01*
X194339000Y-105000000D02*
X189250000Y-105000000D01*
X195999994Y-105000000D02*
X196000000Y-105000006D01*
X195980002Y-105000000D02*
X196000000Y-105019998D01*
X196000000Y-105019998D02*
X196000000Y-105000006D01*
X196000000Y-105000006D02*
X195822200Y-105000006D01*
X161786000Y-88138000D02*
X161786000Y-85770000D01*
X161786000Y-85770000D02*
X161798000Y-85758000D01*
X164592000Y-92202000D02*
X164592000Y-90944000D01*
X163322000Y-94742000D02*
X164592000Y-94742000D01*
X161798000Y-96266000D02*
X163322000Y-94742000D01*
X164592000Y-90944000D02*
X161786000Y-88138000D01*
X160782000Y-98298000D02*
X155067000Y-98298000D01*
X180213000Y-126873000D02*
X186309000Y-126873000D01*
X186309000Y-126873000D02*
X189484000Y-123698000D01*
X156337000Y-126873000D02*
X180213000Y-126873000D01*
X155194000Y-112522000D02*
X155194000Y-114046000D01*
X155194000Y-114046000D02*
X154178000Y-115062000D01*
X154178000Y-115062000D02*
X154178000Y-124714000D01*
X154178000Y-124714000D02*
X156337000Y-126873000D01*
X189484000Y-123698000D02*
X189484000Y-120396000D01*
X154178000Y-111506000D02*
X155194000Y-112522000D01*
X154178000Y-110236000D02*
X154178000Y-111506000D01*
X189484000Y-120396000D02*
X189484000Y-113538000D01*
X186626500Y-109220000D02*
X187325000Y-109220000D01*
X182626000Y-109220000D02*
X183515000Y-109220000D01*
X181991000Y-109855000D02*
X182626000Y-109220000D01*
X181991000Y-110741000D02*
X181991000Y-109855000D01*
X188468000Y-110363000D02*
X188468000Y-110871000D01*
X187325000Y-109220000D02*
X188468000Y-110363000D01*
X154178000Y-102489000D02*
X154178000Y-110236000D01*
X161798000Y-97282000D02*
X161798000Y-96266000D01*
X161798000Y-97282000D02*
X160782000Y-98298000D01*
X155067000Y-98298000D02*
X154559000Y-98806000D01*
X182000000Y-110750000D02*
X181991000Y-110741000D01*
X161290000Y-85758000D02*
X161278000Y-85770000D01*
D50*
X177500000Y-95250000D02*
X177482500Y-95232500D01*
X177482500Y-95232500D02*
X177482500Y-93726000D01*
D46*
X175260000Y-92964000D02*
X175260000Y-92352000D01*
X175514000Y-93218000D02*
X175260000Y-92964000D01*
X175831500Y-93218000D02*
X175514000Y-93218000D01*
X176974500Y-93218000D02*
X175831500Y-93218000D01*
X177482500Y-93726000D02*
X176974500Y-93218000D01*
X175260000Y-92352000D02*
X175326000Y-92286000D01*
X178000000Y-95250000D02*
X177990500Y-95240500D01*
X177990500Y-95240500D02*
X177990500Y-93050500D01*
X177990500Y-93050500D02*
X177226000Y-92286000D01*
X193167000Y-115697000D02*
X193548000Y-115697000D01*
X195072000Y-117221000D02*
X195072000Y-117856000D01*
X194120000Y-118808000D02*
X195072000Y-117856000D01*
X190754000Y-112903000D02*
X190754000Y-113284000D01*
X190754000Y-113284000D02*
X193167000Y-115697000D01*
X188087000Y-111633000D02*
X189484000Y-111633000D01*
X188087000Y-111633000D02*
X187500000Y-111046000D01*
X189484000Y-111633000D02*
X190754000Y-112903000D01*
X193548000Y-115697000D02*
X195072000Y-117221000D01*
X194120000Y-118808000D02*
X194120000Y-118872000D01*
X187500000Y-110750000D02*
X187500000Y-111046000D01*
X194120000Y-118872000D02*
X194120000Y-118808000D01*
X194120000Y-118872000D02*
X194120000Y-118681000D01*
X189250000Y-110637000D02*
X191262000Y-112649000D01*
X189250000Y-109000000D02*
X189250000Y-110637000D01*
X196120000Y-117507000D02*
X196120000Y-118872000D01*
X193831123Y-115218123D02*
X196120000Y-117507000D01*
X193352807Y-115218123D02*
X193831123Y-115218123D01*
X191262000Y-113127316D02*
X193352807Y-115218123D01*
X191262000Y-112649000D02*
X191262000Y-113127316D01*
X189250000Y-109000000D02*
X189700000Y-109000000D01*
D49*
X194980000Y-110033000D02*
X194980000Y-109312000D01*
X194980000Y-109312000D02*
X195072000Y-109220000D01*
D46*
X194437000Y-107505500D02*
X194373500Y-107505500D01*
X194437000Y-107505500D02*
X194691000Y-107759500D01*
X194691000Y-107759500D02*
X195072000Y-108140500D01*
X195072000Y-109220000D02*
X195072000Y-108140500D01*
D49*
X194980000Y-109312000D02*
X195072000Y-109220000D01*
D46*
X191693800Y-107000000D02*
X192471000Y-107000000D01*
X189250000Y-107000000D02*
X191693800Y-107000000D01*
X194908998Y-106970002D02*
X196000000Y-106970002D01*
X194373500Y-107505500D02*
X194908998Y-106970002D01*
X192976500Y-107505500D02*
X194373500Y-107505500D01*
X192471000Y-107000000D02*
X192976500Y-107505500D01*
X196000000Y-106970002D02*
X196000000Y-107000002D01*
X195999998Y-107000000D02*
X196000000Y-107000002D01*
X195987202Y-107000000D02*
X196000000Y-107012798D01*
X196000000Y-107012798D02*
X196000000Y-107000002D01*
X195999998Y-107000000D02*
X196000000Y-107000002D01*
D48*
X200279000Y-116459000D02*
X200279000Y-116332000D01*
X196977000Y-116459000D02*
X196596000Y-116078000D01*
D46*
X195326000Y-114808000D02*
X196596000Y-116078000D01*
D49*
X195380000Y-113233000D02*
X195380000Y-113992000D01*
D46*
X195326000Y-114808000D02*
X195326000Y-114046000D01*
D49*
X195380000Y-113992000D02*
X195326000Y-114046000D01*
D48*
X198247000Y-116459000D02*
X196977000Y-116459000D01*
D46*
X199898000Y-109898004D02*
X196999998Y-107000002D01*
D48*
X200406000Y-110406004D02*
X199898000Y-109898004D01*
X200406000Y-116205000D02*
X200406000Y-110406004D01*
X200279000Y-116332000D02*
X200406000Y-116205000D01*
D46*
X196999998Y-107000002D02*
X197043002Y-107000002D01*
X189250000Y-106500000D02*
X192733000Y-106500000D01*
X196499996Y-106500000D02*
X196999998Y-107000002D01*
X194470502Y-106500000D02*
X196499996Y-106500000D01*
X193973002Y-106997500D02*
X194470502Y-106500000D01*
X193230500Y-106997500D02*
X193973002Y-106997500D01*
X192733000Y-106500000D02*
X193230500Y-106997500D01*
X196999998Y-107000002D02*
X196999998Y-107020498D01*
D49*
X194580000Y-110033000D02*
X194580000Y-109093000D01*
D46*
X194580000Y-109093000D02*
X194580000Y-108585000D01*
X193675000Y-106235500D02*
X193675000Y-106000000D01*
X194119500Y-108267500D02*
X194437000Y-108585000D01*
X194580000Y-108585000D02*
X194437000Y-108585000D01*
D49*
X194580000Y-109093000D02*
X194564000Y-109077000D01*
D46*
X196000000Y-106000004D02*
X196043004Y-106000004D01*
X189250000Y-106000000D02*
X193675000Y-106000000D01*
X193675000Y-106000000D02*
X195999996Y-106000000D01*
X195999996Y-106000000D02*
X196000000Y-106000004D01*
X189250000Y-104500000D02*
X196499992Y-104500000D01*
X196499992Y-104500000D02*
X196999998Y-105000006D01*
X191221000Y-91881000D02*
X189297000Y-91881000D01*
X189230000Y-95250000D02*
X187500000Y-95250000D01*
X189297000Y-91881000D02*
X189230000Y-91948000D01*
X193421000Y-91881000D02*
X191221000Y-91881000D01*
X191221000Y-91881000D02*
X191449000Y-91881000D01*
X187500000Y-94800000D02*
X187500000Y-95250000D01*
X189738000Y-96012000D02*
X190119000Y-95631000D01*
X188087000Y-96012000D02*
X189738000Y-96012000D01*
X187007500Y-96139000D02*
X187268685Y-96400185D01*
X187000000Y-95250000D02*
X187007500Y-96139000D01*
X187698815Y-96400185D02*
X188087000Y-96012000D01*
X187268685Y-96400185D02*
X187698815Y-96400185D01*
X190119000Y-95631000D02*
X191221000Y-95631000D01*
X191221000Y-93131000D02*
X187793000Y-93131000D01*
X186500000Y-94424000D02*
X186500000Y-95250000D01*
X187793000Y-93131000D02*
X186500000Y-94424000D01*
X186000000Y-95250000D02*
X185991500Y-95241500D01*
X185991500Y-95241500D02*
X185991500Y-93662500D01*
X185991500Y-93662500D02*
X186944000Y-92710000D01*
X191221000Y-94381000D02*
X188615000Y-94381000D01*
X186944000Y-92710000D02*
X187016000Y-92782000D01*
X188615000Y-94381000D02*
X188214000Y-93980000D01*
X156888000Y-102162000D02*
X156961000Y-102235000D01*
X156961000Y-102235000D02*
X159893000Y-102235000D01*
X165354000Y-96774000D02*
X170434000Y-96774000D01*
X159893000Y-102235000D02*
X165354000Y-96774000D01*
X156888000Y-102162000D02*
X156942000Y-102108000D01*
X174752000Y-96520000D02*
X176276000Y-98044000D01*
X172212000Y-96774000D02*
X172466000Y-96520000D01*
D50*
X172466000Y-96520000D02*
X174752000Y-96520000D01*
D46*
X171450000Y-96762000D02*
X170434000Y-96774000D01*
X170434000Y-96774000D02*
X172212000Y-96774000D01*
X179578000Y-98044000D02*
X180500000Y-97122000D01*
X176276000Y-98044000D02*
X179578000Y-98044000D01*
X180500000Y-95250000D02*
X180500000Y-97122000D01*
X180500000Y-97122000D02*
X180500000Y-97030000D01*
X156888000Y-101062000D02*
X156918000Y-101092000D01*
X156918000Y-101092000D02*
X160274000Y-101092000D01*
X160274000Y-101092000D02*
X165354000Y-96012000D01*
X165354000Y-96012000D02*
X167894000Y-96012000D01*
X167894000Y-96012000D02*
X167906000Y-96000000D01*
X172466000Y-96012000D02*
X171958000Y-96012000D01*
X180000000Y-96606000D02*
X179133500Y-97472500D01*
X179133500Y-97472500D02*
X176458708Y-97479570D01*
X176458708Y-97479570D02*
X175006000Y-96012000D01*
X175006000Y-96012000D02*
X172466000Y-96012000D01*
X180000000Y-96606000D02*
X180000000Y-95250000D01*
X171958000Y-96012000D02*
X167894000Y-96012000D01*
X179000000Y-95250000D02*
X179000000Y-94050000D01*
X182880000Y-89090000D02*
X184594000Y-87376000D01*
X182880000Y-90170000D02*
X182880000Y-89090000D01*
X179000000Y-94050000D02*
X182880000Y-90170000D01*
X178500000Y-95250000D02*
X178500000Y-93788000D01*
X182118000Y-90170000D02*
X182118000Y-87852000D01*
X178500000Y-93788000D02*
X182118000Y-90170000D01*
X182118000Y-87852000D02*
X182594000Y-87376000D01*
X160274000Y-121666000D02*
X158496000Y-119888000D01*
X166370000Y-104648000D02*
X166624000Y-104648000D01*
X166624000Y-104648000D02*
X167259000Y-104648000D01*
X158496000Y-112522000D02*
X166370000Y-104648000D01*
X158496000Y-119888000D02*
X158496000Y-112522000D01*
X168783000Y-104648000D02*
X171701357Y-101851242D01*
X175387000Y-97942400D02*
X175387000Y-101854000D01*
X168783000Y-104648000D02*
X167259000Y-104648000D01*
X171701357Y-101851242D02*
X172212000Y-101854000D01*
D50*
X173750000Y-97500000D02*
X173764800Y-97485200D01*
X173764800Y-97485200D02*
X174929800Y-97485200D01*
D46*
X174929800Y-97485200D02*
X175387000Y-97942400D01*
X175387000Y-97942400D02*
X175387000Y-97917000D01*
X167132000Y-104648000D02*
X167259000Y-104648000D01*
X164084000Y-99949000D02*
X164846000Y-99060000D01*
X164084000Y-99949000D02*
X164084000Y-100330000D01*
X159893000Y-100203000D02*
X159524000Y-100203000D01*
X159524000Y-100203000D02*
X158369000Y-99048000D01*
X159893000Y-100203000D02*
X160020000Y-100203000D01*
X164846000Y-99060000D02*
X165634894Y-98292024D01*
D50*
X169299803Y-98294454D02*
X170010856Y-98008036D01*
X173750000Y-98000000D02*
X170010856Y-98008036D01*
X165634894Y-98292024D02*
X169299803Y-98294454D01*
D46*
X164846000Y-102108000D02*
X164846000Y-100330000D01*
X164846000Y-100330000D02*
X164846000Y-99060000D01*
X158242000Y-108712000D02*
X161290000Y-105664000D01*
X158242000Y-108712000D02*
X156938000Y-108712000D01*
X161290000Y-105664000D02*
X164846000Y-102108000D01*
X156888000Y-108762000D02*
X156938000Y-108712000D01*
X156888000Y-108762000D02*
X156965000Y-108839000D01*
X160020000Y-99048000D02*
X161048000Y-99048000D01*
X161048000Y-99048000D02*
X163322000Y-96774000D01*
X165862000Y-99314000D02*
X165862000Y-99187000D01*
X166243000Y-99695000D02*
X165862000Y-99314000D01*
X166116000Y-99822000D02*
X166243000Y-99695000D01*
D50*
X166243000Y-99695000D02*
X167181411Y-98756589D01*
X169772211Y-98756589D02*
X169284505Y-98756589D01*
X170180000Y-98501200D02*
X170027600Y-98501200D01*
D46*
X173748800Y-98501200D02*
X170916600Y-98501200D01*
X170916600Y-98501200D02*
X170180000Y-98501200D01*
D50*
X170027600Y-98501200D02*
X169772211Y-98756589D01*
D46*
X165354000Y-102362000D02*
X165354000Y-100584000D01*
X165354000Y-100584000D02*
X166116000Y-99822000D01*
X156083000Y-107823000D02*
X157127000Y-107823000D01*
X156083000Y-107823000D02*
X155448000Y-108458000D01*
X155448000Y-108458000D02*
X155448000Y-109093000D01*
X155448000Y-109093000D02*
X156210000Y-109855000D01*
X156210000Y-109855000D02*
X157861000Y-109855000D01*
X157861000Y-109855000D02*
X161925000Y-105791000D01*
X161925000Y-105791000D02*
X165354000Y-102362000D01*
D50*
X167181411Y-98756589D02*
X169284505Y-98756589D01*
D46*
X173750000Y-98500000D02*
X173748800Y-98501200D01*
X157288000Y-107662000D02*
X157127000Y-107823000D01*
X157288000Y-107662000D02*
X157322000Y-107696000D01*
X171948800Y-99009200D02*
X170586400Y-99009200D01*
X170586400Y-99009200D02*
X170281600Y-99314000D01*
X173750000Y-99000000D02*
X171958000Y-99000000D01*
X171958000Y-99000000D02*
X171948800Y-99009200D01*
X158750000Y-104394000D02*
X156920000Y-104394000D01*
X158750000Y-104394000D02*
X165608000Y-97536000D01*
X167894000Y-97536000D02*
X165608000Y-97536000D01*
X156888000Y-104362000D02*
X156920000Y-104394000D01*
X156718000Y-99048000D02*
X157873000Y-100203000D01*
X158242000Y-100203000D02*
X157873000Y-100203000D01*
X162306000Y-102362000D02*
X162814000Y-102362000D01*
X158115000Y-106553000D02*
X156897000Y-106553000D01*
X158115000Y-106553000D02*
X160870900Y-103797100D01*
X160870900Y-103797100D02*
X162306000Y-102362000D01*
D50*
X171500800Y-100507800D02*
X169608500Y-102362000D01*
D46*
X171500800Y-100507800D02*
X173742200Y-100507800D01*
X169608500Y-102362000D02*
X169164000Y-102362000D01*
X173750000Y-100500000D02*
X173742200Y-100507800D01*
D50*
X173750000Y-100500000D02*
X173732400Y-100482400D01*
D46*
X156888000Y-106562000D02*
X156897000Y-106553000D01*
D50*
X173750000Y-100500000D02*
X173729500Y-100520500D01*
D46*
X156888000Y-106562000D02*
X156897000Y-106553000D01*
X160274000Y-119126000D02*
X160274000Y-118872000D01*
X160274000Y-118872000D02*
X159004000Y-117602000D01*
X159004000Y-117602000D02*
X159004000Y-112776000D01*
X159004000Y-112776000D02*
X166370000Y-105410000D01*
X173745000Y-103505000D02*
X170688000Y-103505000D01*
X173750000Y-103500000D02*
X173745000Y-103505000D01*
X170688000Y-103505000D02*
X168783000Y-105410000D01*
X166370000Y-105410000D02*
X168783000Y-105410000D01*
X160274000Y-116586000D02*
X160274000Y-112268000D01*
X171082000Y-104000000D02*
X173750000Y-104000000D01*
X171069000Y-104013000D02*
X168783000Y-106299000D01*
X166370000Y-106299000D02*
X168783000Y-106299000D01*
X171069000Y-104013000D02*
X171082000Y-104000000D01*
X166370000Y-106299000D02*
X166243000Y-106299000D01*
X160274000Y-112268000D02*
X166243000Y-106299000D01*
D50*
X173750000Y-104000000D02*
X173737000Y-104013000D01*
D46*
X170307000Y-106503002D02*
X172310002Y-104500000D01*
X167386000Y-111252000D02*
X170307000Y-108331000D01*
X170307000Y-108331000D02*
X170307000Y-106503002D01*
X167132000Y-111506000D02*
X167386000Y-111252000D01*
X162814000Y-116586000D02*
X162814000Y-115824000D01*
X162814000Y-115824000D02*
X167132000Y-111506000D01*
X162560000Y-116586000D02*
X162560000Y-116078000D01*
X172310002Y-104500000D02*
X173750000Y-104500000D01*
M02*
