G04 #@! TF.FileFunction,Soldermask,Top*
%FSLAX46Y46*%
G04 Gerber Fmt 4.6, Leading zero omitted, Abs format (unit mm)*
G04 Created by KiCad (PCBNEW 4.0.1-stable) date 20/01/2016 23:37:10*
%MOMM*%
G01*
G04 APERTURE LIST*
%ADD10C,0.100000*%
%ADD11R,0.635000X0.300000*%
%ADD12C,1.600200*%
%ADD13C,2.565400*%
%ADD14R,1.400000X1.300000*%
%ADD15R,0.950000X1.000000*%
%ADD16R,1.900000X1.400000*%
%ADD17R,1.500000X0.800000*%
%ADD18R,0.750000X0.800000*%
%ADD19R,0.800000X0.750000*%
%ADD20R,0.797560X0.797560*%
%ADD21R,1.800860X2.499360*%
%ADD22R,0.650000X1.060000*%
%ADD23R,0.300000X1.200000*%
%ADD24R,1.200000X0.300000*%
%ADD25R,0.400000X1.400000*%
%ADD26R,1.500000X0.600000*%
%ADD27C,1.500000*%
%ADD28C,1.100000*%
%ADD29C,1.016000*%
%ADD30C,2.999740*%
%ADD31R,0.500380X2.301240*%
%ADD32R,1.998980X2.499360*%
%ADD33C,0.899160*%
%ADD34R,0.800100X0.800100*%
%ADD35R,0.500000X0.900000*%
%ADD36R,0.900000X0.500000*%
%ADD37R,1.600000X2.000000*%
%ADD38R,2.300000X2.500000*%
%ADD39R,0.500000X0.600000*%
%ADD40R,1.900000X1.000000*%
%ADD41R,2.032000X1.727200*%
%ADD42O,2.032000X1.727200*%
%ADD43R,1.727200X1.727200*%
%ADD44O,1.727200X1.727200*%
%ADD45R,1.000000X0.600000*%
%ADD46R,0.600000X1.000000*%
%ADD47R,2.100000X1.940000*%
%ADD48C,6.300000*%
%ADD49C,0.600000*%
G04 APERTURE END LIST*
D10*
D11*
X196000000Y-108000000D03*
X196999998Y-108000000D03*
X196000000Y-107000002D03*
X196999998Y-107000002D03*
X196000000Y-106000004D03*
X196999998Y-106000004D03*
X196000000Y-105000006D03*
X196999998Y-105000006D03*
X196000000Y-104000008D03*
X196999998Y-104000008D03*
X196000000Y-103000010D03*
X196999998Y-103000010D03*
X196000000Y-102000012D03*
X196999998Y-102000012D03*
X196000000Y-101000014D03*
X196999998Y-101000014D03*
X196000000Y-100000016D03*
X196999998Y-100000016D03*
X196000000Y-99000018D03*
X196999998Y-99000018D03*
X196000000Y-98000020D03*
X196999998Y-98000020D03*
X196000000Y-97000022D03*
X196999998Y-97000022D03*
D12*
X222559891Y-115849998D03*
X222559891Y-115849998D03*
X214559907Y-89150024D03*
X214559907Y-89150024D03*
D13*
X226559883Y-116350124D03*
X226559883Y-116350124D03*
X210559915Y-116350124D03*
X210559915Y-116350124D03*
X226560899Y-88649898D03*
X226560899Y-88649898D03*
X210558899Y-88649898D03*
X210558899Y-88649898D03*
X218559899Y-88637198D03*
X218559899Y-88637198D03*
X218559899Y-116362824D03*
X218559899Y-116362824D03*
D14*
X167748000Y-101872000D03*
D15*
X167973000Y-103262000D03*
D14*
X167748000Y-107572000D03*
D16*
X154598000Y-100272000D03*
X153598000Y-113422000D03*
D17*
X156888000Y-101062000D03*
X156888000Y-102162000D03*
X156688000Y-103262000D03*
X156888000Y-104362000D03*
X156688000Y-105462000D03*
X156888000Y-106562000D03*
X157288000Y-107662000D03*
X156888000Y-108762000D03*
D18*
X167894000Y-91936000D03*
X167894000Y-90436000D03*
X178000000Y-113250000D03*
X178000000Y-114750000D03*
X177500000Y-118250000D03*
X177500000Y-116750000D03*
X186500000Y-118250000D03*
X186500000Y-116750000D03*
D19*
X161278000Y-88138000D03*
X159778000Y-88138000D03*
D18*
X180500000Y-113250000D03*
X180500000Y-114750000D03*
X186500000Y-113250000D03*
X186500000Y-114750000D03*
X184500000Y-113250000D03*
X184500000Y-114750000D03*
X188500000Y-113250000D03*
X188500000Y-114750000D03*
X191071500Y-108279500D03*
X191071500Y-109779500D03*
D19*
X191750000Y-98778000D03*
X193250000Y-98778000D03*
X191750000Y-100778000D03*
X193250000Y-100778000D03*
D18*
X169926000Y-91936000D03*
X169926000Y-90436000D03*
X171958000Y-92698000D03*
X171958000Y-91198000D03*
D19*
X173470000Y-114300000D03*
X171970000Y-114300000D03*
D18*
X157734000Y-90944000D03*
X157734000Y-92444000D03*
D19*
X207258000Y-91047000D03*
X205758000Y-91047000D03*
X206998000Y-82550000D03*
X205498000Y-82550000D03*
X206998000Y-80518000D03*
X205498000Y-80518000D03*
D18*
X202311000Y-90944000D03*
X202311000Y-92444000D03*
X200660000Y-92444000D03*
X200660000Y-90944000D03*
D19*
X202172000Y-82550000D03*
X200672000Y-82550000D03*
X202172000Y-80518000D03*
X200672000Y-80518000D03*
D18*
X199136000Y-95619000D03*
X199136000Y-94119000D03*
D20*
X207000000Y-124250700D03*
X207000000Y-125749300D03*
X211000000Y-124250700D03*
X211000000Y-125749300D03*
X215000000Y-124250700D03*
X215000000Y-125749300D03*
X219000000Y-124250700D03*
X219000000Y-125749300D03*
X223000000Y-124250700D03*
X223000000Y-125749300D03*
X227000000Y-124250700D03*
X227000000Y-125749300D03*
D21*
X197612000Y-85504020D03*
X197612000Y-89501980D03*
D22*
X177226000Y-90086000D03*
X176276000Y-90086000D03*
X175326000Y-90086000D03*
X175326000Y-92286000D03*
X177226000Y-92286000D03*
X176276000Y-92286000D03*
D23*
X175500000Y-110750000D03*
X176000000Y-110750000D03*
X176500000Y-110750000D03*
X177000000Y-110750000D03*
X177500000Y-110750000D03*
X178000000Y-110750000D03*
X178500000Y-110750000D03*
X179000000Y-110750000D03*
X179500000Y-110750000D03*
X180000000Y-110750000D03*
X180500000Y-110750000D03*
X181000000Y-110750000D03*
X181500000Y-110750000D03*
X182000000Y-110750000D03*
X182500000Y-110750000D03*
X183000000Y-110750000D03*
X183500000Y-110750000D03*
X184000000Y-110750000D03*
X184500000Y-110750000D03*
X185000000Y-110750000D03*
X185500000Y-110750000D03*
X186000000Y-110750000D03*
X186500000Y-110750000D03*
X187000000Y-110750000D03*
X187500000Y-110750000D03*
D24*
X189250000Y-109000000D03*
X189250000Y-108500000D03*
X189250000Y-108000000D03*
X189250000Y-107500000D03*
X189250000Y-107000000D03*
X189250000Y-106500000D03*
X189250000Y-106000000D03*
X189250000Y-105500000D03*
X189250000Y-105000000D03*
X189250000Y-104500000D03*
X189250000Y-104000000D03*
X189250000Y-103500000D03*
X189250000Y-103000000D03*
X189250000Y-102500000D03*
X189250000Y-102000000D03*
X189250000Y-101500000D03*
X189250000Y-101000000D03*
X189250000Y-100500000D03*
X189250000Y-100000000D03*
X189250000Y-99500000D03*
X189250000Y-99000000D03*
X189250000Y-98500000D03*
X189250000Y-98000000D03*
X189250000Y-97500000D03*
X189250000Y-97000000D03*
D23*
X187500000Y-95250000D03*
X187000000Y-95250000D03*
X186500000Y-95250000D03*
X186000000Y-95250000D03*
X185500000Y-95250000D03*
X185000000Y-95250000D03*
X184500000Y-95250000D03*
X184000000Y-95250000D03*
X183500000Y-95250000D03*
X183000000Y-95250000D03*
X182500000Y-95250000D03*
X182000000Y-95250000D03*
X181500000Y-95250000D03*
X181000000Y-95250000D03*
X180500000Y-95250000D03*
X180000000Y-95250000D03*
X179500000Y-95250000D03*
X179000000Y-95250000D03*
X178500000Y-95250000D03*
X178000000Y-95250000D03*
X177500000Y-95250000D03*
X177000000Y-95250000D03*
X176500000Y-95250000D03*
X176000000Y-95250000D03*
X175500000Y-95250000D03*
D24*
X173750000Y-97000000D03*
X173750000Y-97500000D03*
X173750000Y-98000000D03*
X173750000Y-98500000D03*
X173750000Y-99000000D03*
X173750000Y-99500000D03*
X173750000Y-100000000D03*
X173750000Y-100500000D03*
X173750000Y-101000000D03*
X173750000Y-101500000D03*
X173750000Y-102000000D03*
X173750000Y-102500000D03*
X173750000Y-103000000D03*
X173750000Y-103500000D03*
X173750000Y-104000000D03*
X173750000Y-104500000D03*
X173750000Y-105000000D03*
X173750000Y-105500000D03*
X173750000Y-106000000D03*
X173750000Y-106500000D03*
X173750000Y-107000000D03*
X173750000Y-107500000D03*
X173750000Y-108000000D03*
X173750000Y-108500000D03*
X173750000Y-109000000D03*
D25*
X207258000Y-84547000D03*
X206608000Y-84547000D03*
X205958000Y-84547000D03*
X205308000Y-84547000D03*
X205308000Y-88947000D03*
X205958000Y-88947000D03*
X206608000Y-88947000D03*
X207258000Y-88947000D03*
X202438000Y-84582000D03*
X201788000Y-84582000D03*
X201138000Y-84582000D03*
X200488000Y-84582000D03*
X200488000Y-88982000D03*
X201138000Y-88982000D03*
X201788000Y-88982000D03*
X202438000Y-88982000D03*
D26*
X193621000Y-95631000D03*
X193621000Y-94381000D03*
X193621000Y-93131000D03*
X191021000Y-93131000D03*
X191021000Y-94381000D03*
X191021000Y-95631000D03*
X193621000Y-91881000D03*
X191021000Y-91881000D03*
D27*
X180594000Y-87376000D03*
X182594000Y-87376000D03*
X184594000Y-87376000D03*
X186594000Y-87376000D03*
D28*
X179094000Y-85276000D03*
X188094000Y-85276000D03*
D29*
X160528000Y-91186000D03*
X161798000Y-91186000D03*
X160528000Y-92456000D03*
X161798000Y-92456000D03*
X160528000Y-93726000D03*
X161798000Y-93726000D03*
X160528000Y-94996000D03*
X161798000Y-94996000D03*
X160528000Y-96266000D03*
X161798000Y-96266000D03*
D27*
X198120000Y-118872000D03*
X196120000Y-118872000D03*
X194120000Y-118872000D03*
X192120000Y-118872000D03*
D28*
X199620000Y-120972000D03*
X190620000Y-120972000D03*
D30*
X209931000Y-80487000D03*
D31*
X171262200Y-87449320D03*
X170462100Y-87449320D03*
X169662000Y-87449320D03*
X168861900Y-87449320D03*
X168061800Y-87449320D03*
D32*
X174112080Y-87350260D03*
X174112080Y-81851160D03*
X165211920Y-87350260D03*
X165211920Y-81851160D03*
D33*
X171861640Y-84850900D03*
X167462360Y-84850900D03*
D34*
X186370000Y-122697240D03*
X184470000Y-122697240D03*
X185420000Y-124696220D03*
D35*
X170422000Y-114300000D03*
X168922000Y-114300000D03*
D36*
X182500000Y-113250000D03*
X182500000Y-114750000D03*
X171450000Y-95262000D03*
X171450000Y-96762000D03*
X167894000Y-94500000D03*
X167894000Y-96000000D03*
X156845000Y-97548000D03*
X156845000Y-99048000D03*
X158623000Y-97548000D03*
X158623000Y-99048000D03*
X207000000Y-122000000D03*
X207000000Y-120500000D03*
X211000000Y-122000000D03*
X211000000Y-120500000D03*
X215000000Y-122000000D03*
X215000000Y-120500000D03*
X219000000Y-122000000D03*
X219000000Y-120500000D03*
X223000000Y-122000000D03*
X223000000Y-120500000D03*
X227000000Y-122000000D03*
X227000000Y-120500000D03*
D35*
X181090000Y-122682000D03*
X179590000Y-122682000D03*
X181090000Y-124714000D03*
X179590000Y-124714000D03*
D27*
X170942000Y-117658000D03*
X170942000Y-124658000D03*
D37*
X161290000Y-85758000D03*
X161290000Y-80358000D03*
D30*
X171196000Y-111760000D03*
X197612000Y-80518000D03*
D38*
X179800000Y-117500000D03*
X184300000Y-117500000D03*
D39*
X199136000Y-92710000D03*
X199136000Y-91610000D03*
D40*
X177038000Y-82574000D03*
X177038000Y-85574000D03*
D27*
X191262000Y-87376000D03*
X193262000Y-87376000D03*
D28*
X189762000Y-85276000D03*
X194762000Y-85276000D03*
D41*
X156718000Y-124206000D03*
D42*
X156718000Y-121666000D03*
X156718000Y-119126000D03*
X156718000Y-116586000D03*
D43*
X162814000Y-124206000D03*
D44*
X160274000Y-124206000D03*
X162814000Y-121666000D03*
X160274000Y-121666000D03*
X162814000Y-119126000D03*
X160274000Y-119126000D03*
X162814000Y-116586000D03*
X160274000Y-116586000D03*
D19*
X199060500Y-114490500D03*
X197560500Y-114490500D03*
D18*
X198755000Y-111010000D03*
X198755000Y-112510000D03*
X192151000Y-112637000D03*
X192151000Y-111137000D03*
D45*
X193980000Y-110633000D03*
X193980000Y-111033000D03*
X193980000Y-111433000D03*
X193980000Y-111833000D03*
X193980000Y-112233000D03*
X193980000Y-112633000D03*
D46*
X194580000Y-113233000D03*
X194980000Y-113233000D03*
X195380000Y-113233000D03*
X195780000Y-113233000D03*
X196180000Y-113233000D03*
X196580000Y-113233000D03*
D45*
X197180000Y-112633000D03*
X197180000Y-112233000D03*
X197180000Y-111833000D03*
X197180000Y-111433000D03*
X197180000Y-111033000D03*
X197180000Y-110633000D03*
D46*
X196580000Y-110033000D03*
X196180000Y-110033000D03*
X195780000Y-110033000D03*
X195380000Y-110033000D03*
X194980000Y-110033000D03*
X194580000Y-110033000D03*
D47*
X195580000Y-111633000D03*
D48*
X220250000Y-82750000D03*
D49*
X220250000Y-80250000D03*
X222750000Y-82750000D03*
X220250000Y-85250000D03*
X217750000Y-82750000D03*
X218450000Y-80950000D03*
X222050000Y-80950000D03*
X218450000Y-84550000D03*
X222050000Y-84550000D03*
D48*
X156000000Y-82750000D03*
D49*
X156000000Y-80250000D03*
X158500000Y-82750000D03*
X156000000Y-85250000D03*
X153500000Y-82750000D03*
X154200000Y-80950000D03*
X157800000Y-80950000D03*
X154200000Y-84550000D03*
X157800000Y-84550000D03*
M02*
