G04 #@! TF.FileFunction,Legend,Bot*
%FSLAX46Y46*%
G04 Gerber Fmt 4.6, Leading zero omitted, Abs format (unit mm)*
G04 Created by KiCad (PCBNEW 4.0.0-rc1-stable) date 20/01/2016 16:24:11*
%MOMM*%
G01*
G04 APERTURE LIST*
%ADD10C,0.100000*%
%ADD11C,0.300000*%
G04 APERTURE END LIST*
D10*
D11*
X197928572Y-113178571D02*
X197642858Y-114178571D01*
X197357144Y-113464286D01*
X197071429Y-114178571D01*
X196785715Y-113178571D01*
X196357143Y-113178571D02*
X196071429Y-114178571D01*
X195785715Y-113464286D01*
X195500000Y-114178571D01*
X195214286Y-113178571D01*
X194785714Y-113178571D02*
X194500000Y-114178571D01*
X194214286Y-113464286D01*
X193928571Y-114178571D01*
X193642857Y-113178571D01*
X193071428Y-114035714D02*
X193000000Y-114107143D01*
X193071428Y-114178571D01*
X193142857Y-114107143D01*
X193071428Y-114035714D01*
X193071428Y-114178571D01*
X191714285Y-114107143D02*
X191857142Y-114178571D01*
X192142856Y-114178571D01*
X192285714Y-114107143D01*
X192357142Y-114035714D01*
X192428571Y-113892857D01*
X192428571Y-113464286D01*
X192357142Y-113321429D01*
X192285714Y-113250000D01*
X192142856Y-113178571D01*
X191857142Y-113178571D01*
X191714285Y-113250000D01*
X190428571Y-113178571D02*
X190428571Y-114178571D01*
X191071428Y-113178571D02*
X191071428Y-113964286D01*
X191000000Y-114107143D01*
X190857142Y-114178571D01*
X190642857Y-114178571D01*
X190500000Y-114107143D01*
X190428571Y-114035714D01*
X189785714Y-114107143D02*
X189642857Y-114178571D01*
X189357142Y-114178571D01*
X189214285Y-114107143D01*
X189142857Y-113964286D01*
X189142857Y-113892857D01*
X189214285Y-113750000D01*
X189357142Y-113678571D01*
X189571428Y-113678571D01*
X189714285Y-113607143D01*
X189785714Y-113464286D01*
X189785714Y-113392857D01*
X189714285Y-113250000D01*
X189571428Y-113178571D01*
X189357142Y-113178571D01*
X189214285Y-113250000D01*
X188714285Y-113178571D02*
X188142856Y-113178571D01*
X188499999Y-114178571D02*
X188499999Y-112892857D01*
X188428571Y-112750000D01*
X188285713Y-112678571D01*
X188142856Y-112678571D01*
X187642856Y-114035714D02*
X187571428Y-114107143D01*
X187642856Y-114178571D01*
X187714285Y-114107143D01*
X187642856Y-114035714D01*
X187642856Y-114178571D01*
X186285713Y-114107143D02*
X186428570Y-114178571D01*
X186714284Y-114178571D01*
X186857142Y-114107143D01*
X186928570Y-114035714D01*
X186999999Y-113892857D01*
X186999999Y-113464286D01*
X186928570Y-113321429D01*
X186857142Y-113250000D01*
X186714284Y-113178571D01*
X186428570Y-113178571D01*
X186285713Y-113250000D01*
X185428570Y-114178571D02*
X185571428Y-114107143D01*
X185642856Y-114035714D01*
X185714285Y-113892857D01*
X185714285Y-113464286D01*
X185642856Y-113321429D01*
X185571428Y-113250000D01*
X185428570Y-113178571D01*
X185214285Y-113178571D01*
X185071428Y-113250000D01*
X184999999Y-113321429D01*
X184928570Y-113464286D01*
X184928570Y-113892857D01*
X184999999Y-114035714D01*
X185071428Y-114107143D01*
X185214285Y-114178571D01*
X185428570Y-114178571D01*
X184285713Y-114035714D02*
X184214285Y-114107143D01*
X184285713Y-114178571D01*
X184357142Y-114107143D01*
X184285713Y-114035714D01*
X184285713Y-114178571D01*
X182928570Y-113178571D02*
X182928570Y-114178571D01*
X183571427Y-113178571D02*
X183571427Y-113964286D01*
X183499999Y-114107143D01*
X183357141Y-114178571D01*
X183142856Y-114178571D01*
X182999999Y-114107143D01*
X182928570Y-114035714D01*
X182214284Y-114178571D02*
X182214284Y-112678571D01*
X182071427Y-113607143D02*
X181642856Y-114178571D01*
X181642856Y-113178571D02*
X182214284Y-113750000D01*
X174035714Y-93950000D02*
X173321428Y-93950000D01*
X174178571Y-94378571D02*
X173678571Y-92878571D01*
X173178571Y-94378571D01*
X170678571Y-94235714D02*
X170750000Y-94307143D01*
X170964286Y-94378571D01*
X171107143Y-94378571D01*
X171321428Y-94307143D01*
X171464286Y-94164286D01*
X171535714Y-94021429D01*
X171607143Y-93735714D01*
X171607143Y-93521429D01*
X171535714Y-93235714D01*
X171464286Y-93092857D01*
X171321428Y-92950000D01*
X171107143Y-92878571D01*
X170964286Y-92878571D01*
X170750000Y-92950000D01*
X170678571Y-93021429D01*
X169821428Y-94378571D02*
X169964286Y-94307143D01*
X170035714Y-94164286D01*
X170035714Y-92878571D01*
X169035714Y-94378571D02*
X169178572Y-94307143D01*
X169250000Y-94235714D01*
X169321429Y-94092857D01*
X169321429Y-93664286D01*
X169250000Y-93521429D01*
X169178572Y-93450000D01*
X169035714Y-93378571D01*
X168821429Y-93378571D01*
X168678572Y-93450000D01*
X168607143Y-93521429D01*
X168535714Y-93664286D01*
X168535714Y-94092857D01*
X168607143Y-94235714D01*
X168678572Y-94307143D01*
X168821429Y-94378571D01*
X169035714Y-94378571D01*
X168035714Y-93378571D02*
X167750000Y-94378571D01*
X167464286Y-93664286D01*
X167178571Y-94378571D01*
X166892857Y-93378571D01*
X165750000Y-94307143D02*
X165892857Y-94378571D01*
X166178571Y-94378571D01*
X166321428Y-94307143D01*
X166392857Y-94164286D01*
X166392857Y-93592857D01*
X166321428Y-93450000D01*
X166178571Y-93378571D01*
X165892857Y-93378571D01*
X165750000Y-93450000D01*
X165678571Y-93592857D01*
X165678571Y-93735714D01*
X166392857Y-93878571D01*
X165107143Y-94307143D02*
X164964286Y-94378571D01*
X164678571Y-94378571D01*
X164535714Y-94307143D01*
X164464286Y-94164286D01*
X164464286Y-94092857D01*
X164535714Y-93950000D01*
X164678571Y-93878571D01*
X164892857Y-93878571D01*
X165035714Y-93807143D01*
X165107143Y-93664286D01*
X165107143Y-93592857D01*
X165035714Y-93450000D01*
X164892857Y-93378571D01*
X164678571Y-93378571D01*
X164535714Y-93450000D01*
X172607143Y-95992857D02*
X172392857Y-96064286D01*
X172321429Y-96135714D01*
X172250000Y-96278571D01*
X172250000Y-96492857D01*
X172321429Y-96635714D01*
X172392857Y-96707143D01*
X172535715Y-96778571D01*
X173107143Y-96778571D01*
X173107143Y-95278571D01*
X172607143Y-95278571D01*
X172464286Y-95350000D01*
X172392857Y-95421429D01*
X172321429Y-95564286D01*
X172321429Y-95707143D01*
X172392857Y-95850000D01*
X172464286Y-95921429D01*
X172607143Y-95992857D01*
X173107143Y-95992857D01*
X170607143Y-95278571D02*
X170250000Y-96778571D01*
X169964286Y-95707143D01*
X169678572Y-96778571D01*
X169321429Y-95278571D01*
X168535714Y-96778571D02*
X168678572Y-96707143D01*
X168750000Y-96635714D01*
X168821429Y-96492857D01*
X168821429Y-96064286D01*
X168750000Y-95921429D01*
X168678572Y-95850000D01*
X168535714Y-95778571D01*
X168321429Y-95778571D01*
X168178572Y-95850000D01*
X168107143Y-95921429D01*
X168035714Y-96064286D01*
X168035714Y-96492857D01*
X168107143Y-96635714D01*
X168178572Y-96707143D01*
X168321429Y-96778571D01*
X168535714Y-96778571D01*
X167392857Y-95778571D02*
X167392857Y-96778571D01*
X167392857Y-95921429D02*
X167321429Y-95850000D01*
X167178571Y-95778571D01*
X166964286Y-95778571D01*
X166821429Y-95850000D01*
X166750000Y-95992857D01*
X166750000Y-96778571D01*
X165392857Y-95778571D02*
X165392857Y-96992857D01*
X165464286Y-97135714D01*
X165535714Y-97207143D01*
X165678571Y-97278571D01*
X165892857Y-97278571D01*
X166035714Y-97207143D01*
X165392857Y-96707143D02*
X165535714Y-96778571D01*
X165821428Y-96778571D01*
X165964286Y-96707143D01*
X166035714Y-96635714D01*
X166107143Y-96492857D01*
X166107143Y-96064286D01*
X166035714Y-95921429D01*
X165964286Y-95850000D01*
X165821428Y-95778571D01*
X165535714Y-95778571D01*
X165392857Y-95850000D01*
X172500000Y-98392857D02*
X172000000Y-98392857D01*
X171785714Y-99178571D02*
X172500000Y-99178571D01*
X172500000Y-97678571D01*
X171785714Y-97678571D01*
X170000000Y-98392857D02*
X169500000Y-98392857D01*
X169285714Y-99178571D02*
X170000000Y-99178571D01*
X170000000Y-97678571D01*
X169285714Y-97678571D01*
X168642857Y-99178571D02*
X168642857Y-98178571D01*
X168642857Y-97678571D02*
X168714286Y-97750000D01*
X168642857Y-97821429D01*
X168571429Y-97750000D01*
X168642857Y-97678571D01*
X168642857Y-97821429D01*
X167285714Y-99178571D02*
X167285714Y-97678571D01*
X167285714Y-99107143D02*
X167428571Y-99178571D01*
X167714285Y-99178571D01*
X167857143Y-99107143D01*
X167928571Y-99035714D01*
X168000000Y-98892857D01*
X168000000Y-98464286D01*
X167928571Y-98321429D01*
X167857143Y-98250000D01*
X167714285Y-98178571D01*
X167428571Y-98178571D01*
X167285714Y-98250000D01*
X166000000Y-99107143D02*
X166142857Y-99178571D01*
X166428571Y-99178571D01*
X166571428Y-99107143D01*
X166642857Y-98964286D01*
X166642857Y-98392857D01*
X166571428Y-98250000D01*
X166428571Y-98178571D01*
X166142857Y-98178571D01*
X166000000Y-98250000D01*
X165928571Y-98392857D01*
X165928571Y-98535714D01*
X166642857Y-98678571D01*
X173214286Y-100150000D02*
X173357143Y-100078571D01*
X173571429Y-100078571D01*
X173785714Y-100150000D01*
X173928572Y-100292857D01*
X174000000Y-100435714D01*
X174071429Y-100721429D01*
X174071429Y-100935714D01*
X174000000Y-101221429D01*
X173928572Y-101364286D01*
X173785714Y-101507143D01*
X173571429Y-101578571D01*
X173428572Y-101578571D01*
X173214286Y-101507143D01*
X173142857Y-101435714D01*
X173142857Y-100935714D01*
X173428572Y-100935714D01*
X170857143Y-100792857D02*
X170642857Y-100864286D01*
X170571429Y-100935714D01*
X170500000Y-101078571D01*
X170500000Y-101292857D01*
X170571429Y-101435714D01*
X170642857Y-101507143D01*
X170785715Y-101578571D01*
X171357143Y-101578571D01*
X171357143Y-100078571D01*
X170857143Y-100078571D01*
X170714286Y-100150000D01*
X170642857Y-100221429D01*
X170571429Y-100364286D01*
X170571429Y-100507143D01*
X170642857Y-100650000D01*
X170714286Y-100721429D01*
X170857143Y-100792857D01*
X171357143Y-100792857D01*
X169857143Y-101578571D02*
X169857143Y-100578571D01*
X169857143Y-100864286D02*
X169785715Y-100721429D01*
X169714286Y-100650000D01*
X169571429Y-100578571D01*
X169428572Y-100578571D01*
X168714286Y-101578571D02*
X168857144Y-101507143D01*
X168928572Y-101435714D01*
X169000001Y-101292857D01*
X169000001Y-100864286D01*
X168928572Y-100721429D01*
X168857144Y-100650000D01*
X168714286Y-100578571D01*
X168500001Y-100578571D01*
X168357144Y-100650000D01*
X168285715Y-100721429D01*
X168214286Y-100864286D01*
X168214286Y-101292857D01*
X168285715Y-101435714D01*
X168357144Y-101507143D01*
X168500001Y-101578571D01*
X168714286Y-101578571D01*
X167357143Y-101578571D02*
X167500001Y-101507143D01*
X167571429Y-101435714D01*
X167642858Y-101292857D01*
X167642858Y-100864286D01*
X167571429Y-100721429D01*
X167500001Y-100650000D01*
X167357143Y-100578571D01*
X167142858Y-100578571D01*
X167000001Y-100650000D01*
X166928572Y-100721429D01*
X166857143Y-100864286D01*
X166857143Y-101292857D01*
X166928572Y-101435714D01*
X167000001Y-101507143D01*
X167142858Y-101578571D01*
X167357143Y-101578571D01*
X166214286Y-101578571D02*
X166214286Y-100078571D01*
X166071429Y-101007143D02*
X165642858Y-101578571D01*
X165642858Y-100578571D02*
X166214286Y-101150000D01*
X165071429Y-101507143D02*
X164928572Y-101578571D01*
X164642857Y-101578571D01*
X164500000Y-101507143D01*
X164428572Y-101364286D01*
X164428572Y-101292857D01*
X164500000Y-101150000D01*
X164642857Y-101078571D01*
X164857143Y-101078571D01*
X165000000Y-101007143D01*
X165071429Y-100864286D01*
X165071429Y-100792857D01*
X165000000Y-100650000D01*
X164857143Y-100578571D01*
X164642857Y-100578571D01*
X164500000Y-100650000D01*
X174392857Y-102478571D02*
X174392857Y-103550000D01*
X174464285Y-103764286D01*
X174607142Y-103907143D01*
X174821428Y-103978571D01*
X174964285Y-103978571D01*
X172035714Y-103192857D02*
X171821428Y-103264286D01*
X171750000Y-103335714D01*
X171678571Y-103478571D01*
X171678571Y-103692857D01*
X171750000Y-103835714D01*
X171821428Y-103907143D01*
X171964286Y-103978571D01*
X172535714Y-103978571D01*
X172535714Y-102478571D01*
X172035714Y-102478571D01*
X171892857Y-102550000D01*
X171821428Y-102621429D01*
X171750000Y-102764286D01*
X171750000Y-102907143D01*
X171821428Y-103050000D01*
X171892857Y-103121429D01*
X172035714Y-103192857D01*
X172535714Y-103192857D01*
X171035714Y-103978571D02*
X171035714Y-102978571D01*
X171035714Y-103264286D02*
X170964286Y-103121429D01*
X170892857Y-103050000D01*
X170750000Y-102978571D01*
X170607143Y-102978571D01*
X169535715Y-103907143D02*
X169678572Y-103978571D01*
X169964286Y-103978571D01*
X170107143Y-103907143D01*
X170178572Y-103764286D01*
X170178572Y-103192857D01*
X170107143Y-103050000D01*
X169964286Y-102978571D01*
X169678572Y-102978571D01*
X169535715Y-103050000D01*
X169464286Y-103192857D01*
X169464286Y-103335714D01*
X170178572Y-103478571D01*
X168964286Y-102978571D02*
X168678572Y-103978571D01*
X168392858Y-103264286D01*
X168107143Y-103978571D01*
X167821429Y-102978571D01*
X167321429Y-103907143D02*
X167178572Y-103978571D01*
X166892857Y-103978571D01*
X166750000Y-103907143D01*
X166678572Y-103764286D01*
X166678572Y-103692857D01*
X166750000Y-103550000D01*
X166892857Y-103478571D01*
X167107143Y-103478571D01*
X167250000Y-103407143D01*
X167321429Y-103264286D01*
X167321429Y-103192857D01*
X167250000Y-103050000D01*
X167107143Y-102978571D01*
X166892857Y-102978571D01*
X166750000Y-103050000D01*
X166250000Y-102978571D02*
X165678571Y-102978571D01*
X166035714Y-102478571D02*
X166035714Y-103764286D01*
X165964286Y-103907143D01*
X165821428Y-103978571D01*
X165678571Y-103978571D01*
X164607143Y-103907143D02*
X164750000Y-103978571D01*
X165035714Y-103978571D01*
X165178571Y-103907143D01*
X165250000Y-103764286D01*
X165250000Y-103192857D01*
X165178571Y-103050000D01*
X165035714Y-102978571D01*
X164750000Y-102978571D01*
X164607143Y-103050000D01*
X164535714Y-103192857D01*
X164535714Y-103335714D01*
X165250000Y-103478571D01*
X163892857Y-103978571D02*
X163892857Y-102978571D01*
X163892857Y-103264286D02*
X163821429Y-103121429D01*
X163750000Y-103050000D01*
X163607143Y-102978571D01*
X163464286Y-102978571D01*
X174178572Y-104878571D02*
X174178572Y-105950000D01*
X174250000Y-106164286D01*
X174392857Y-106307143D01*
X174607143Y-106378571D01*
X174750000Y-106378571D01*
X172535715Y-104878571D02*
X171678572Y-104878571D01*
X172107143Y-106378571D02*
X172107143Y-104878571D01*
X171178572Y-106378571D02*
X171178572Y-105378571D01*
X171178572Y-104878571D02*
X171250001Y-104950000D01*
X171178572Y-105021429D01*
X171107144Y-104950000D01*
X171178572Y-104878571D01*
X171178572Y-105021429D01*
X170464286Y-106378571D02*
X170464286Y-105378571D01*
X170464286Y-105521429D02*
X170392858Y-105450000D01*
X170250000Y-105378571D01*
X170035715Y-105378571D01*
X169892858Y-105450000D01*
X169821429Y-105592857D01*
X169821429Y-106378571D01*
X169821429Y-105592857D02*
X169750000Y-105450000D01*
X169607143Y-105378571D01*
X169392858Y-105378571D01*
X169250000Y-105450000D01*
X169178572Y-105592857D01*
X169178572Y-106378571D01*
X168464286Y-106378571D02*
X168464286Y-105378571D01*
X168464286Y-105521429D02*
X168392858Y-105450000D01*
X168250000Y-105378571D01*
X168035715Y-105378571D01*
X167892858Y-105450000D01*
X167821429Y-105592857D01*
X167821429Y-106378571D01*
X167821429Y-105592857D02*
X167750000Y-105450000D01*
X167607143Y-105378571D01*
X167392858Y-105378571D01*
X167250000Y-105450000D01*
X167178572Y-105592857D01*
X167178572Y-106378571D01*
X166464286Y-106378571D02*
X166464286Y-105378571D01*
X166464286Y-104878571D02*
X166535715Y-104950000D01*
X166464286Y-105021429D01*
X166392858Y-104950000D01*
X166464286Y-104878571D01*
X166464286Y-105021429D01*
X165750000Y-105378571D02*
X165750000Y-106378571D01*
X165750000Y-105521429D02*
X165678572Y-105450000D01*
X165535714Y-105378571D01*
X165321429Y-105378571D01*
X165178572Y-105450000D01*
X165107143Y-105592857D01*
X165107143Y-106378571D01*
X164464286Y-106307143D02*
X164321429Y-106378571D01*
X164035714Y-106378571D01*
X163892857Y-106307143D01*
X163821429Y-106164286D01*
X163821429Y-106092857D01*
X163892857Y-105950000D01*
X164035714Y-105878571D01*
X164250000Y-105878571D01*
X164392857Y-105807143D01*
X164464286Y-105664286D01*
X164464286Y-105592857D01*
X164392857Y-105450000D01*
X164250000Y-105378571D01*
X164035714Y-105378571D01*
X163892857Y-105450000D01*
X174928571Y-108778571D02*
X175642857Y-108778571D01*
X175642857Y-107278571D01*
X172428571Y-108635714D02*
X172500000Y-108707143D01*
X172714286Y-108778571D01*
X172857143Y-108778571D01*
X173071428Y-108707143D01*
X173214286Y-108564286D01*
X173285714Y-108421429D01*
X173357143Y-108135714D01*
X173357143Y-107921429D01*
X173285714Y-107635714D01*
X173214286Y-107492857D01*
X173071428Y-107350000D01*
X172857143Y-107278571D01*
X172714286Y-107278571D01*
X172500000Y-107350000D01*
X172428571Y-107421429D01*
X171571428Y-108778571D02*
X171714286Y-108707143D01*
X171785714Y-108635714D01*
X171857143Y-108492857D01*
X171857143Y-108064286D01*
X171785714Y-107921429D01*
X171714286Y-107850000D01*
X171571428Y-107778571D01*
X171357143Y-107778571D01*
X171214286Y-107850000D01*
X171142857Y-107921429D01*
X171071428Y-108064286D01*
X171071428Y-108492857D01*
X171142857Y-108635714D01*
X171214286Y-108707143D01*
X171357143Y-108778571D01*
X171571428Y-108778571D01*
X169785714Y-108707143D02*
X169928571Y-108778571D01*
X170214285Y-108778571D01*
X170357143Y-108707143D01*
X170428571Y-108635714D01*
X170500000Y-108492857D01*
X170500000Y-108064286D01*
X170428571Y-107921429D01*
X170357143Y-107850000D01*
X170214285Y-107778571D01*
X169928571Y-107778571D01*
X169785714Y-107850000D01*
X169142857Y-108778571D02*
X169142857Y-107278571D01*
X169000000Y-108207143D02*
X168571429Y-108778571D01*
X168571429Y-107778571D02*
X169142857Y-108350000D01*
X167357143Y-108707143D02*
X167500000Y-108778571D01*
X167785714Y-108778571D01*
X167928571Y-108707143D01*
X168000000Y-108564286D01*
X168000000Y-107992857D01*
X167928571Y-107850000D01*
X167785714Y-107778571D01*
X167500000Y-107778571D01*
X167357143Y-107850000D01*
X167285714Y-107992857D01*
X167285714Y-108135714D01*
X168000000Y-108278571D01*
X166642857Y-108778571D02*
X166642857Y-107778571D01*
X166642857Y-108064286D02*
X166571429Y-107921429D01*
X166500000Y-107850000D01*
X166357143Y-107778571D01*
X166214286Y-107778571D01*
X165928572Y-107778571D02*
X165357143Y-107778571D01*
X165714286Y-107278571D02*
X165714286Y-108564286D01*
X165642858Y-108707143D01*
X165500000Y-108778571D01*
X165357143Y-108778571D01*
X164642857Y-108778571D02*
X164785715Y-108707143D01*
X164857143Y-108635714D01*
X164928572Y-108492857D01*
X164928572Y-108064286D01*
X164857143Y-107921429D01*
X164785715Y-107850000D01*
X164642857Y-107778571D01*
X164428572Y-107778571D01*
X164285715Y-107850000D01*
X164214286Y-107921429D01*
X164142857Y-108064286D01*
X164142857Y-108492857D01*
X164214286Y-108635714D01*
X164285715Y-108707143D01*
X164428572Y-108778571D01*
X164642857Y-108778571D01*
X163500000Y-107778571D02*
X163500000Y-108778571D01*
X163500000Y-107921429D02*
X163428572Y-107850000D01*
X163285714Y-107778571D01*
X163071429Y-107778571D01*
X162928572Y-107850000D01*
X162857143Y-107992857D01*
X162857143Y-108778571D01*
X177249999Y-111178571D02*
X177749999Y-110464286D01*
X178107142Y-111178571D02*
X178107142Y-109678571D01*
X177535714Y-109678571D01*
X177392856Y-109750000D01*
X177321428Y-109821429D01*
X177249999Y-109964286D01*
X177249999Y-110178571D01*
X177321428Y-110321429D01*
X177392856Y-110392857D01*
X177535714Y-110464286D01*
X178107142Y-110464286D01*
X175678571Y-109678571D02*
X174821428Y-109678571D01*
X175249999Y-111178571D02*
X175249999Y-109678571D01*
X173678571Y-111178571D02*
X173678571Y-110392857D01*
X173750000Y-110250000D01*
X173892857Y-110178571D01*
X174178571Y-110178571D01*
X174321428Y-110250000D01*
X173678571Y-111107143D02*
X173821428Y-111178571D01*
X174178571Y-111178571D01*
X174321428Y-111107143D01*
X174392857Y-110964286D01*
X174392857Y-110821429D01*
X174321428Y-110678571D01*
X174178571Y-110607143D01*
X173821428Y-110607143D01*
X173678571Y-110535714D01*
X173107142Y-110178571D02*
X172749999Y-111178571D01*
X172392857Y-110178571D02*
X172749999Y-111178571D01*
X172892857Y-111535714D01*
X172964285Y-111607143D01*
X173107142Y-111678571D01*
X171607142Y-111178571D02*
X171750000Y-111107143D01*
X171821428Y-110964286D01*
X171821428Y-109678571D01*
X170821428Y-111178571D02*
X170964286Y-111107143D01*
X171035714Y-111035714D01*
X171107143Y-110892857D01*
X171107143Y-110464286D01*
X171035714Y-110321429D01*
X170964286Y-110250000D01*
X170821428Y-110178571D01*
X170607143Y-110178571D01*
X170464286Y-110250000D01*
X170392857Y-110321429D01*
X170321428Y-110464286D01*
X170321428Y-110892857D01*
X170392857Y-111035714D01*
X170464286Y-111107143D01*
X170607143Y-111178571D01*
X170821428Y-111178571D01*
X169678571Y-111178571D02*
X169678571Y-110178571D01*
X169678571Y-110464286D02*
X169607143Y-110321429D01*
X169535714Y-110250000D01*
X169392857Y-110178571D01*
X169250000Y-110178571D01*
X168750000Y-110607143D02*
X167607143Y-110607143D01*
X166892857Y-111178571D02*
X166892857Y-109678571D01*
X166535714Y-109678571D01*
X166321429Y-109750000D01*
X166178571Y-109892857D01*
X166107143Y-110035714D01*
X166035714Y-110321429D01*
X166035714Y-110535714D01*
X166107143Y-110821429D01*
X166178571Y-110964286D01*
X166321429Y-111107143D01*
X166535714Y-111178571D01*
X166892857Y-111178571D01*
X164750000Y-111178571D02*
X164750000Y-110392857D01*
X164821429Y-110250000D01*
X164964286Y-110178571D01*
X165250000Y-110178571D01*
X165392857Y-110250000D01*
X164750000Y-111107143D02*
X164892857Y-111178571D01*
X165250000Y-111178571D01*
X165392857Y-111107143D01*
X165464286Y-110964286D01*
X165464286Y-110821429D01*
X165392857Y-110678571D01*
X165250000Y-110607143D01*
X164892857Y-110607143D01*
X164750000Y-110535714D01*
X164178571Y-110178571D02*
X163821428Y-111178571D01*
X163464286Y-110178571D01*
X162892857Y-111178571D02*
X162892857Y-110178571D01*
X162892857Y-109678571D02*
X162964286Y-109750000D01*
X162892857Y-109821429D01*
X162821429Y-109750000D01*
X162892857Y-109678571D01*
X162892857Y-109821429D01*
X161607143Y-111107143D02*
X161750000Y-111178571D01*
X162035714Y-111178571D01*
X162178571Y-111107143D01*
X162250000Y-110964286D01*
X162250000Y-110392857D01*
X162178571Y-110250000D01*
X162035714Y-110178571D01*
X161750000Y-110178571D01*
X161607143Y-110250000D01*
X161535714Y-110392857D01*
X161535714Y-110535714D01*
X162250000Y-110678571D01*
X160964286Y-111107143D02*
X160821429Y-111178571D01*
X160535714Y-111178571D01*
X160392857Y-111107143D01*
X160321429Y-110964286D01*
X160321429Y-110892857D01*
X160392857Y-110750000D01*
X160535714Y-110678571D01*
X160750000Y-110678571D01*
X160892857Y-110607143D01*
X160964286Y-110464286D01*
X160964286Y-110392857D01*
X160892857Y-110250000D01*
X160750000Y-110178571D01*
X160535714Y-110178571D01*
X160392857Y-110250000D01*
X174357142Y-113578571D02*
X174857142Y-112864286D01*
X175214285Y-113578571D02*
X175214285Y-112078571D01*
X174642857Y-112078571D01*
X174499999Y-112150000D01*
X174428571Y-112221429D01*
X174357142Y-112364286D01*
X174357142Y-112578571D01*
X174428571Y-112721429D01*
X174499999Y-112792857D01*
X174642857Y-112864286D01*
X175214285Y-112864286D01*
X172714285Y-112078571D02*
X172357142Y-113578571D01*
X172071428Y-112507143D01*
X171785714Y-113578571D01*
X171428571Y-112078571D01*
X170214285Y-113578571D02*
X170214285Y-112792857D01*
X170285714Y-112650000D01*
X170428571Y-112578571D01*
X170714285Y-112578571D01*
X170857142Y-112650000D01*
X170214285Y-113507143D02*
X170357142Y-113578571D01*
X170714285Y-113578571D01*
X170857142Y-113507143D01*
X170928571Y-113364286D01*
X170928571Y-113221429D01*
X170857142Y-113078571D01*
X170714285Y-113007143D01*
X170357142Y-113007143D01*
X170214285Y-112935714D01*
X169499999Y-113578571D02*
X169499999Y-112578571D01*
X169499999Y-112864286D02*
X169428571Y-112721429D01*
X169357142Y-112650000D01*
X169214285Y-112578571D01*
X169071428Y-112578571D01*
X168000000Y-113507143D02*
X168142857Y-113578571D01*
X168428571Y-113578571D01*
X168571428Y-113507143D01*
X168642857Y-113364286D01*
X168642857Y-112792857D01*
X168571428Y-112650000D01*
X168428571Y-112578571D01*
X168142857Y-112578571D01*
X168000000Y-112650000D01*
X167928571Y-112792857D01*
X167928571Y-112935714D01*
X168642857Y-113078571D01*
X167285714Y-113578571D02*
X167285714Y-112078571D01*
X166642857Y-113578571D02*
X166642857Y-112792857D01*
X166714286Y-112650000D01*
X166857143Y-112578571D01*
X167071428Y-112578571D01*
X167214286Y-112650000D01*
X167285714Y-112721429D01*
X165285714Y-113578571D02*
X165285714Y-112792857D01*
X165357143Y-112650000D01*
X165500000Y-112578571D01*
X165785714Y-112578571D01*
X165928571Y-112650000D01*
X165285714Y-113507143D02*
X165428571Y-113578571D01*
X165785714Y-113578571D01*
X165928571Y-113507143D01*
X166000000Y-113364286D01*
X166000000Y-113221429D01*
X165928571Y-113078571D01*
X165785714Y-113007143D01*
X165428571Y-113007143D01*
X165285714Y-112935714D01*
X164571428Y-113578571D02*
X164571428Y-112578571D01*
X164571428Y-112721429D02*
X164500000Y-112650000D01*
X164357142Y-112578571D01*
X164142857Y-112578571D01*
X164000000Y-112650000D01*
X163928571Y-112792857D01*
X163928571Y-113578571D01*
X163928571Y-112792857D02*
X163857142Y-112650000D01*
X163714285Y-112578571D01*
X163500000Y-112578571D01*
X163357142Y-112650000D01*
X163285714Y-112792857D01*
X163285714Y-113578571D01*
X172821428Y-115907143D02*
X172607142Y-115978571D01*
X172249999Y-115978571D01*
X172107142Y-115907143D01*
X172035713Y-115835714D01*
X171964285Y-115692857D01*
X171964285Y-115550000D01*
X172035713Y-115407143D01*
X172107142Y-115335714D01*
X172249999Y-115264286D01*
X172535713Y-115192857D01*
X172678571Y-115121429D01*
X172749999Y-115050000D01*
X172821428Y-114907143D01*
X172821428Y-114764286D01*
X172749999Y-114621429D01*
X172678571Y-114550000D01*
X172535713Y-114478571D01*
X172178571Y-114478571D01*
X171964285Y-114550000D01*
X169892857Y-114478571D02*
X169607143Y-114478571D01*
X169464285Y-114550000D01*
X169321428Y-114692857D01*
X169250000Y-114978571D01*
X169250000Y-115478571D01*
X169321428Y-115764286D01*
X169464285Y-115907143D01*
X169607143Y-115978571D01*
X169892857Y-115978571D01*
X170035714Y-115907143D01*
X170178571Y-115764286D01*
X170250000Y-115478571D01*
X170250000Y-114978571D01*
X170178571Y-114692857D01*
X170035714Y-114550000D01*
X169892857Y-114478571D01*
X168607142Y-115978571D02*
X168607142Y-114478571D01*
X168607142Y-115050000D02*
X168464285Y-114978571D01*
X168178571Y-114978571D01*
X168035714Y-115050000D01*
X167964285Y-115121429D01*
X167892856Y-115264286D01*
X167892856Y-115692857D01*
X167964285Y-115835714D01*
X168035714Y-115907143D01*
X168178571Y-115978571D01*
X168464285Y-115978571D01*
X168607142Y-115907143D01*
X166678571Y-115907143D02*
X166821428Y-115978571D01*
X167107142Y-115978571D01*
X167249999Y-115907143D01*
X167321428Y-115764286D01*
X167321428Y-115192857D01*
X167249999Y-115050000D01*
X167107142Y-114978571D01*
X166821428Y-114978571D01*
X166678571Y-115050000D01*
X166607142Y-115192857D01*
X166607142Y-115335714D01*
X167321428Y-115478571D01*
X165964285Y-115978571D02*
X165964285Y-114978571D01*
X165964285Y-115264286D02*
X165892857Y-115121429D01*
X165821428Y-115050000D01*
X165678571Y-114978571D01*
X165535714Y-114978571D01*
D10*
G36*
X223191600Y-121846618D02*
X223185797Y-121939916D01*
X223161919Y-122025134D01*
X223110259Y-122111684D01*
X223021113Y-122208977D01*
X222884773Y-122326426D01*
X222691533Y-122473443D01*
X222431690Y-122659439D01*
X222152283Y-122854466D01*
X221966525Y-122983452D01*
X221708897Y-123162429D01*
X221390938Y-123383375D01*
X221024189Y-123638269D01*
X220620189Y-123919091D01*
X220190479Y-124217820D01*
X219746597Y-124526434D01*
X219300084Y-124836912D01*
X219272395Y-124856167D01*
X218716928Y-125240872D01*
X218241504Y-125566741D01*
X217844233Y-125835017D01*
X217523220Y-126046939D01*
X217276574Y-126203748D01*
X217102403Y-126306683D01*
X216998813Y-126356985D01*
X216973695Y-126362800D01*
X216884882Y-126350547D01*
X216848234Y-126293754D01*
X216841600Y-126183032D01*
X216862666Y-126044156D01*
X216938115Y-125912124D01*
X217032100Y-125805333D01*
X217114590Y-125733994D01*
X217269585Y-125614146D01*
X217488850Y-125451471D01*
X217764154Y-125251650D01*
X218087264Y-125020366D01*
X218449946Y-124763299D01*
X218843968Y-124486131D01*
X219261098Y-124194544D01*
X219693101Y-123894219D01*
X220131747Y-123590838D01*
X220568801Y-123290081D01*
X220996031Y-122997631D01*
X221405204Y-122719169D01*
X221788088Y-122460377D01*
X222136450Y-122226936D01*
X222442056Y-122024528D01*
X222696675Y-121858834D01*
X222892072Y-121735535D01*
X223020017Y-121660314D01*
X223070191Y-121638400D01*
X223147867Y-121650076D01*
X223182863Y-121703820D01*
X223191548Y-121827706D01*
X223191600Y-121846618D01*
X223191600Y-121846618D01*
X223191600Y-121846618D01*
G37*
X223191600Y-121846618D02*
X223185797Y-121939916D01*
X223161919Y-122025134D01*
X223110259Y-122111684D01*
X223021113Y-122208977D01*
X222884773Y-122326426D01*
X222691533Y-122473443D01*
X222431690Y-122659439D01*
X222152283Y-122854466D01*
X221966525Y-122983452D01*
X221708897Y-123162429D01*
X221390938Y-123383375D01*
X221024189Y-123638269D01*
X220620189Y-123919091D01*
X220190479Y-124217820D01*
X219746597Y-124526434D01*
X219300084Y-124836912D01*
X219272395Y-124856167D01*
X218716928Y-125240872D01*
X218241504Y-125566741D01*
X217844233Y-125835017D01*
X217523220Y-126046939D01*
X217276574Y-126203748D01*
X217102403Y-126306683D01*
X216998813Y-126356985D01*
X216973695Y-126362800D01*
X216884882Y-126350547D01*
X216848234Y-126293754D01*
X216841600Y-126183032D01*
X216862666Y-126044156D01*
X216938115Y-125912124D01*
X217032100Y-125805333D01*
X217114590Y-125733994D01*
X217269585Y-125614146D01*
X217488850Y-125451471D01*
X217764154Y-125251650D01*
X218087264Y-125020366D01*
X218449946Y-124763299D01*
X218843968Y-124486131D01*
X219261098Y-124194544D01*
X219693101Y-123894219D01*
X220131747Y-123590838D01*
X220568801Y-123290081D01*
X220996031Y-122997631D01*
X221405204Y-122719169D01*
X221788088Y-122460377D01*
X222136450Y-122226936D01*
X222442056Y-122024528D01*
X222696675Y-121858834D01*
X222892072Y-121735535D01*
X223020017Y-121660314D01*
X223070191Y-121638400D01*
X223147867Y-121650076D01*
X223182863Y-121703820D01*
X223191548Y-121827706D01*
X223191600Y-121846618D01*
X223191600Y-121846618D01*
G36*
X223191600Y-119941618D02*
X223184316Y-120117303D01*
X223153374Y-120231507D01*
X223085142Y-120323853D01*
X223047389Y-120360718D01*
X222973520Y-120419871D01*
X222826306Y-120529356D01*
X222616034Y-120681820D01*
X222352994Y-120869907D01*
X222047473Y-121086262D01*
X221709760Y-121323531D01*
X221350144Y-121574358D01*
X221332889Y-121586348D01*
X220635519Y-122070875D01*
X220016828Y-122500675D01*
X219471992Y-122878901D01*
X218996189Y-123208707D01*
X218584595Y-123493244D01*
X218232386Y-123735666D01*
X217934741Y-123939125D01*
X217686835Y-124106775D01*
X217483846Y-124241769D01*
X217320950Y-124347258D01*
X217193325Y-124426396D01*
X217096147Y-124482337D01*
X217024592Y-124518232D01*
X216973839Y-124537234D01*
X216939064Y-124542497D01*
X216915443Y-124537173D01*
X216898153Y-124524416D01*
X216882372Y-124507377D01*
X216875466Y-124500133D01*
X216840961Y-124404999D01*
X216845163Y-124256039D01*
X216882693Y-124090966D01*
X216948176Y-123947492D01*
X216955900Y-123936006D01*
X217015988Y-123880176D01*
X217150733Y-123773768D01*
X217352011Y-123622443D01*
X217611702Y-123431858D01*
X217921682Y-123207673D01*
X218273831Y-122955548D01*
X218660025Y-122681142D01*
X219072144Y-122390113D01*
X219502065Y-122088122D01*
X219941666Y-121780828D01*
X220382825Y-121473889D01*
X220817420Y-121172965D01*
X221237330Y-120883715D01*
X221634431Y-120611799D01*
X222000603Y-120362875D01*
X222327723Y-120142604D01*
X222607670Y-119956644D01*
X222832320Y-119810654D01*
X222993553Y-119710294D01*
X223083247Y-119661223D01*
X223096705Y-119657200D01*
X223151461Y-119671213D01*
X223180199Y-119728850D01*
X223190724Y-119853504D01*
X223191600Y-119941618D01*
X223191600Y-119941618D01*
X223191600Y-119941618D01*
G37*
X223191600Y-119941618D02*
X223184316Y-120117303D01*
X223153374Y-120231507D01*
X223085142Y-120323853D01*
X223047389Y-120360718D01*
X222973520Y-120419871D01*
X222826306Y-120529356D01*
X222616034Y-120681820D01*
X222352994Y-120869907D01*
X222047473Y-121086262D01*
X221709760Y-121323531D01*
X221350144Y-121574358D01*
X221332889Y-121586348D01*
X220635519Y-122070875D01*
X220016828Y-122500675D01*
X219471992Y-122878901D01*
X218996189Y-123208707D01*
X218584595Y-123493244D01*
X218232386Y-123735666D01*
X217934741Y-123939125D01*
X217686835Y-124106775D01*
X217483846Y-124241769D01*
X217320950Y-124347258D01*
X217193325Y-124426396D01*
X217096147Y-124482337D01*
X217024592Y-124518232D01*
X216973839Y-124537234D01*
X216939064Y-124542497D01*
X216915443Y-124537173D01*
X216898153Y-124524416D01*
X216882372Y-124507377D01*
X216875466Y-124500133D01*
X216840961Y-124404999D01*
X216845163Y-124256039D01*
X216882693Y-124090966D01*
X216948176Y-123947492D01*
X216955900Y-123936006D01*
X217015988Y-123880176D01*
X217150733Y-123773768D01*
X217352011Y-123622443D01*
X217611702Y-123431858D01*
X217921682Y-123207673D01*
X218273831Y-122955548D01*
X218660025Y-122681142D01*
X219072144Y-122390113D01*
X219502065Y-122088122D01*
X219941666Y-121780828D01*
X220382825Y-121473889D01*
X220817420Y-121172965D01*
X221237330Y-120883715D01*
X221634431Y-120611799D01*
X222000603Y-120362875D01*
X222327723Y-120142604D01*
X222607670Y-119956644D01*
X222832320Y-119810654D01*
X222993553Y-119710294D01*
X223083247Y-119661223D01*
X223096705Y-119657200D01*
X223151461Y-119671213D01*
X223180199Y-119728850D01*
X223190724Y-119853504D01*
X223191600Y-119941618D01*
X223191600Y-119941618D01*
G36*
X223191600Y-117921002D02*
X223187925Y-118109349D01*
X223169410Y-118230216D01*
X223124815Y-118317663D01*
X223042901Y-118405745D01*
X223026500Y-118421306D01*
X222944159Y-118488466D01*
X222789283Y-118604482D01*
X222570157Y-118763647D01*
X222295065Y-118960254D01*
X221972291Y-119188597D01*
X221610120Y-119442968D01*
X221216836Y-119717662D01*
X220800723Y-120006970D01*
X220370067Y-120305186D01*
X219933151Y-120606603D01*
X219498260Y-120905515D01*
X219073678Y-121196214D01*
X218667690Y-121472993D01*
X218288580Y-121730147D01*
X217944632Y-121961967D01*
X217644132Y-122162746D01*
X217395363Y-122326779D01*
X217206609Y-122448358D01*
X217086156Y-122521777D01*
X217044695Y-122541979D01*
X216933889Y-122542800D01*
X216879410Y-122522877D01*
X216846418Y-122431945D01*
X216841800Y-122277885D01*
X216862471Y-122094175D01*
X216905343Y-121914293D01*
X216944887Y-121812713D01*
X216971541Y-121766064D01*
X217011454Y-121714167D01*
X217070662Y-121652541D01*
X217155196Y-121576704D01*
X217271093Y-121482175D01*
X217424384Y-121364472D01*
X217621105Y-121219115D01*
X217867289Y-121041622D01*
X218168971Y-120827512D01*
X218532184Y-120572304D01*
X218962961Y-120271516D01*
X219467338Y-119920666D01*
X219853187Y-119652766D01*
X220333191Y-119319604D01*
X220791259Y-119001564D01*
X221220128Y-118703693D01*
X221612533Y-118431043D01*
X221961213Y-118188662D01*
X222258902Y-117981600D01*
X222498340Y-117814907D01*
X222672261Y-117693632D01*
X222773402Y-117622826D01*
X222793814Y-117608358D01*
X222954572Y-117537321D01*
X223060514Y-117543435D01*
X223130021Y-117567352D01*
X223169290Y-117611687D01*
X223186915Y-117701188D01*
X223191488Y-117860603D01*
X223191600Y-117921002D01*
X223191600Y-117921002D01*
X223191600Y-117921002D01*
G37*
X223191600Y-117921002D02*
X223187925Y-118109349D01*
X223169410Y-118230216D01*
X223124815Y-118317663D01*
X223042901Y-118405745D01*
X223026500Y-118421306D01*
X222944159Y-118488466D01*
X222789283Y-118604482D01*
X222570157Y-118763647D01*
X222295065Y-118960254D01*
X221972291Y-119188597D01*
X221610120Y-119442968D01*
X221216836Y-119717662D01*
X220800723Y-120006970D01*
X220370067Y-120305186D01*
X219933151Y-120606603D01*
X219498260Y-120905515D01*
X219073678Y-121196214D01*
X218667690Y-121472993D01*
X218288580Y-121730147D01*
X217944632Y-121961967D01*
X217644132Y-122162746D01*
X217395363Y-122326779D01*
X217206609Y-122448358D01*
X217086156Y-122521777D01*
X217044695Y-122541979D01*
X216933889Y-122542800D01*
X216879410Y-122522877D01*
X216846418Y-122431945D01*
X216841800Y-122277885D01*
X216862471Y-122094175D01*
X216905343Y-121914293D01*
X216944887Y-121812713D01*
X216971541Y-121766064D01*
X217011454Y-121714167D01*
X217070662Y-121652541D01*
X217155196Y-121576704D01*
X217271093Y-121482175D01*
X217424384Y-121364472D01*
X217621105Y-121219115D01*
X217867289Y-121041622D01*
X218168971Y-120827512D01*
X218532184Y-120572304D01*
X218962961Y-120271516D01*
X219467338Y-119920666D01*
X219853187Y-119652766D01*
X220333191Y-119319604D01*
X220791259Y-119001564D01*
X221220128Y-118703693D01*
X221612533Y-118431043D01*
X221961213Y-118188662D01*
X222258902Y-117981600D01*
X222498340Y-117814907D01*
X222672261Y-117693632D01*
X222773402Y-117622826D01*
X222793814Y-117608358D01*
X222954572Y-117537321D01*
X223060514Y-117543435D01*
X223130021Y-117567352D01*
X223169290Y-117611687D01*
X223186915Y-117701188D01*
X223191488Y-117860603D01*
X223191600Y-117921002D01*
X223191600Y-117921002D01*
G36*
X223191600Y-115592351D02*
X223189235Y-115798770D01*
X223176428Y-115933760D01*
X223144612Y-116027473D01*
X223085218Y-116110063D01*
X223026500Y-116173386D01*
X222955777Y-116232789D01*
X222811360Y-116342230D01*
X222601548Y-116495950D01*
X222334639Y-116688192D01*
X222018933Y-116913196D01*
X221662727Y-117165206D01*
X221274321Y-117438463D01*
X220862014Y-117727210D01*
X220434103Y-118025687D01*
X219998889Y-118328138D01*
X219564669Y-118628804D01*
X219139743Y-118921927D01*
X218732409Y-119201749D01*
X218350966Y-119462512D01*
X218003712Y-119698458D01*
X217698946Y-119903829D01*
X217444968Y-120072867D01*
X217250076Y-120199813D01*
X217122568Y-120278911D01*
X217072762Y-120304350D01*
X216958318Y-120292214D01*
X216905100Y-120259808D01*
X216865758Y-120165951D01*
X216845557Y-120005633D01*
X216844043Y-119812087D01*
X216860761Y-119618544D01*
X216895256Y-119458238D01*
X216916791Y-119405150D01*
X216969200Y-119348031D01*
X217092001Y-119244715D01*
X217287018Y-119093874D01*
X217556076Y-118894185D01*
X217900999Y-118644323D01*
X218323610Y-118342963D01*
X218825734Y-117988780D01*
X219409194Y-117580449D01*
X219884799Y-117249311D01*
X220371596Y-116911432D01*
X220836306Y-116589719D01*
X221271835Y-116289030D01*
X221671089Y-116014226D01*
X222026972Y-115770164D01*
X222332390Y-115561703D01*
X222580248Y-115393703D01*
X222763452Y-115271023D01*
X222874908Y-115198520D01*
X222905168Y-115180760D01*
X223031339Y-115137834D01*
X223115181Y-115153226D01*
X223164547Y-115238220D01*
X223187289Y-115404103D01*
X223191600Y-115592351D01*
X223191600Y-115592351D01*
X223191600Y-115592351D01*
G37*
X223191600Y-115592351D02*
X223189235Y-115798770D01*
X223176428Y-115933760D01*
X223144612Y-116027473D01*
X223085218Y-116110063D01*
X223026500Y-116173386D01*
X222955777Y-116232789D01*
X222811360Y-116342230D01*
X222601548Y-116495950D01*
X222334639Y-116688192D01*
X222018933Y-116913196D01*
X221662727Y-117165206D01*
X221274321Y-117438463D01*
X220862014Y-117727210D01*
X220434103Y-118025687D01*
X219998889Y-118328138D01*
X219564669Y-118628804D01*
X219139743Y-118921927D01*
X218732409Y-119201749D01*
X218350966Y-119462512D01*
X218003712Y-119698458D01*
X217698946Y-119903829D01*
X217444968Y-120072867D01*
X217250076Y-120199813D01*
X217122568Y-120278911D01*
X217072762Y-120304350D01*
X216958318Y-120292214D01*
X216905100Y-120259808D01*
X216865758Y-120165951D01*
X216845557Y-120005633D01*
X216844043Y-119812087D01*
X216860761Y-119618544D01*
X216895256Y-119458238D01*
X216916791Y-119405150D01*
X216969200Y-119348031D01*
X217092001Y-119244715D01*
X217287018Y-119093874D01*
X217556076Y-118894185D01*
X217900999Y-118644323D01*
X218323610Y-118342963D01*
X218825734Y-117988780D01*
X219409194Y-117580449D01*
X219884799Y-117249311D01*
X220371596Y-116911432D01*
X220836306Y-116589719D01*
X221271835Y-116289030D01*
X221671089Y-116014226D01*
X222026972Y-115770164D01*
X222332390Y-115561703D01*
X222580248Y-115393703D01*
X222763452Y-115271023D01*
X222874908Y-115198520D01*
X222905168Y-115180760D01*
X223031339Y-115137834D01*
X223115181Y-115153226D01*
X223164547Y-115238220D01*
X223187289Y-115404103D01*
X223191600Y-115592351D01*
X223191600Y-115592351D01*
G36*
X223191600Y-113173523D02*
X223190032Y-113396868D01*
X223180786Y-113545665D01*
X223157050Y-113646962D01*
X223112009Y-113727808D01*
X223038852Y-113815250D01*
X223026500Y-113828980D01*
X222961640Y-113889580D01*
X222845037Y-113984080D01*
X222673620Y-114114656D01*
X222444318Y-114283484D01*
X222154060Y-114492741D01*
X221799777Y-114744602D01*
X221378398Y-115041244D01*
X220886852Y-115384842D01*
X220322068Y-115777572D01*
X219680977Y-116221611D01*
X218960508Y-116719135D01*
X218518000Y-117024146D01*
X218128503Y-117292386D01*
X217813957Y-117508312D01*
X217565589Y-117677168D01*
X217374626Y-117804199D01*
X217232296Y-117894649D01*
X217129825Y-117953764D01*
X217058442Y-117986786D01*
X217009373Y-117998962D01*
X216973845Y-117995534D01*
X216943087Y-117981749D01*
X216929188Y-117973968D01*
X216887043Y-117934596D01*
X216860680Y-117860269D01*
X216846727Y-117730778D01*
X216841814Y-117525918D01*
X216841600Y-117448773D01*
X216843928Y-117220245D01*
X216854520Y-117067018D01*
X216878780Y-116962833D01*
X216922118Y-116881431D01*
X216971416Y-116818317D01*
X217029953Y-116768858D01*
X217163633Y-116667614D01*
X217364138Y-116520413D01*
X217623151Y-116333087D01*
X217932356Y-116111465D01*
X218283436Y-115861376D01*
X218668073Y-115588652D01*
X219077951Y-115299122D01*
X219504753Y-114998616D01*
X219940162Y-114692965D01*
X220375860Y-114387997D01*
X220803532Y-114089544D01*
X221214860Y-113803435D01*
X221601527Y-113535500D01*
X221955216Y-113291569D01*
X222267610Y-113077472D01*
X222530393Y-112899040D01*
X222735248Y-112762102D01*
X222873856Y-112672488D01*
X222937600Y-112636132D01*
X223044841Y-112635456D01*
X223102700Y-112655451D01*
X223145448Y-112692310D01*
X223172147Y-112763000D01*
X223186280Y-112887823D01*
X223191332Y-113087082D01*
X223191600Y-113173523D01*
X223191600Y-113173523D01*
X223191600Y-113173523D01*
G37*
X223191600Y-113173523D02*
X223190032Y-113396868D01*
X223180786Y-113545665D01*
X223157050Y-113646962D01*
X223112009Y-113727808D01*
X223038852Y-113815250D01*
X223026500Y-113828980D01*
X222961640Y-113889580D01*
X222845037Y-113984080D01*
X222673620Y-114114656D01*
X222444318Y-114283484D01*
X222154060Y-114492741D01*
X221799777Y-114744602D01*
X221378398Y-115041244D01*
X220886852Y-115384842D01*
X220322068Y-115777572D01*
X219680977Y-116221611D01*
X218960508Y-116719135D01*
X218518000Y-117024146D01*
X218128503Y-117292386D01*
X217813957Y-117508312D01*
X217565589Y-117677168D01*
X217374626Y-117804199D01*
X217232296Y-117894649D01*
X217129825Y-117953764D01*
X217058442Y-117986786D01*
X217009373Y-117998962D01*
X216973845Y-117995534D01*
X216943087Y-117981749D01*
X216929188Y-117973968D01*
X216887043Y-117934596D01*
X216860680Y-117860269D01*
X216846727Y-117730778D01*
X216841814Y-117525918D01*
X216841600Y-117448773D01*
X216843928Y-117220245D01*
X216854520Y-117067018D01*
X216878780Y-116962833D01*
X216922118Y-116881431D01*
X216971416Y-116818317D01*
X217029953Y-116768858D01*
X217163633Y-116667614D01*
X217364138Y-116520413D01*
X217623151Y-116333087D01*
X217932356Y-116111465D01*
X218283436Y-115861376D01*
X218668073Y-115588652D01*
X219077951Y-115299122D01*
X219504753Y-114998616D01*
X219940162Y-114692965D01*
X220375860Y-114387997D01*
X220803532Y-114089544D01*
X221214860Y-113803435D01*
X221601527Y-113535500D01*
X221955216Y-113291569D01*
X222267610Y-113077472D01*
X222530393Y-112899040D01*
X222735248Y-112762102D01*
X222873856Y-112672488D01*
X222937600Y-112636132D01*
X223044841Y-112635456D01*
X223102700Y-112655451D01*
X223145448Y-112692310D01*
X223172147Y-112763000D01*
X223186280Y-112887823D01*
X223191332Y-113087082D01*
X223191600Y-113173523D01*
X223191600Y-113173523D01*
G36*
X223191600Y-101579022D02*
X223191429Y-102811065D01*
X223190906Y-103944499D01*
X223190012Y-104982313D01*
X223188729Y-105927499D01*
X223187037Y-106783046D01*
X223184920Y-107551945D01*
X223182359Y-108237186D01*
X223179335Y-108841760D01*
X223175830Y-109368655D01*
X223171825Y-109820864D01*
X223167304Y-110201375D01*
X223162246Y-110513179D01*
X223156635Y-110759267D01*
X223150451Y-110942628D01*
X223143676Y-111066253D01*
X223136292Y-111133132D01*
X223133046Y-111144929D01*
X223082350Y-111194864D01*
X222956103Y-111296094D01*
X222762470Y-111442913D01*
X222509614Y-111629618D01*
X222205700Y-111850503D01*
X221858892Y-112099863D01*
X221682335Y-112225791D01*
X221682335Y-104569600D01*
X221667600Y-104569600D01*
X221667600Y-98438979D01*
X221667600Y-96898800D01*
X221667456Y-96898800D01*
X221667456Y-93670973D01*
X221653821Y-93218996D01*
X221610134Y-92854602D01*
X221532575Y-92567216D01*
X221417323Y-92346265D01*
X221260556Y-92181175D01*
X221091324Y-92076636D01*
X220878047Y-92003816D01*
X220596396Y-91950865D01*
X220271634Y-91918181D01*
X219929024Y-91906166D01*
X219593827Y-91915221D01*
X219291307Y-91945745D01*
X219046725Y-91998141D01*
X218934023Y-92042423D01*
X218790595Y-92140883D01*
X218678652Y-92251646D01*
X218596223Y-92405240D01*
X218527072Y-92622759D01*
X218480970Y-92866588D01*
X218467200Y-93065900D01*
X218467200Y-93241200D01*
X218848200Y-93241200D01*
X219229200Y-93241200D01*
X219229200Y-93040832D01*
X219270906Y-92823179D01*
X219343500Y-92709291D01*
X219414998Y-92641120D01*
X219502625Y-92597548D01*
X219633848Y-92570072D01*
X219836135Y-92550186D01*
X219864200Y-92548076D01*
X220229855Y-92542157D01*
X220509057Y-92585440D01*
X220704617Y-92678601D01*
X220791435Y-92771060D01*
X220823009Y-92831276D01*
X220846233Y-92911687D01*
X220862329Y-93027481D01*
X220872520Y-93193846D01*
X220878027Y-93425971D01*
X220880074Y-93739044D01*
X220880200Y-93873965D01*
X220877957Y-94290762D01*
X220866389Y-94616779D01*
X220838235Y-94862818D01*
X220786236Y-95039678D01*
X220703131Y-95158159D01*
X220581660Y-95229061D01*
X220414563Y-95263185D01*
X220194579Y-95271331D01*
X219944858Y-95265358D01*
X219663005Y-95248698D01*
X219465680Y-95214090D01*
X219336046Y-95150523D01*
X219257269Y-95046986D01*
X219212513Y-94892469D01*
X219195525Y-94775290D01*
X219164248Y-94511200D01*
X218790324Y-94511200D01*
X218611578Y-94511933D01*
X218496253Y-94525755D01*
X218434351Y-94570099D01*
X218415874Y-94662395D01*
X218430826Y-94820077D01*
X218469209Y-95060577D01*
X218470544Y-95068793D01*
X218525794Y-95322342D01*
X218607321Y-95522564D01*
X218726072Y-95675011D01*
X218892996Y-95785234D01*
X219119041Y-95858785D01*
X219415155Y-95901215D01*
X219792288Y-95918077D01*
X220143600Y-95917148D01*
X220430067Y-95910916D01*
X220637935Y-95900495D01*
X220790203Y-95882536D01*
X220909867Y-95853689D01*
X221019925Y-95810605D01*
X221083400Y-95780270D01*
X221263540Y-95671544D01*
X221383263Y-95541596D01*
X221448401Y-95425600D01*
X221527989Y-95197492D01*
X221591092Y-94880850D01*
X221636219Y-94487627D01*
X221661877Y-94029778D01*
X221667456Y-93670973D01*
X221667456Y-96898800D01*
X221286600Y-96898800D01*
X220905600Y-96898800D01*
X220905600Y-98395009D01*
X220903615Y-98911822D01*
X220897625Y-99328730D01*
X220887570Y-99647352D01*
X220873393Y-99869309D01*
X220855037Y-99996217D01*
X220847797Y-100018081D01*
X220767339Y-100123157D01*
X220629516Y-100194410D01*
X220421114Y-100235793D01*
X220128919Y-100251262D01*
X220067400Y-100251600D01*
X219758977Y-100240311D01*
X219536690Y-100203808D01*
X219387324Y-100138136D01*
X219297663Y-100039342D01*
X219287002Y-100018081D01*
X219267204Y-99923272D01*
X219251606Y-99733969D01*
X219240149Y-99448553D01*
X219232777Y-99065404D01*
X219229430Y-98582904D01*
X219229200Y-98395009D01*
X219229200Y-96898800D01*
X218845014Y-96898800D01*
X218460828Y-96898800D01*
X218478102Y-98537100D01*
X218483584Y-99000069D01*
X218489664Y-99372743D01*
X218496985Y-99666424D01*
X218506189Y-99892417D01*
X218517918Y-100062025D01*
X218532815Y-100186552D01*
X218551523Y-100277302D01*
X218574683Y-100345579D01*
X218581801Y-100361666D01*
X218708452Y-100552064D01*
X218897350Y-100698290D01*
X219161043Y-100807591D01*
X219483200Y-100882242D01*
X219619320Y-100893552D01*
X219826637Y-100896132D01*
X220078033Y-100891217D01*
X220346388Y-100880038D01*
X220604584Y-100863829D01*
X220825502Y-100843822D01*
X220982023Y-100821251D01*
X221018322Y-100812456D01*
X221282944Y-100686027D01*
X221475895Y-100487600D01*
X221590564Y-100238567D01*
X221613751Y-100140519D01*
X221632047Y-100012371D01*
X221645949Y-99842490D01*
X221655955Y-99619245D01*
X221662564Y-99331006D01*
X221666273Y-98966139D01*
X221667580Y-98513015D01*
X221667600Y-98438979D01*
X221667600Y-104569600D01*
X221321117Y-104569600D01*
X220959899Y-104569600D01*
X220925752Y-104827013D01*
X220883374Y-105017911D01*
X220813208Y-105129643D01*
X220784302Y-105151504D01*
X220646264Y-105203294D01*
X220436850Y-105241191D01*
X220185673Y-105262415D01*
X219922347Y-105264184D01*
X219729801Y-105250523D01*
X219497368Y-105210548D01*
X219348656Y-105141372D01*
X219266303Y-105024060D01*
X219232949Y-104839674D01*
X219229200Y-104704473D01*
X219233710Y-104531599D01*
X219256400Y-104403534D01*
X219311008Y-104311684D01*
X219411272Y-104247451D01*
X219570931Y-104202241D01*
X219803724Y-104167456D01*
X220123388Y-104134501D01*
X220143141Y-104132630D01*
X220574782Y-104086332D01*
X220915386Y-104032995D01*
X221175514Y-103964591D01*
X221365723Y-103873090D01*
X221496573Y-103750465D01*
X221578623Y-103588688D01*
X221622432Y-103379729D01*
X221638558Y-103115560D01*
X221639624Y-102994800D01*
X221622953Y-102642493D01*
X221566719Y-102373889D01*
X221461178Y-102175562D01*
X221296584Y-102034089D01*
X221063192Y-101936044D01*
X220831745Y-101881932D01*
X220510632Y-101840977D01*
X220157303Y-101826553D01*
X219797431Y-101836920D01*
X219456692Y-101870337D01*
X219160758Y-101925064D01*
X218935305Y-101999359D01*
X218908732Y-102012301D01*
X218770334Y-102134080D01*
X218659123Y-102327406D01*
X218588402Y-102563179D01*
X218569915Y-102753500D01*
X218568800Y-102994800D01*
X218923432Y-102994800D01*
X219109462Y-102992810D01*
X219218023Y-102981000D01*
X219273242Y-102950603D01*
X219299242Y-102892854D01*
X219307947Y-102855100D01*
X219353977Y-102685099D01*
X219418306Y-102565310D01*
X219517050Y-102488517D01*
X219666323Y-102447502D01*
X219882238Y-102435048D01*
X220180910Y-102443936D01*
X220221338Y-102446003D01*
X220468753Y-102466219D01*
X220633568Y-102498540D01*
X220734456Y-102546916D01*
X220746722Y-102557138D01*
X220833913Y-102687288D01*
X220878794Y-102861327D01*
X220883298Y-103050538D01*
X220849356Y-103226203D01*
X220778902Y-103359607D01*
X220688719Y-103419119D01*
X220593494Y-103435155D01*
X220422539Y-103456735D01*
X220201363Y-103480856D01*
X219990729Y-103501314D01*
X219575388Y-103544425D01*
X219249481Y-103592336D01*
X219000844Y-103650569D01*
X218817313Y-103724645D01*
X218686724Y-103820086D01*
X218596912Y-103942413D01*
X218535716Y-104097147D01*
X218516219Y-104170623D01*
X218481272Y-104415152D01*
X218476381Y-104700413D01*
X218499011Y-104989433D01*
X218546628Y-105245239D01*
X218600506Y-105400078D01*
X218732129Y-105580883D01*
X218935396Y-105713563D01*
X219218786Y-105802365D01*
X219482239Y-105842040D01*
X219750491Y-105859182D01*
X220059319Y-105862639D01*
X220377821Y-105853632D01*
X220675095Y-105833381D01*
X220920243Y-105803106D01*
X221028007Y-105781013D01*
X221270930Y-105693274D01*
X221444355Y-105564948D01*
X221559744Y-105380267D01*
X221628561Y-105123458D01*
X221652843Y-104921389D01*
X221682335Y-104569600D01*
X221682335Y-112225791D01*
X221667600Y-112236301D01*
X221667600Y-110818000D01*
X221667600Y-108811400D01*
X221667600Y-106804800D01*
X220067400Y-106804800D01*
X218467200Y-106804800D01*
X218467200Y-107135000D01*
X218467200Y-107465200D01*
X219686400Y-107465200D01*
X220905600Y-107465200D01*
X220905600Y-107998600D01*
X220905600Y-108532000D01*
X219838800Y-108532000D01*
X218772000Y-108532000D01*
X218772000Y-108836800D01*
X218772000Y-109141600D01*
X219838800Y-109141600D01*
X220905600Y-109141600D01*
X220905600Y-109945933D01*
X220907637Y-110222089D01*
X220913263Y-110461709D01*
X220921747Y-110646730D01*
X220932359Y-110759089D01*
X220939466Y-110784133D01*
X221003936Y-110801169D01*
X221140481Y-110813332D01*
X221319602Y-110817999D01*
X221320466Y-110818000D01*
X221667600Y-110818000D01*
X221667600Y-112236301D01*
X221477354Y-112371994D01*
X221069250Y-112661190D01*
X220642745Y-112961746D01*
X220206002Y-113267957D01*
X219767186Y-113574119D01*
X219334461Y-113874527D01*
X218915990Y-114163476D01*
X218519939Y-114435260D01*
X218154471Y-114684175D01*
X217827750Y-114904516D01*
X217547940Y-115090577D01*
X217323206Y-115236655D01*
X217161712Y-115337044D01*
X217071622Y-115386039D01*
X217058065Y-115390000D01*
X216944636Y-115358909D01*
X216902560Y-115329039D01*
X216895476Y-115300087D01*
X216888916Y-115225866D01*
X216882863Y-115103282D01*
X216877299Y-114929242D01*
X216872210Y-114700651D01*
X216867579Y-114414416D01*
X216863389Y-114067442D01*
X216859624Y-113656635D01*
X216856267Y-113178901D01*
X216853304Y-112631146D01*
X216850716Y-112010276D01*
X216848489Y-111313197D01*
X216846605Y-110536815D01*
X216845048Y-109678035D01*
X216843802Y-108733764D01*
X216842852Y-107700907D01*
X216842179Y-106576371D01*
X216841769Y-105357061D01*
X216841604Y-104039883D01*
X216841600Y-103755860D01*
X216841658Y-102466502D01*
X216841849Y-101274879D01*
X216842199Y-100177128D01*
X216842732Y-99169385D01*
X216843475Y-98247785D01*
X216844451Y-97408464D01*
X216845686Y-96647557D01*
X216847206Y-95961202D01*
X216849036Y-95345533D01*
X216851200Y-94796687D01*
X216853725Y-94310799D01*
X216856635Y-93884004D01*
X216859955Y-93512440D01*
X216863711Y-93192242D01*
X216867928Y-92919545D01*
X216872631Y-92690485D01*
X216877845Y-92501199D01*
X216883595Y-92347822D01*
X216889908Y-92226489D01*
X216896807Y-92133337D01*
X216904319Y-92064502D01*
X216912467Y-92016119D01*
X216918327Y-91993120D01*
X216957412Y-91903058D01*
X217040868Y-91737723D01*
X217163233Y-91506692D01*
X217319045Y-91219539D01*
X217502843Y-90885838D01*
X217709165Y-90515165D01*
X217932548Y-90117096D01*
X218167531Y-89701203D01*
X218408652Y-89277064D01*
X218650450Y-88854253D01*
X218887462Y-88442344D01*
X219114227Y-88050913D01*
X219325282Y-87689535D01*
X219515167Y-87367784D01*
X219678419Y-87095236D01*
X219809577Y-86881466D01*
X219903178Y-86736048D01*
X219953761Y-86668558D01*
X219957139Y-86665848D01*
X220071658Y-86641341D01*
X220123681Y-86663842D01*
X220162820Y-86716454D01*
X220245601Y-86848275D01*
X220366525Y-87049592D01*
X220520094Y-87310689D01*
X220700807Y-87621850D01*
X220903168Y-87973360D01*
X221121676Y-88355505D01*
X221350833Y-88758569D01*
X221585141Y-89172836D01*
X221819099Y-89588592D01*
X222047210Y-89996121D01*
X222263975Y-90385708D01*
X222463894Y-90747638D01*
X222641469Y-91072196D01*
X222791202Y-91349666D01*
X222907592Y-91570333D01*
X222967427Y-91688112D01*
X223191600Y-92141625D01*
X223191600Y-101579022D01*
X223191600Y-101579022D01*
X223191600Y-101579022D01*
G37*
X223191600Y-101579022D02*
X223191429Y-102811065D01*
X223190906Y-103944499D01*
X223190012Y-104982313D01*
X223188729Y-105927499D01*
X223187037Y-106783046D01*
X223184920Y-107551945D01*
X223182359Y-108237186D01*
X223179335Y-108841760D01*
X223175830Y-109368655D01*
X223171825Y-109820864D01*
X223167304Y-110201375D01*
X223162246Y-110513179D01*
X223156635Y-110759267D01*
X223150451Y-110942628D01*
X223143676Y-111066253D01*
X223136292Y-111133132D01*
X223133046Y-111144929D01*
X223082350Y-111194864D01*
X222956103Y-111296094D01*
X222762470Y-111442913D01*
X222509614Y-111629618D01*
X222205700Y-111850503D01*
X221858892Y-112099863D01*
X221682335Y-112225791D01*
X221682335Y-104569600D01*
X221667600Y-104569600D01*
X221667600Y-98438979D01*
X221667600Y-96898800D01*
X221667456Y-96898800D01*
X221667456Y-93670973D01*
X221653821Y-93218996D01*
X221610134Y-92854602D01*
X221532575Y-92567216D01*
X221417323Y-92346265D01*
X221260556Y-92181175D01*
X221091324Y-92076636D01*
X220878047Y-92003816D01*
X220596396Y-91950865D01*
X220271634Y-91918181D01*
X219929024Y-91906166D01*
X219593827Y-91915221D01*
X219291307Y-91945745D01*
X219046725Y-91998141D01*
X218934023Y-92042423D01*
X218790595Y-92140883D01*
X218678652Y-92251646D01*
X218596223Y-92405240D01*
X218527072Y-92622759D01*
X218480970Y-92866588D01*
X218467200Y-93065900D01*
X218467200Y-93241200D01*
X218848200Y-93241200D01*
X219229200Y-93241200D01*
X219229200Y-93040832D01*
X219270906Y-92823179D01*
X219343500Y-92709291D01*
X219414998Y-92641120D01*
X219502625Y-92597548D01*
X219633848Y-92570072D01*
X219836135Y-92550186D01*
X219864200Y-92548076D01*
X220229855Y-92542157D01*
X220509057Y-92585440D01*
X220704617Y-92678601D01*
X220791435Y-92771060D01*
X220823009Y-92831276D01*
X220846233Y-92911687D01*
X220862329Y-93027481D01*
X220872520Y-93193846D01*
X220878027Y-93425971D01*
X220880074Y-93739044D01*
X220880200Y-93873965D01*
X220877957Y-94290762D01*
X220866389Y-94616779D01*
X220838235Y-94862818D01*
X220786236Y-95039678D01*
X220703131Y-95158159D01*
X220581660Y-95229061D01*
X220414563Y-95263185D01*
X220194579Y-95271331D01*
X219944858Y-95265358D01*
X219663005Y-95248698D01*
X219465680Y-95214090D01*
X219336046Y-95150523D01*
X219257269Y-95046986D01*
X219212513Y-94892469D01*
X219195525Y-94775290D01*
X219164248Y-94511200D01*
X218790324Y-94511200D01*
X218611578Y-94511933D01*
X218496253Y-94525755D01*
X218434351Y-94570099D01*
X218415874Y-94662395D01*
X218430826Y-94820077D01*
X218469209Y-95060577D01*
X218470544Y-95068793D01*
X218525794Y-95322342D01*
X218607321Y-95522564D01*
X218726072Y-95675011D01*
X218892996Y-95785234D01*
X219119041Y-95858785D01*
X219415155Y-95901215D01*
X219792288Y-95918077D01*
X220143600Y-95917148D01*
X220430067Y-95910916D01*
X220637935Y-95900495D01*
X220790203Y-95882536D01*
X220909867Y-95853689D01*
X221019925Y-95810605D01*
X221083400Y-95780270D01*
X221263540Y-95671544D01*
X221383263Y-95541596D01*
X221448401Y-95425600D01*
X221527989Y-95197492D01*
X221591092Y-94880850D01*
X221636219Y-94487627D01*
X221661877Y-94029778D01*
X221667456Y-93670973D01*
X221667456Y-96898800D01*
X221286600Y-96898800D01*
X220905600Y-96898800D01*
X220905600Y-98395009D01*
X220903615Y-98911822D01*
X220897625Y-99328730D01*
X220887570Y-99647352D01*
X220873393Y-99869309D01*
X220855037Y-99996217D01*
X220847797Y-100018081D01*
X220767339Y-100123157D01*
X220629516Y-100194410D01*
X220421114Y-100235793D01*
X220128919Y-100251262D01*
X220067400Y-100251600D01*
X219758977Y-100240311D01*
X219536690Y-100203808D01*
X219387324Y-100138136D01*
X219297663Y-100039342D01*
X219287002Y-100018081D01*
X219267204Y-99923272D01*
X219251606Y-99733969D01*
X219240149Y-99448553D01*
X219232777Y-99065404D01*
X219229430Y-98582904D01*
X219229200Y-98395009D01*
X219229200Y-96898800D01*
X218845014Y-96898800D01*
X218460828Y-96898800D01*
X218478102Y-98537100D01*
X218483584Y-99000069D01*
X218489664Y-99372743D01*
X218496985Y-99666424D01*
X218506189Y-99892417D01*
X218517918Y-100062025D01*
X218532815Y-100186552D01*
X218551523Y-100277302D01*
X218574683Y-100345579D01*
X218581801Y-100361666D01*
X218708452Y-100552064D01*
X218897350Y-100698290D01*
X219161043Y-100807591D01*
X219483200Y-100882242D01*
X219619320Y-100893552D01*
X219826637Y-100896132D01*
X220078033Y-100891217D01*
X220346388Y-100880038D01*
X220604584Y-100863829D01*
X220825502Y-100843822D01*
X220982023Y-100821251D01*
X221018322Y-100812456D01*
X221282944Y-100686027D01*
X221475895Y-100487600D01*
X221590564Y-100238567D01*
X221613751Y-100140519D01*
X221632047Y-100012371D01*
X221645949Y-99842490D01*
X221655955Y-99619245D01*
X221662564Y-99331006D01*
X221666273Y-98966139D01*
X221667580Y-98513015D01*
X221667600Y-98438979D01*
X221667600Y-104569600D01*
X221321117Y-104569600D01*
X220959899Y-104569600D01*
X220925752Y-104827013D01*
X220883374Y-105017911D01*
X220813208Y-105129643D01*
X220784302Y-105151504D01*
X220646264Y-105203294D01*
X220436850Y-105241191D01*
X220185673Y-105262415D01*
X219922347Y-105264184D01*
X219729801Y-105250523D01*
X219497368Y-105210548D01*
X219348656Y-105141372D01*
X219266303Y-105024060D01*
X219232949Y-104839674D01*
X219229200Y-104704473D01*
X219233710Y-104531599D01*
X219256400Y-104403534D01*
X219311008Y-104311684D01*
X219411272Y-104247451D01*
X219570931Y-104202241D01*
X219803724Y-104167456D01*
X220123388Y-104134501D01*
X220143141Y-104132630D01*
X220574782Y-104086332D01*
X220915386Y-104032995D01*
X221175514Y-103964591D01*
X221365723Y-103873090D01*
X221496573Y-103750465D01*
X221578623Y-103588688D01*
X221622432Y-103379729D01*
X221638558Y-103115560D01*
X221639624Y-102994800D01*
X221622953Y-102642493D01*
X221566719Y-102373889D01*
X221461178Y-102175562D01*
X221296584Y-102034089D01*
X221063192Y-101936044D01*
X220831745Y-101881932D01*
X220510632Y-101840977D01*
X220157303Y-101826553D01*
X219797431Y-101836920D01*
X219456692Y-101870337D01*
X219160758Y-101925064D01*
X218935305Y-101999359D01*
X218908732Y-102012301D01*
X218770334Y-102134080D01*
X218659123Y-102327406D01*
X218588402Y-102563179D01*
X218569915Y-102753500D01*
X218568800Y-102994800D01*
X218923432Y-102994800D01*
X219109462Y-102992810D01*
X219218023Y-102981000D01*
X219273242Y-102950603D01*
X219299242Y-102892854D01*
X219307947Y-102855100D01*
X219353977Y-102685099D01*
X219418306Y-102565310D01*
X219517050Y-102488517D01*
X219666323Y-102447502D01*
X219882238Y-102435048D01*
X220180910Y-102443936D01*
X220221338Y-102446003D01*
X220468753Y-102466219D01*
X220633568Y-102498540D01*
X220734456Y-102546916D01*
X220746722Y-102557138D01*
X220833913Y-102687288D01*
X220878794Y-102861327D01*
X220883298Y-103050538D01*
X220849356Y-103226203D01*
X220778902Y-103359607D01*
X220688719Y-103419119D01*
X220593494Y-103435155D01*
X220422539Y-103456735D01*
X220201363Y-103480856D01*
X219990729Y-103501314D01*
X219575388Y-103544425D01*
X219249481Y-103592336D01*
X219000844Y-103650569D01*
X218817313Y-103724645D01*
X218686724Y-103820086D01*
X218596912Y-103942413D01*
X218535716Y-104097147D01*
X218516219Y-104170623D01*
X218481272Y-104415152D01*
X218476381Y-104700413D01*
X218499011Y-104989433D01*
X218546628Y-105245239D01*
X218600506Y-105400078D01*
X218732129Y-105580883D01*
X218935396Y-105713563D01*
X219218786Y-105802365D01*
X219482239Y-105842040D01*
X219750491Y-105859182D01*
X220059319Y-105862639D01*
X220377821Y-105853632D01*
X220675095Y-105833381D01*
X220920243Y-105803106D01*
X221028007Y-105781013D01*
X221270930Y-105693274D01*
X221444355Y-105564948D01*
X221559744Y-105380267D01*
X221628561Y-105123458D01*
X221652843Y-104921389D01*
X221682335Y-104569600D01*
X221682335Y-112225791D01*
X221667600Y-112236301D01*
X221667600Y-110818000D01*
X221667600Y-108811400D01*
X221667600Y-106804800D01*
X220067400Y-106804800D01*
X218467200Y-106804800D01*
X218467200Y-107135000D01*
X218467200Y-107465200D01*
X219686400Y-107465200D01*
X220905600Y-107465200D01*
X220905600Y-107998600D01*
X220905600Y-108532000D01*
X219838800Y-108532000D01*
X218772000Y-108532000D01*
X218772000Y-108836800D01*
X218772000Y-109141600D01*
X219838800Y-109141600D01*
X220905600Y-109141600D01*
X220905600Y-109945933D01*
X220907637Y-110222089D01*
X220913263Y-110461709D01*
X220921747Y-110646730D01*
X220932359Y-110759089D01*
X220939466Y-110784133D01*
X221003936Y-110801169D01*
X221140481Y-110813332D01*
X221319602Y-110817999D01*
X221320466Y-110818000D01*
X221667600Y-110818000D01*
X221667600Y-112236301D01*
X221477354Y-112371994D01*
X221069250Y-112661190D01*
X220642745Y-112961746D01*
X220206002Y-113267957D01*
X219767186Y-113574119D01*
X219334461Y-113874527D01*
X218915990Y-114163476D01*
X218519939Y-114435260D01*
X218154471Y-114684175D01*
X217827750Y-114904516D01*
X217547940Y-115090577D01*
X217323206Y-115236655D01*
X217161712Y-115337044D01*
X217071622Y-115386039D01*
X217058065Y-115390000D01*
X216944636Y-115358909D01*
X216902560Y-115329039D01*
X216895476Y-115300087D01*
X216888916Y-115225866D01*
X216882863Y-115103282D01*
X216877299Y-114929242D01*
X216872210Y-114700651D01*
X216867579Y-114414416D01*
X216863389Y-114067442D01*
X216859624Y-113656635D01*
X216856267Y-113178901D01*
X216853304Y-112631146D01*
X216850716Y-112010276D01*
X216848489Y-111313197D01*
X216846605Y-110536815D01*
X216845048Y-109678035D01*
X216843802Y-108733764D01*
X216842852Y-107700907D01*
X216842179Y-106576371D01*
X216841769Y-105357061D01*
X216841604Y-104039883D01*
X216841600Y-103755860D01*
X216841658Y-102466502D01*
X216841849Y-101274879D01*
X216842199Y-100177128D01*
X216842732Y-99169385D01*
X216843475Y-98247785D01*
X216844451Y-97408464D01*
X216845686Y-96647557D01*
X216847206Y-95961202D01*
X216849036Y-95345533D01*
X216851200Y-94796687D01*
X216853725Y-94310799D01*
X216856635Y-93884004D01*
X216859955Y-93512440D01*
X216863711Y-93192242D01*
X216867928Y-92919545D01*
X216872631Y-92690485D01*
X216877845Y-92501199D01*
X216883595Y-92347822D01*
X216889908Y-92226489D01*
X216896807Y-92133337D01*
X216904319Y-92064502D01*
X216912467Y-92016119D01*
X216918327Y-91993120D01*
X216957412Y-91903058D01*
X217040868Y-91737723D01*
X217163233Y-91506692D01*
X217319045Y-91219539D01*
X217502843Y-90885838D01*
X217709165Y-90515165D01*
X217932548Y-90117096D01*
X218167531Y-89701203D01*
X218408652Y-89277064D01*
X218650450Y-88854253D01*
X218887462Y-88442344D01*
X219114227Y-88050913D01*
X219325282Y-87689535D01*
X219515167Y-87367784D01*
X219678419Y-87095236D01*
X219809577Y-86881466D01*
X219903178Y-86736048D01*
X219953761Y-86668558D01*
X219957139Y-86665848D01*
X220071658Y-86641341D01*
X220123681Y-86663842D01*
X220162820Y-86716454D01*
X220245601Y-86848275D01*
X220366525Y-87049592D01*
X220520094Y-87310689D01*
X220700807Y-87621850D01*
X220903168Y-87973360D01*
X221121676Y-88355505D01*
X221350833Y-88758569D01*
X221585141Y-89172836D01*
X221819099Y-89588592D01*
X222047210Y-89996121D01*
X222263975Y-90385708D01*
X222463894Y-90747638D01*
X222641469Y-91072196D01*
X222791202Y-91349666D01*
X222907592Y-91570333D01*
X222967427Y-91688112D01*
X223191600Y-92141625D01*
X223191600Y-101579022D01*
X223191600Y-101579022D01*
G36*
X209247000Y-108786000D02*
X209243304Y-109260491D01*
X209229759Y-109644907D01*
X209202683Y-109950588D01*
X209158391Y-110188871D01*
X209093198Y-110371096D01*
X209003421Y-110508600D01*
X208885376Y-110612723D01*
X208735378Y-110694801D01*
X208610553Y-110744792D01*
X208450121Y-110782888D01*
X208213915Y-110813565D01*
X207927557Y-110835816D01*
X207616673Y-110848632D01*
X207306884Y-110851003D01*
X207023815Y-110841921D01*
X206793089Y-110820378D01*
X206771831Y-110817177D01*
X206469085Y-110746469D01*
X206254040Y-110641664D01*
X206117051Y-110497750D01*
X206100460Y-110468319D01*
X206032223Y-110278866D01*
X205977344Y-110011216D01*
X205939162Y-109688278D01*
X205921018Y-109332960D01*
X205919983Y-109230500D01*
X205919600Y-108786000D01*
X206808600Y-108786000D01*
X207697600Y-108786000D01*
X207697600Y-109014600D01*
X207697600Y-109243200D01*
X207068524Y-109243200D01*
X206805430Y-109244304D01*
X206626631Y-109249398D01*
X206514834Y-109261150D01*
X206452743Y-109282229D01*
X206423063Y-109315304D01*
X206412995Y-109344361D01*
X206403848Y-109466334D01*
X206414444Y-109648883D01*
X206439844Y-109854026D01*
X206475106Y-110043784D01*
X206515291Y-110180175D01*
X206524157Y-110198978D01*
X206599828Y-110284962D01*
X206728466Y-110346577D01*
X206921205Y-110385838D01*
X207189178Y-110404761D01*
X207543518Y-110405361D01*
X207650057Y-110402796D01*
X207965134Y-110391564D01*
X208215819Y-110370490D01*
X208409409Y-110328953D01*
X208553198Y-110256334D01*
X208654484Y-110142014D01*
X208720563Y-109975371D01*
X208758731Y-109745787D01*
X208776283Y-109442640D01*
X208780517Y-109055312D01*
X208779608Y-108758687D01*
X208775123Y-108348113D01*
X208764162Y-108026674D01*
X208743929Y-107781972D01*
X208711626Y-107601610D01*
X208664457Y-107473190D01*
X208599624Y-107384313D01*
X208514330Y-107322583D01*
X208448728Y-107292008D01*
X208194111Y-107223140D01*
X207859165Y-107187468D01*
X207459956Y-107186097D01*
X207172810Y-107204193D01*
X206891324Y-107236027D01*
X206694905Y-107281906D01*
X206567051Y-107353324D01*
X206491261Y-107461773D01*
X206451034Y-107618749D01*
X206439487Y-107714960D01*
X206414673Y-107973200D01*
X206159899Y-107973200D01*
X205905126Y-107973200D01*
X205937937Y-107659277D01*
X205996882Y-107343558D01*
X206097616Y-107103183D01*
X206235853Y-106947214D01*
X206289734Y-106915448D01*
X206510285Y-106843439D01*
X206814557Y-106793014D01*
X207186657Y-106765782D01*
X207610688Y-106763353D01*
X207748400Y-106767814D01*
X208159118Y-106796529D01*
X208482510Y-106848855D01*
X208731261Y-106930507D01*
X208918057Y-107047197D01*
X209055582Y-107204642D01*
X209153564Y-107400826D01*
X209184657Y-107493334D01*
X209208128Y-107598278D01*
X209225001Y-107730832D01*
X209236300Y-107906169D01*
X209243048Y-108139465D01*
X209246270Y-108445894D01*
X209247000Y-108786000D01*
X209247000Y-108786000D01*
X209247000Y-108786000D01*
G37*
X209247000Y-108786000D02*
X209243304Y-109260491D01*
X209229759Y-109644907D01*
X209202683Y-109950588D01*
X209158391Y-110188871D01*
X209093198Y-110371096D01*
X209003421Y-110508600D01*
X208885376Y-110612723D01*
X208735378Y-110694801D01*
X208610553Y-110744792D01*
X208450121Y-110782888D01*
X208213915Y-110813565D01*
X207927557Y-110835816D01*
X207616673Y-110848632D01*
X207306884Y-110851003D01*
X207023815Y-110841921D01*
X206793089Y-110820378D01*
X206771831Y-110817177D01*
X206469085Y-110746469D01*
X206254040Y-110641664D01*
X206117051Y-110497750D01*
X206100460Y-110468319D01*
X206032223Y-110278866D01*
X205977344Y-110011216D01*
X205939162Y-109688278D01*
X205921018Y-109332960D01*
X205919983Y-109230500D01*
X205919600Y-108786000D01*
X206808600Y-108786000D01*
X207697600Y-108786000D01*
X207697600Y-109014600D01*
X207697600Y-109243200D01*
X207068524Y-109243200D01*
X206805430Y-109244304D01*
X206626631Y-109249398D01*
X206514834Y-109261150D01*
X206452743Y-109282229D01*
X206423063Y-109315304D01*
X206412995Y-109344361D01*
X206403848Y-109466334D01*
X206414444Y-109648883D01*
X206439844Y-109854026D01*
X206475106Y-110043784D01*
X206515291Y-110180175D01*
X206524157Y-110198978D01*
X206599828Y-110284962D01*
X206728466Y-110346577D01*
X206921205Y-110385838D01*
X207189178Y-110404761D01*
X207543518Y-110405361D01*
X207650057Y-110402796D01*
X207965134Y-110391564D01*
X208215819Y-110370490D01*
X208409409Y-110328953D01*
X208553198Y-110256334D01*
X208654484Y-110142014D01*
X208720563Y-109975371D01*
X208758731Y-109745787D01*
X208776283Y-109442640D01*
X208780517Y-109055312D01*
X208779608Y-108758687D01*
X208775123Y-108348113D01*
X208764162Y-108026674D01*
X208743929Y-107781972D01*
X208711626Y-107601610D01*
X208664457Y-107473190D01*
X208599624Y-107384313D01*
X208514330Y-107322583D01*
X208448728Y-107292008D01*
X208194111Y-107223140D01*
X207859165Y-107187468D01*
X207459956Y-107186097D01*
X207172810Y-107204193D01*
X206891324Y-107236027D01*
X206694905Y-107281906D01*
X206567051Y-107353324D01*
X206491261Y-107461773D01*
X206451034Y-107618749D01*
X206439487Y-107714960D01*
X206414673Y-107973200D01*
X206159899Y-107973200D01*
X205905126Y-107973200D01*
X205937937Y-107659277D01*
X205996882Y-107343558D01*
X206097616Y-107103183D01*
X206235853Y-106947214D01*
X206289734Y-106915448D01*
X206510285Y-106843439D01*
X206814557Y-106793014D01*
X207186657Y-106765782D01*
X207610688Y-106763353D01*
X207748400Y-106767814D01*
X208159118Y-106796529D01*
X208482510Y-106848855D01*
X208731261Y-106930507D01*
X208918057Y-107047197D01*
X209055582Y-107204642D01*
X209153564Y-107400826D01*
X209184657Y-107493334D01*
X209208128Y-107598278D01*
X209225001Y-107730832D01*
X209236300Y-107906169D01*
X209243048Y-108139465D01*
X209246270Y-108445894D01*
X209247000Y-108786000D01*
X209247000Y-108786000D01*
G36*
X199366400Y-107262000D02*
X198731400Y-107262000D01*
X198096400Y-107262000D01*
X198096400Y-109040000D01*
X198096400Y-110818000D01*
X197842400Y-110818000D01*
X197588400Y-110818000D01*
X197588400Y-109040000D01*
X197588400Y-107262000D01*
X196953400Y-107262000D01*
X196318400Y-107262000D01*
X196318400Y-107033400D01*
X196318400Y-106804800D01*
X197842400Y-106804800D01*
X199366400Y-106804800D01*
X199366400Y-107033400D01*
X199366400Y-107262000D01*
X199366400Y-107262000D01*
X199366400Y-107262000D01*
G37*
X199366400Y-107262000D02*
X198731400Y-107262000D01*
X198096400Y-107262000D01*
X198096400Y-109040000D01*
X198096400Y-110818000D01*
X197842400Y-110818000D01*
X197588400Y-110818000D01*
X197588400Y-109040000D01*
X197588400Y-107262000D01*
X196953400Y-107262000D01*
X196318400Y-107262000D01*
X196318400Y-107033400D01*
X196318400Y-106804800D01*
X197842400Y-106804800D01*
X199366400Y-106804800D01*
X199366400Y-107033400D01*
X199366400Y-107262000D01*
X199366400Y-107262000D01*
G36*
X204192400Y-110818000D02*
X203963800Y-110818000D01*
X203735200Y-110818000D01*
X203735200Y-109903600D01*
X203735200Y-108989200D01*
X202592200Y-108989200D01*
X201449200Y-108989200D01*
X201449200Y-109903600D01*
X201449200Y-110818000D01*
X201195200Y-110818000D01*
X200941200Y-110818000D01*
X200941200Y-108811400D01*
X200941200Y-106804800D01*
X201195200Y-106804800D01*
X201449200Y-106804800D01*
X201449200Y-107668400D01*
X201449200Y-108532000D01*
X202592200Y-108532000D01*
X203735200Y-108532000D01*
X203735200Y-107668400D01*
X203735200Y-106804800D01*
X203963800Y-106804800D01*
X204192400Y-106804800D01*
X204192400Y-108811400D01*
X204192400Y-110818000D01*
X204192400Y-110818000D01*
X204192400Y-110818000D01*
G37*
X204192400Y-110818000D02*
X203963800Y-110818000D01*
X203735200Y-110818000D01*
X203735200Y-109903600D01*
X203735200Y-108989200D01*
X202592200Y-108989200D01*
X201449200Y-108989200D01*
X201449200Y-109903600D01*
X201449200Y-110818000D01*
X201195200Y-110818000D01*
X200941200Y-110818000D01*
X200941200Y-108811400D01*
X200941200Y-106804800D01*
X201195200Y-106804800D01*
X201449200Y-106804800D01*
X201449200Y-107668400D01*
X201449200Y-108532000D01*
X202592200Y-108532000D01*
X203735200Y-108532000D01*
X203735200Y-107668400D01*
X203735200Y-106804800D01*
X203963800Y-106804800D01*
X204192400Y-106804800D01*
X204192400Y-108811400D01*
X204192400Y-110818000D01*
X204192400Y-110818000D01*
G36*
X211507600Y-110818000D02*
X211279000Y-110818000D01*
X211050400Y-110818000D01*
X211050400Y-108811400D01*
X211050400Y-106804800D01*
X211279000Y-106804800D01*
X211507600Y-106804800D01*
X211507600Y-108811400D01*
X211507600Y-110818000D01*
X211507600Y-110818000D01*
X211507600Y-110818000D01*
G37*
X211507600Y-110818000D02*
X211279000Y-110818000D01*
X211050400Y-110818000D01*
X211050400Y-108811400D01*
X211050400Y-106804800D01*
X211279000Y-106804800D01*
X211507600Y-106804800D01*
X211507600Y-108811400D01*
X211507600Y-110818000D01*
X211507600Y-110818000D01*
G36*
X215622400Y-110818000D02*
X214352400Y-110818000D01*
X213082400Y-110818000D01*
X213082400Y-110589400D01*
X213082400Y-110360800D01*
X214098400Y-110360800D01*
X215114400Y-110360800D01*
X215114400Y-108582800D01*
X215114400Y-106804800D01*
X215368400Y-106804800D01*
X215622400Y-106804800D01*
X215622400Y-108811400D01*
X215622400Y-110818000D01*
X215622400Y-110818000D01*
X215622400Y-110818000D01*
G37*
X215622400Y-110818000D02*
X214352400Y-110818000D01*
X213082400Y-110818000D01*
X213082400Y-110589400D01*
X213082400Y-110360800D01*
X214098400Y-110360800D01*
X215114400Y-110360800D01*
X215114400Y-108582800D01*
X215114400Y-106804800D01*
X215368400Y-106804800D01*
X215622400Y-106804800D01*
X215622400Y-108811400D01*
X215622400Y-110818000D01*
X215622400Y-110818000D01*
G36*
X204471800Y-103680600D02*
X204469086Y-104141168D01*
X204459736Y-104512923D01*
X204441938Y-104808537D01*
X204413880Y-105040682D01*
X204373749Y-105222029D01*
X204319734Y-105365252D01*
X204250021Y-105483021D01*
X204205940Y-105539629D01*
X204098557Y-105650425D01*
X203977879Y-105732893D01*
X203826902Y-105791507D01*
X203628626Y-105830742D01*
X203366048Y-105855074D01*
X203022167Y-105868977D01*
X202947800Y-105870774D01*
X202534240Y-105873230D01*
X202199511Y-105860752D01*
X201953107Y-105833771D01*
X201898410Y-105823044D01*
X201664002Y-105751680D01*
X201494480Y-105648885D01*
X201378861Y-105498664D01*
X201306165Y-105285021D01*
X201265409Y-104991961D01*
X201258025Y-104890306D01*
X201231678Y-104468000D01*
X201492839Y-104468000D01*
X201754000Y-104468000D01*
X201754000Y-104795367D01*
X201761236Y-104993683D01*
X201788826Y-105126063D01*
X201845589Y-105227516D01*
X201870633Y-105258329D01*
X201934946Y-105322432D01*
X202012070Y-105366579D01*
X202125496Y-105397803D01*
X202298717Y-105423135D01*
X202487759Y-105443064D01*
X202874405Y-105463625D01*
X203217962Y-105447597D01*
X203500849Y-105396920D01*
X203705486Y-105313535D01*
X203714701Y-105307659D01*
X203788083Y-105241750D01*
X203845598Y-105143700D01*
X203889058Y-105001999D01*
X203920271Y-104805137D01*
X203941049Y-104541605D01*
X203953201Y-104199893D01*
X203958537Y-103768491D01*
X203958597Y-103756800D01*
X203958634Y-103353765D01*
X203952518Y-103039655D01*
X203937683Y-102801855D01*
X203911561Y-102627753D01*
X203871585Y-102504735D01*
X203815185Y-102420188D01*
X203739796Y-102361499D01*
X203667342Y-102326057D01*
X203528633Y-102292299D01*
X203298003Y-102270180D01*
X202971773Y-102259416D01*
X202784111Y-102258200D01*
X202497503Y-102259171D01*
X202294349Y-102263711D01*
X202156508Y-102274262D01*
X202065840Y-102293264D01*
X202004205Y-102323158D01*
X201953462Y-102366384D01*
X201949295Y-102370526D01*
X201875129Y-102477601D01*
X201831951Y-102633282D01*
X201814778Y-102789626D01*
X201792588Y-103096400D01*
X201537326Y-103096400D01*
X201282064Y-103096400D01*
X201312164Y-102737360D01*
X201359605Y-102438326D01*
X201451840Y-102201881D01*
X201597222Y-102023201D01*
X201804104Y-101897466D01*
X202080837Y-101819853D01*
X202435776Y-101785540D01*
X202877272Y-101789707D01*
X202947800Y-101793157D01*
X203379466Y-101830080D01*
X203723291Y-101893021D01*
X203990715Y-101986429D01*
X204193180Y-102114753D01*
X204342128Y-102282441D01*
X204383914Y-102351585D01*
X204412685Y-102415722D01*
X204434529Y-102498407D01*
X204450360Y-102613439D01*
X204461089Y-102774618D01*
X204467631Y-102995745D01*
X204470897Y-103290620D01*
X204471799Y-103673044D01*
X204471800Y-103680600D01*
X204471800Y-103680600D01*
X204471800Y-103680600D01*
G37*
X204471800Y-103680600D02*
X204469086Y-104141168D01*
X204459736Y-104512923D01*
X204441938Y-104808537D01*
X204413880Y-105040682D01*
X204373749Y-105222029D01*
X204319734Y-105365252D01*
X204250021Y-105483021D01*
X204205940Y-105539629D01*
X204098557Y-105650425D01*
X203977879Y-105732893D01*
X203826902Y-105791507D01*
X203628626Y-105830742D01*
X203366048Y-105855074D01*
X203022167Y-105868977D01*
X202947800Y-105870774D01*
X202534240Y-105873230D01*
X202199511Y-105860752D01*
X201953107Y-105833771D01*
X201898410Y-105823044D01*
X201664002Y-105751680D01*
X201494480Y-105648885D01*
X201378861Y-105498664D01*
X201306165Y-105285021D01*
X201265409Y-104991961D01*
X201258025Y-104890306D01*
X201231678Y-104468000D01*
X201492839Y-104468000D01*
X201754000Y-104468000D01*
X201754000Y-104795367D01*
X201761236Y-104993683D01*
X201788826Y-105126063D01*
X201845589Y-105227516D01*
X201870633Y-105258329D01*
X201934946Y-105322432D01*
X202012070Y-105366579D01*
X202125496Y-105397803D01*
X202298717Y-105423135D01*
X202487759Y-105443064D01*
X202874405Y-105463625D01*
X203217962Y-105447597D01*
X203500849Y-105396920D01*
X203705486Y-105313535D01*
X203714701Y-105307659D01*
X203788083Y-105241750D01*
X203845598Y-105143700D01*
X203889058Y-105001999D01*
X203920271Y-104805137D01*
X203941049Y-104541605D01*
X203953201Y-104199893D01*
X203958537Y-103768491D01*
X203958597Y-103756800D01*
X203958634Y-103353765D01*
X203952518Y-103039655D01*
X203937683Y-102801855D01*
X203911561Y-102627753D01*
X203871585Y-102504735D01*
X203815185Y-102420188D01*
X203739796Y-102361499D01*
X203667342Y-102326057D01*
X203528633Y-102292299D01*
X203298003Y-102270180D01*
X202971773Y-102259416D01*
X202784111Y-102258200D01*
X202497503Y-102259171D01*
X202294349Y-102263711D01*
X202156508Y-102274262D01*
X202065840Y-102293264D01*
X202004205Y-102323158D01*
X201953462Y-102366384D01*
X201949295Y-102370526D01*
X201875129Y-102477601D01*
X201831951Y-102633282D01*
X201814778Y-102789626D01*
X201792588Y-103096400D01*
X201537326Y-103096400D01*
X201282064Y-103096400D01*
X201312164Y-102737360D01*
X201359605Y-102438326D01*
X201451840Y-102201881D01*
X201597222Y-102023201D01*
X201804104Y-101897466D01*
X202080837Y-101819853D01*
X202435776Y-101785540D01*
X202877272Y-101789707D01*
X202947800Y-101793157D01*
X203379466Y-101830080D01*
X203723291Y-101893021D01*
X203990715Y-101986429D01*
X204193180Y-102114753D01*
X204342128Y-102282441D01*
X204383914Y-102351585D01*
X204412685Y-102415722D01*
X204434529Y-102498407D01*
X204450360Y-102613439D01*
X204461089Y-102774618D01*
X204467631Y-102995745D01*
X204470897Y-103290620D01*
X204471799Y-103673044D01*
X204471800Y-103680600D01*
X204471800Y-103680600D01*
G36*
X198909200Y-105839600D02*
X197588400Y-105839600D01*
X196267600Y-105839600D01*
X196267600Y-105636400D01*
X196267600Y-105433200D01*
X197334400Y-105433200D01*
X198401200Y-105433200D01*
X198401200Y-104722000D01*
X198401200Y-104010800D01*
X197385200Y-104010800D01*
X196369200Y-104010800D01*
X196369200Y-103782200D01*
X196369200Y-103553600D01*
X197385200Y-103553600D01*
X198401200Y-103553600D01*
X198401200Y-102893200D01*
X198401200Y-102232800D01*
X197334400Y-102232800D01*
X196267600Y-102232800D01*
X196267600Y-102029600D01*
X196267600Y-101826400D01*
X197588400Y-101826400D01*
X198909200Y-101826400D01*
X198909200Y-103833000D01*
X198909200Y-105839600D01*
X198909200Y-105839600D01*
X198909200Y-105839600D01*
G37*
X198909200Y-105839600D02*
X197588400Y-105839600D01*
X196267600Y-105839600D01*
X196267600Y-105636400D01*
X196267600Y-105433200D01*
X197334400Y-105433200D01*
X198401200Y-105433200D01*
X198401200Y-104722000D01*
X198401200Y-104010800D01*
X197385200Y-104010800D01*
X196369200Y-104010800D01*
X196369200Y-103782200D01*
X196369200Y-103553600D01*
X197385200Y-103553600D01*
X198401200Y-103553600D01*
X198401200Y-102893200D01*
X198401200Y-102232800D01*
X197334400Y-102232800D01*
X196267600Y-102232800D01*
X196267600Y-102029600D01*
X196267600Y-101826400D01*
X197588400Y-101826400D01*
X198909200Y-101826400D01*
X198909200Y-103833000D01*
X198909200Y-105839600D01*
X198909200Y-105839600D01*
G36*
X210371853Y-105802472D02*
X210326380Y-105829238D01*
X210210274Y-105838751D01*
X210126723Y-105839468D01*
X209856600Y-105839336D01*
X209712739Y-105432007D01*
X209568878Y-105024679D01*
X209420246Y-105026737D01*
X209420246Y-104620400D01*
X209302206Y-104302900D01*
X209244466Y-104145574D01*
X209161536Y-103916939D01*
X209062230Y-103641423D01*
X208955364Y-103343458D01*
X208889749Y-103159767D01*
X208793053Y-102891881D01*
X208707875Y-102662103D01*
X208639985Y-102485506D01*
X208595157Y-102377161D01*
X208579587Y-102349879D01*
X208558363Y-102400117D01*
X208507786Y-102531894D01*
X208433083Y-102731217D01*
X208339483Y-102984091D01*
X208232216Y-103276522D01*
X208185679Y-103404112D01*
X208072656Y-103714168D01*
X207969842Y-103995613D01*
X207882847Y-104233135D01*
X207817285Y-104411420D01*
X207778767Y-104515155D01*
X207772523Y-104531500D01*
X207766243Y-104564284D01*
X207786296Y-104587871D01*
X207846285Y-104603760D01*
X207959812Y-104613450D01*
X208140480Y-104618441D01*
X208401892Y-104620234D01*
X208578888Y-104620400D01*
X209420246Y-104620400D01*
X209420246Y-105026737D01*
X208575585Y-105038439D01*
X207582291Y-105052200D01*
X207432454Y-105445900D01*
X207282616Y-105839600D01*
X207032908Y-105839600D01*
X206889410Y-105831776D01*
X206799117Y-105811806D01*
X206783200Y-105796810D01*
X206800490Y-105741471D01*
X206849859Y-105601286D01*
X206927553Y-105386481D01*
X207029819Y-105107283D01*
X207152905Y-104773919D01*
X207293057Y-104396613D01*
X207446523Y-103985593D01*
X207514968Y-103802910D01*
X208246737Y-101851800D01*
X208593080Y-101851800D01*
X208939424Y-101851800D01*
X209639029Y-103756800D01*
X209793177Y-104176775D01*
X209937010Y-104569099D01*
X210066603Y-104923032D01*
X210178033Y-105227840D01*
X210267376Y-105472784D01*
X210330708Y-105647129D01*
X210364104Y-105740138D01*
X210367740Y-105750700D01*
X210371853Y-105802472D01*
X210371853Y-105802472D01*
X210371853Y-105802472D01*
G37*
X210371853Y-105802472D02*
X210326380Y-105829238D01*
X210210274Y-105838751D01*
X210126723Y-105839468D01*
X209856600Y-105839336D01*
X209712739Y-105432007D01*
X209568878Y-105024679D01*
X209420246Y-105026737D01*
X209420246Y-104620400D01*
X209302206Y-104302900D01*
X209244466Y-104145574D01*
X209161536Y-103916939D01*
X209062230Y-103641423D01*
X208955364Y-103343458D01*
X208889749Y-103159767D01*
X208793053Y-102891881D01*
X208707875Y-102662103D01*
X208639985Y-102485506D01*
X208595157Y-102377161D01*
X208579587Y-102349879D01*
X208558363Y-102400117D01*
X208507786Y-102531894D01*
X208433083Y-102731217D01*
X208339483Y-102984091D01*
X208232216Y-103276522D01*
X208185679Y-103404112D01*
X208072656Y-103714168D01*
X207969842Y-103995613D01*
X207882847Y-104233135D01*
X207817285Y-104411420D01*
X207778767Y-104515155D01*
X207772523Y-104531500D01*
X207766243Y-104564284D01*
X207786296Y-104587871D01*
X207846285Y-104603760D01*
X207959812Y-104613450D01*
X208140480Y-104618441D01*
X208401892Y-104620234D01*
X208578888Y-104620400D01*
X209420246Y-104620400D01*
X209420246Y-105026737D01*
X208575585Y-105038439D01*
X207582291Y-105052200D01*
X207432454Y-105445900D01*
X207282616Y-105839600D01*
X207032908Y-105839600D01*
X206889410Y-105831776D01*
X206799117Y-105811806D01*
X206783200Y-105796810D01*
X206800490Y-105741471D01*
X206849859Y-105601286D01*
X206927553Y-105386481D01*
X207029819Y-105107283D01*
X207152905Y-104773919D01*
X207293057Y-104396613D01*
X207446523Y-103985593D01*
X207514968Y-103802910D01*
X208246737Y-101851800D01*
X208593080Y-101851800D01*
X208939424Y-101851800D01*
X209639029Y-103756800D01*
X209793177Y-104176775D01*
X209937010Y-104569099D01*
X210066603Y-104923032D01*
X210178033Y-105227840D01*
X210267376Y-105472784D01*
X210330708Y-105647129D01*
X210364104Y-105740138D01*
X210367740Y-105750700D01*
X210371853Y-105802472D01*
X210371853Y-105802472D01*
G36*
X215622400Y-105839600D02*
X215368400Y-105839600D01*
X215114400Y-105839600D01*
X215114400Y-105055279D01*
X215114400Y-104270958D01*
X215114400Y-103858400D01*
X215114400Y-103045600D01*
X215114400Y-102232800D01*
X214466700Y-102236508D01*
X214042982Y-102244595D01*
X213712183Y-102264155D01*
X213466154Y-102296258D01*
X213296747Y-102341972D01*
X213195814Y-102402369D01*
X213194659Y-102403512D01*
X213148213Y-102477686D01*
X213117064Y-102602702D01*
X213097425Y-102798267D01*
X213089953Y-102948213D01*
X213084551Y-103214319D01*
X213098872Y-103421638D01*
X213143870Y-103577633D01*
X213230499Y-103689765D01*
X213369711Y-103765494D01*
X213572460Y-103812284D01*
X213849698Y-103837595D01*
X214212380Y-103848889D01*
X214415900Y-103851481D01*
X215114400Y-103858400D01*
X215114400Y-104270958D01*
X214161900Y-104255179D01*
X213767808Y-104245820D01*
X213461250Y-104229719D01*
X213228197Y-104202847D01*
X213054619Y-104161174D01*
X212926486Y-104100669D01*
X212829768Y-104017305D01*
X212750436Y-103907050D01*
X212711907Y-103838709D01*
X212660885Y-103728827D01*
X212628047Y-103612044D01*
X212609664Y-103462552D01*
X212602009Y-103254542D01*
X212601024Y-103071000D01*
X212613142Y-102723063D01*
X212652340Y-102457237D01*
X212724036Y-102256369D01*
X212833645Y-102103307D01*
X212933931Y-102016806D01*
X213028930Y-101958176D01*
X213142701Y-101912715D01*
X213288651Y-101878846D01*
X213480190Y-101854992D01*
X213730725Y-101839577D01*
X214053664Y-101831024D01*
X214462415Y-101827756D01*
X214542900Y-101827611D01*
X215622400Y-101826400D01*
X215622400Y-103833000D01*
X215622400Y-105839600D01*
X215622400Y-105839600D01*
X215622400Y-105839600D01*
G37*
X215622400Y-105839600D02*
X215368400Y-105839600D01*
X215114400Y-105839600D01*
X215114400Y-105055279D01*
X215114400Y-104270958D01*
X215114400Y-103858400D01*
X215114400Y-103045600D01*
X215114400Y-102232800D01*
X214466700Y-102236508D01*
X214042982Y-102244595D01*
X213712183Y-102264155D01*
X213466154Y-102296258D01*
X213296747Y-102341972D01*
X213195814Y-102402369D01*
X213194659Y-102403512D01*
X213148213Y-102477686D01*
X213117064Y-102602702D01*
X213097425Y-102798267D01*
X213089953Y-102948213D01*
X213084551Y-103214319D01*
X213098872Y-103421638D01*
X213143870Y-103577633D01*
X213230499Y-103689765D01*
X213369711Y-103765494D01*
X213572460Y-103812284D01*
X213849698Y-103837595D01*
X214212380Y-103848889D01*
X214415900Y-103851481D01*
X215114400Y-103858400D01*
X215114400Y-104270958D01*
X214161900Y-104255179D01*
X213767808Y-104245820D01*
X213461250Y-104229719D01*
X213228197Y-104202847D01*
X213054619Y-104161174D01*
X212926486Y-104100669D01*
X212829768Y-104017305D01*
X212750436Y-103907050D01*
X212711907Y-103838709D01*
X212660885Y-103728827D01*
X212628047Y-103612044D01*
X212609664Y-103462552D01*
X212602009Y-103254542D01*
X212601024Y-103071000D01*
X212613142Y-102723063D01*
X212652340Y-102457237D01*
X212724036Y-102256369D01*
X212833645Y-102103307D01*
X212933931Y-102016806D01*
X213028930Y-101958176D01*
X213142701Y-101912715D01*
X213288651Y-101878846D01*
X213480190Y-101854992D01*
X213730725Y-101839577D01*
X214053664Y-101831024D01*
X214462415Y-101827756D01*
X214542900Y-101827611D01*
X215622400Y-101826400D01*
X215622400Y-103833000D01*
X215622400Y-105839600D01*
X215622400Y-105839600D01*
G36*
X183313600Y-96871245D02*
X183287530Y-96919963D01*
X183213997Y-97043073D01*
X183100013Y-97229205D01*
X182952590Y-97466992D01*
X182778741Y-97745064D01*
X182585478Y-98052052D01*
X182577000Y-98065473D01*
X181840400Y-99231386D01*
X181840400Y-100071693D01*
X181840400Y-100912000D01*
X181586400Y-100912000D01*
X181332400Y-100912000D01*
X181332400Y-100060363D01*
X181332399Y-99208726D01*
X180595799Y-98074175D01*
X180399839Y-97770689D01*
X180223496Y-97494409D01*
X180074017Y-97256943D01*
X179958647Y-97069902D01*
X179884631Y-96944898D01*
X179859199Y-96893812D01*
X179905109Y-96868599D01*
X180023414Y-96851959D01*
X180135445Y-96848000D01*
X180411690Y-96848000D01*
X180986345Y-97759000D01*
X181167904Y-98041627D01*
X181327448Y-98279856D01*
X181457747Y-98463573D01*
X181551571Y-98582662D01*
X181601687Y-98627007D01*
X181606010Y-98625849D01*
X181645956Y-98570983D01*
X181730927Y-98443911D01*
X181851913Y-98258463D01*
X181999901Y-98028471D01*
X182165879Y-97767766D01*
X182191338Y-97727549D01*
X182731656Y-96873400D01*
X183022628Y-96858164D01*
X183179070Y-96854444D01*
X183284695Y-96860491D01*
X183313600Y-96871245D01*
X183313600Y-96871245D01*
X183313600Y-96871245D01*
G37*
X183313600Y-96871245D02*
X183287530Y-96919963D01*
X183213997Y-97043073D01*
X183100013Y-97229205D01*
X182952590Y-97466992D01*
X182778741Y-97745064D01*
X182585478Y-98052052D01*
X182577000Y-98065473D01*
X181840400Y-99231386D01*
X181840400Y-100071693D01*
X181840400Y-100912000D01*
X181586400Y-100912000D01*
X181332400Y-100912000D01*
X181332400Y-100060363D01*
X181332399Y-99208726D01*
X180595799Y-98074175D01*
X180399839Y-97770689D01*
X180223496Y-97494409D01*
X180074017Y-97256943D01*
X179958647Y-97069902D01*
X179884631Y-96944898D01*
X179859199Y-96893812D01*
X179905109Y-96868599D01*
X180023414Y-96851959D01*
X180135445Y-96848000D01*
X180411690Y-96848000D01*
X180986345Y-97759000D01*
X181167904Y-98041627D01*
X181327448Y-98279856D01*
X181457747Y-98463573D01*
X181551571Y-98582662D01*
X181601687Y-98627007D01*
X181606010Y-98625849D01*
X181645956Y-98570983D01*
X181730927Y-98443911D01*
X181851913Y-98258463D01*
X181999901Y-98028471D01*
X182165879Y-97767766D01*
X182191338Y-97727549D01*
X182731656Y-96873400D01*
X183022628Y-96858164D01*
X183179070Y-96854444D01*
X183284695Y-96860491D01*
X183313600Y-96871245D01*
X183313600Y-96871245D01*
G36*
X187530000Y-97305200D02*
X186895000Y-97305200D01*
X186260000Y-97305200D01*
X186260000Y-99108600D01*
X186260000Y-100912000D01*
X186006000Y-100912000D01*
X185752000Y-100912000D01*
X185752000Y-99108600D01*
X185752000Y-97305200D01*
X185091600Y-97305200D01*
X184431200Y-97305200D01*
X184431200Y-97076600D01*
X184431200Y-96848000D01*
X185980600Y-96848000D01*
X187530000Y-96848000D01*
X187530000Y-97076600D01*
X187530000Y-97305200D01*
X187530000Y-97305200D01*
X187530000Y-97305200D01*
G37*
X187530000Y-97305200D02*
X186895000Y-97305200D01*
X186260000Y-97305200D01*
X186260000Y-99108600D01*
X186260000Y-100912000D01*
X186006000Y-100912000D01*
X185752000Y-100912000D01*
X185752000Y-99108600D01*
X185752000Y-97305200D01*
X185091600Y-97305200D01*
X184431200Y-97305200D01*
X184431200Y-97076600D01*
X184431200Y-96848000D01*
X185980600Y-96848000D01*
X187530000Y-96848000D01*
X187530000Y-97076600D01*
X187530000Y-97305200D01*
X187530000Y-97305200D01*
G36*
X189612800Y-100912000D02*
X189358800Y-100912000D01*
X189104800Y-100912000D01*
X189104800Y-98880000D01*
X189104800Y-96848000D01*
X189358800Y-96848000D01*
X189612800Y-96848000D01*
X189612800Y-98880000D01*
X189612800Y-100912000D01*
X189612800Y-100912000D01*
X189612800Y-100912000D01*
G37*
X189612800Y-100912000D02*
X189358800Y-100912000D01*
X189104800Y-100912000D01*
X189104800Y-98880000D01*
X189104800Y-96848000D01*
X189358800Y-96848000D01*
X189612800Y-96848000D01*
X189612800Y-98880000D01*
X189612800Y-100912000D01*
X189612800Y-100912000D01*
G36*
X194351864Y-99591200D02*
X194322936Y-99973692D01*
X194280541Y-100280085D01*
X194200524Y-100506683D01*
X194073725Y-100671219D01*
X193903985Y-100785000D01*
X193812644Y-100824568D01*
X193707888Y-100853157D01*
X193571013Y-100872846D01*
X193383316Y-100885719D01*
X193126092Y-100893856D01*
X192889400Y-100897923D01*
X192525531Y-100899549D01*
X192247485Y-100892332D01*
X192039789Y-100875349D01*
X191886976Y-100847674D01*
X191844105Y-100835453D01*
X191628190Y-100736730D01*
X191471188Y-100589621D01*
X191366870Y-100382101D01*
X191309004Y-100102144D01*
X191291429Y-99768664D01*
X191302049Y-99444002D01*
X191340974Y-99199364D01*
X191412699Y-99016004D01*
X191500578Y-98896694D01*
X191580495Y-98827514D01*
X191685319Y-98771600D01*
X191829480Y-98725593D01*
X192027410Y-98686136D01*
X192293539Y-98649871D01*
X192642299Y-98613439D01*
X192768351Y-98601686D01*
X193108506Y-98568259D01*
X193361240Y-98534398D01*
X193540532Y-98493219D01*
X193660355Y-98437835D01*
X193734685Y-98361361D01*
X193777499Y-98256910D01*
X193802771Y-98117598D01*
X193806285Y-98090301D01*
X193821461Y-97803770D01*
X193779822Y-97588756D01*
X193672571Y-97436027D01*
X193490909Y-97336351D01*
X193226041Y-97280495D01*
X193018888Y-97263950D01*
X192620015Y-97258094D01*
X192315605Y-97283476D01*
X192103338Y-97340420D01*
X192000400Y-97406800D01*
X191934882Y-97514502D01*
X191883014Y-97672222D01*
X191871293Y-97733338D01*
X191836463Y-97965600D01*
X191582378Y-97965600D01*
X191328293Y-97965600D01*
X191363710Y-97673500D01*
X191428293Y-97373381D01*
X191543315Y-97152111D01*
X191715773Y-96996692D01*
X191734029Y-96985679D01*
X191909489Y-96919167D01*
X192160408Y-96871144D01*
X192462293Y-96841862D01*
X192790652Y-96831573D01*
X193120993Y-96840529D01*
X193428824Y-96868981D01*
X193689654Y-96917183D01*
X193834135Y-96964062D01*
X194024948Y-97077547D01*
X194159083Y-97239741D01*
X194242626Y-97463908D01*
X194281665Y-97763309D01*
X194286400Y-97949412D01*
X194268309Y-98259764D01*
X194207897Y-98508363D01*
X194095957Y-98702315D01*
X193923279Y-98848721D01*
X193680657Y-98954687D01*
X193358880Y-99027317D01*
X192948742Y-99073714D01*
X192817087Y-99082954D01*
X192549527Y-99103728D01*
X192307957Y-99129645D01*
X192115964Y-99157676D01*
X191997132Y-99184794D01*
X191984144Y-99189876D01*
X191881484Y-99262078D01*
X191816576Y-99378320D01*
X191783476Y-99556890D01*
X191776242Y-99816076D01*
X191776416Y-99829080D01*
X191805952Y-100106256D01*
X191887101Y-100300018D01*
X192022822Y-100416144D01*
X192089942Y-100441293D01*
X192210879Y-100459328D01*
X192405503Y-100471566D01*
X192646067Y-100478025D01*
X192904825Y-100478725D01*
X193154030Y-100473684D01*
X193365936Y-100462922D01*
X193512796Y-100446458D01*
X193540447Y-100440291D01*
X193675421Y-100352229D01*
X193772106Y-100183225D01*
X193823111Y-99949124D01*
X193829200Y-99821431D01*
X193829200Y-99591200D01*
X194090532Y-99591200D01*
X194351864Y-99591200D01*
X194351864Y-99591200D01*
X194351864Y-99591200D01*
G37*
X194351864Y-99591200D02*
X194322936Y-99973692D01*
X194280541Y-100280085D01*
X194200524Y-100506683D01*
X194073725Y-100671219D01*
X193903985Y-100785000D01*
X193812644Y-100824568D01*
X193707888Y-100853157D01*
X193571013Y-100872846D01*
X193383316Y-100885719D01*
X193126092Y-100893856D01*
X192889400Y-100897923D01*
X192525531Y-100899549D01*
X192247485Y-100892332D01*
X192039789Y-100875349D01*
X191886976Y-100847674D01*
X191844105Y-100835453D01*
X191628190Y-100736730D01*
X191471188Y-100589621D01*
X191366870Y-100382101D01*
X191309004Y-100102144D01*
X191291429Y-99768664D01*
X191302049Y-99444002D01*
X191340974Y-99199364D01*
X191412699Y-99016004D01*
X191500578Y-98896694D01*
X191580495Y-98827514D01*
X191685319Y-98771600D01*
X191829480Y-98725593D01*
X192027410Y-98686136D01*
X192293539Y-98649871D01*
X192642299Y-98613439D01*
X192768351Y-98601686D01*
X193108506Y-98568259D01*
X193361240Y-98534398D01*
X193540532Y-98493219D01*
X193660355Y-98437835D01*
X193734685Y-98361361D01*
X193777499Y-98256910D01*
X193802771Y-98117598D01*
X193806285Y-98090301D01*
X193821461Y-97803770D01*
X193779822Y-97588756D01*
X193672571Y-97436027D01*
X193490909Y-97336351D01*
X193226041Y-97280495D01*
X193018888Y-97263950D01*
X192620015Y-97258094D01*
X192315605Y-97283476D01*
X192103338Y-97340420D01*
X192000400Y-97406800D01*
X191934882Y-97514502D01*
X191883014Y-97672222D01*
X191871293Y-97733338D01*
X191836463Y-97965600D01*
X191582378Y-97965600D01*
X191328293Y-97965600D01*
X191363710Y-97673500D01*
X191428293Y-97373381D01*
X191543315Y-97152111D01*
X191715773Y-96996692D01*
X191734029Y-96985679D01*
X191909489Y-96919167D01*
X192160408Y-96871144D01*
X192462293Y-96841862D01*
X192790652Y-96831573D01*
X193120993Y-96840529D01*
X193428824Y-96868981D01*
X193689654Y-96917183D01*
X193834135Y-96964062D01*
X194024948Y-97077547D01*
X194159083Y-97239741D01*
X194242626Y-97463908D01*
X194281665Y-97763309D01*
X194286400Y-97949412D01*
X194268309Y-98259764D01*
X194207897Y-98508363D01*
X194095957Y-98702315D01*
X193923279Y-98848721D01*
X193680657Y-98954687D01*
X193358880Y-99027317D01*
X192948742Y-99073714D01*
X192817087Y-99082954D01*
X192549527Y-99103728D01*
X192307957Y-99129645D01*
X192115964Y-99157676D01*
X191997132Y-99184794D01*
X191984144Y-99189876D01*
X191881484Y-99262078D01*
X191816576Y-99378320D01*
X191783476Y-99556890D01*
X191776242Y-99816076D01*
X191776416Y-99829080D01*
X191805952Y-100106256D01*
X191887101Y-100300018D01*
X192022822Y-100416144D01*
X192089942Y-100441293D01*
X192210879Y-100459328D01*
X192405503Y-100471566D01*
X192646067Y-100478025D01*
X192904825Y-100478725D01*
X193154030Y-100473684D01*
X193365936Y-100462922D01*
X193512796Y-100446458D01*
X193540447Y-100440291D01*
X193675421Y-100352229D01*
X193772106Y-100183225D01*
X193823111Y-99949124D01*
X193829200Y-99821431D01*
X193829200Y-99591200D01*
X194090532Y-99591200D01*
X194351864Y-99591200D01*
X194351864Y-99591200D01*
G36*
X199061600Y-100912000D02*
X198807600Y-100912000D01*
X198553600Y-100912000D01*
X198553600Y-100099200D01*
X198553600Y-99286400D01*
X198553600Y-98829200D01*
X198553600Y-98067200D01*
X198553600Y-97305200D01*
X197693307Y-97305200D01*
X197398672Y-97307990D01*
X197131791Y-97315709D01*
X196912606Y-97327380D01*
X196761060Y-97342027D01*
X196705795Y-97353568D01*
X196593469Y-97420784D01*
X196516655Y-97533651D01*
X196467627Y-97710306D01*
X196438659Y-97968887D01*
X196437690Y-97982935D01*
X196430073Y-98205581D01*
X196446220Y-98364013D01*
X196490585Y-98493768D01*
X196505458Y-98523693D01*
X196566845Y-98627043D01*
X196638208Y-98704060D01*
X196734619Y-98758580D01*
X196871148Y-98794439D01*
X197062865Y-98815473D01*
X197324842Y-98825520D01*
X197672149Y-98828414D01*
X197702700Y-98828451D01*
X198553600Y-98829200D01*
X198553600Y-99286400D01*
X197738277Y-99286400D01*
X197357047Y-99289520D01*
X197064922Y-99305685D01*
X196849445Y-99345101D01*
X196698160Y-99417974D01*
X196598611Y-99534512D01*
X196538343Y-99704920D01*
X196504899Y-99939404D01*
X196485824Y-100248171D01*
X196482838Y-100315100D01*
X196456853Y-100912000D01*
X196235226Y-100912000D01*
X196013600Y-100912000D01*
X196013789Y-100213500D01*
X196020269Y-99862583D01*
X196042480Y-99598321D01*
X196084902Y-99406392D01*
X196152018Y-99272473D01*
X196248309Y-99182245D01*
X196352631Y-99130642D01*
X196488416Y-99079016D01*
X196314508Y-98992208D01*
X196162003Y-98886338D01*
X196057070Y-98736306D01*
X195993624Y-98526451D01*
X195965575Y-98241108D01*
X195962878Y-98087480D01*
X195974359Y-97756329D01*
X196012126Y-97504512D01*
X196080972Y-97312060D01*
X196185688Y-97159007D01*
X196185736Y-97158952D01*
X196266674Y-97076127D01*
X196354099Y-97011024D01*
X196461180Y-96961266D01*
X196601085Y-96924480D01*
X196786982Y-96898290D01*
X197032038Y-96880321D01*
X197349421Y-96868198D01*
X197752300Y-96859546D01*
X197855100Y-96857850D01*
X199061600Y-96838633D01*
X199061600Y-98875316D01*
X199061600Y-100912000D01*
X199061600Y-100912000D01*
X199061600Y-100912000D01*
G37*
X199061600Y-100912000D02*
X198807600Y-100912000D01*
X198553600Y-100912000D01*
X198553600Y-100099200D01*
X198553600Y-99286400D01*
X198553600Y-98829200D01*
X198553600Y-98067200D01*
X198553600Y-97305200D01*
X197693307Y-97305200D01*
X197398672Y-97307990D01*
X197131791Y-97315709D01*
X196912606Y-97327380D01*
X196761060Y-97342027D01*
X196705795Y-97353568D01*
X196593469Y-97420784D01*
X196516655Y-97533651D01*
X196467627Y-97710306D01*
X196438659Y-97968887D01*
X196437690Y-97982935D01*
X196430073Y-98205581D01*
X196446220Y-98364013D01*
X196490585Y-98493768D01*
X196505458Y-98523693D01*
X196566845Y-98627043D01*
X196638208Y-98704060D01*
X196734619Y-98758580D01*
X196871148Y-98794439D01*
X197062865Y-98815473D01*
X197324842Y-98825520D01*
X197672149Y-98828414D01*
X197702700Y-98828451D01*
X198553600Y-98829200D01*
X198553600Y-99286400D01*
X197738277Y-99286400D01*
X197357047Y-99289520D01*
X197064922Y-99305685D01*
X196849445Y-99345101D01*
X196698160Y-99417974D01*
X196598611Y-99534512D01*
X196538343Y-99704920D01*
X196504899Y-99939404D01*
X196485824Y-100248171D01*
X196482838Y-100315100D01*
X196456853Y-100912000D01*
X196235226Y-100912000D01*
X196013600Y-100912000D01*
X196013789Y-100213500D01*
X196020269Y-99862583D01*
X196042480Y-99598321D01*
X196084902Y-99406392D01*
X196152018Y-99272473D01*
X196248309Y-99182245D01*
X196352631Y-99130642D01*
X196488416Y-99079016D01*
X196314508Y-98992208D01*
X196162003Y-98886338D01*
X196057070Y-98736306D01*
X195993624Y-98526451D01*
X195965575Y-98241108D01*
X195962878Y-98087480D01*
X195974359Y-97756329D01*
X196012126Y-97504512D01*
X196080972Y-97312060D01*
X196185688Y-97159007D01*
X196185736Y-97158952D01*
X196266674Y-97076127D01*
X196354099Y-97011024D01*
X196461180Y-96961266D01*
X196601085Y-96924480D01*
X196786982Y-96898290D01*
X197032038Y-96880321D01*
X197349421Y-96868198D01*
X197752300Y-96859546D01*
X197855100Y-96857850D01*
X199061600Y-96838633D01*
X199061600Y-98875316D01*
X199061600Y-100912000D01*
X199061600Y-100912000D01*
G36*
X203379600Y-100912000D02*
X202084200Y-100912000D01*
X200788800Y-100912000D01*
X200788800Y-100683400D01*
X200788800Y-100454800D01*
X201830200Y-100454800D01*
X202871600Y-100454800D01*
X202871600Y-99743600D01*
X202871600Y-99032400D01*
X201881000Y-99032400D01*
X200890400Y-99032400D01*
X200890400Y-98803800D01*
X200890400Y-98575200D01*
X201881000Y-98575200D01*
X202871600Y-98575200D01*
X202871600Y-97940200D01*
X202871600Y-97305200D01*
X201830200Y-97305200D01*
X200788800Y-97305200D01*
X200788800Y-97076600D01*
X200788800Y-96848000D01*
X202084200Y-96848000D01*
X203379600Y-96848000D01*
X203379600Y-98880000D01*
X203379600Y-100912000D01*
X203379600Y-100912000D01*
X203379600Y-100912000D01*
G37*
X203379600Y-100912000D02*
X202084200Y-100912000D01*
X200788800Y-100912000D01*
X200788800Y-100683400D01*
X200788800Y-100454800D01*
X201830200Y-100454800D01*
X202871600Y-100454800D01*
X202871600Y-99743600D01*
X202871600Y-99032400D01*
X201881000Y-99032400D01*
X200890400Y-99032400D01*
X200890400Y-98803800D01*
X200890400Y-98575200D01*
X201881000Y-98575200D01*
X202871600Y-98575200D01*
X202871600Y-97940200D01*
X202871600Y-97305200D01*
X201830200Y-97305200D01*
X200788800Y-97305200D01*
X200788800Y-97076600D01*
X200788800Y-96848000D01*
X202084200Y-96848000D01*
X203379600Y-96848000D01*
X203379600Y-98880000D01*
X203379600Y-100912000D01*
X203379600Y-100912000D01*
G36*
X208256400Y-96868807D02*
X208239881Y-96920917D01*
X208192828Y-97058006D01*
X208118995Y-97269412D01*
X208022138Y-97544477D01*
X207906012Y-97872539D01*
X207774371Y-98242937D01*
X207630971Y-98645012D01*
X207615768Y-98687562D01*
X207467692Y-99102047D01*
X207327642Y-99494319D01*
X207199971Y-99852171D01*
X207089030Y-100163394D01*
X206999170Y-100415782D01*
X206934742Y-100597126D01*
X206900100Y-100695219D01*
X206899792Y-100696100D01*
X206824449Y-100912000D01*
X206485715Y-100912000D01*
X206146981Y-100912000D01*
X205449090Y-98941120D01*
X205298519Y-98514456D01*
X205159101Y-98116616D01*
X205034409Y-97757999D01*
X204928014Y-97449004D01*
X204843487Y-97200027D01*
X204784400Y-97021469D01*
X204754324Y-96923728D01*
X204751200Y-96909120D01*
X204799611Y-96868275D01*
X204939125Y-96849175D01*
X204999764Y-96848000D01*
X205163679Y-96857870D01*
X205252140Y-96892651D01*
X205282750Y-96936900D01*
X205317296Y-97031750D01*
X205379071Y-97207029D01*
X205462922Y-97447710D01*
X205563699Y-97738767D01*
X205676249Y-98065174D01*
X205795422Y-98411906D01*
X205916067Y-98763937D01*
X206033031Y-99106242D01*
X206141164Y-99423794D01*
X206235315Y-99701569D01*
X206310331Y-99924539D01*
X206361061Y-100077680D01*
X206379963Y-100137300D01*
X206424452Y-100267205D01*
X206462562Y-100343741D01*
X206473741Y-100352466D01*
X206496819Y-100306076D01*
X206549251Y-100174373D01*
X206627112Y-99968038D01*
X206726474Y-99697752D01*
X206843411Y-99374196D01*
X206973995Y-99008051D01*
X207113400Y-98612566D01*
X207723000Y-96873400D01*
X207989700Y-96858045D01*
X208138558Y-96853951D01*
X208235367Y-96859880D01*
X208256400Y-96868807D01*
X208256400Y-96868807D01*
X208256400Y-96868807D01*
G37*
X208256400Y-96868807D02*
X208239881Y-96920917D01*
X208192828Y-97058006D01*
X208118995Y-97269412D01*
X208022138Y-97544477D01*
X207906012Y-97872539D01*
X207774371Y-98242937D01*
X207630971Y-98645012D01*
X207615768Y-98687562D01*
X207467692Y-99102047D01*
X207327642Y-99494319D01*
X207199971Y-99852171D01*
X207089030Y-100163394D01*
X206999170Y-100415782D01*
X206934742Y-100597126D01*
X206900100Y-100695219D01*
X206899792Y-100696100D01*
X206824449Y-100912000D01*
X206485715Y-100912000D01*
X206146981Y-100912000D01*
X205449090Y-98941120D01*
X205298519Y-98514456D01*
X205159101Y-98116616D01*
X205034409Y-97757999D01*
X204928014Y-97449004D01*
X204843487Y-97200027D01*
X204784400Y-97021469D01*
X204754324Y-96923728D01*
X204751200Y-96909120D01*
X204799611Y-96868275D01*
X204939125Y-96849175D01*
X204999764Y-96848000D01*
X205163679Y-96857870D01*
X205252140Y-96892651D01*
X205282750Y-96936900D01*
X205317296Y-97031750D01*
X205379071Y-97207029D01*
X205462922Y-97447710D01*
X205563699Y-97738767D01*
X205676249Y-98065174D01*
X205795422Y-98411906D01*
X205916067Y-98763937D01*
X206033031Y-99106242D01*
X206141164Y-99423794D01*
X206235315Y-99701569D01*
X206310331Y-99924539D01*
X206361061Y-100077680D01*
X206379963Y-100137300D01*
X206424452Y-100267205D01*
X206462562Y-100343741D01*
X206473741Y-100352466D01*
X206496819Y-100306076D01*
X206549251Y-100174373D01*
X206627112Y-99968038D01*
X206726474Y-99697752D01*
X206843411Y-99374196D01*
X206973995Y-99008051D01*
X207113400Y-98612566D01*
X207723000Y-96873400D01*
X207989700Y-96858045D01*
X208138558Y-96853951D01*
X208235367Y-96859880D01*
X208256400Y-96868807D01*
X208256400Y-96868807D01*
G36*
X210237600Y-100912000D02*
X210009000Y-100912000D01*
X209780400Y-100912000D01*
X209780400Y-98880000D01*
X209780400Y-96848000D01*
X210009000Y-96848000D01*
X210237600Y-96848000D01*
X210237600Y-98880000D01*
X210237600Y-100912000D01*
X210237600Y-100912000D01*
X210237600Y-100912000D01*
G37*
X210237600Y-100912000D02*
X210009000Y-100912000D01*
X209780400Y-100912000D01*
X209780400Y-98880000D01*
X209780400Y-96848000D01*
X210009000Y-96848000D01*
X210237600Y-96848000D01*
X210237600Y-98880000D01*
X210237600Y-100912000D01*
X210237600Y-100912000D01*
G36*
X215622400Y-100912000D02*
X215369058Y-100912000D01*
X215115716Y-100912000D01*
X215102358Y-99164168D01*
X215089000Y-97416336D01*
X214022200Y-99162229D01*
X212955400Y-100908122D01*
X212561700Y-100910061D01*
X212168000Y-100912000D01*
X212168000Y-98880000D01*
X212168000Y-96848000D01*
X212421341Y-96848000D01*
X212674683Y-96848000D01*
X212688041Y-98599946D01*
X212701400Y-100351892D01*
X213768200Y-98601256D01*
X214835000Y-96850621D01*
X215228700Y-96849310D01*
X215622400Y-96848000D01*
X215622400Y-98880000D01*
X215622400Y-100912000D01*
X215622400Y-100912000D01*
X215622400Y-100912000D01*
G37*
X215622400Y-100912000D02*
X215369058Y-100912000D01*
X215115716Y-100912000D01*
X215102358Y-99164168D01*
X215089000Y-97416336D01*
X214022200Y-99162229D01*
X212955400Y-100908122D01*
X212561700Y-100910061D01*
X212168000Y-100912000D01*
X212168000Y-98880000D01*
X212168000Y-96848000D01*
X212421341Y-96848000D01*
X212674683Y-96848000D01*
X212688041Y-98599946D01*
X212701400Y-100351892D01*
X213768200Y-98601256D01*
X214835000Y-96850621D01*
X215228700Y-96849310D01*
X215622400Y-96848000D01*
X215622400Y-98880000D01*
X215622400Y-100912000D01*
X215622400Y-100912000D01*
G36*
X187250600Y-93850800D02*
X187247388Y-94335354D01*
X187235413Y-94729235D01*
X187211169Y-95043230D01*
X187171146Y-95288131D01*
X187111838Y-95474726D01*
X187029736Y-95613806D01*
X186921332Y-95716160D01*
X186783118Y-95792577D01*
X186611587Y-95853847D01*
X186598063Y-95857901D01*
X186402690Y-95898406D01*
X186135365Y-95930144D01*
X185825467Y-95951730D01*
X185502374Y-95961779D01*
X185195467Y-95958906D01*
X184934123Y-95941726D01*
X184901140Y-95937888D01*
X184584428Y-95879953D01*
X184353444Y-95792254D01*
X184194867Y-95667656D01*
X184098958Y-95508121D01*
X184052647Y-95346906D01*
X184009718Y-95117365D01*
X183973490Y-94850444D01*
X183947284Y-94577091D01*
X183934420Y-94328251D01*
X183938217Y-94134871D01*
X183945525Y-94077923D01*
X183978603Y-93901600D01*
X184839901Y-93901600D01*
X185701200Y-93901600D01*
X185701200Y-94104800D01*
X185701200Y-94308000D01*
X185059829Y-94308000D01*
X184418459Y-94308000D01*
X184441184Y-94740969D01*
X184463230Y-94999745D01*
X184506832Y-95196655D01*
X184584204Y-95339376D01*
X184707557Y-95435583D01*
X184889107Y-95492954D01*
X185141066Y-95519164D01*
X185475648Y-95521889D01*
X185675800Y-95516903D01*
X185988196Y-95504993D01*
X186236173Y-95483724D01*
X186427170Y-95442346D01*
X186568624Y-95370111D01*
X186667971Y-95256269D01*
X186732651Y-95090068D01*
X186770100Y-94860761D01*
X186787755Y-94557597D01*
X186793056Y-94169826D01*
X186793400Y-93901600D01*
X186791440Y-93464759D01*
X186781366Y-93118437D01*
X186756885Y-92851569D01*
X186711702Y-92653090D01*
X186639524Y-92511935D01*
X186534058Y-92417039D01*
X186389010Y-92357338D01*
X186198087Y-92321766D01*
X185954995Y-92299259D01*
X185879000Y-92293945D01*
X185610785Y-92287233D01*
X185311199Y-92296925D01*
X185066907Y-92318532D01*
X184815952Y-92361476D01*
X184647380Y-92424272D01*
X184542041Y-92523110D01*
X184480786Y-92674177D01*
X184451255Y-92838946D01*
X184418110Y-93088800D01*
X184196055Y-93088800D01*
X183974000Y-93088800D01*
X183974000Y-92794763D01*
X184005347Y-92499955D01*
X184088300Y-92277312D01*
X184158668Y-92157432D01*
X184240745Y-92065523D01*
X184348319Y-91997926D01*
X184495181Y-91950982D01*
X184695117Y-91921032D01*
X184961918Y-91904416D01*
X185309372Y-91897476D01*
X185523400Y-91896481D01*
X185851405Y-91896574D01*
X186096224Y-91899421D01*
X186276268Y-91907049D01*
X186409948Y-91921483D01*
X186515675Y-91944750D01*
X186611860Y-91978875D01*
X186716913Y-92025886D01*
X186722330Y-92028423D01*
X186898485Y-92122279D01*
X187013359Y-92221193D01*
X187103097Y-92359050D01*
X187128730Y-92409423D01*
X187167429Y-92491739D01*
X187196932Y-92570906D01*
X187218484Y-92661661D01*
X187233332Y-92778740D01*
X187242721Y-92936878D01*
X187247898Y-93150812D01*
X187250108Y-93435277D01*
X187250597Y-93805009D01*
X187250600Y-93850800D01*
X187250600Y-93850800D01*
X187250600Y-93850800D01*
G37*
X187250600Y-93850800D02*
X187247388Y-94335354D01*
X187235413Y-94729235D01*
X187211169Y-95043230D01*
X187171146Y-95288131D01*
X187111838Y-95474726D01*
X187029736Y-95613806D01*
X186921332Y-95716160D01*
X186783118Y-95792577D01*
X186611587Y-95853847D01*
X186598063Y-95857901D01*
X186402690Y-95898406D01*
X186135365Y-95930144D01*
X185825467Y-95951730D01*
X185502374Y-95961779D01*
X185195467Y-95958906D01*
X184934123Y-95941726D01*
X184901140Y-95937888D01*
X184584428Y-95879953D01*
X184353444Y-95792254D01*
X184194867Y-95667656D01*
X184098958Y-95508121D01*
X184052647Y-95346906D01*
X184009718Y-95117365D01*
X183973490Y-94850444D01*
X183947284Y-94577091D01*
X183934420Y-94328251D01*
X183938217Y-94134871D01*
X183945525Y-94077923D01*
X183978603Y-93901600D01*
X184839901Y-93901600D01*
X185701200Y-93901600D01*
X185701200Y-94104800D01*
X185701200Y-94308000D01*
X185059829Y-94308000D01*
X184418459Y-94308000D01*
X184441184Y-94740969D01*
X184463230Y-94999745D01*
X184506832Y-95196655D01*
X184584204Y-95339376D01*
X184707557Y-95435583D01*
X184889107Y-95492954D01*
X185141066Y-95519164D01*
X185475648Y-95521889D01*
X185675800Y-95516903D01*
X185988196Y-95504993D01*
X186236173Y-95483724D01*
X186427170Y-95442346D01*
X186568624Y-95370111D01*
X186667971Y-95256269D01*
X186732651Y-95090068D01*
X186770100Y-94860761D01*
X186787755Y-94557597D01*
X186793056Y-94169826D01*
X186793400Y-93901600D01*
X186791440Y-93464759D01*
X186781366Y-93118437D01*
X186756885Y-92851569D01*
X186711702Y-92653090D01*
X186639524Y-92511935D01*
X186534058Y-92417039D01*
X186389010Y-92357338D01*
X186198087Y-92321766D01*
X185954995Y-92299259D01*
X185879000Y-92293945D01*
X185610785Y-92287233D01*
X185311199Y-92296925D01*
X185066907Y-92318532D01*
X184815952Y-92361476D01*
X184647380Y-92424272D01*
X184542041Y-92523110D01*
X184480786Y-92674177D01*
X184451255Y-92838946D01*
X184418110Y-93088800D01*
X184196055Y-93088800D01*
X183974000Y-93088800D01*
X183974000Y-92794763D01*
X184005347Y-92499955D01*
X184088300Y-92277312D01*
X184158668Y-92157432D01*
X184240745Y-92065523D01*
X184348319Y-91997926D01*
X184495181Y-91950982D01*
X184695117Y-91921032D01*
X184961918Y-91904416D01*
X185309372Y-91897476D01*
X185523400Y-91896481D01*
X185851405Y-91896574D01*
X186096224Y-91899421D01*
X186276268Y-91907049D01*
X186409948Y-91921483D01*
X186515675Y-91944750D01*
X186611860Y-91978875D01*
X186716913Y-92025886D01*
X186722330Y-92028423D01*
X186898485Y-92122279D01*
X187013359Y-92221193D01*
X187103097Y-92359050D01*
X187128730Y-92409423D01*
X187167429Y-92491739D01*
X187196932Y-92570906D01*
X187218484Y-92661661D01*
X187233332Y-92778740D01*
X187242721Y-92936878D01*
X187247898Y-93150812D01*
X187250108Y-93435277D01*
X187250597Y-93805009D01*
X187250600Y-93850800D01*
X187250600Y-93850800D01*
G36*
X182399200Y-95933600D02*
X181103800Y-95933600D01*
X179808400Y-95933600D01*
X179808400Y-95705000D01*
X179808400Y-95476400D01*
X180849800Y-95476400D01*
X181891200Y-95476400D01*
X181891200Y-94765200D01*
X181891200Y-94054000D01*
X180875200Y-94054000D01*
X179859200Y-94054000D01*
X179859200Y-93850800D01*
X179859200Y-93647600D01*
X180875200Y-93647600D01*
X181891200Y-93647600D01*
X181891200Y-92987200D01*
X181891200Y-92326800D01*
X180849800Y-92326800D01*
X179808400Y-92326800D01*
X179808400Y-92098200D01*
X179808400Y-91869600D01*
X181103800Y-91869600D01*
X182399200Y-91869600D01*
X182399200Y-93901600D01*
X182399200Y-95933600D01*
X182399200Y-95933600D01*
X182399200Y-95933600D01*
G37*
X182399200Y-95933600D02*
X181103800Y-95933600D01*
X179808400Y-95933600D01*
X179808400Y-95705000D01*
X179808400Y-95476400D01*
X180849800Y-95476400D01*
X181891200Y-95476400D01*
X181891200Y-94765200D01*
X181891200Y-94054000D01*
X180875200Y-94054000D01*
X179859200Y-94054000D01*
X179859200Y-93850800D01*
X179859200Y-93647600D01*
X180875200Y-93647600D01*
X181891200Y-93647600D01*
X181891200Y-92987200D01*
X181891200Y-92326800D01*
X180849800Y-92326800D01*
X179808400Y-92326800D01*
X179808400Y-92098200D01*
X179808400Y-91869600D01*
X181103800Y-91869600D01*
X182399200Y-91869600D01*
X182399200Y-93901600D01*
X182399200Y-95933600D01*
X182399200Y-95933600D01*
G36*
X192254400Y-95933600D02*
X191746400Y-95931291D01*
X191746400Y-95476400D01*
X191746400Y-93901600D01*
X191746400Y-92326800D01*
X190920900Y-92327083D01*
X190511840Y-92331767D01*
X190191446Y-92348551D01*
X189947063Y-92382000D01*
X189766035Y-92436682D01*
X189635709Y-92517163D01*
X189543428Y-92628010D01*
X189476540Y-92773788D01*
X189449589Y-92858016D01*
X189426753Y-92991336D01*
X189408846Y-93202743D01*
X189396155Y-93468834D01*
X189388969Y-93766202D01*
X189387574Y-94071442D01*
X189392258Y-94361148D01*
X189403309Y-94611916D01*
X189421015Y-94800339D01*
X189425376Y-94828458D01*
X189506379Y-95075883D01*
X189647510Y-95274559D01*
X189831401Y-95402045D01*
X189883712Y-95420657D01*
X189988034Y-95436633D01*
X190172881Y-95450824D01*
X190417178Y-95462164D01*
X190699853Y-95469589D01*
X190895500Y-95471818D01*
X191746400Y-95476400D01*
X191746400Y-95931291D01*
X191098700Y-95928349D01*
X190753106Y-95924561D01*
X190430217Y-95916885D01*
X190147831Y-95906068D01*
X189923747Y-95892859D01*
X189775763Y-95878005D01*
X189739800Y-95871258D01*
X189506581Y-95786724D01*
X189317047Y-95658165D01*
X189167753Y-95477048D01*
X189055258Y-95234838D01*
X188976118Y-94923002D01*
X188926891Y-94533008D01*
X188904133Y-94056323D01*
X188901600Y-93793811D01*
X188909145Y-93353253D01*
X188937230Y-92984873D01*
X188994025Y-92682323D01*
X189087704Y-92439255D01*
X189226436Y-92249321D01*
X189418395Y-92106172D01*
X189671752Y-92003462D01*
X189994679Y-91934840D01*
X190395347Y-91893961D01*
X190881928Y-91874474D01*
X191378100Y-91869985D01*
X192254400Y-91869600D01*
X192254400Y-93901600D01*
X192254400Y-95933600D01*
X192254400Y-95933600D01*
X192254400Y-95933600D01*
G37*
X192254400Y-95933600D02*
X191746400Y-95931291D01*
X191746400Y-95476400D01*
X191746400Y-93901600D01*
X191746400Y-92326800D01*
X190920900Y-92327083D01*
X190511840Y-92331767D01*
X190191446Y-92348551D01*
X189947063Y-92382000D01*
X189766035Y-92436682D01*
X189635709Y-92517163D01*
X189543428Y-92628010D01*
X189476540Y-92773788D01*
X189449589Y-92858016D01*
X189426753Y-92991336D01*
X189408846Y-93202743D01*
X189396155Y-93468834D01*
X189388969Y-93766202D01*
X189387574Y-94071442D01*
X189392258Y-94361148D01*
X189403309Y-94611916D01*
X189421015Y-94800339D01*
X189425376Y-94828458D01*
X189506379Y-95075883D01*
X189647510Y-95274559D01*
X189831401Y-95402045D01*
X189883712Y-95420657D01*
X189988034Y-95436633D01*
X190172881Y-95450824D01*
X190417178Y-95462164D01*
X190699853Y-95469589D01*
X190895500Y-95471818D01*
X191746400Y-95476400D01*
X191746400Y-95931291D01*
X191098700Y-95928349D01*
X190753106Y-95924561D01*
X190430217Y-95916885D01*
X190147831Y-95906068D01*
X189923747Y-95892859D01*
X189775763Y-95878005D01*
X189739800Y-95871258D01*
X189506581Y-95786724D01*
X189317047Y-95658165D01*
X189167753Y-95477048D01*
X189055258Y-95234838D01*
X188976118Y-94923002D01*
X188926891Y-94533008D01*
X188904133Y-94056323D01*
X188901600Y-93793811D01*
X188909145Y-93353253D01*
X188937230Y-92984873D01*
X188994025Y-92682323D01*
X189087704Y-92439255D01*
X189226436Y-92249321D01*
X189418395Y-92106172D01*
X189671752Y-92003462D01*
X189994679Y-91934840D01*
X190395347Y-91893961D01*
X190881928Y-91874474D01*
X191378100Y-91869985D01*
X192254400Y-91869600D01*
X192254400Y-93901600D01*
X192254400Y-95933600D01*
X192254400Y-95933600D01*
G36*
X194642000Y-95933600D02*
X194388000Y-95933600D01*
X194134000Y-95933600D01*
X194134000Y-93901600D01*
X194134000Y-91869600D01*
X194388000Y-91869600D01*
X194642000Y-91869600D01*
X194642000Y-93901600D01*
X194642000Y-95933600D01*
X194642000Y-95933600D01*
X194642000Y-95933600D01*
G37*
X194642000Y-95933600D02*
X194388000Y-95933600D01*
X194134000Y-95933600D01*
X194134000Y-93901600D01*
X194134000Y-91869600D01*
X194388000Y-91869600D01*
X194642000Y-91869600D01*
X194642000Y-93901600D01*
X194642000Y-95933600D01*
X194642000Y-95933600D01*
G36*
X199569600Y-95933600D02*
X199315600Y-95933600D01*
X199061600Y-95933600D01*
X199061600Y-95116518D01*
X199061600Y-94299436D01*
X199061600Y-93901600D01*
X199061600Y-93110086D01*
X199061600Y-92318572D01*
X198142713Y-92335386D01*
X197223827Y-92352200D01*
X197105585Y-92489766D01*
X197022280Y-92643332D01*
X196964789Y-92859367D01*
X196938080Y-93100902D01*
X196947125Y-93330966D01*
X196975279Y-93459131D01*
X197031912Y-93593350D01*
X197110738Y-93697027D01*
X197224447Y-93774081D01*
X197385731Y-93828432D01*
X197607281Y-93863999D01*
X197901789Y-93884703D01*
X198281945Y-93894464D01*
X198388500Y-93895624D01*
X199061600Y-93901600D01*
X199061600Y-94299436D01*
X198193745Y-94316418D01*
X197325891Y-94333400D01*
X197177745Y-94499301D01*
X197116283Y-94571344D01*
X197074718Y-94638640D01*
X197049157Y-94722202D01*
X197035711Y-94843044D01*
X197030489Y-95022178D01*
X197029600Y-95280619D01*
X197029600Y-95299401D01*
X197029600Y-95933600D01*
X196775600Y-95933600D01*
X196521600Y-95933600D01*
X196521600Y-95268177D01*
X196527701Y-94921511D01*
X196548895Y-94660792D01*
X196589515Y-94470937D01*
X196653895Y-94336864D01*
X196746370Y-94243491D01*
X196830204Y-94194238D01*
X196979196Y-94122078D01*
X196788585Y-93998730D01*
X196650069Y-93882981D01*
X196555526Y-93734262D01*
X196499731Y-93535390D01*
X196477460Y-93269180D01*
X196480647Y-92985951D01*
X196503725Y-92672802D01*
X196552337Y-92440117D01*
X196636228Y-92267997D01*
X196765142Y-92136540D01*
X196948825Y-92025847D01*
X196951426Y-92024551D01*
X197035883Y-91984724D01*
X197118459Y-91954077D01*
X197214050Y-91931095D01*
X197337551Y-91914259D01*
X197503856Y-91902053D01*
X197727860Y-91892959D01*
X198024457Y-91885460D01*
X198385674Y-91878456D01*
X199569600Y-91856810D01*
X199569600Y-93895205D01*
X199569600Y-95933600D01*
X199569600Y-95933600D01*
X199569600Y-95933600D01*
G37*
X199569600Y-95933600D02*
X199315600Y-95933600D01*
X199061600Y-95933600D01*
X199061600Y-95116518D01*
X199061600Y-94299436D01*
X199061600Y-93901600D01*
X199061600Y-93110086D01*
X199061600Y-92318572D01*
X198142713Y-92335386D01*
X197223827Y-92352200D01*
X197105585Y-92489766D01*
X197022280Y-92643332D01*
X196964789Y-92859367D01*
X196938080Y-93100902D01*
X196947125Y-93330966D01*
X196975279Y-93459131D01*
X197031912Y-93593350D01*
X197110738Y-93697027D01*
X197224447Y-93774081D01*
X197385731Y-93828432D01*
X197607281Y-93863999D01*
X197901789Y-93884703D01*
X198281945Y-93894464D01*
X198388500Y-93895624D01*
X199061600Y-93901600D01*
X199061600Y-94299436D01*
X198193745Y-94316418D01*
X197325891Y-94333400D01*
X197177745Y-94499301D01*
X197116283Y-94571344D01*
X197074718Y-94638640D01*
X197049157Y-94722202D01*
X197035711Y-94843044D01*
X197030489Y-95022178D01*
X197029600Y-95280619D01*
X197029600Y-95299401D01*
X197029600Y-95933600D01*
X196775600Y-95933600D01*
X196521600Y-95933600D01*
X196521600Y-95268177D01*
X196527701Y-94921511D01*
X196548895Y-94660792D01*
X196589515Y-94470937D01*
X196653895Y-94336864D01*
X196746370Y-94243491D01*
X196830204Y-94194238D01*
X196979196Y-94122078D01*
X196788585Y-93998730D01*
X196650069Y-93882981D01*
X196555526Y-93734262D01*
X196499731Y-93535390D01*
X196477460Y-93269180D01*
X196480647Y-92985951D01*
X196503725Y-92672802D01*
X196552337Y-92440117D01*
X196636228Y-92267997D01*
X196765142Y-92136540D01*
X196948825Y-92025847D01*
X196951426Y-92024551D01*
X197035883Y-91984724D01*
X197118459Y-91954077D01*
X197214050Y-91931095D01*
X197337551Y-91914259D01*
X197503856Y-91902053D01*
X197727860Y-91892959D01*
X198024457Y-91885460D01*
X198385674Y-91878456D01*
X199569600Y-91856810D01*
X199569600Y-93895205D01*
X199569600Y-95933600D01*
X199569600Y-95933600D01*
G36*
X204446400Y-95933600D02*
X203938400Y-95931262D01*
X203938400Y-95476400D01*
X203938400Y-94757204D01*
X203938400Y-94038008D01*
X203938400Y-93647600D01*
X203938400Y-92987200D01*
X203938400Y-92326800D01*
X203149368Y-92326800D01*
X202765073Y-92330266D01*
X202470968Y-92345370D01*
X202255747Y-92379173D01*
X202108104Y-92438732D01*
X202016732Y-92531109D01*
X201970325Y-92663361D01*
X201957577Y-92842549D01*
X201966513Y-93065339D01*
X201984252Y-93244824D01*
X202019884Y-93382300D01*
X202085687Y-93483446D01*
X202193939Y-93553938D01*
X202356919Y-93599455D01*
X202586905Y-93625674D01*
X202896177Y-93638272D01*
X203214500Y-93642400D01*
X203938400Y-93647600D01*
X203938400Y-94038008D01*
X203080779Y-94070387D01*
X202786361Y-94084078D01*
X202519434Y-94101279D01*
X202300053Y-94120330D01*
X202148271Y-94139569D01*
X202093268Y-94152152D01*
X201971575Y-94227162D01*
X201893881Y-94352641D01*
X201853017Y-94545879D01*
X201842057Y-94758074D01*
X201843607Y-94981180D01*
X201862090Y-95152257D01*
X201909309Y-95278233D01*
X201997067Y-95366039D01*
X202137167Y-95422605D01*
X202341413Y-95454859D01*
X202621607Y-95469732D01*
X202989554Y-95474154D01*
X203062100Y-95474366D01*
X203938400Y-95476400D01*
X203938400Y-95931262D01*
X203316100Y-95928400D01*
X202978028Y-95925253D01*
X202666237Y-95919366D01*
X202397850Y-95911299D01*
X202189996Y-95901612D01*
X202059801Y-95890867D01*
X202033400Y-95886421D01*
X201771133Y-95787867D01*
X201576203Y-95630624D01*
X201443869Y-95406921D01*
X201369388Y-95108988D01*
X201347883Y-94763263D01*
X201380833Y-94444036D01*
X201475838Y-94178040D01*
X201626260Y-93979846D01*
X201741756Y-93898800D01*
X201907312Y-93812282D01*
X201780913Y-93729462D01*
X201638079Y-93601490D01*
X201544366Y-93428102D01*
X201493597Y-93192004D01*
X201479544Y-92885600D01*
X201497457Y-92567484D01*
X201551903Y-92330195D01*
X201648503Y-92157774D01*
X201775534Y-92045261D01*
X201913536Y-91991382D01*
X202144903Y-91946463D01*
X202461735Y-91911250D01*
X202856131Y-91886492D01*
X203320187Y-91872938D01*
X203620900Y-91870502D01*
X204446400Y-91869600D01*
X204446400Y-93901600D01*
X204446400Y-95933600D01*
X204446400Y-95933600D01*
X204446400Y-95933600D01*
G37*
X204446400Y-95933600D02*
X203938400Y-95931262D01*
X203938400Y-95476400D01*
X203938400Y-94757204D01*
X203938400Y-94038008D01*
X203938400Y-93647600D01*
X203938400Y-92987200D01*
X203938400Y-92326800D01*
X203149368Y-92326800D01*
X202765073Y-92330266D01*
X202470968Y-92345370D01*
X202255747Y-92379173D01*
X202108104Y-92438732D01*
X202016732Y-92531109D01*
X201970325Y-92663361D01*
X201957577Y-92842549D01*
X201966513Y-93065339D01*
X201984252Y-93244824D01*
X202019884Y-93382300D01*
X202085687Y-93483446D01*
X202193939Y-93553938D01*
X202356919Y-93599455D01*
X202586905Y-93625674D01*
X202896177Y-93638272D01*
X203214500Y-93642400D01*
X203938400Y-93647600D01*
X203938400Y-94038008D01*
X203080779Y-94070387D01*
X202786361Y-94084078D01*
X202519434Y-94101279D01*
X202300053Y-94120330D01*
X202148271Y-94139569D01*
X202093268Y-94152152D01*
X201971575Y-94227162D01*
X201893881Y-94352641D01*
X201853017Y-94545879D01*
X201842057Y-94758074D01*
X201843607Y-94981180D01*
X201862090Y-95152257D01*
X201909309Y-95278233D01*
X201997067Y-95366039D01*
X202137167Y-95422605D01*
X202341413Y-95454859D01*
X202621607Y-95469732D01*
X202989554Y-95474154D01*
X203062100Y-95474366D01*
X203938400Y-95476400D01*
X203938400Y-95931262D01*
X203316100Y-95928400D01*
X202978028Y-95925253D01*
X202666237Y-95919366D01*
X202397850Y-95911299D01*
X202189996Y-95901612D01*
X202059801Y-95890867D01*
X202033400Y-95886421D01*
X201771133Y-95787867D01*
X201576203Y-95630624D01*
X201443869Y-95406921D01*
X201369388Y-95108988D01*
X201347883Y-94763263D01*
X201380833Y-94444036D01*
X201475838Y-94178040D01*
X201626260Y-93979846D01*
X201741756Y-93898800D01*
X201907312Y-93812282D01*
X201780913Y-93729462D01*
X201638079Y-93601490D01*
X201544366Y-93428102D01*
X201493597Y-93192004D01*
X201479544Y-92885600D01*
X201497457Y-92567484D01*
X201551903Y-92330195D01*
X201648503Y-92157774D01*
X201775534Y-92045261D01*
X201913536Y-91991382D01*
X202144903Y-91946463D01*
X202461735Y-91911250D01*
X202856131Y-91886492D01*
X203320187Y-91872938D01*
X203620900Y-91870502D01*
X204446400Y-91869600D01*
X204446400Y-93901600D01*
X204446400Y-95933600D01*
X204446400Y-95933600D01*
G36*
X210796400Y-95933600D02*
X210543066Y-95933600D01*
X210289733Y-95933600D01*
X210276366Y-94200076D01*
X210263000Y-92466552D01*
X209547194Y-94187376D01*
X208831388Y-95908200D01*
X208579786Y-95923190D01*
X208328185Y-95938181D01*
X207607860Y-94195990D01*
X206887534Y-92453800D01*
X206886167Y-94193700D01*
X206884800Y-95933600D01*
X206630800Y-95933600D01*
X206376800Y-95933600D01*
X206376800Y-93899545D01*
X206376800Y-91865491D01*
X206789665Y-91880245D01*
X207202530Y-91895000D01*
X207872200Y-93532101D01*
X208029322Y-93915251D01*
X208174693Y-94267912D01*
X208303767Y-94579195D01*
X208411998Y-94838214D01*
X208494840Y-95034081D01*
X208547747Y-95155909D01*
X208565745Y-95193078D01*
X208589871Y-95153467D01*
X208647856Y-95030171D01*
X208735201Y-94833588D01*
X208847405Y-94574113D01*
X208979970Y-94262142D01*
X209128396Y-93908072D01*
X209274307Y-93555976D01*
X209958995Y-91895000D01*
X210377697Y-91880245D01*
X210796400Y-91865491D01*
X210796400Y-93899545D01*
X210796400Y-95933600D01*
X210796400Y-95933600D01*
X210796400Y-95933600D01*
G37*
X210796400Y-95933600D02*
X210543066Y-95933600D01*
X210289733Y-95933600D01*
X210276366Y-94200076D01*
X210263000Y-92466552D01*
X209547194Y-94187376D01*
X208831388Y-95908200D01*
X208579786Y-95923190D01*
X208328185Y-95938181D01*
X207607860Y-94195990D01*
X206887534Y-92453800D01*
X206886167Y-94193700D01*
X206884800Y-95933600D01*
X206630800Y-95933600D01*
X206376800Y-95933600D01*
X206376800Y-93899545D01*
X206376800Y-91865491D01*
X206789665Y-91880245D01*
X207202530Y-91895000D01*
X207872200Y-93532101D01*
X208029322Y-93915251D01*
X208174693Y-94267912D01*
X208303767Y-94579195D01*
X208411998Y-94838214D01*
X208494840Y-95034081D01*
X208547747Y-95155909D01*
X208565745Y-95193078D01*
X208589871Y-95153467D01*
X208647856Y-95030171D01*
X208735201Y-94833588D01*
X208847405Y-94574113D01*
X208979970Y-94262142D01*
X209128396Y-93908072D01*
X209274307Y-93555976D01*
X209958995Y-91895000D01*
X210377697Y-91880245D01*
X210796400Y-91865491D01*
X210796400Y-93899545D01*
X210796400Y-95933600D01*
X210796400Y-95933600D01*
G36*
X215978000Y-95916871D02*
X215932131Y-95926189D01*
X215814235Y-95932262D01*
X215709195Y-95933600D01*
X215440391Y-95933600D01*
X215290354Y-95500767D01*
X215140318Y-95067935D01*
X215011317Y-95069731D01*
X215011317Y-94714400D01*
X214917315Y-94473100D01*
X214869988Y-94347234D01*
X214796350Y-94146051D01*
X214703822Y-93890071D01*
X214599825Y-93599812D01*
X214503290Y-93328306D01*
X214401826Y-93048825D01*
X214309887Y-92808682D01*
X214233226Y-92621857D01*
X214177596Y-92502330D01*
X214148747Y-92464082D01*
X214147968Y-92464706D01*
X214122365Y-92520625D01*
X214068823Y-92655553D01*
X213993461Y-92852776D01*
X213902399Y-93095582D01*
X213801753Y-93367256D01*
X213697644Y-93651086D01*
X213596190Y-93930358D01*
X213503509Y-94188359D01*
X213425720Y-94408376D01*
X213368942Y-94573695D01*
X213339293Y-94667604D01*
X213336400Y-94681541D01*
X213384406Y-94692481D01*
X213517259Y-94701878D01*
X213718208Y-94709074D01*
X213970505Y-94713414D01*
X214173858Y-94714400D01*
X215011317Y-94714400D01*
X215011317Y-95069731D01*
X214154165Y-95081667D01*
X213168012Y-95095400D01*
X213012040Y-95514500D01*
X212856068Y-95933600D01*
X212588947Y-95933600D01*
X212321825Y-95933600D01*
X212430788Y-95641500D01*
X212473977Y-95525942D01*
X212547925Y-95328335D01*
X212647730Y-95061766D01*
X212768492Y-94739321D01*
X212905310Y-94374086D01*
X213053282Y-93979150D01*
X213187043Y-93622200D01*
X213834336Y-91895000D01*
X214162510Y-91880139D01*
X214340578Y-91874560D01*
X214444447Y-91884112D01*
X214501329Y-91917767D01*
X214538439Y-91984498D01*
X214547711Y-92007139D01*
X214579565Y-92090509D01*
X214639892Y-92252231D01*
X214724212Y-92480063D01*
X214828047Y-92761762D01*
X214946920Y-93085086D01*
X215076350Y-93437794D01*
X215211860Y-93807642D01*
X215348971Y-94182389D01*
X215483204Y-94549792D01*
X215610081Y-94897610D01*
X215725124Y-95213599D01*
X215823854Y-95485518D01*
X215901791Y-95701124D01*
X215954459Y-95848176D01*
X215977378Y-95914431D01*
X215978000Y-95916871D01*
X215978000Y-95916871D01*
X215978000Y-95916871D01*
G37*
X215978000Y-95916871D02*
X215932131Y-95926189D01*
X215814235Y-95932262D01*
X215709195Y-95933600D01*
X215440391Y-95933600D01*
X215290354Y-95500767D01*
X215140318Y-95067935D01*
X215011317Y-95069731D01*
X215011317Y-94714400D01*
X214917315Y-94473100D01*
X214869988Y-94347234D01*
X214796350Y-94146051D01*
X214703822Y-93890071D01*
X214599825Y-93599812D01*
X214503290Y-93328306D01*
X214401826Y-93048825D01*
X214309887Y-92808682D01*
X214233226Y-92621857D01*
X214177596Y-92502330D01*
X214148747Y-92464082D01*
X214147968Y-92464706D01*
X214122365Y-92520625D01*
X214068823Y-92655553D01*
X213993461Y-92852776D01*
X213902399Y-93095582D01*
X213801753Y-93367256D01*
X213697644Y-93651086D01*
X213596190Y-93930358D01*
X213503509Y-94188359D01*
X213425720Y-94408376D01*
X213368942Y-94573695D01*
X213339293Y-94667604D01*
X213336400Y-94681541D01*
X213384406Y-94692481D01*
X213517259Y-94701878D01*
X213718208Y-94709074D01*
X213970505Y-94713414D01*
X214173858Y-94714400D01*
X215011317Y-94714400D01*
X215011317Y-95069731D01*
X214154165Y-95081667D01*
X213168012Y-95095400D01*
X213012040Y-95514500D01*
X212856068Y-95933600D01*
X212588947Y-95933600D01*
X212321825Y-95933600D01*
X212430788Y-95641500D01*
X212473977Y-95525942D01*
X212547925Y-95328335D01*
X212647730Y-95061766D01*
X212768492Y-94739321D01*
X212905310Y-94374086D01*
X213053282Y-93979150D01*
X213187043Y-93622200D01*
X213834336Y-91895000D01*
X214162510Y-91880139D01*
X214340578Y-91874560D01*
X214444447Y-91884112D01*
X214501329Y-91917767D01*
X214538439Y-91984498D01*
X214547711Y-92007139D01*
X214579565Y-92090509D01*
X214639892Y-92252231D01*
X214724212Y-92480063D01*
X214828047Y-92761762D01*
X214946920Y-93085086D01*
X215076350Y-93437794D01*
X215211860Y-93807642D01*
X215348971Y-94182389D01*
X215483204Y-94549792D01*
X215610081Y-94897610D01*
X215725124Y-95213599D01*
X215823854Y-95485518D01*
X215901791Y-95701124D01*
X215954459Y-95848176D01*
X215977378Y-95914431D01*
X215978000Y-95916871D01*
X215978000Y-95916871D01*
M02*
