M48
;DRILL file {KiCad 4.0.1-stable} date 29/01/2016 21:18:56
;FORMAT={-:-/ absolute / inch / decimal}
FMAT,2
INCH,TZ
T1C0.024
T2C0.035
T3C0.043
T4C0.130
%
G90
G05
M72
T1
X6.0616Y-3.26
X6.0891Y-3.1891
X6.0891Y-3.3309
X6.16Y-3.1616
X6.16Y-3.3584
X6.2309Y-3.1891
X6.2309Y-3.3309
X6.2584Y-3.26
X8.7416Y-3.26
X8.7691Y-3.1891
X8.7691Y-3.3309
X8.84Y-3.1616
X8.84Y-3.3584
X8.9109Y-3.1891
X8.9109Y-3.3309
X8.9384Y-3.26
T2
X6.593Y-3.3406
X6.7662Y-3.3406
T3
X7.0509Y-3.3573
X7.4053Y-3.3573
X7.4709Y-3.3573
X7.5047Y-4.7627
X7.6678Y-3.3573
X7.8591Y-4.7627
T4
X6.16Y-3.26
X8.84Y-3.26
T0
M30
