  0
SECTION
  2
HEADER
  9
$ANGBASE
  50
0.0
  9
$ANGDIR
  70
  1
  9
$MEASUREMENT
  70
0
  0
ENDSEC
  0
SECTION
  2
TABLES
  0
TABLE
  2
LTYPE
  70
1
  0
LTYPE
  2
CONTINUOUS
  70
0
  3
Solid line
  72
65
  73
0
  40
0.0
  0
ENDTAB
  0
TABLE
  2
STYLE
  70
4
  0
STYLE
  2
KICAD
  70
0
  40
0
  41
1
  42
1
  50
0
  71
0
  3
isocp.shx
  0
STYLE
  2
KICADB
  70
0
  40
0
  41
1
  42
1
  50
0
  71
0
  3
isocp.shx
  0
STYLE
  2
KICADI
  70
0
  40
0
  41
1
  42
1
  50
15
  71
0
  3
isocp.shx
  0
STYLE
  2
KICADBI
  70
0
  40
0
  41
1
  42
1
  50
15
  71
0
  3
isocp.shx
  0
ENDTAB
  0
TABLE
  2
LAYER
  70
30
  0
LAYER
  2
BLACK
  70
0
  62
7
  6
CONTINUOUS
  0
LAYER
  2
GRAY1
  70
0
  62
251
  6
CONTINUOUS
  0
LAYER
  2
GRAY2
  70
0
  62
8
  6
CONTINUOUS
  0
LAYER
  2
GRAY3
  70
0
  62
9
  6
CONTINUOUS
  0
LAYER
  2
WHITE
  70
0
  62
7
  6
CONTINUOUS
  0
LAYER
  2
LYELLOW
  70
0
  62
51
  6
CONTINUOUS
  0
LAYER
  2
BLUE1
  70
0
  62
178
  6
CONTINUOUS
  0
LAYER
  2
GREEN1
  70
0
  62
98
  6
CONTINUOUS
  0
LAYER
  2
CYAN1
  70
0
  62
138
  6
CONTINUOUS
  0
LAYER
  2
RED1
  70
0
  62
18
  6
CONTINUOUS
  0
LAYER
  2
MAGENTA1
  70
0
  62
228
  6
CONTINUOUS
  0
LAYER
  2
BROWN1
  70
0
  62
58
  6
CONTINUOUS
  0
LAYER
  2
BLUE2
  70
0
  62
5
  6
CONTINUOUS
  0
LAYER
  2
GREEN2
  70
0
  62
3
  6
CONTINUOUS
  0
LAYER
  2
CYAN2
  70
0
  62
4
  6
CONTINUOUS
  0
LAYER
  2
RED2
  70
0
  62
1
  6
CONTINUOUS
  0
LAYER
  2
MAGENTA2
  70
0
  62
6
  6
CONTINUOUS
  0
LAYER
  2
BROWN2
  70
0
  62
54
  6
CONTINUOUS
  0
LAYER
  2
BLUE3
  70
0
  62
171
  6
CONTINUOUS
  0
LAYER
  2
GREEN3
  70
0
  62
91
  6
CONTINUOUS
  0
LAYER
  2
CYAN3
  70
0
  62
131
  6
CONTINUOUS
  0
LAYER
  2
RED3
  70
0
  62
11
  6
CONTINUOUS
  0
LAYER
  2
MAGENTA3
  70
0
  62
221
  6
CONTINUOUS
  0
LAYER
  2
YELLOW3
  70
0
  62
2
  6
CONTINUOUS
  0
LAYER
  2
BLUE4
  70
0
  62
5
  6
CONTINUOUS
  0
LAYER
  2
GREEN4
  70
0
  62
3
  6
CONTINUOUS
  0
LAYER
  2
CYAN4
  70
0
  62
4
  6
CONTINUOUS
  0
LAYER
  2
RED4
  70
0
  62
1
  6
CONTINUOUS
  0
LAYER
  2
MAGENTA4
  70
0
  62
6
  6
CONTINUOUS
  0
LAYER
  2
YELLOW4
  70
0
  62
2
  6
CONTINUOUS
  0
ENDTAB
  0
ENDSEC
  0
SECTION
  2
ENTITIES
0
LINE
8
Black
10
211.399
20
-126.148
11
210.601
21
-126.148
0
LINE
8
Black
10
210.601
20
-126.148
11
210.601
21
-125.351
0
LINE
8
Black
10
210.601
20
-125.351
11
211.399
21
-125.351
0
LINE
8
Black
10
211.399
20
-125.351
11
211.399
21
-126.148
0
LINE
8
Black
10
207.399
20
-126.148
11
206.601
21
-126.148
0
LINE
8
Black
10
206.601
20
-126.148
11
206.601
21
-125.351
0
LINE
8
Black
10
206.601
20
-125.351
11
207.399
21
-125.351
0
LINE
8
Black
10
207.399
20
-125.351
11
207.399
21
-126.148
0
LINE
8
Black
10
215.399
20
-126.148
11
214.601
21
-126.148
0
LINE
8
Black
10
214.601
20
-126.148
11
214.601
21
-125.351
0
LINE
8
Black
10
214.601
20
-125.351
11
215.399
21
-125.351
0
LINE
8
Black
10
215.399
20
-125.351
11
215.399
21
-126.148
0
LINE
8
Black
10
227.399
20
-126.148
11
226.601
21
-126.148
0
LINE
8
Black
10
226.601
20
-126.148
11
226.601
21
-125.351
0
LINE
8
Black
10
226.601
20
-125.351
11
227.399
21
-125.351
0
LINE
8
Black
10
227.399
20
-125.351
11
227.399
21
-126.148
0
LINE
8
Black
10
223.399
20
-126.148
11
222.601
21
-126.148
0
LINE
8
Black
10
222.601
20
-126.148
11
222.601
21
-125.351
0
LINE
8
Black
10
222.601
20
-125.351
11
223.399
21
-125.351
0
LINE
8
Black
10
223.399
20
-125.351
11
223.399
21
-126.148
0
LINE
8
Black
10
219.399
20
-126.148
11
218.601
21
-126.148
0
LINE
8
Black
10
218.601
20
-126.148
11
218.601
21
-125.351
0
LINE
8
Black
10
218.601
20
-125.351
11
219.399
21
-125.351
0
LINE
8
Black
10
219.399
20
-125.351
11
219.399
21
-126.148
0
LINE
8
Black
10
179.84
20
-125.164
11
179.34
21
-125.164
0
LINE
8
Black
10
179.34
20
-125.164
11
179.34
21
-124.264
0
LINE
8
Black
10
179.34
20
-124.264
11
179.84
21
-124.264
0
LINE
8
Black
10
179.84
20
-124.264
11
179.84
21
-125.164
0
LINE
8
Black
10
181.34
20
-125.164
11
180.84
21
-125.164
0
LINE
8
Black
10
180.84
20
-125.164
11
180.84
21
-124.264
0
LINE
8
Black
10
180.84
20
-124.264
11
181.34
21
-124.264
0
LINE
8
Black
10
181.34
20
-124.264
11
181.34
21
-125.164
0
LINE
8
Black
10
185.82
20
-125.096
11
185.02
21
-125.096
0
LINE
8
Black
10
185.02
20
-125.096
11
185.02
21
-124.296
0
LINE
8
Black
10
185.02
20
-124.296
11
185.82
21
-124.296
0
LINE
8
Black
10
185.82
20
-124.296
11
185.82
21
-125.096
0
LINE
8
Black
10
211.399
20
-124.649
11
210.601
21
-124.649
0
LINE
8
Black
10
210.601
20
-124.649
11
210.601
21
-123.852
0
LINE
8
Black
10
210.601
20
-123.852
11
211.399
21
-123.852
0
LINE
8
Black
10
211.399
20
-123.852
11
211.399
21
-124.649
0
LINE
8
Black
10
215.399
20
-124.649
11
214.601
21
-124.649
0
LINE
8
Black
10
214.601
20
-124.649
11
214.601
21
-123.852
0
LINE
8
Black
10
214.601
20
-123.852
11
215.399
21
-123.852
0
LINE
8
Black
10
215.399
20
-123.852
11
215.399
21
-124.649
0
LINE
8
Black
10
219.399
20
-124.649
11
218.601
21
-124.649
0
LINE
8
Black
10
218.601
20
-124.649
11
218.601
21
-123.852
0
LINE
8
Black
10
218.601
20
-123.852
11
219.399
21
-123.852
0
LINE
8
Black
10
219.399
20
-123.852
11
219.399
21
-124.649
0
LINE
8
Black
10
223.399
20
-124.649
11
222.601
21
-124.649
0
LINE
8
Black
10
222.601
20
-124.649
11
222.601
21
-123.852
0
LINE
8
Black
10
222.601
20
-123.852
11
223.399
21
-123.852
0
LINE
8
Black
10
223.399
20
-123.852
11
223.399
21
-124.649
0
LINE
8
Black
10
227.399
20
-124.649
11
226.601
21
-124.649
0
LINE
8
Black
10
226.601
20
-124.649
11
226.601
21
-123.852
0
LINE
8
Black
10
226.601
20
-123.852
11
227.399
21
-123.852
0
LINE
8
Black
10
227.399
20
-123.852
11
227.399
21
-124.649
0
LINE
8
Black
10
207.399
20
-124.649
11
206.601
21
-124.649
0
LINE
8
Black
10
206.601
20
-124.649
11
206.601
21
-123.852
0
LINE
8
Black
10
206.601
20
-123.852
11
207.399
21
-123.852
0
LINE
8
Black
10
207.399
20
-123.852
11
207.399
21
-124.649
0
LINE
8
Black
10
179.84
20
-123.132
11
179.34
21
-123.132
0
LINE
8
Black
10
179.34
20
-123.132
11
179.34
21
-122.232
0
LINE
8
Black
10
179.34
20
-122.232
11
179.84
21
-122.232
0
LINE
8
Black
10
179.84
20
-122.232
11
179.84
21
-123.132
0
LINE
8
Black
10
181.34
20
-123.132
11
180.84
21
-123.132
0
LINE
8
Black
10
180.84
20
-123.132
11
180.84
21
-122.232
0
LINE
8
Black
10
180.84
20
-122.232
11
181.34
21
-122.232
0
LINE
8
Black
10
181.34
20
-122.232
11
181.34
21
-123.132
0
LINE
8
Black
10
186.77
20
-123.097
11
185.97
21
-123.097
0
LINE
8
Black
10
185.97
20
-123.097
11
185.97
21
-122.297
0
LINE
8
Black
10
185.97
20
-122.297
11
186.77
21
-122.297
0
LINE
8
Black
10
186.77
20
-122.297
11
186.77
21
-123.097
0
LINE
8
Black
10
184.87
20
-123.097
11
184.07
21
-123.097
0
LINE
8
Black
10
184.07
20
-123.097
11
184.07
21
-122.297
0
LINE
8
Black
10
184.07
20
-122.297
11
184.87
21
-122.297
0
LINE
8
Black
10
184.87
20
-122.297
11
184.87
21
-123.097
0
LINE
8
Black
10
227.45
20
-122.25
11
226.55
21
-122.25
0
LINE
8
Black
10
226.55
20
-122.25
11
226.55
21
-121.75
0
LINE
8
Black
10
226.55
20
-121.75
11
227.45
21
-121.75
0
LINE
8
Black
10
227.45
20
-121.75
11
227.45
21
-122.25
0
LINE
8
Black
10
207.45
20
-122.25
11
206.55
21
-122.25
0
LINE
8
Black
10
206.55
20
-122.25
11
206.55
21
-121.75
0
LINE
8
Black
10
206.55
20
-121.75
11
207.45
21
-121.75
0
LINE
8
Black
10
207.45
20
-121.75
11
207.45
21
-122.25
0
LINE
8
Black
10
211.45
20
-122.25
11
210.55
21
-122.25
0
LINE
8
Black
10
210.55
20
-122.25
11
210.55
21
-121.75
0
LINE
8
Black
10
210.55
20
-121.75
11
211.45
21
-121.75
0
LINE
8
Black
10
211.45
20
-121.75
11
211.45
21
-122.25
0
LINE
8
Black
10
223.45
20
-122.25
11
222.55
21
-122.25
0
LINE
8
Black
10
222.55
20
-122.25
11
222.55
21
-121.75
0
LINE
8
Black
10
222.55
20
-121.75
11
223.45
21
-121.75
0
LINE
8
Black
10
223.45
20
-121.75
11
223.45
21
-122.25
0
LINE
8
Black
10
215.45
20
-122.25
11
214.55
21
-122.25
0
LINE
8
Black
10
214.55
20
-122.25
11
214.55
21
-121.75
0
LINE
8
Black
10
214.55
20
-121.75
11
215.45
21
-121.75
0
LINE
8
Black
10
215.45
20
-121.75
11
215.45
21
-122.25
0
LINE
8
Black
10
219.45
20
-122.25
11
218.55
21
-122.25
0
LINE
8
Black
10
218.55
20
-122.25
11
218.55
21
-121.75
0
LINE
8
Black
10
218.55
20
-121.75
11
219.45
21
-121.75
0
LINE
8
Black
10
219.45
20
-121.75
11
219.45
21
-122.25
0
LINE
8
Black
10
227.45
20
-120.75
11
226.55
21
-120.75
0
LINE
8
Black
10
226.55
20
-120.75
11
226.55
21
-120.25
0
LINE
8
Black
10
226.55
20
-120.25
11
227.45
21
-120.25
0
LINE
8
Black
10
227.45
20
-120.25
11
227.45
21
-120.75
0
LINE
8
Black
10
223.45
20
-120.75
11
222.55
21
-120.75
0
LINE
8
Black
10
222.55
20
-120.75
11
222.55
21
-120.25
0
LINE
8
Black
10
222.55
20
-120.25
11
223.45
21
-120.25
0
LINE
8
Black
10
223.45
20
-120.25
11
223.45
21
-120.75
0
LINE
8
Black
10
219.45
20
-120.75
11
218.55
21
-120.75
0
LINE
8
Black
10
218.55
20
-120.75
11
218.55
21
-120.25
0
LINE
8
Black
10
218.55
20
-120.25
11
219.45
21
-120.25
0
LINE
8
Black
10
219.45
20
-120.25
11
219.45
21
-120.75
0
LINE
8
Black
10
215.45
20
-120.75
11
214.55
21
-120.75
0
LINE
8
Black
10
214.55
20
-120.75
11
214.55
21
-120.25
0
LINE
8
Black
10
214.55
20
-120.25
11
215.45
21
-120.25
0
LINE
8
Black
10
215.45
20
-120.25
11
215.45
21
-120.75
0
LINE
8
Black
10
211.45
20
-120.75
11
210.55
21
-120.75
0
LINE
8
Black
10
210.55
20
-120.75
11
210.55
21
-120.25
0
LINE
8
Black
10
210.55
20
-120.25
11
211.45
21
-120.25
0
LINE
8
Black
10
211.45
20
-120.25
11
211.45
21
-120.75
0
LINE
8
Black
10
207.45
20
-120.75
11
206.55
21
-120.75
0
LINE
8
Black
10
206.55
20
-120.75
11
206.55
21
-120.25
0
LINE
8
Black
10
206.55
20
-120.25
11
207.45
21
-120.25
0
LINE
8
Black
10
207.45
20
-120.25
11
207.45
21
-120.75
0
LINE
8
Black
10
180.95
20
-118.75
11
178.65
21
-118.75
0
LINE
8
Black
10
178.65
20
-118.75
11
178.65
21
-116.25
0
LINE
8
Black
10
178.65
20
-116.25
11
180.95
21
-116.25
0
LINE
8
Black
10
180.95
20
-116.25
11
180.95
21
-118.75
0
LINE
8
Black
10
185.45
20
-118.75
11
183.15
21
-118.75
0
LINE
8
Black
10
183.15
20
-118.75
11
183.15
21
-116.25
0
LINE
8
Black
10
183.15
20
-116.25
11
185.45
21
-116.25
0
LINE
8
Black
10
185.45
20
-116.25
11
185.45
21
-118.75
0
LINE
8
Black
10
186.875
20
-118.65
11
186.125
21
-118.65
0
LINE
8
Black
10
186.125
20
-118.65
11
186.125
21
-117.85
0
LINE
8
Black
10
186.125
20
-117.85
11
186.875
21
-117.85
0
LINE
8
Black
10
186.875
20
-117.85
11
186.875
21
-118.65
0
LINE
8
Black
10
177.875
20
-118.65
11
177.125
21
-118.65
0
LINE
8
Black
10
177.125
20
-118.65
11
177.125
21
-117.85
0
LINE
8
Black
10
177.125
20
-117.85
11
177.875
21
-117.85
0
LINE
8
Black
10
177.875
20
-117.85
11
177.875
21
-118.65
0
LINE
8
Black
10
177.875
20
-117.15
11
177.125
21
-117.15
0
LINE
8
Black
10
177.125
20
-117.15
11
177.125
21
-116.35
0
LINE
8
Black
10
177.125
20
-116.35
11
177.875
21
-116.35
0
LINE
8
Black
10
177.875
20
-116.35
11
177.875
21
-117.15
0
LINE
8
Black
10
186.875
20
-117.15
11
186.125
21
-117.15
0
LINE
8
Black
10
186.125
20
-117.15
11
186.125
21
-116.35
0
LINE
8
Black
10
186.125
20
-116.35
11
186.875
21
-116.35
0
LINE
8
Black
10
186.875
20
-116.35
11
186.875
21
-117.15
0
LINE
8
Black
10
186.811
20
-115.196
11
186.061
21
-115.196
0
LINE
8
Black
10
186.061
20
-115.196
11
186.061
21
-114.396
0
LINE
8
Black
10
186.061
20
-114.396
11
186.811
21
-114.396
0
LINE
8
Black
10
186.811
20
-114.396
11
186.811
21
-115.196
0
LINE
8
Black
10
188.716
20
-115.196
11
187.966
21
-115.196
0
LINE
8
Black
10
187.966
20
-115.196
11
187.966
21
-114.396
0
LINE
8
Black
10
187.966
20
-114.396
11
188.716
21
-114.396
0
LINE
8
Black
10
188.716
20
-114.396
11
188.716
21
-115.196
0
LINE
8
Black
10
184.875
20
-115.15
11
184.125
21
-115.15
0
LINE
8
Black
10
184.125
20
-115.15
11
184.125
21
-114.35
0
LINE
8
Black
10
184.125
20
-114.35
11
184.875
21
-114.35
0
LINE
8
Black
10
184.875
20
-114.35
11
184.875
21
-115.15
0
LINE
8
Black
10
178.375
20
-115.15
11
177.625
21
-115.15
0
LINE
8
Black
10
177.625
20
-115.15
11
177.625
21
-114.35
0
LINE
8
Black
10
177.625
20
-114.35
11
178.375
21
-114.35
0
LINE
8
Black
10
178.375
20
-114.35
11
178.375
21
-115.15
0
LINE
8
Black
10
180.875
20
-115.15
11
180.125
21
-115.15
0
LINE
8
Black
10
180.125
20
-115.15
11
180.125
21
-114.35
0
LINE
8
Black
10
180.125
20
-114.35
11
180.875
21
-114.35
0
LINE
8
Black
10
180.875
20
-114.35
11
180.875
21
-115.15
0
LINE
8
Black
10
182.95
20
-115
11
182.05
21
-115
0
LINE
8
Black
10
182.05
20
-115
11
182.05
21
-114.5
0
LINE
8
Black
10
182.05
20
-114.5
11
182.95
21
-114.5
0
LINE
8
Black
10
182.95
20
-114.5
11
182.95
21
-115
0
LINE
8
Black
10
199.46
20
-114.865
11
198.66
21
-114.865
0
LINE
8
Black
10
198.66
20
-114.865
11
198.66
21
-114.115
0
LINE
8
Black
10
198.66
20
-114.115
11
199.46
21
-114.115
0
LINE
8
Black
10
199.46
20
-114.115
11
199.46
21
-114.865
0
LINE
8
Black
10
197.96
20
-114.865
11
197.16
21
-114.865
0
LINE
8
Black
10
197.16
20
-114.865
11
197.16
21
-114.115
0
LINE
8
Black
10
197.16
20
-114.115
11
197.96
21
-114.115
0
LINE
8
Black
10
197.96
20
-114.115
11
197.96
21
-114.865
0
LINE
8
Black
10
169.172
20
-114.75
11
168.672
21
-114.75
0
LINE
8
Black
10
168.672
20
-114.75
11
168.672
21
-113.85
0
LINE
8
Black
10
168.672
20
-113.85
11
169.172
21
-113.85
0
LINE
8
Black
10
169.172
20
-113.85
11
169.172
21
-114.75
0
LINE
8
Black
10
170.672
20
-114.75
11
170.172
21
-114.75
0
LINE
8
Black
10
170.172
20
-114.75
11
170.172
21
-113.85
0
LINE
8
Black
10
170.172
20
-113.85
11
170.672
21
-113.85
0
LINE
8
Black
10
170.672
20
-113.85
11
170.672
21
-114.75
0
LINE
8
Black
10
172.37
20
-114.675
11
171.57
21
-114.675
0
LINE
8
Black
10
171.57
20
-114.675
11
171.57
21
-113.925
0
LINE
8
Black
10
171.57
20
-113.925
11
172.37
21
-113.925
0
LINE
8
Black
10
172.37
20
-113.925
11
172.37
21
-114.675
0
LINE
8
Black
10
173.87
20
-114.675
11
173.07
21
-114.675
0
LINE
8
Black
10
173.07
20
-114.675
11
173.07
21
-113.925
0
LINE
8
Black
10
173.07
20
-113.925
11
173.87
21
-113.925
0
LINE
8
Black
10
173.87
20
-113.925
11
173.87
21
-114.675
0
LINE
8
Black
10
154.548
20
-114.122
11
152.648
21
-114.122
0
LINE
8
Black
10
152.648
20
-114.122
11
152.648
21
-112.722
0
LINE
8
Black
10
152.648
20
-112.722
11
154.548
21
-112.722
0
LINE
8
Black
10
154.548
20
-112.722
11
154.548
21
-114.122
0
LINE
8
Black
10
188.716
20
-113.696
11
187.966
21
-113.696
0
LINE
8
Black
10
187.966
20
-113.696
11
187.966
21
-112.896
0
LINE
8
Black
10
187.966
20
-112.896
11
188.716
21
-112.896
0
LINE
8
Black
10
188.716
20
-112.896
11
188.716
21
-113.696
0
LINE
8
Black
10
186.811
20
-113.696
11
186.061
21
-113.696
0
LINE
8
Black
10
186.061
20
-113.696
11
186.061
21
-112.896
0
LINE
8
Black
10
186.061
20
-112.896
11
186.811
21
-112.896
0
LINE
8
Black
10
186.811
20
-112.896
11
186.811
21
-113.696
0
LINE
8
Black
10
180.875
20
-113.65
11
180.125
21
-113.65
0
LINE
8
Black
10
180.125
20
-113.65
11
180.125
21
-112.85
0
LINE
8
Black
10
180.125
20
-112.85
11
180.875
21
-112.85
0
LINE
8
Black
10
180.875
20
-112.85
11
180.875
21
-113.65
0
LINE
8
Black
10
184.875
20
-113.65
11
184.125
21
-113.65
0
LINE
8
Black
10
184.125
20
-113.65
11
184.125
21
-112.85
0
LINE
8
Black
10
184.125
20
-112.85
11
184.875
21
-112.85
0
LINE
8
Black
10
184.875
20
-112.85
11
184.875
21
-113.65
0
LINE
8
Black
10
178.375
20
-113.65
11
177.625
21
-113.65
0
LINE
8
Black
10
177.625
20
-113.65
11
177.625
21
-112.85
0
LINE
8
Black
10
177.625
20
-112.85
11
178.375
21
-112.85
0
LINE
8
Black
10
178.375
20
-112.85
11
178.375
21
-113.65
0
LINE
8
Black
10
196.69
20
-113.543
11
196.47
21
-113.543
0
LINE
8
Black
10
196.47
20
-113.543
11
196.47
21
-112.923
0
LINE
8
Black
10
196.47
20
-112.923
11
196.69
21
-112.923
0
LINE
8
Black
10
196.69
20
-112.923
11
196.69
21
-113.543
0
LINE
8
Black
10
196.29
20
-113.543
11
196.07
21
-113.543
0
LINE
8
Black
10
196.07
20
-113.543
11
196.07
21
-112.923
0
LINE
8
Black
10
196.07
20
-112.923
11
196.29
21
-112.923
0
LINE
8
Black
10
196.29
20
-112.923
11
196.29
21
-113.543
0
LINE
8
Black
10
195.89
20
-113.543
11
195.67
21
-113.543
0
LINE
8
Black
10
195.67
20
-113.543
11
195.67
21
-112.923
0
LINE
8
Black
10
195.67
20
-112.923
11
195.89
21
-112.923
0
LINE
8
Black
10
195.89
20
-112.923
11
195.89
21
-113.543
0
LINE
8
Black
10
195.49
20
-113.543
11
195.27
21
-113.543
0
LINE
8
Black
10
195.27
20
-113.543
11
195.27
21
-112.923
0
LINE
8
Black
10
195.27
20
-112.923
11
195.49
21
-112.923
0
LINE
8
Black
10
195.49
20
-112.923
11
195.49
21
-113.543
0
LINE
8
Black
10
194.69
20
-113.543
11
194.47
21
-113.543
0
LINE
8
Black
10
194.47
20
-113.543
11
194.47
21
-112.923
0
LINE
8
Black
10
194.47
20
-112.923
11
194.69
21
-112.923
0
LINE
8
Black
10
194.69
20
-112.923
11
194.69
21
-113.543
0
LINE
8
Black
10
195.09
20
-113.543
11
194.87
21
-113.543
0
LINE
8
Black
10
194.87
20
-113.543
11
194.87
21
-112.923
0
LINE
8
Black
10
194.87
20
-112.923
11
195.09
21
-112.923
0
LINE
8
Black
10
195.09
20
-112.923
11
195.09
21
-113.543
0
LINE
8
Black
10
182.95
20
-113.5
11
182.05
21
-113.5
0
LINE
8
Black
10
182.05
20
-113.5
11
182.05
21
-113
0
LINE
8
Black
10
182.05
20
-113
11
182.95
21
-113
0
LINE
8
Black
10
182.95
20
-113
11
182.95
21
-113.5
0
LINE
8
Black
10
192.526
20
-113.037
11
191.776
21
-113.037
0
LINE
8
Black
10
191.776
20
-113.037
11
191.776
21
-112.237
0
LINE
8
Black
10
191.776
20
-112.237
11
192.526
21
-112.237
0
LINE
8
Black
10
192.526
20
-112.237
11
192.526
21
-113.037
0
LINE
8
Black
10
199.13
20
-112.91
11
198.38
21
-112.91
0
LINE
8
Black
10
198.38
20
-112.91
11
198.38
21
-112.11
0
LINE
8
Black
10
198.38
20
-112.11
11
199.13
21
-112.11
0
LINE
8
Black
10
199.13
20
-112.11
11
199.13
21
-112.91
0
LINE
8
Black
10
197.49
20
-112.743
11
196.87
21
-112.743
0
LINE
8
Black
10
196.87
20
-112.743
11
196.87
21
-112.523
0
LINE
8
Black
10
196.87
20
-112.523
11
197.49
21
-112.523
0
LINE
8
Black
10
197.49
20
-112.523
11
197.49
21
-112.743
0
LINE
8
Black
10
194.29
20
-112.743
11
193.67
21
-112.743
0
LINE
8
Black
10
193.67
20
-112.743
11
193.67
21
-112.523
0
LINE
8
Black
10
193.67
20
-112.523
11
194.29
21
-112.523
0
LINE
8
Black
10
194.29
20
-112.523
11
194.29
21
-112.743
0
LINE
8
Black
10
197.49
20
-112.343
11
196.87
21
-112.343
0
LINE
8
Black
10
196.87
20
-112.343
11
196.87
21
-112.123
0
LINE
8
Black
10
196.87
20
-112.123
11
197.49
21
-112.123
0
LINE
8
Black
10
197.49
20
-112.123
11
197.49
21
-112.343
0
LINE
8
Black
10
194.29
20
-112.343
11
193.67
21
-112.343
0
LINE
8
Black
10
193.67
20
-112.343
11
193.67
21
-112.123
0
LINE
8
Black
10
193.67
20
-112.123
11
194.29
21
-112.123
0
LINE
8
Black
10
194.29
20
-112.123
11
194.29
21
-112.343
0
LINE
8
Black
10
197.49
20
-111.943
11
196.87
21
-111.943
0
LINE
8
Black
10
196.87
20
-111.943
11
196.87
21
-111.723
0
LINE
8
Black
10
196.87
20
-111.723
11
197.49
21
-111.723
0
LINE
8
Black
10
197.49
20
-111.723
11
197.49
21
-111.943
0
LINE
8
Black
10
194.29
20
-111.943
11
193.67
21
-111.943
0
LINE
8
Black
10
193.67
20
-111.943
11
193.67
21
-111.723
0
LINE
8
Black
10
193.67
20
-111.723
11
194.29
21
-111.723
0
LINE
8
Black
10
194.29
20
-111.723
11
194.29
21
-111.943
0
LINE
8
Black
10
194.29
20
-111.543
11
193.67
21
-111.543
0
LINE
8
Black
10
193.67
20
-111.543
11
193.67
21
-111.323
0
LINE
8
Black
10
193.67
20
-111.323
11
194.29
21
-111.323
0
LINE
8
Black
10
194.29
20
-111.323
11
194.29
21
-111.543
0
LINE
8
Black
10
197.49
20
-111.543
11
196.87
21
-111.543
0
LINE
8
Black
10
196.87
20
-111.543
11
196.87
21
-111.323
0
LINE
8
Black
10
196.87
20
-111.323
11
197.49
21
-111.323
0
LINE
8
Black
10
197.49
20
-111.323
11
197.49
21
-111.543
0
LINE
8
Black
10
192.526
20
-111.537
11
191.776
21
-111.537
0
LINE
8
Black
10
191.776
20
-111.537
11
191.776
21
-110.737
0
LINE
8
Black
10
191.776
20
-110.737
11
192.526
21
-110.737
0
LINE
8
Black
10
192.526
20
-110.737
11
192.526
21
-111.537
0
LINE
8
Black
10
199.13
20
-111.41
11
198.38
21
-111.41
0
LINE
8
Black
10
198.38
20
-111.41
11
198.38
21
-110.61
0
LINE
8
Black
10
198.38
20
-110.61
11
199.13
21
-110.61
0
LINE
8
Black
10
199.13
20
-110.61
11
199.13
21
-111.41
0
LINE
8
Black
10
175.65
20
-111.35
11
175.35
21
-111.35
0
LINE
8
Black
10
175.35
20
-111.35
11
175.35
21
-110.15
0
LINE
8
Black
10
175.35
20
-110.15
11
175.65
21
-110.15
0
LINE
8
Black
10
175.65
20
-110.15
11
175.65
21
-111.35
0
LINE
8
Black
10
176.15
20
-111.35
11
175.85
21
-111.35
0
LINE
8
Black
10
175.85
20
-111.35
11
175.85
21
-110.15
0
LINE
8
Black
10
175.85
20
-110.15
11
176.15
21
-110.15
0
LINE
8
Black
10
176.15
20
-110.15
11
176.15
21
-111.35
0
LINE
8
Black
10
187.65
20
-111.35
11
187.35
21
-111.35
0
LINE
8
Black
10
187.35
20
-111.35
11
187.35
21
-110.15
0
LINE
8
Black
10
187.35
20
-110.15
11
187.65
21
-110.15
0
LINE
8
Black
10
187.65
20
-110.15
11
187.65
21
-111.35
0
LINE
8
Black
10
187.15
20
-111.35
11
186.85
21
-111.35
0
LINE
8
Black
10
186.85
20
-111.35
11
186.85
21
-110.15
0
LINE
8
Black
10
186.85
20
-110.15
11
187.15
21
-110.15
0
LINE
8
Black
10
187.15
20
-110.15
11
187.15
21
-111.35
0
LINE
8
Black
10
186.65
20
-111.35
11
186.35
21
-111.35
0
LINE
8
Black
10
186.35
20
-111.35
11
186.35
21
-110.15
0
LINE
8
Black
10
186.35
20
-110.15
11
186.65
21
-110.15
0
LINE
8
Black
10
186.65
20
-110.15
11
186.65
21
-111.35
0
LINE
8
Black
10
186.15
20
-111.35
11
185.85
21
-111.35
0
LINE
8
Black
10
185.85
20
-111.35
11
185.85
21
-110.15
0
LINE
8
Black
10
185.85
20
-110.15
11
186.15
21
-110.15
0
LINE
8
Black
10
186.15
20
-110.15
11
186.15
21
-111.35
0
LINE
8
Black
10
185.65
20
-111.35
11
185.35
21
-111.35
0
LINE
8
Black
10
185.35
20
-111.35
11
185.35
21
-110.15
0
LINE
8
Black
10
185.35
20
-110.15
11
185.65
21
-110.15
0
LINE
8
Black
10
185.65
20
-110.15
11
185.65
21
-111.35
0
LINE
8
Black
10
185.15
20
-111.35
11
184.85
21
-111.35
0
LINE
8
Black
10
184.85
20
-111.35
11
184.85
21
-110.15
0
LINE
8
Black
10
184.85
20
-110.15
11
185.15
21
-110.15
0
LINE
8
Black
10
185.15
20
-110.15
11
185.15
21
-111.35
0
LINE
8
Black
10
184.65
20
-111.35
11
184.35
21
-111.35
0
LINE
8
Black
10
184.35
20
-111.35
11
184.35
21
-110.15
0
LINE
8
Black
10
184.35
20
-110.15
11
184.65
21
-110.15
0
LINE
8
Black
10
184.65
20
-110.15
11
184.65
21
-111.35
0
LINE
8
Black
10
184.15
20
-111.35
11
183.85
21
-111.35
0
LINE
8
Black
10
183.85
20
-111.35
11
183.85
21
-110.15
0
LINE
8
Black
10
183.85
20
-110.15
11
184.15
21
-110.15
0
LINE
8
Black
10
184.15
20
-110.15
11
184.15
21
-111.35
0
LINE
8
Black
10
183.65
20
-111.35
11
183.35
21
-111.35
0
LINE
8
Black
10
183.35
20
-111.35
11
183.35
21
-110.15
0
LINE
8
Black
10
183.35
20
-110.15
11
183.65
21
-110.15
0
LINE
8
Black
10
183.65
20
-110.15
11
183.65
21
-111.35
0
LINE
8
Black
10
183.15
20
-111.35
11
182.85
21
-111.35
0
LINE
8
Black
10
182.85
20
-111.35
11
182.85
21
-110.15
0
LINE
8
Black
10
182.85
20
-110.15
11
183.15
21
-110.15
0
LINE
8
Black
10
183.15
20
-110.15
11
183.15
21
-111.35
0
LINE
8
Black
10
182.65
20
-111.35
11
182.35
21
-111.35
0
LINE
8
Black
10
182.35
20
-111.35
11
182.35
21
-110.15
0
LINE
8
Black
10
182.35
20
-110.15
11
182.65
21
-110.15
0
LINE
8
Black
10
182.65
20
-110.15
11
182.65
21
-111.35
0
LINE
8
Black
10
182.15
20
-111.35
11
181.85
21
-111.35
0
LINE
8
Black
10
181.85
20
-111.35
11
181.85
21
-110.15
0
LINE
8
Black
10
181.85
20
-110.15
11
182.15
21
-110.15
0
LINE
8
Black
10
182.15
20
-110.15
11
182.15
21
-111.35
0
LINE
8
Black
10
181.65
20
-111.35
11
181.35
21
-111.35
0
LINE
8
Black
10
181.35
20
-111.35
11
181.35
21
-110.15
0
LINE
8
Black
10
181.35
20
-110.15
11
181.65
21
-110.15
0
LINE
8
Black
10
181.65
20
-110.15
11
181.65
21
-111.35
0
LINE
8
Black
10
181.15
20
-111.35
11
180.85
21
-111.35
0
LINE
8
Black
10
180.85
20
-111.35
11
180.85
21
-110.15
0
LINE
8
Black
10
180.85
20
-110.15
11
181.15
21
-110.15
0
LINE
8
Black
10
181.15
20
-110.15
11
181.15
21
-111.35
0
LINE
8
Black
10
180.65
20
-111.35
11
180.35
21
-111.35
0
LINE
8
Black
10
180.35
20
-111.35
11
180.35
21
-110.15
0
LINE
8
Black
10
180.35
20
-110.15
11
180.65
21
-110.15
0
LINE
8
Black
10
180.65
20
-110.15
11
180.65
21
-111.35
0
LINE
8
Black
10
180.15
20
-111.35
11
179.85
21
-111.35
0
LINE
8
Black
10
179.85
20
-111.35
11
179.85
21
-110.15
0
LINE
8
Black
10
179.85
20
-110.15
11
180.15
21
-110.15
0
LINE
8
Black
10
180.15
20
-110.15
11
180.15
21
-111.35
0
LINE
8
Black
10
179.65
20
-111.35
11
179.35
21
-111.35
0
LINE
8
Black
10
179.35
20
-111.35
11
179.35
21
-110.15
0
LINE
8
Black
10
179.35
20
-110.15
11
179.65
21
-110.15
0
LINE
8
Black
10
179.65
20
-110.15
11
179.65
21
-111.35
0
LINE
8
Black
10
179.15
20
-111.35
11
178.85
21
-111.35
0
LINE
8
Black
10
178.85
20
-111.35
11
178.85
21
-110.15
0
LINE
8
Black
10
178.85
20
-110.15
11
179.15
21
-110.15
0
LINE
8
Black
10
179.15
20
-110.15
11
179.15
21
-111.35
0
LINE
8
Black
10
178.65
20
-111.35
11
178.35
21
-111.35
0
LINE
8
Black
10
178.35
20
-111.35
11
178.35
21
-110.15
0
LINE
8
Black
10
178.35
20
-110.15
11
178.65
21
-110.15
0
LINE
8
Black
10
178.65
20
-110.15
11
178.65
21
-111.35
0
LINE
8
Black
10
178.15
20
-111.35
11
177.85
21
-111.35
0
LINE
8
Black
10
177.85
20
-111.35
11
177.85
21
-110.15
0
LINE
8
Black
10
177.85
20
-110.15
11
178.15
21
-110.15
0
LINE
8
Black
10
178.15
20
-110.15
11
178.15
21
-111.35
0
LINE
8
Black
10
177.65
20
-111.35
11
177.35
21
-111.35
0
LINE
8
Black
10
177.35
20
-111.35
11
177.35
21
-110.15
0
LINE
8
Black
10
177.35
20
-110.15
11
177.65
21
-110.15
0
LINE
8
Black
10
177.65
20
-110.15
11
177.65
21
-111.35
0
LINE
8
Black
10
177.15
20
-111.35
11
176.85
21
-111.35
0
LINE
8
Black
10
176.85
20
-111.35
11
176.85
21
-110.15
0
LINE
8
Black
10
176.85
20
-110.15
11
177.15
21
-110.15
0
LINE
8
Black
10
177.15
20
-110.15
11
177.15
21
-111.35
0
LINE
8
Black
10
176.65
20
-111.35
11
176.35
21
-111.35
0
LINE
8
Black
10
176.35
20
-111.35
11
176.35
21
-110.15
0
LINE
8
Black
10
176.35
20
-110.15
11
176.65
21
-110.15
0
LINE
8
Black
10
176.65
20
-110.15
11
176.65
21
-111.35
0
LINE
8
Black
10
197.49
20
-111.143
11
196.87
21
-111.143
0
LINE
8
Black
10
196.87
20
-111.143
11
196.87
21
-110.923
0
LINE
8
Black
10
196.87
20
-110.923
11
197.49
21
-110.923
0
LINE
8
Black
10
197.49
20
-110.923
11
197.49
21
-111.143
0
LINE
8
Black
10
194.29
20
-111.143
11
193.67
21
-111.143
0
LINE
8
Black
10
193.67
20
-111.143
11
193.67
21
-110.923
0
LINE
8
Black
10
193.67
20
-110.923
11
194.29
21
-110.923
0
LINE
8
Black
10
194.29
20
-110.923
11
194.29
21
-111.143
0
LINE
8
Black
10
197.49
20
-110.743
11
196.87
21
-110.743
0
LINE
8
Black
10
196.87
20
-110.743
11
196.87
21
-110.523
0
LINE
8
Black
10
196.87
20
-110.523
11
197.49
21
-110.523
0
LINE
8
Black
10
197.49
20
-110.523
11
197.49
21
-110.743
0
LINE
8
Black
10
194.29
20
-110.743
11
193.67
21
-110.743
0
LINE
8
Black
10
193.67
20
-110.743
11
193.67
21
-110.523
0
LINE
8
Black
10
193.67
20
-110.523
11
194.29
21
-110.523
0
LINE
8
Black
10
194.29
20
-110.523
11
194.29
21
-110.743
0
LINE
8
Black
10
194.69
20
-110.343
11
194.47
21
-110.343
0
LINE
8
Black
10
194.47
20
-110.343
11
194.47
21
-109.723
0
LINE
8
Black
10
194.47
20
-109.723
11
194.69
21
-109.723
0
LINE
8
Black
10
194.69
20
-109.723
11
194.69
21
-110.343
0
LINE
8
Black
10
195.09
20
-110.343
11
194.87
21
-110.343
0
LINE
8
Black
10
194.87
20
-110.343
11
194.87
21
-109.723
0
LINE
8
Black
10
194.87
20
-109.723
11
195.09
21
-109.723
0
LINE
8
Black
10
195.09
20
-109.723
11
195.09
21
-110.343
0
LINE
8
Black
10
196.69
20
-110.343
11
196.47
21
-110.343
0
LINE
8
Black
10
196.47
20
-110.343
11
196.47
21
-109.723
0
LINE
8
Black
10
196.47
20
-109.723
11
196.69
21
-109.723
0
LINE
8
Black
10
196.69
20
-109.723
11
196.69
21
-110.343
0
LINE
8
Black
10
195.49
20
-110.343
11
195.27
21
-110.343
0
LINE
8
Black
10
195.27
20
-110.343
11
195.27
21
-109.723
0
LINE
8
Black
10
195.27
20
-109.723
11
195.49
21
-109.723
0
LINE
8
Black
10
195.49
20
-109.723
11
195.49
21
-110.343
0
LINE
8
Black
10
195.89
20
-110.343
11
195.67
21
-110.343
0
LINE
8
Black
10
195.67
20
-110.343
11
195.67
21
-109.723
0
LINE
8
Black
10
195.67
20
-109.723
11
195.89
21
-109.723
0
LINE
8
Black
10
195.89
20
-109.723
11
195.89
21
-110.343
0
LINE
8
Black
10
196.29
20
-110.343
11
196.07
21
-110.343
0
LINE
8
Black
10
196.07
20
-110.343
11
196.07
21
-109.723
0
LINE
8
Black
10
196.07
20
-109.723
11
196.29
21
-109.723
0
LINE
8
Black
10
196.29
20
-109.723
11
196.29
21
-110.343
0
LINE
8
Black
10
191.446
20
-110.179
11
190.696
21
-110.179
0
LINE
8
Black
10
190.696
20
-110.179
11
190.696
21
-109.379
0
LINE
8
Black
10
190.696
20
-109.379
11
191.446
21
-109.379
0
LINE
8
Black
10
191.446
20
-109.379
11
191.446
21
-110.179
0
LINE
8
Black
10
157.638
20
-109.162
11
156.138
21
-109.162
0
LINE
8
Black
10
156.138
20
-109.162
11
156.138
21
-108.362
0
LINE
8
Black
10
156.138
20
-108.362
11
157.638
21
-108.362
0
LINE
8
Black
10
157.638
20
-108.362
11
157.638
21
-109.162
0
LINE
8
Black
10
174.35
20
-109.15
11
173.15
21
-109.15
0
LINE
8
Black
10
173.15
20
-109.15
11
173.15
21
-108.85
0
LINE
8
Black
10
173.15
20
-108.85
11
174.35
21
-108.85
0
LINE
8
Black
10
174.35
20
-108.85
11
174.35
21
-109.15
0
LINE
8
Black
10
189.85
20
-109.15
11
188.65
21
-109.15
0
LINE
8
Black
10
188.65
20
-109.15
11
188.65
21
-108.85
0
LINE
8
Black
10
188.65
20
-108.85
11
189.85
21
-108.85
0
LINE
8
Black
10
189.85
20
-108.85
11
189.85
21
-109.15
0
LINE
8
Black
10
191.446
20
-108.679
11
190.696
21
-108.679
0
LINE
8
Black
10
190.696
20
-108.679
11
190.696
21
-107.879
0
LINE
8
Black
10
190.696
20
-107.879
11
191.446
21
-107.879
0
LINE
8
Black
10
191.446
20
-107.879
11
191.446
21
-108.679
0
LINE
8
Black
10
189.85
20
-108.65
11
188.65
21
-108.65
0
LINE
8
Black
10
188.65
20
-108.65
11
188.65
21
-108.35
0
LINE
8
Black
10
188.65
20
-108.35
11
189.85
21
-108.35
0
LINE
8
Black
10
189.85
20
-108.35
11
189.85
21
-108.65
0
LINE
8
Black
10
174.35
20
-108.65
11
173.15
21
-108.65
0
LINE
8
Black
10
173.15
20
-108.65
11
173.15
21
-108.35
0
LINE
8
Black
10
173.15
20
-108.35
11
174.35
21
-108.35
0
LINE
8
Black
10
174.35
20
-108.35
11
174.35
21
-108.65
0
LINE
8
Black
10
168.448
20
-108.222
11
167.048
21
-108.222
0
LINE
8
Black
10
167.048
20
-108.222
11
167.048
21
-106.922
0
LINE
8
Black
10
167.048
20
-106.922
11
168.448
21
-106.922
0
LINE
8
Black
10
168.448
20
-106.922
11
168.448
21
-108.222
0
LINE
8
Black
10
197.347
20
-108.18
11
196.652
21
-108.18
0
LINE
8
Black
10
196.652
20
-108.18
11
196.652
21
-107.82
0
LINE
8
Black
10
196.652
20
-107.82
11
197.347
21
-107.82
0
LINE
8
Black
10
197.347
20
-107.82
11
197.347
21
-108.18
0
LINE
8
Black
10
196.347
20
-108.18
11
195.653
21
-108.18
0
LINE
8
Black
10
195.653
20
-108.18
11
195.653
21
-107.82
0
LINE
8
Black
10
195.653
20
-107.82
11
196.347
21
-107.82
0
LINE
8
Black
10
196.347
20
-107.82
11
196.347
21
-108.18
0
LINE
8
Black
10
189.85
20
-108.15
11
188.65
21
-108.15
0
LINE
8
Black
10
188.65
20
-108.15
11
188.65
21
-107.85
0
LINE
8
Black
10
188.65
20
-107.85
11
189.85
21
-107.85
0
LINE
8
Black
10
189.85
20
-107.85
11
189.85
21
-108.15
0
LINE
8
Black
10
174.35
20
-108.15
11
173.15
21
-108.15
0
LINE
8
Black
10
173.15
20
-108.15
11
173.15
21
-107.85
0
LINE
8
Black
10
173.15
20
-107.85
11
174.35
21
-107.85
0
LINE
8
Black
10
174.35
20
-107.85
11
174.35
21
-108.15
0
LINE
8
Black
10
158.038
20
-108.062
11
156.538
21
-108.062
0
LINE
8
Black
10
156.538
20
-108.062
11
156.538
21
-107.262
0
LINE
8
Black
10
156.538
20
-107.262
11
158.038
21
-107.262
0
LINE
8
Black
10
158.038
20
-107.262
11
158.038
21
-108.062
0
LINE
8
Black
10
174.35
20
-107.65
11
173.15
21
-107.65
0
LINE
8
Black
10
173.15
20
-107.65
11
173.15
21
-107.35
0
LINE
8
Black
10
173.15
20
-107.35
11
174.35
21
-107.35
0
LINE
8
Black
10
174.35
20
-107.35
11
174.35
21
-107.65
0
LINE
8
Black
10
189.85
20
-107.65
11
188.65
21
-107.65
0
LINE
8
Black
10
188.65
20
-107.65
11
188.65
21
-107.35
0
LINE
8
Black
10
188.65
20
-107.35
11
189.85
21
-107.35
0
LINE
8
Black
10
189.85
20
-107.35
11
189.85
21
-107.65
0
LINE
8
Black
10
196.347
20
-107.18
11
195.653
21
-107.18
0
LINE
8
Black
10
195.653
20
-107.18
11
195.653
21
-106.82
0
LINE
8
Black
10
195.653
20
-106.82
11
196.347
21
-106.82
0
LINE
8
Black
10
196.347
20
-106.82
11
196.347
21
-107.18
0
LINE
8
Black
10
197.347
20
-107.18
11
196.652
21
-107.18
0
LINE
8
Black
10
196.652
20
-107.18
11
196.652
21
-106.82
0
LINE
8
Black
10
196.652
20
-106.82
11
197.347
21
-106.82
0
LINE
8
Black
10
197.347
20
-106.82
11
197.347
21
-107.18
0
LINE
8
Black
10
189.85
20
-107.15
11
188.65
21
-107.15
0
LINE
8
Black
10
188.65
20
-107.15
11
188.65
21
-106.85
0
LINE
8
Black
10
188.65
20
-106.85
11
189.85
21
-106.85
0
LINE
8
Black
10
189.85
20
-106.85
11
189.85
21
-107.15
0
LINE
8
Black
10
174.35
20
-107.15
11
173.15
21
-107.15
0
LINE
8
Black
10
173.15
20
-107.15
11
173.15
21
-106.85
0
LINE
8
Black
10
173.15
20
-106.85
11
174.35
21
-106.85
0
LINE
8
Black
10
174.35
20
-106.85
11
174.35
21
-107.15
0
LINE
8
Black
10
157.638
20
-106.962
11
156.138
21
-106.962
0
LINE
8
Black
10
156.138
20
-106.962
11
156.138
21
-106.162
0
LINE
8
Black
10
156.138
20
-106.162
11
157.638
21
-106.162
0
LINE
8
Black
10
157.638
20
-106.162
11
157.638
21
-106.962
0
LINE
8
Black
10
189.85
20
-106.65
11
188.65
21
-106.65
0
LINE
8
Black
10
188.65
20
-106.65
11
188.65
21
-106.35
0
LINE
8
Black
10
188.65
20
-106.35
11
189.85
21
-106.35
0
LINE
8
Black
10
189.85
20
-106.35
11
189.85
21
-106.65
0
LINE
8
Black
10
174.35
20
-106.65
11
173.15
21
-106.65
0
LINE
8
Black
10
173.15
20
-106.65
11
173.15
21
-106.35
0
LINE
8
Black
10
173.15
20
-106.35
11
174.35
21
-106.35
0
LINE
8
Black
10
174.35
20
-106.35
11
174.35
21
-106.65
0
LINE
8
Black
10
196.347
20
-106.18
11
195.653
21
-106.18
0
LINE
8
Black
10
195.653
20
-106.18
11
195.653
21
-105.82
0
LINE
8
Black
10
195.653
20
-105.82
11
196.347
21
-105.82
0
LINE
8
Black
10
196.347
20
-105.82
11
196.347
21
-106.18
0
LINE
8
Black
10
197.347
20
-106.18
11
196.652
21
-106.18
0
LINE
8
Black
10
196.652
20
-106.18
11
196.652
21
-105.82
0
LINE
8
Black
10
196.652
20
-105.82
11
197.347
21
-105.82
0
LINE
8
Black
10
197.347
20
-105.82
11
197.347
21
-106.18
0
LINE
8
Black
10
189.85
20
-106.15
11
188.65
21
-106.15
0
LINE
8
Black
10
188.65
20
-106.15
11
188.65
21
-105.85
0
LINE
8
Black
10
188.65
20
-105.85
11
189.85
21
-105.85
0
LINE
8
Black
10
189.85
20
-105.85
11
189.85
21
-106.15
0
LINE
8
Black
10
174.35
20
-106.15
11
173.15
21
-106.15
0
LINE
8
Black
10
173.15
20
-106.15
11
173.15
21
-105.85
0
LINE
8
Black
10
173.15
20
-105.85
11
174.35
21
-105.85
0
LINE
8
Black
10
174.35
20
-105.85
11
174.35
21
-106.15
0
LINE
8
Black
10
157.438
20
-105.862
11
155.938
21
-105.862
0
LINE
8
Black
10
155.938
20
-105.862
11
155.938
21
-105.062
0
LINE
8
Black
10
155.938
20
-105.062
11
157.438
21
-105.062
0
LINE
8
Black
10
157.438
20
-105.062
11
157.438
21
-105.862
0
LINE
8
Black
10
189.85
20
-105.65
11
188.65
21
-105.65
0
LINE
8
Black
10
188.65
20
-105.65
11
188.65
21
-105.35
0
LINE
8
Black
10
188.65
20
-105.35
11
189.85
21
-105.35
0
LINE
8
Black
10
189.85
20
-105.35
11
189.85
21
-105.65
0
LINE
8
Black
10
174.35
20
-105.65
11
173.15
21
-105.65
0
LINE
8
Black
10
173.15
20
-105.65
11
173.15
21
-105.35
0
LINE
8
Black
10
173.15
20
-105.35
11
174.35
21
-105.35
0
LINE
8
Black
10
174.35
20
-105.35
11
174.35
21
-105.65
0
LINE
8
Black
10
197.347
20
-105.18
11
196.652
21
-105.18
0
LINE
8
Black
10
196.652
20
-105.18
11
196.652
21
-104.82
0
LINE
8
Black
10
196.652
20
-104.82
11
197.347
21
-104.82
0
LINE
8
Black
10
197.347
20
-104.82
11
197.347
21
-105.18
0
LINE
8
Black
10
196.347
20
-105.18
11
195.653
21
-105.18
0
LINE
8
Black
10
195.653
20
-105.18
11
195.653
21
-104.82
0
LINE
8
Black
10
195.653
20
-104.82
11
196.347
21
-104.82
0
LINE
8
Black
10
196.347
20
-104.82
11
196.347
21
-105.18
0
LINE
8
Black
10
174.35
20
-105.15
11
173.15
21
-105.15
0
LINE
8
Black
10
173.15
20
-105.15
11
173.15
21
-104.85
0
LINE
8
Black
10
173.15
20
-104.85
11
174.35
21
-104.85
0
LINE
8
Black
10
174.35
20
-104.85
11
174.35
21
-105.15
0
LINE
8
Black
10
189.85
20
-105.15
11
188.65
21
-105.15
0
LINE
8
Black
10
188.65
20
-105.15
11
188.65
21
-104.85
0
LINE
8
Black
10
188.65
20
-104.85
11
189.85
21
-104.85
0
LINE
8
Black
10
189.85
20
-104.85
11
189.85
21
-105.15
0
LINE
8
Black
10
157.638
20
-104.762
11
156.138
21
-104.762
0
LINE
8
Black
10
156.138
20
-104.762
11
156.138
21
-103.962
0
LINE
8
Black
10
156.138
20
-103.962
11
157.638
21
-103.962
0
LINE
8
Black
10
157.638
20
-103.962
11
157.638
21
-104.762
0
LINE
8
Black
10
174.35
20
-104.65
11
173.15
21
-104.65
0
LINE
8
Black
10
173.15
20
-104.65
11
173.15
21
-104.35
0
LINE
8
Black
10
173.15
20
-104.35
11
174.35
21
-104.35
0
LINE
8
Black
10
174.35
20
-104.35
11
174.35
21
-104.65
0
LINE
8
Black
10
189.85
20
-104.65
11
188.65
21
-104.65
0
LINE
8
Black
10
188.65
20
-104.65
11
188.65
21
-104.35
0
LINE
8
Black
10
188.65
20
-104.35
11
189.85
21
-104.35
0
LINE
8
Black
10
189.85
20
-104.35
11
189.85
21
-104.65
0
LINE
8
Black
10
197.347
20
-104.18
11
196.652
21
-104.18
0
LINE
8
Black
10
196.652
20
-104.18
11
196.652
21
-103.82
0
LINE
8
Black
10
196.652
20
-103.82
11
197.347
21
-103.82
0
LINE
8
Black
10
197.347
20
-103.82
11
197.347
21
-104.18
0
LINE
8
Black
10
196.347
20
-104.18
11
195.653
21
-104.18
0
LINE
8
Black
10
195.653
20
-104.18
11
195.653
21
-103.82
0
LINE
8
Black
10
195.653
20
-103.82
11
196.347
21
-103.82
0
LINE
8
Black
10
196.347
20
-103.82
11
196.347
21
-104.18
0
LINE
8
Black
10
189.85
20
-104.15
11
188.65
21
-104.15
0
LINE
8
Black
10
188.65
20
-104.15
11
188.65
21
-103.85
0
LINE
8
Black
10
188.65
20
-103.85
11
189.85
21
-103.85
0
LINE
8
Black
10
189.85
20
-103.85
11
189.85
21
-104.15
0
LINE
8
Black
10
174.35
20
-104.15
11
173.15
21
-104.15
0
LINE
8
Black
10
173.15
20
-104.15
11
173.15
21
-103.85
0
LINE
8
Black
10
173.15
20
-103.85
11
174.35
21
-103.85
0
LINE
8
Black
10
174.35
20
-103.85
11
174.35
21
-104.15
0
LINE
8
Black
10
168.448
20
-103.762
11
167.498
21
-103.762
0
LINE
8
Black
10
167.498
20
-103.762
11
167.498
21
-102.762
0
LINE
8
Black
10
167.498
20
-102.762
11
168.448
21
-102.762
0
LINE
8
Black
10
168.448
20
-102.762
11
168.448
21
-103.762
0
LINE
8
Black
10
157.438
20
-103.662
11
155.938
21
-103.662
0
LINE
8
Black
10
155.938
20
-103.662
11
155.938
21
-102.862
0
LINE
8
Black
10
155.938
20
-102.862
11
157.438
21
-102.862
0
LINE
8
Black
10
157.438
20
-102.862
11
157.438
21
-103.662
0
LINE
8
Black
10
189.85
20
-103.65
11
188.65
21
-103.65
0
LINE
8
Black
10
188.65
20
-103.65
11
188.65
21
-103.35
0
LINE
8
Black
10
188.65
20
-103.35
11
189.85
21
-103.35
0
LINE
8
Black
10
189.85
20
-103.35
11
189.85
21
-103.65
0
LINE
8
Black
10
174.35
20
-103.65
11
173.15
21
-103.65
0
LINE
8
Black
10
173.15
20
-103.65
11
173.15
21
-103.35
0
LINE
8
Black
10
173.15
20
-103.35
11
174.35
21
-103.35
0
LINE
8
Black
10
174.35
20
-103.35
11
174.35
21
-103.65
0
LINE
8
Black
10
197.347
20
-103.18
11
196.652
21
-103.18
0
LINE
8
Black
10
196.652
20
-103.18
11
196.652
21
-102.82
0
LINE
8
Black
10
196.652
20
-102.82
11
197.347
21
-102.82
0
LINE
8
Black
10
197.347
20
-102.82
11
197.347
21
-103.18
0
LINE
8
Black
10
196.347
20
-103.18
11
195.653
21
-103.18
0
LINE
8
Black
10
195.653
20
-103.18
11
195.653
21
-102.82
0
LINE
8
Black
10
195.653
20
-102.82
11
196.347
21
-102.82
0
LINE
8
Black
10
196.347
20
-102.82
11
196.347
21
-103.18
0
LINE
8
Black
10
174.35
20
-103.15
11
173.15
21
-103.15
0
LINE
8
Black
10
173.15
20
-103.15
11
173.15
21
-102.85
0
LINE
8
Black
10
173.15
20
-102.85
11
174.35
21
-102.85
0
LINE
8
Black
10
174.35
20
-102.85
11
174.35
21
-103.15
0
LINE
8
Black
10
189.85
20
-103.15
11
188.65
21
-103.15
0
LINE
8
Black
10
188.65
20
-103.15
11
188.65
21
-102.85
0
LINE
8
Black
10
188.65
20
-102.85
11
189.85
21
-102.85
0
LINE
8
Black
10
189.85
20
-102.85
11
189.85
21
-103.15
0
LINE
8
Black
10
174.35
20
-102.65
11
173.15
21
-102.65
0
LINE
8
Black
10
173.15
20
-102.65
11
173.15
21
-102.35
0
LINE
8
Black
10
173.15
20
-102.35
11
174.35
21
-102.35
0
LINE
8
Black
10
174.35
20
-102.35
11
174.35
21
-102.65
0
LINE
8
Black
10
189.85
20
-102.65
11
188.65
21
-102.65
0
LINE
8
Black
10
188.65
20
-102.65
11
188.65
21
-102.35
0
LINE
8
Black
10
188.65
20
-102.35
11
189.85
21
-102.35
0
LINE
8
Black
10
189.85
20
-102.35
11
189.85
21
-102.65
0
LINE
8
Black
10
157.638
20
-102.562
11
156.138
21
-102.562
0
LINE
8
Black
10
156.138
20
-102.562
11
156.138
21
-101.762
0
LINE
8
Black
10
156.138
20
-101.762
11
157.638
21
-101.762
0
LINE
8
Black
10
157.638
20
-101.762
11
157.638
21
-102.562
0
LINE
8
Black
10
168.448
20
-102.522
11
167.048
21
-102.522
0
LINE
8
Black
10
167.048
20
-102.522
11
167.048
21
-101.222
0
LINE
8
Black
10
167.048
20
-101.222
11
168.448
21
-101.222
0
LINE
8
Black
10
168.448
20
-101.222
11
168.448
21
-102.522
0
LINE
8
Black
10
196.347
20
-102.18
11
195.653
21
-102.18
0
LINE
8
Black
10
195.653
20
-102.18
11
195.653
21
-101.82
0
LINE
8
Black
10
195.653
20
-101.82
11
196.347
21
-101.82
0
LINE
8
Black
10
196.347
20
-101.82
11
196.347
21
-102.18
0
LINE
8
Black
10
197.347
20
-102.18
11
196.652
21
-102.18
0
LINE
8
Black
10
196.652
20
-102.18
11
196.652
21
-101.82
0
LINE
8
Black
10
196.652
20
-101.82
11
197.347
21
-101.82
0
LINE
8
Black
10
197.347
20
-101.82
11
197.347
21
-102.18
0
LINE
8
Black
10
174.35
20
-102.15
11
173.15
21
-102.15
0
LINE
8
Black
10
173.15
20
-102.15
11
173.15
21
-101.85
0
LINE
8
Black
10
173.15
20
-101.85
11
174.35
21
-101.85
0
LINE
8
Black
10
174.35
20
-101.85
11
174.35
21
-102.15
0
LINE
8
Black
10
189.85
20
-102.15
11
188.65
21
-102.15
0
LINE
8
Black
10
188.65
20
-102.15
11
188.65
21
-101.85
0
LINE
8
Black
10
188.65
20
-101.85
11
189.85
21
-101.85
0
LINE
8
Black
10
189.85
20
-101.85
11
189.85
21
-102.15
0
LINE
8
Black
10
174.35
20
-101.65
11
173.15
21
-101.65
0
LINE
8
Black
10
173.15
20
-101.65
11
173.15
21
-101.35
0
LINE
8
Black
10
173.15
20
-101.35
11
174.35
21
-101.35
0
LINE
8
Black
10
174.35
20
-101.35
11
174.35
21
-101.65
0
LINE
8
Black
10
189.85
20
-101.65
11
188.65
21
-101.65
0
LINE
8
Black
10
188.65
20
-101.65
11
188.65
21
-101.35
0
LINE
8
Black
10
188.65
20
-101.35
11
189.85
21
-101.35
0
LINE
8
Black
10
189.85
20
-101.35
11
189.85
21
-101.65
0
LINE
8
Black
10
157.638
20
-101.462
11
156.138
21
-101.462
0
LINE
8
Black
10
156.138
20
-101.462
11
156.138
21
-100.662
0
LINE
8
Black
10
156.138
20
-100.662
11
157.638
21
-100.662
0
LINE
8
Black
10
157.638
20
-100.662
11
157.638
21
-101.462
0
LINE
8
Black
10
196.347
20
-101.18
11
195.653
21
-101.18
0
LINE
8
Black
10
195.653
20
-101.18
11
195.653
21
-100.82
0
LINE
8
Black
10
195.653
20
-100.82
11
196.347
21
-100.82
0
LINE
8
Black
10
196.347
20
-100.82
11
196.347
21
-101.18
0
LINE
8
Black
10
197.347
20
-101.18
11
196.652
21
-101.18
0
LINE
8
Black
10
196.652
20
-101.18
11
196.652
21
-100.82
0
LINE
8
Black
10
196.652
20
-100.82
11
197.347
21
-100.82
0
LINE
8
Black
10
197.347
20
-100.82
11
197.347
21
-101.18
0
LINE
8
Black
10
193.65
20
-101.153
11
192.85
21
-101.153
0
LINE
8
Black
10
192.85
20
-101.153
11
192.85
21
-100.403
0
LINE
8
Black
10
192.85
20
-100.403
11
193.65
21
-100.403
0
LINE
8
Black
10
193.65
20
-100.403
11
193.65
21
-101.153
0
LINE
8
Black
10
192.15
20
-101.153
11
191.35
21
-101.153
0
LINE
8
Black
10
191.35
20
-101.153
11
191.35
21
-100.403
0
LINE
8
Black
10
191.35
20
-100.403
11
192.15
21
-100.403
0
LINE
8
Black
10
192.15
20
-100.403
11
192.15
21
-101.153
0
LINE
8
Black
10
174.35
20
-101.15
11
173.15
21
-101.15
0
LINE
8
Black
10
173.15
20
-101.15
11
173.15
21
-100.85
0
LINE
8
Black
10
173.15
20
-100.85
11
174.35
21
-100.85
0
LINE
8
Black
10
174.35
20
-100.85
11
174.35
21
-101.15
0
LINE
8
Black
10
189.85
20
-101.15
11
188.65
21
-101.15
0
LINE
8
Black
10
188.65
20
-101.15
11
188.65
21
-100.85
0
LINE
8
Black
10
188.65
20
-100.85
11
189.85
21
-100.85
0
LINE
8
Black
10
189.85
20
-100.85
11
189.85
21
-101.15
0
LINE
8
Black
10
155.548
20
-100.972
11
153.648
21
-100.972
0
LINE
8
Black
10
153.648
20
-100.972
11
153.648
21
-99.572
0
LINE
8
Black
10
153.648
20
-99.572
11
155.548
21
-99.572
0
LINE
8
Black
10
155.548
20
-99.572
11
155.548
21
-100.972
0
LINE
8
Black
10
174.35
20
-100.65
11
173.15
21
-100.65
0
LINE
8
Black
10
173.15
20
-100.65
11
173.15
21
-100.35
0
LINE
8
Black
10
173.15
20
-100.35
11
174.35
21
-100.35
0
LINE
8
Black
10
174.35
20
-100.35
11
174.35
21
-100.65
0
LINE
8
Black
10
189.85
20
-100.65
11
188.65
21
-100.65
0
LINE
8
Black
10
188.65
20
-100.65
11
188.65
21
-100.35
0
LINE
8
Black
10
188.65
20
-100.35
11
189.85
21
-100.35
0
LINE
8
Black
10
189.85
20
-100.35
11
189.85
21
-100.65
0
LINE
8
Black
10
196.347
20
-100.18
11
195.653
21
-100.18
0
LINE
8
Black
10
195.653
20
-100.18
11
195.653
21
-99.82
0
LINE
8
Black
10
195.653
20
-99.82
11
196.347
21
-99.82
0
LINE
8
Black
10
196.347
20
-99.82
11
196.347
21
-100.18
0
LINE
8
Black
10
197.347
20
-100.18
11
196.652
21
-100.18
0
LINE
8
Black
10
196.652
20
-100.18
11
196.652
21
-99.82
0
LINE
8
Black
10
196.652
20
-99.82
11
197.347
21
-99.82
0
LINE
8
Black
10
197.347
20
-99.82
11
197.347
21
-100.18
0
LINE
8
Black
10
174.35
20
-100.15
11
173.15
21
-100.15
0
LINE
8
Black
10
173.15
20
-100.15
11
173.15
21
-99.85
0
LINE
8
Black
10
173.15
20
-99.85
11
174.35
21
-99.85
0
LINE
8
Black
10
174.35
20
-99.85
11
174.35
21
-100.15
0
LINE
8
Black
10
189.85
20
-100.15
11
188.65
21
-100.15
0
LINE
8
Black
10
188.65
20
-100.15
11
188.65
21
-99.85
0
LINE
8
Black
10
188.65
20
-99.85
11
189.85
21
-99.85
0
LINE
8
Black
10
189.85
20
-99.85
11
189.85
21
-100.15
0
LINE
8
Black
10
189.85
20
-99.65
11
188.65
21
-99.65
0
LINE
8
Black
10
188.65
20
-99.65
11
188.65
21
-99.35
0
LINE
8
Black
10
188.65
20
-99.35
11
189.85
21
-99.35
0
LINE
8
Black
10
189.85
20
-99.35
11
189.85
21
-99.65
0
LINE
8
Black
10
174.35
20
-99.65
11
173.15
21
-99.65
0
LINE
8
Black
10
173.15
20
-99.65
11
173.15
21
-99.35
0
LINE
8
Black
10
173.15
20
-99.35
11
174.35
21
-99.35
0
LINE
8
Black
10
174.35
20
-99.35
11
174.35
21
-99.65
0
LINE
8
Black
10
160.47
20
-99.298
11
159.57
21
-99.298
0
LINE
8
Black
10
159.57
20
-99.298
11
159.57
21
-98.798
0
LINE
8
Black
10
159.57
20
-98.798
11
160.47
21
-98.798
0
LINE
8
Black
10
160.47
20
-98.798
11
160.47
21
-99.298
0
LINE
8
Black
10
157.168
20
-99.298
11
156.268
21
-99.298
0
LINE
8
Black
10
156.268
20
-99.298
11
156.268
21
-98.798
0
LINE
8
Black
10
156.268
20
-98.798
11
157.168
21
-98.798
0
LINE
8
Black
10
157.168
20
-98.798
11
157.168
21
-99.298
0
LINE
8
Black
10
158.819
20
-99.298
11
157.919
21
-99.298
0
LINE
8
Black
10
157.919
20
-99.298
11
157.919
21
-98.798
0
LINE
8
Black
10
157.919
20
-98.798
11
158.819
21
-98.798
0
LINE
8
Black
10
158.819
20
-98.798
11
158.819
21
-99.298
0
LINE
8
Black
10
196.347
20
-99.18
11
195.653
21
-99.18
0
LINE
8
Black
10
195.653
20
-99.18
11
195.653
21
-98.82
0
LINE
8
Black
10
195.653
20
-98.82
11
196.347
21
-98.82
0
LINE
8
Black
10
196.347
20
-98.82
11
196.347
21
-99.18
0
LINE
8
Black
10
197.347
20
-99.18
11
196.652
21
-99.18
0
LINE
8
Black
10
196.652
20
-99.18
11
196.652
21
-98.82
0
LINE
8
Black
10
196.652
20
-98.82
11
197.347
21
-98.82
0
LINE
8
Black
10
197.347
20
-98.82
11
197.347
21
-99.18
0
LINE
8
Black
10
192.15
20
-99.153
11
191.35
21
-99.153
0
LINE
8
Black
10
191.35
20
-99.153
11
191.35
21
-98.403
0
LINE
8
Black
10
191.35
20
-98.403
11
192.15
21
-98.403
0
LINE
8
Black
10
192.15
20
-98.403
11
192.15
21
-99.153
0
LINE
8
Black
10
193.65
20
-99.153
11
192.85
21
-99.153
0
LINE
8
Black
10
192.85
20
-99.153
11
192.85
21
-98.403
0
LINE
8
Black
10
192.85
20
-98.403
11
193.65
21
-98.403
0
LINE
8
Black
10
193.65
20
-98.403
11
193.65
21
-99.153
0
LINE
8
Black
10
174.35
20
-99.15
11
173.15
21
-99.15
0
LINE
8
Black
10
173.15
20
-99.15
11
173.15
21
-98.85
0
LINE
8
Black
10
173.15
20
-98.85
11
174.35
21
-98.85
0
LINE
8
Black
10
174.35
20
-98.85
11
174.35
21
-99.15
0
LINE
8
Black
10
189.85
20
-99.15
11
188.65
21
-99.15
0
LINE
8
Black
10
188.65
20
-99.15
11
188.65
21
-98.85
0
LINE
8
Black
10
188.65
20
-98.85
11
189.85
21
-98.85
0
LINE
8
Black
10
189.85
20
-98.85
11
189.85
21
-99.15
0
LINE
8
Black
10
189.85
20
-98.65
11
188.65
21
-98.65
0
LINE
8
Black
10
188.65
20
-98.65
11
188.65
21
-98.35
0
LINE
8
Black
10
188.65
20
-98.35
11
189.85
21
-98.35
0
LINE
8
Black
10
189.85
20
-98.35
11
189.85
21
-98.65
0
LINE
8
Black
10
174.35
20
-98.65
11
173.15
21
-98.65
0
LINE
8
Black
10
173.15
20
-98.65
11
173.15
21
-98.35
0
LINE
8
Black
10
173.15
20
-98.35
11
174.35
21
-98.35
0
LINE
8
Black
10
174.35
20
-98.35
11
174.35
21
-98.65
0
LINE
8
Black
10
196.347
20
-98.18
11
195.653
21
-98.18
0
LINE
8
Black
10
195.653
20
-98.18
11
195.653
21
-97.82
0
LINE
8
Black
10
195.653
20
-97.82
11
196.347
21
-97.82
0
LINE
8
Black
10
196.347
20
-97.82
11
196.347
21
-98.18
0
LINE
8
Black
10
197.347
20
-98.18
11
196.652
21
-98.18
0
LINE
8
Black
10
196.652
20
-98.18
11
196.652
21
-97.82
0
LINE
8
Black
10
196.652
20
-97.82
11
197.347
21
-97.82
0
LINE
8
Black
10
197.347
20
-97.82
11
197.347
21
-98.18
0
LINE
8
Black
10
174.35
20
-98.15
11
173.15
21
-98.15
0
LINE
8
Black
10
173.15
20
-98.15
11
173.15
21
-97.85
0
LINE
8
Black
10
173.15
20
-97.85
11
174.35
21
-97.85
0
LINE
8
Black
10
174.35
20
-97.85
11
174.35
21
-98.15
0
LINE
8
Black
10
189.85
20
-98.15
11
188.65
21
-98.15
0
LINE
8
Black
10
188.65
20
-98.15
11
188.65
21
-97.85
0
LINE
8
Black
10
188.65
20
-97.85
11
189.85
21
-97.85
0
LINE
8
Black
10
189.85
20
-97.85
11
189.85
21
-98.15
0
LINE
8
Black
10
157.168
20
-97.798
11
156.268
21
-97.798
0
LINE
8
Black
10
156.268
20
-97.798
11
156.268
21
-97.298
0
LINE
8
Black
10
156.268
20
-97.298
11
157.168
21
-97.298
0
LINE
8
Black
10
157.168
20
-97.298
11
157.168
21
-97.798
0
LINE
8
Black
10
160.47
20
-97.798
11
159.57
21
-97.798
0
LINE
8
Black
10
159.57
20
-97.798
11
159.57
21
-97.298
0
LINE
8
Black
10
159.57
20
-97.298
11
160.47
21
-97.298
0
LINE
8
Black
10
160.47
20
-97.298
11
160.47
21
-97.798
0
LINE
8
Black
10
158.819
20
-97.798
11
157.919
21
-97.798
0
LINE
8
Black
10
157.919
20
-97.798
11
157.919
21
-97.298
0
LINE
8
Black
10
157.919
20
-97.298
11
158.819
21
-97.298
0
LINE
8
Black
10
158.819
20
-97.298
11
158.819
21
-97.798
0
LINE
8
Black
10
174.35
20
-97.65
11
173.15
21
-97.65
0
LINE
8
Black
10
173.15
20
-97.65
11
173.15
21
-97.35
0
LINE
8
Black
10
173.15
20
-97.35
11
174.35
21
-97.35
0
LINE
8
Black
10
174.35
20
-97.35
11
174.35
21
-97.65
0
LINE
8
Black
10
189.85
20
-97.65
11
188.65
21
-97.65
0
LINE
8
Black
10
188.65
20
-97.65
11
188.65
21
-97.35
0
LINE
8
Black
10
188.65
20
-97.35
11
189.85
21
-97.35
0
LINE
8
Black
10
189.85
20
-97.35
11
189.85
21
-97.65
0
LINE
8
Black
10
196.347
20
-97.18
11
195.653
21
-97.18
0
LINE
8
Black
10
195.653
20
-97.18
11
195.653
21
-96.82
0
LINE
8
Black
10
195.653
20
-96.82
11
196.347
21
-96.82
0
LINE
8
Black
10
196.347
20
-96.82
11
196.347
21
-97.18
0
LINE
8
Black
10
197.347
20
-97.18
11
196.652
21
-97.18
0
LINE
8
Black
10
196.652
20
-97.18
11
196.652
21
-96.82
0
LINE
8
Black
10
196.652
20
-96.82
11
197.347
21
-96.82
0
LINE
8
Black
10
197.347
20
-96.82
11
197.347
21
-97.18
0
LINE
8
Black
10
189.85
20
-97.15
11
188.65
21
-97.15
0
LINE
8
Black
10
188.65
20
-97.15
11
188.65
21
-96.85
0
LINE
8
Black
10
188.65
20
-96.85
11
189.85
21
-96.85
0
LINE
8
Black
10
189.85
20
-96.85
11
189.85
21
-97.15
0
LINE
8
Black
10
174.35
20
-97.15
11
173.15
21
-97.15
0
LINE
8
Black
10
173.15
20
-97.15
11
173.15
21
-96.85
0
LINE
8
Black
10
173.15
20
-96.85
11
174.35
21
-96.85
0
LINE
8
Black
10
174.35
20
-96.85
11
174.35
21
-97.15
0
LINE
8
Black
10
171.9
20
-97.012
11
171
21
-97.012
0
LINE
8
Black
10
171
20
-97.012
11
171
21
-96.512
0
LINE
8
Black
10
171
20
-96.512
11
171.9
21
-96.512
0
LINE
8
Black
10
171.9
20
-96.512
11
171.9
21
-97.012
0
LINE
8
Black
10
168.344
20
-96.25
11
167.444
21
-96.25
0
LINE
8
Black
10
167.444
20
-96.25
11
167.444
21
-95.75
0
LINE
8
Black
10
167.444
20
-95.75
11
168.344
21
-95.75
0
LINE
8
Black
10
168.344
20
-95.75
11
168.344
21
-96.25
0
LINE
8
Black
10
199.511
20
-96.019
11
198.761
21
-96.019
0
LINE
8
Black
10
198.761
20
-96.019
11
198.761
21
-95.219
0
LINE
8
Black
10
198.761
20
-95.219
11
199.511
21
-95.219
0
LINE
8
Black
10
199.511
20
-95.219
11
199.511
21
-96.019
0
LINE
8
Black
10
191.771
20
-95.931
11
190.271
21
-95.931
0
LINE
8
Black
10
190.271
20
-95.931
11
190.271
21
-95.331
0
LINE
8
Black
10
190.271
20
-95.331
11
191.771
21
-95.331
0
LINE
8
Black
10
191.771
20
-95.331
11
191.771
21
-95.931
0
LINE
8
Black
10
194.371
20
-95.931
11
192.871
21
-95.931
0
LINE
8
Black
10
192.871
20
-95.931
11
192.871
21
-95.331
0
LINE
8
Black
10
192.871
20
-95.331
11
194.371
21
-95.331
0
LINE
8
Black
10
194.371
20
-95.331
11
194.371
21
-95.931
0
LINE
8
Black
10
181.65
20
-95.85
11
181.35
21
-95.85
0
LINE
8
Black
10
181.35
20
-95.85
11
181.35
21
-94.65
0
LINE
8
Black
10
181.35
20
-94.65
11
181.65
21
-94.65
0
LINE
8
Black
10
181.65
20
-94.65
11
181.65
21
-95.85
0
LINE
8
Black
10
184.15
20
-95.85
11
183.85
21
-95.85
0
LINE
8
Black
10
183.85
20
-95.85
11
183.85
21
-94.65
0
LINE
8
Black
10
183.85
20
-94.65
11
184.15
21
-94.65
0
LINE
8
Black
10
184.15
20
-94.65
11
184.15
21
-95.85
0
LINE
8
Black
10
183.65
20
-95.85
11
183.35
21
-95.85
0
LINE
8
Black
10
183.35
20
-95.85
11
183.35
21
-94.65
0
LINE
8
Black
10
183.35
20
-94.65
11
183.65
21
-94.65
0
LINE
8
Black
10
183.65
20
-94.65
11
183.65
21
-95.85
0
LINE
8
Black
10
182.65
20
-95.85
11
182.35
21
-95.85
0
LINE
8
Black
10
182.35
20
-95.85
11
182.35
21
-94.65
0
LINE
8
Black
10
182.35
20
-94.65
11
182.65
21
-94.65
0
LINE
8
Black
10
182.65
20
-94.65
11
182.65
21
-95.85
0
LINE
8
Black
10
182.15
20
-95.85
11
181.85
21
-95.85
0
LINE
8
Black
10
181.85
20
-95.85
11
181.85
21
-94.65
0
LINE
8
Black
10
181.85
20
-94.65
11
182.15
21
-94.65
0
LINE
8
Black
10
182.15
20
-94.65
11
182.15
21
-95.85
0
LINE
8
Black
10
178.15
20
-95.85
11
177.85
21
-95.85
0
LINE
8
Black
10
177.85
20
-95.85
11
177.85
21
-94.65
0
LINE
8
Black
10
177.85
20
-94.65
11
178.15
21
-94.65
0
LINE
8
Black
10
178.15
20
-94.65
11
178.15
21
-95.85
0
LINE
8
Black
10
175.65
20
-95.85
11
175.35
21
-95.85
0
LINE
8
Black
10
175.35
20
-95.85
11
175.35
21
-94.65
0
LINE
8
Black
10
175.35
20
-94.65
11
175.65
21
-94.65
0
LINE
8
Black
10
175.65
20
-94.65
11
175.65
21
-95.85
0
LINE
8
Black
10
183.15
20
-95.85
11
182.85
21
-95.85
0
LINE
8
Black
10
182.85
20
-95.85
11
182.85
21
-94.65
0
LINE
8
Black
10
182.85
20
-94.65
11
183.15
21
-94.65
0
LINE
8
Black
10
183.15
20
-94.65
11
183.15
21
-95.85
0
LINE
8
Black
10
181.15
20
-95.85
11
180.85
21
-95.85
0
LINE
8
Black
10
180.85
20
-95.85
11
180.85
21
-94.65
0
LINE
8
Black
10
180.85
20
-94.65
11
181.15
21
-94.65
0
LINE
8
Black
10
181.15
20
-94.65
11
181.15
21
-95.85
0
LINE
8
Black
10
180.65
20
-95.85
11
180.35
21
-95.85
0
LINE
8
Black
10
180.35
20
-95.85
11
180.35
21
-94.65
0
LINE
8
Black
10
180.35
20
-94.65
11
180.65
21
-94.65
0
LINE
8
Black
10
180.65
20
-94.65
11
180.65
21
-95.85
0
LINE
8
Black
10
180.15
20
-95.85
11
179.85
21
-95.85
0
LINE
8
Black
10
179.85
20
-95.85
11
179.85
21
-94.65
0
LINE
8
Black
10
179.85
20
-94.65
11
180.15
21
-94.65
0
LINE
8
Black
10
180.15
20
-94.65
11
180.15
21
-95.85
0
LINE
8
Black
10
179.65
20
-95.85
11
179.35
21
-95.85
0
LINE
8
Black
10
179.35
20
-95.85
11
179.35
21
-94.65
0
LINE
8
Black
10
179.35
20
-94.65
11
179.65
21
-94.65
0
LINE
8
Black
10
179.65
20
-94.65
11
179.65
21
-95.85
0
LINE
8
Black
10
176.15
20
-95.85
11
175.85
21
-95.85
0
LINE
8
Black
10
175.85
20
-95.85
11
175.85
21
-94.65
0
LINE
8
Black
10
175.85
20
-94.65
11
176.15
21
-94.65
0
LINE
8
Black
10
176.15
20
-94.65
11
176.15
21
-95.85
0
LINE
8
Black
10
179.15
20
-95.85
11
178.85
21
-95.85
0
LINE
8
Black
10
178.85
20
-95.85
11
178.85
21
-94.65
0
LINE
8
Black
10
178.85
20
-94.65
11
179.15
21
-94.65
0
LINE
8
Black
10
179.15
20
-94.65
11
179.15
21
-95.85
0
LINE
8
Black
10
178.65
20
-95.85
11
178.35
21
-95.85
0
LINE
8
Black
10
178.35
20
-95.85
11
178.35
21
-94.65
0
LINE
8
Black
10
178.35
20
-94.65
11
178.65
21
-94.65
0
LINE
8
Black
10
178.65
20
-94.65
11
178.65
21
-95.85
0
LINE
8
Black
10
187.65
20
-95.85
11
187.35
21
-95.85
0
LINE
8
Black
10
187.35
20
-95.85
11
187.35
21
-94.65
0
LINE
8
Black
10
187.35
20
-94.65
11
187.65
21
-94.65
0
LINE
8
Black
10
187.65
20
-94.65
11
187.65
21
-95.85
0
LINE
8
Black
10
176.65
20
-95.85
11
176.35
21
-95.85
0
LINE
8
Black
10
176.35
20
-95.85
11
176.35
21
-94.65
0
LINE
8
Black
10
176.35
20
-94.65
11
176.65
21
-94.65
0
LINE
8
Black
10
176.65
20
-94.65
11
176.65
21
-95.85
0
LINE
8
Black
10
177.15
20
-95.85
11
176.85
21
-95.85
0
LINE
8
Black
10
176.85
20
-95.85
11
176.85
21
-94.65
0
LINE
8
Black
10
176.85
20
-94.65
11
177.15
21
-94.65
0
LINE
8
Black
10
177.15
20
-94.65
11
177.15
21
-95.85
0
LINE
8
Black
10
177.65
20
-95.85
11
177.35
21
-95.85
0
LINE
8
Black
10
177.35
20
-95.85
11
177.35
21
-94.65
0
LINE
8
Black
10
177.35
20
-94.65
11
177.65
21
-94.65
0
LINE
8
Black
10
177.65
20
-94.65
11
177.65
21
-95.85
0
LINE
8
Black
10
187.15
20
-95.85
11
186.85
21
-95.85
0
LINE
8
Black
10
186.85
20
-95.85
11
186.85
21
-94.65
0
LINE
8
Black
10
186.85
20
-94.65
11
187.15
21
-94.65
0
LINE
8
Black
10
187.15
20
-94.65
11
187.15
21
-95.85
0
LINE
8
Black
10
186.65
20
-95.85
11
186.35
21
-95.85
0
LINE
8
Black
10
186.35
20
-95.85
11
186.35
21
-94.65
0
LINE
8
Black
10
186.35
20
-94.65
11
186.65
21
-94.65
0
LINE
8
Black
10
186.65
20
-94.65
11
186.65
21
-95.85
0
LINE
8
Black
10
186.15
20
-95.85
11
185.85
21
-95.85
0
LINE
8
Black
10
185.85
20
-95.85
11
185.85
21
-94.65
0
LINE
8
Black
10
185.85
20
-94.65
11
186.15
21
-94.65
0
LINE
8
Black
10
186.15
20
-94.65
11
186.15
21
-95.85
0
LINE
8
Black
10
185.65
20
-95.85
11
185.35
21
-95.85
0
LINE
8
Black
10
185.35
20
-95.85
11
185.35
21
-94.65
0
LINE
8
Black
10
185.35
20
-94.65
11
185.65
21
-94.65
0
LINE
8
Black
10
185.65
20
-94.65
11
185.65
21
-95.85
0
LINE
8
Black
10
185.15
20
-95.85
11
184.85
21
-95.85
0
LINE
8
Black
10
184.85
20
-95.85
11
184.85
21
-94.65
0
LINE
8
Black
10
184.85
20
-94.65
11
185.15
21
-94.65
0
LINE
8
Black
10
185.15
20
-94.65
11
185.15
21
-95.85
0
LINE
8
Black
10
184.65
20
-95.85
11
184.35
21
-95.85
0
LINE
8
Black
10
184.35
20
-95.85
11
184.35
21
-94.65
0
LINE
8
Black
10
184.35
20
-94.65
11
184.65
21
-94.65
0
LINE
8
Black
10
184.65
20
-94.65
11
184.65
21
-95.85
0
LINE
8
Black
10
171.9
20
-95.512
11
171
21
-95.512
0
LINE
8
Black
10
171
20
-95.512
11
171
21
-95.012
0
LINE
8
Black
10
171
20
-95.012
11
171.9
21
-95.012
0
LINE
8
Black
10
171.9
20
-95.012
11
171.9
21
-95.512
0
LINE
8
Black
10
168.344
20
-94.75
11
167.444
21
-94.75
0
LINE
8
Black
10
167.444
20
-94.75
11
167.444
21
-94.25
0
LINE
8
Black
10
167.444
20
-94.25
11
168.344
21
-94.25
0
LINE
8
Black
10
168.344
20
-94.25
11
168.344
21
-94.75
0
LINE
8
Black
10
194.371
20
-94.681
11
192.871
21
-94.681
0
LINE
8
Black
10
192.871
20
-94.681
11
192.871
21
-94.081
0
LINE
8
Black
10
192.871
20
-94.081
11
194.371
21
-94.081
0
LINE
8
Black
10
194.371
20
-94.081
11
194.371
21
-94.681
0
LINE
8
Black
10
191.771
20
-94.681
11
190.271
21
-94.681
0
LINE
8
Black
10
190.271
20
-94.681
11
190.271
21
-94.081
0
LINE
8
Black
10
190.271
20
-94.081
11
191.771
21
-94.081
0
LINE
8
Black
10
191.771
20
-94.081
11
191.771
21
-94.681
0
LINE
8
Black
10
199.511
20
-94.519
11
198.761
21
-94.519
0
LINE
8
Black
10
198.761
20
-94.519
11
198.761
21
-93.719
0
LINE
8
Black
10
198.761
20
-93.719
11
199.511
21
-93.719
0
LINE
8
Black
10
199.511
20
-93.719
11
199.511
21
-94.519
0
LINE
8
Black
10
194.371
20
-93.431
11
192.871
21
-93.431
0
LINE
8
Black
10
192.871
20
-93.431
11
192.871
21
-92.831
0
LINE
8
Black
10
192.871
20
-92.831
11
194.371
21
-92.831
0
LINE
8
Black
10
194.371
20
-92.831
11
194.371
21
-93.431
0
LINE
8
Black
10
191.771
20
-93.431
11
190.271
21
-93.431
0
LINE
8
Black
10
190.271
20
-93.431
11
190.271
21
-92.831
0
LINE
8
Black
10
190.271
20
-92.831
11
191.771
21
-92.831
0
LINE
8
Black
10
191.771
20
-92.831
11
191.771
21
-93.431
0
LINE
8
Black
10
172.333
20
-93.098
11
171.583
21
-93.098
0
LINE
8
Black
10
171.583
20
-93.098
11
171.583
21
-92.298
0
LINE
8
Black
10
171.583
20
-92.298
11
172.333
21
-92.298
0
LINE
8
Black
10
172.333
20
-92.298
11
172.333
21
-93.098
0
LINE
8
Black
10
199.386
20
-93.01
11
198.886
21
-93.01
0
LINE
8
Black
10
198.886
20
-93.01
11
198.886
21
-92.41
0
LINE
8
Black
10
198.886
20
-92.41
11
199.386
21
-92.41
0
LINE
8
Black
10
199.386
20
-92.41
11
199.386
21
-93.01
0
LINE
8
Black
10
158.109
20
-92.844
11
157.359
21
-92.844
0
LINE
8
Black
10
157.359
20
-92.844
11
157.359
21
-92.044
0
LINE
8
Black
10
157.359
20
-92.044
11
158.109
21
-92.044
0
LINE
8
Black
10
158.109
20
-92.044
11
158.109
21
-92.844
0
LINE
8
Black
10
202.686
20
-92.844
11
201.936
21
-92.844
0
LINE
8
Black
10
201.936
20
-92.844
11
201.936
21
-92.044
0
LINE
8
Black
10
201.936
20
-92.044
11
202.686
21
-92.044
0
LINE
8
Black
10
202.686
20
-92.044
11
202.686
21
-92.844
0
LINE
8
Black
10
201.035
20
-92.844
11
200.285
21
-92.844
0
LINE
8
Black
10
200.285
20
-92.844
11
200.285
21
-92.044
0
LINE
8
Black
10
200.285
20
-92.044
11
201.035
21
-92.044
0
LINE
8
Black
10
201.035
20
-92.044
11
201.035
21
-92.844
0
LINE
8
Black
10
175.651
20
-92.816
11
175.001
21
-92.816
0
LINE
8
Black
10
175.001
20
-92.816
11
175.001
21
-91.756
0
LINE
8
Black
10
175.001
20
-91.756
11
175.651
21
-91.756
0
LINE
8
Black
10
175.651
20
-91.756
11
175.651
21
-92.816
0
LINE
8
Black
10
177.551
20
-92.816
11
176.901
21
-92.816
0
LINE
8
Black
10
176.901
20
-92.816
11
176.901
21
-91.756
0
LINE
8
Black
10
176.901
20
-91.756
11
177.551
21
-91.756
0
LINE
8
Black
10
177.551
20
-91.756
11
177.551
21
-92.816
0
LINE
8
Black
10
176.601
20
-92.816
11
175.951
21
-92.816
0
LINE
8
Black
10
175.951
20
-92.816
11
175.951
21
-91.756
0
LINE
8
Black
10
175.951
20
-91.756
11
176.601
21
-91.756
0
LINE
8
Black
10
176.601
20
-91.756
11
176.601
21
-92.816
0
LINE
8
Black
10
170.301
20
-92.336
11
169.551
21
-92.336
0
LINE
8
Black
10
169.551
20
-92.336
11
169.551
21
-91.536
0
LINE
8
Black
10
169.551
20
-91.536
11
170.301
21
-91.536
0
LINE
8
Black
10
170.301
20
-91.536
11
170.301
21
-92.336
0
LINE
8
Black
10
168.269
20
-92.336
11
167.519
21
-92.336
0
LINE
8
Black
10
167.519
20
-92.336
11
167.519
21
-91.536
0
LINE
8
Black
10
167.519
20
-91.536
11
168.269
21
-91.536
0
LINE
8
Black
10
168.269
20
-91.536
11
168.269
21
-92.336
0
LINE
8
Black
10
194.371
20
-92.181
11
192.871
21
-92.181
0
LINE
8
Black
10
192.871
20
-92.181
11
192.871
21
-91.581
0
LINE
8
Black
10
192.871
20
-91.581
11
194.371
21
-91.581
0
LINE
8
Black
10
194.371
20
-91.581
11
194.371
21
-92.181
0
LINE
8
Black
10
191.771
20
-92.181
11
190.271
21
-92.181
0
LINE
8
Black
10
190.271
20
-92.181
11
190.271
21
-91.581
0
LINE
8
Black
10
190.271
20
-91.581
11
191.771
21
-91.581
0
LINE
8
Black
10
191.771
20
-91.581
11
191.771
21
-92.181
0
LINE
8
Black
10
199.386
20
-91.91
11
198.886
21
-91.91
0
LINE
8
Black
10
198.886
20
-91.91
11
198.886
21
-91.31
0
LINE
8
Black
10
198.886
20
-91.31
11
199.386
21
-91.31
0
LINE
8
Black
10
199.386
20
-91.31
11
199.386
21
-91.91
0
LINE
8
Black
10
172.333
20
-91.598
11
171.583
21
-91.598
0
LINE
8
Black
10
171.583
20
-91.598
11
171.583
21
-90.798
0
LINE
8
Black
10
171.583
20
-90.798
11
172.333
21
-90.798
0
LINE
8
Black
10
172.333
20
-90.798
11
172.333
21
-91.598
0
LINE
8
Black
10
207.658
20
-91.422
11
206.858
21
-91.422
0
LINE
8
Black
10
206.858
20
-91.422
11
206.858
21
-90.672
0
LINE
8
Black
10
206.858
20
-90.672
11
207.658
21
-90.672
0
LINE
8
Black
10
207.658
20
-90.672
11
207.658
21
-91.422
0
LINE
8
Black
10
206.158
20
-91.422
11
205.358
21
-91.422
0
LINE
8
Black
10
205.358
20
-91.422
11
205.358
21
-90.672
0
LINE
8
Black
10
205.358
20
-90.672
11
206.158
21
-90.672
0
LINE
8
Black
10
206.158
20
-90.672
11
206.158
21
-91.422
0
LINE
8
Black
10
201.035
20
-91.344
11
200.285
21
-91.344
0
LINE
8
Black
10
200.285
20
-91.344
11
200.285
21
-90.544
0
LINE
8
Black
10
200.285
20
-90.544
11
201.035
21
-90.544
0
LINE
8
Black
10
201.035
20
-90.544
11
201.035
21
-91.344
0
LINE
8
Black
10
158.109
20
-91.344
11
157.359
21
-91.344
0
LINE
8
Black
10
157.359
20
-91.344
11
157.359
21
-90.544
0
LINE
8
Black
10
157.359
20
-90.544
11
158.109
21
-90.544
0
LINE
8
Black
10
158.109
20
-90.544
11
158.109
21
-91.344
0
LINE
8
Black
10
202.686
20
-91.344
11
201.936
21
-91.344
0
LINE
8
Black
10
201.936
20
-91.344
11
201.936
21
-90.544
0
LINE
8
Black
10
201.936
20
-90.544
11
202.686
21
-90.544
0
LINE
8
Black
10
202.686
20
-90.544
11
202.686
21
-91.344
0
LINE
8
Black
10
168.269
20
-90.836
11
167.519
21
-90.836
0
LINE
8
Black
10
167.519
20
-90.836
11
167.519
21
-90.036
0
LINE
8
Black
10
167.519
20
-90.036
11
168.269
21
-90.036
0
LINE
8
Black
10
168.269
20
-90.036
11
168.269
21
-90.836
0
LINE
8
Black
10
170.301
20
-90.836
11
169.551
21
-90.836
0
LINE
8
Black
10
169.551
20
-90.836
11
169.551
21
-90.036
0
LINE
8
Black
10
169.551
20
-90.036
11
170.301
21
-90.036
0
LINE
8
Black
10
170.301
20
-90.036
11
170.301
21
-90.836
0
LINE
8
Black
10
198.512
20
-90.7517
11
196.712
21
-90.7517
0
LINE
8
Black
10
196.712
20
-90.7517
11
196.712
21
-88.2523
0
LINE
8
Black
10
196.712
20
-88.2523
11
198.512
21
-88.2523
0
LINE
8
Black
10
198.512
20
-88.2523
11
198.512
21
-90.7517
0
LINE
8
Black
10
177.551
20
-90.616
11
176.901
21
-90.616
0
LINE
8
Black
10
176.901
20
-90.616
11
176.901
21
-89.556
0
LINE
8
Black
10
176.901
20
-89.556
11
177.551
21
-89.556
0
LINE
8
Black
10
177.551
20
-89.556
11
177.551
21
-90.616
0
LINE
8
Black
10
175.651
20
-90.616
11
175.001
21
-90.616
0
LINE
8
Black
10
175.001
20
-90.616
11
175.001
21
-89.556
0
LINE
8
Black
10
175.001
20
-89.556
11
175.651
21
-89.556
0
LINE
8
Black
10
175.651
20
-89.556
11
175.651
21
-90.616
0
LINE
8
Black
10
176.601
20
-90.616
11
175.951
21
-90.616
0
LINE
8
Black
10
175.951
20
-90.616
11
175.951
21
-89.556
0
LINE
8
Black
10
175.951
20
-89.556
11
176.601
21
-89.556
0
LINE
8
Black
10
176.601
20
-89.556
11
176.601
21
-90.616
0
LINE
8
Black
10
201.338
20
-89.682
11
200.938
21
-89.682
0
LINE
8
Black
10
200.938
20
-89.682
11
200.938
21
-88.282
0
LINE
8
Black
10
200.938
20
-88.282
11
201.338
21
-88.282
0
LINE
8
Black
10
201.338
20
-88.282
11
201.338
21
-89.682
0
LINE
8
Black
10
200.688
20
-89.682
11
200.288
21
-89.682
0
LINE
8
Black
10
200.288
20
-89.682
11
200.288
21
-88.282
0
LINE
8
Black
10
200.288
20
-88.282
11
200.688
21
-88.282
0
LINE
8
Black
10
200.688
20
-88.282
11
200.688
21
-89.682
0
LINE
8
Black
10
201.988
20
-89.682
11
201.588
21
-89.682
0
LINE
8
Black
10
201.588
20
-89.682
11
201.588
21
-88.282
0
LINE
8
Black
10
201.588
20
-88.282
11
201.988
21
-88.282
0
LINE
8
Black
10
201.988
20
-88.282
11
201.988
21
-89.682
0
LINE
8
Black
10
202.638
20
-89.682
11
202.238
21
-89.682
0
LINE
8
Black
10
202.238
20
-89.682
11
202.238
21
-88.282
0
LINE
8
Black
10
202.238
20
-88.282
11
202.638
21
-88.282
0
LINE
8
Black
10
202.638
20
-88.282
11
202.638
21
-89.682
0
LINE
8
Black
10
207.458
20
-89.647
11
207.058
21
-89.647
0
LINE
8
Black
10
207.058
20
-89.647
11
207.058
21
-88.247
0
LINE
8
Black
10
207.058
20
-88.247
11
207.458
21
-88.247
0
LINE
8
Black
10
207.458
20
-88.247
11
207.458
21
-89.647
0
LINE
8
Black
10
206.808
20
-89.647
11
206.408
21
-89.647
0
LINE
8
Black
10
206.408
20
-89.647
11
206.408
21
-88.247
0
LINE
8
Black
10
206.408
20
-88.247
11
206.808
21
-88.247
0
LINE
8
Black
10
206.808
20
-88.247
11
206.808
21
-89.647
0
LINE
8
Black
10
205.508
20
-89.647
11
205.108
21
-89.647
0
LINE
8
Black
10
205.108
20
-89.647
11
205.108
21
-88.247
0
LINE
8
Black
10
205.108
20
-88.247
11
205.508
21
-88.247
0
LINE
8
Black
10
205.508
20
-88.247
11
205.508
21
-89.647
0
LINE
8
Black
10
206.158
20
-89.647
11
205.758
21
-89.647
0
LINE
8
Black
10
205.758
20
-89.647
11
205.758
21
-88.247
0
LINE
8
Black
10
205.758
20
-88.247
11
206.158
21
-88.247
0
LINE
8
Black
10
206.158
20
-88.247
11
206.158
21
-89.647
0
LINE
8
Black
10
171.512
20
-88.5999
11
171.012
21
-88.5999
0
LINE
8
Black
10
171.012
20
-88.5999
11
171.012
21
-86.2987
0
LINE
8
Black
10
171.012
20
-86.2987
11
171.512
21
-86.2987
0
LINE
8
Black
10
171.512
20
-86.2987
11
171.512
21
-88.5999
0
LINE
8
Black
10
170.712
20
-88.5999
11
170.212
21
-88.5999
0
LINE
8
Black
10
170.212
20
-88.5999
11
170.212
21
-86.2987
0
LINE
8
Black
10
170.212
20
-86.2987
11
170.712
21
-86.2987
0
LINE
8
Black
10
170.712
20
-86.2987
11
170.712
21
-88.5999
0
LINE
8
Black
10
169.912
20
-88.5999
11
169.412
21
-88.5999
0
LINE
8
Black
10
169.412
20
-88.5999
11
169.412
21
-86.2987
0
LINE
8
Black
10
169.412
20
-86.2987
11
169.912
21
-86.2987
0
LINE
8
Black
10
169.912
20
-86.2987
11
169.912
21
-88.5999
0
LINE
8
Black
10
166.211
20
-88.5999
11
164.212
21
-88.5999
0
LINE
8
Black
10
164.212
20
-88.5999
11
164.212
21
-86.1006
0
LINE
8
Black
10
164.212
20
-86.1006
11
166.211
21
-86.1006
0
LINE
8
Black
10
166.211
20
-86.1006
11
166.211
21
-88.5999
0
LINE
8
Black
10
169.112
20
-88.5999
11
168.612
21
-88.5999
0
LINE
8
Black
10
168.612
20
-88.5999
11
168.612
21
-86.2987
0
LINE
8
Black
10
168.612
20
-86.2987
11
169.112
21
-86.2987
0
LINE
8
Black
10
169.112
20
-86.2987
11
169.112
21
-88.5999
0
LINE
8
Black
10
168.312
20
-88.5999
11
167.812
21
-88.5999
0
LINE
8
Black
10
167.812
20
-88.5999
11
167.812
21
-86.2987
0
LINE
8
Black
10
167.812
20
-86.2987
11
168.312
21
-86.2987
0
LINE
8
Black
10
168.312
20
-86.2987
11
168.312
21
-88.5999
0
LINE
8
Black
10
175.112
20
-88.5999
11
173.113
21
-88.5999
0
LINE
8
Black
10
173.113
20
-88.5999
11
173.113
21
-86.1006
0
LINE
8
Black
10
173.113
20
-86.1006
11
175.112
21
-86.1006
0
LINE
8
Black
10
175.112
20
-86.1006
11
175.112
21
-88.5999
0
LINE
8
Black
10
160.686
20
-88.513
11
159.886
21
-88.513
0
LINE
8
Black
10
159.886
20
-88.513
11
159.886
21
-87.763
0
LINE
8
Black
10
159.886
20
-87.763
11
160.686
21
-87.763
0
LINE
8
Black
10
160.686
20
-87.763
11
160.686
21
-88.513
0
LINE
8
Black
10
162.186
20
-88.513
11
161.386
21
-88.513
0
LINE
8
Black
10
161.386
20
-88.513
11
161.386
21
-87.763
0
LINE
8
Black
10
161.386
20
-87.763
11
162.186
21
-87.763
0
LINE
8
Black
10
162.186
20
-87.763
11
162.186
21
-88.513
0
LINE
8
Black
10
162.598
20
-86.758
11
160.998
21
-86.758
0
LINE
8
Black
10
160.998
20
-86.758
11
160.998
21
-84.758
0
LINE
8
Black
10
160.998
20
-84.758
11
162.598
21
-84.758
0
LINE
8
Black
10
162.598
20
-84.758
11
162.598
21
-86.758
0
LINE
8
Black
10
198.512
20
-86.7537
11
196.712
21
-86.7537
0
LINE
8
Black
10
196.712
20
-86.7537
11
196.712
21
-84.2543
0
LINE
8
Black
10
196.712
20
-84.2543
11
198.512
21
-84.2543
0
LINE
8
Black
10
198.512
20
-84.2543
11
198.512
21
-86.7537
0
LINE
8
Black
10
177.988
20
-86.074
11
176.088
21
-86.074
0
LINE
8
Black
10
176.088
20
-86.074
11
176.088
21
-85.074
0
LINE
8
Black
10
176.088
20
-85.074
11
177.988
21
-85.074
0
LINE
8
Black
10
177.988
20
-85.074
11
177.988
21
-86.074
0
LINE
8
Black
10
201.988
20
-85.282
11
201.588
21
-85.282
0
LINE
8
Black
10
201.588
20
-85.282
11
201.588
21
-83.882
0
LINE
8
Black
10
201.588
20
-83.882
11
201.988
21
-83.882
0
LINE
8
Black
10
201.988
20
-83.882
11
201.988
21
-85.282
0
LINE
8
Black
10
201.338
20
-85.282
11
200.938
21
-85.282
0
LINE
8
Black
10
200.938
20
-85.282
11
200.938
21
-83.882
0
LINE
8
Black
10
200.938
20
-83.882
11
201.338
21
-83.882
0
LINE
8
Black
10
201.338
20
-83.882
11
201.338
21
-85.282
0
LINE
8
Black
10
200.688
20
-85.282
11
200.288
21
-85.282
0
LINE
8
Black
10
200.288
20
-85.282
11
200.288
21
-83.882
0
LINE
8
Black
10
200.288
20
-83.882
11
200.688
21
-83.882
0
LINE
8
Black
10
200.688
20
-83.882
11
200.688
21
-85.282
0
LINE
8
Black
10
202.638
20
-85.282
11
202.238
21
-85.282
0
LINE
8
Black
10
202.238
20
-85.282
11
202.238
21
-83.882
0
LINE
8
Black
10
202.238
20
-83.882
11
202.638
21
-83.882
0
LINE
8
Black
10
202.638
20
-83.882
11
202.638
21
-85.282
0
LINE
8
Black
10
206.158
20
-85.247
11
205.758
21
-85.247
0
LINE
8
Black
10
205.758
20
-85.247
11
205.758
21
-83.847
0
LINE
8
Black
10
205.758
20
-83.847
11
206.158
21
-83.847
0
LINE
8
Black
10
206.158
20
-83.847
11
206.158
21
-85.247
0
LINE
8
Black
10
206.808
20
-85.247
11
206.408
21
-85.247
0
LINE
8
Black
10
206.408
20
-85.247
11
206.408
21
-83.847
0
LINE
8
Black
10
206.408
20
-83.847
11
206.808
21
-83.847
0
LINE
8
Black
10
206.808
20
-83.847
11
206.808
21
-85.247
0
LINE
8
Black
10
205.508
20
-85.247
11
205.108
21
-85.247
0
LINE
8
Black
10
205.108
20
-85.247
11
205.108
21
-83.847
0
LINE
8
Black
10
205.108
20
-83.847
11
205.508
21
-83.847
0
LINE
8
Black
10
205.508
20
-83.847
11
205.508
21
-85.247
0
LINE
8
Black
10
207.458
20
-85.247
11
207.058
21
-85.247
0
LINE
8
Black
10
207.058
20
-85.247
11
207.058
21
-83.847
0
LINE
8
Black
10
207.058
20
-83.847
11
207.458
21
-83.847
0
LINE
8
Black
10
207.458
20
-83.847
11
207.458
21
-85.247
0
LINE
8
Black
10
166.211
20
-83.1008
11
164.212
21
-83.1008
0
LINE
8
Black
10
164.212
20
-83.1008
11
164.212
21
-80.6015
0
LINE
8
Black
10
164.212
20
-80.6015
11
166.211
21
-80.6015
0
LINE
8
Black
10
166.211
20
-80.6015
11
166.211
21
-83.1008
0
LINE
8
Black
10
175.112
20
-83.1008
11
173.113
21
-83.1008
0
LINE
8
Black
10
173.113
20
-83.1008
11
173.113
21
-80.6015
0
LINE
8
Black
10
173.113
20
-80.6015
11
175.112
21
-80.6015
0
LINE
8
Black
10
175.112
20
-80.6015
11
175.112
21
-83.1008
0
LINE
8
Black
10
177.988
20
-83.074
11
176.088
21
-83.074
0
LINE
8
Black
10
176.088
20
-83.074
11
176.088
21
-82.074
0
LINE
8
Black
10
176.088
20
-82.074
11
177.988
21
-82.074
0
LINE
8
Black
10
177.988
20
-82.074
11
177.988
21
-83.074
0
LINE
8
Black
10
207.398
20
-82.925
11
206.598
21
-82.925
0
LINE
8
Black
10
206.598
20
-82.925
11
206.598
21
-82.175
0
LINE
8
Black
10
206.598
20
-82.175
11
207.398
21
-82.175
0
LINE
8
Black
10
207.398
20
-82.175
11
207.398
21
-82.925
0
LINE
8
Black
10
201.072
20
-82.925
11
200.272
21
-82.925
0
LINE
8
Black
10
200.272
20
-82.925
11
200.272
21
-82.175
0
LINE
8
Black
10
200.272
20
-82.175
11
201.072
21
-82.175
0
LINE
8
Black
10
201.072
20
-82.175
11
201.072
21
-82.925
0
LINE
8
Black
10
205.898
20
-82.925
11
205.098
21
-82.925
0
LINE
8
Black
10
205.098
20
-82.925
11
205.098
21
-82.175
0
LINE
8
Black
10
205.098
20
-82.175
11
205.898
21
-82.175
0
LINE
8
Black
10
205.898
20
-82.175
11
205.898
21
-82.925
0
LINE
8
Black
10
202.572
20
-82.925
11
201.772
21
-82.925
0
LINE
8
Black
10
201.772
20
-82.925
11
201.772
21
-82.175
0
LINE
8
Black
10
201.772
20
-82.175
11
202.572
21
-82.175
0
LINE
8
Black
10
202.572
20
-82.175
11
202.572
21
-82.925
0
LINE
8
Black
10
162.598
20
-81.358
11
160.998
21
-81.358
0
LINE
8
Black
10
160.998
20
-81.358
11
160.998
21
-79.358
0
LINE
8
Black
10
160.998
20
-79.358
11
162.598
21
-79.358
0
LINE
8
Black
10
162.598
20
-79.358
11
162.598
21
-81.358
0
LINE
8
Black
10
201.072
20
-80.893
11
200.272
21
-80.893
0
LINE
8
Black
10
200.272
20
-80.893
11
200.272
21
-80.143
0
LINE
8
Black
10
200.272
20
-80.143
11
201.072
21
-80.143
0
LINE
8
Black
10
201.072
20
-80.143
11
201.072
21
-80.893
0
LINE
8
Black
10
205.898
20
-80.893
11
205.098
21
-80.893
0
LINE
8
Black
10
205.098
20
-80.893
11
205.098
21
-80.143
0
LINE
8
Black
10
205.098
20
-80.143
11
205.898
21
-80.143
0
LINE
8
Black
10
205.898
20
-80.143
11
205.898
21
-80.893
0
LINE
8
Black
10
202.572
20
-80.893
11
201.772
21
-80.893
0
LINE
8
Black
10
201.772
20
-80.893
11
201.772
21
-80.143
0
LINE
8
Black
10
201.772
20
-80.143
11
202.572
21
-80.143
0
LINE
8
Black
10
202.572
20
-80.143
11
202.572
21
-80.893
0
LINE
8
Black
10
207.398
20
-80.893
11
206.598
21
-80.893
0
LINE
8
Black
10
206.598
20
-80.893
11
206.598
21
-80.143
0
LINE
8
Black
10
206.598
20
-80.143
11
207.398
21
-80.143
0
LINE
8
Black
10
207.398
20
-80.143
11
207.398
21
-80.893
  0
ENDSEC
  0
EOF
