G04 #@! TF.FileFunction,Soldermask,Bot*
%FSLAX46Y46*%
G04 Gerber Fmt 4.6, Leading zero omitted, Abs format (unit mm)*
G04 Created by KiCad (PCBNEW 4.0.1-stable) date 20/01/2016 23:37:10*
%MOMM*%
G01*
G04 APERTURE LIST*
%ADD10C,0.100000*%
%ADD11C,1.600200*%
%ADD12C,2.565400*%
%ADD13C,1.500000*%
%ADD14C,1.100000*%
%ADD15C,1.016000*%
%ADD16C,0.899160*%
%ADD17R,2.032000X1.727200*%
%ADD18O,2.032000X1.727200*%
%ADD19R,1.727200X1.727200*%
%ADD20O,1.727200X1.727200*%
%ADD21C,6.300000*%
%ADD22C,0.600000*%
G04 APERTURE END LIST*
D10*
D11*
X222559891Y-115849998D03*
X222559891Y-115849998D03*
X214559907Y-89150024D03*
X214559907Y-89150024D03*
D12*
X226559883Y-116350124D03*
X226559883Y-116350124D03*
X210559915Y-116350124D03*
X210559915Y-116350124D03*
X226560899Y-88649898D03*
X226560899Y-88649898D03*
X210558899Y-88649898D03*
X210558899Y-88649898D03*
X218559899Y-88637198D03*
X218559899Y-88637198D03*
X218559899Y-116362824D03*
X218559899Y-116362824D03*
D13*
X180594000Y-87376000D03*
X182594000Y-87376000D03*
X184594000Y-87376000D03*
X186594000Y-87376000D03*
D14*
X179094000Y-85276000D03*
X188094000Y-85276000D03*
D15*
X160528000Y-91186000D03*
X161798000Y-91186000D03*
X160528000Y-92456000D03*
X161798000Y-92456000D03*
X160528000Y-93726000D03*
X161798000Y-93726000D03*
X160528000Y-94996000D03*
X161798000Y-94996000D03*
X160528000Y-96266000D03*
X161798000Y-96266000D03*
D13*
X198120000Y-118872000D03*
X196120000Y-118872000D03*
X194120000Y-118872000D03*
X192120000Y-118872000D03*
D14*
X199620000Y-120972000D03*
X190620000Y-120972000D03*
D16*
X171861640Y-84850900D03*
X167462360Y-84850900D03*
D13*
X170942000Y-117658000D03*
X170942000Y-124658000D03*
X191262000Y-87376000D03*
X193262000Y-87376000D03*
D14*
X189762000Y-85276000D03*
X194762000Y-85276000D03*
D17*
X156718000Y-124206000D03*
D18*
X156718000Y-121666000D03*
X156718000Y-119126000D03*
X156718000Y-116586000D03*
D19*
X162814000Y-124206000D03*
D20*
X160274000Y-124206000D03*
X162814000Y-121666000D03*
X160274000Y-121666000D03*
X162814000Y-119126000D03*
X160274000Y-119126000D03*
X162814000Y-116586000D03*
X160274000Y-116586000D03*
D21*
X220250000Y-82750000D03*
D22*
X220250000Y-80250000D03*
X222750000Y-82750000D03*
X220250000Y-85250000D03*
X217750000Y-82750000D03*
X218450000Y-80950000D03*
X222050000Y-80950000D03*
X218450000Y-84550000D03*
X222050000Y-84550000D03*
D21*
X156000000Y-82750000D03*
D22*
X156000000Y-80250000D03*
X158500000Y-82750000D03*
X156000000Y-85250000D03*
X153500000Y-82750000D03*
X154200000Y-80950000D03*
X157800000Y-80950000D03*
X154200000Y-84550000D03*
X157800000Y-84550000D03*
M02*
