M48
;DRILL file {KiCad 4.0.1-stable} date 20/01/2016 23:37:09
;FORMAT={-:-/ absolute / inch / decimal}
FMAT,2
INCH,TZ
T1C0.016
T2C0.025
T3C0.028
T4C0.031
T5C0.040
T6C0.063
T7C0.098
%
G90
G05
M72
T1
X6.07Y-4.035
X6.085Y-3.89
X6.24Y-4.07
X6.2697Y-3.1398
X6.29Y-3.515
X6.295Y-3.945
X6.32Y-3.905
X6.41Y-4.03
X6.46Y-3.945
X6.48Y-3.63
X6.48Y-3.73
X6.53Y-3.905
X6.57Y-3.67
X6.61Y-3.84
X6.65Y-3.52
X6.66Y-3.75
X6.66Y-3.84
X6.66Y-4.03
X6.695Y-3.675
X6.7Y-4.32
X6.704Y-3.91
X6.77Y-4.55
X6.78Y-4.01
X6.78Y-4.32
X6.9Y-4.25
X6.905Y-4.01
X6.96Y-3.805
X7.0669Y-4.4291
X7.0669Y-4.4882
X7.165Y-4.74
X7.2Y-4.83
X7.2244Y-4.4882
X7.225Y-4.3
X7.3475Y-4.3
X7.36Y-3.65
X7.4025Y-4.2825
X7.41Y-3.7
X7.42Y-4.365
X7.44Y-5.
X7.45Y-3.62
X7.45Y-3.75
X7.46Y-4.47
X7.565Y-4.335
X7.625Y-4.1825
X7.63Y-4.04
X7.63Y-4.1
X7.63Y-4.3
X7.6425Y-4.2625
X7.645Y-4.625
X7.66Y-3.93
X7.66Y-4.01
X7.66Y-4.07
X7.68Y-3.69
X7.71Y-4.285
X7.7375Y-4.5025
X7.77Y-4.31
X7.8Y-4.75
X7.805Y-3.675
X7.805Y-4.585
X7.805Y-4.625
X7.83Y-4.47
X7.84Y-3.26
X7.875Y-4.68
X7.88Y-3.8
X7.885Y-4.585
X7.89Y-4.01
X7.89Y-4.07
X7.92Y-4.04
X7.92Y-4.1
X7.94Y-4.67
X7.94Y-4.75
X7.945Y-3.73
X7.965Y-3.685
X8.03Y-3.285
X8.09Y-4.95
T2
X6.32Y-3.59
X6.32Y-3.64
X6.32Y-3.69
X6.32Y-3.74
X6.32Y-3.79
X6.37Y-3.59
X6.37Y-3.64
X6.37Y-3.69
X6.37Y-3.74
X6.37Y-3.79
T3
X7.11Y-3.44
X7.1887Y-3.44
X7.2675Y-3.44
X7.3462Y-3.44
X7.53Y-3.44
X7.5638Y-4.68
X7.6087Y-3.44
X7.6425Y-4.68
X7.7213Y-4.68
X7.8Y-4.68
T4
X6.73Y-4.6322
X6.73Y-4.9078
T5
X6.17Y-4.59
X6.17Y-4.69
X6.17Y-4.79
X6.17Y-4.89
X6.31Y-4.59
X6.31Y-4.69
X6.31Y-4.79
X6.31Y-4.89
X6.41Y-4.59
X6.41Y-4.69
X6.41Y-4.79
X6.41Y-4.89
T6
X8.7622Y-4.561
X8.7622Y-4.561
T7
X8.2897Y-3.4902
X8.2897Y-3.4902
X8.2898Y-4.5807
X8.2898Y-4.5807
X8.4472Y-3.5098
X8.4472Y-3.5098
X8.6047Y-3.4897
X8.6047Y-3.4897
X8.6047Y-4.5812
X8.6047Y-4.5812
X8.9197Y-4.5807
X8.9197Y-4.5807
X8.9197Y-3.4902
X8.9197Y-3.4902
T0
M30
